<?xml version="1.0" encoding="utf-8"?>
<!-- Generator: Adobe Illustrator 18.1.1, SVG Export Plug-In . SVG Version: 6.00 Build 0)  -->
<svg version="1.1" xmlns="http://www.w3.org/2000/svg" xmlns:xlink="http://www.w3.org/1999/xlink" x="0px" y="0px"
	 viewBox="0 0 47.5 67.2" enable-background="new 0 0 47.5 67.2" xml:space="preserve">
<g id="Capa_1">
	<g>
		<path fill="#C1BFB1" d="M28.7,27.1c1.7-2.4,2.5-4.6,2.5-6.8c0-2.2-0.7-4-2.2-5.5c-1.4-1.5-3.3-2.2-5.5-2.2
			c-4.1,0-8.1,2.9-11.8,8.8L0,14.5C3.1,9.7,6.4,6.1,10.1,3.7S18.4,0,24.1,0c5.7,0,10.7,1.8,14.9,5.4c4.3,3.6,6.4,8.5,6.4,14.7
			c0,3.4-0.9,6.6-2.6,9.7c-1.7,3.1-4.9,7.1-9.5,11.9L21.5,54h25.9v13.2H1.1V56.3l19.3-19.7C24.3,32.6,27.1,29.5,28.7,27.1z"/>
	</g>
</g>
<g id="Capa_2" display="none">
</g>
</svg>
