<?xml version="1.0" encoding="utf-8"?>
<!-- Generator: Adobe Illustrator 18.1.1, SVG Export Plug-In . SVG Version: 6.00 Build 0)  -->
<svg version="1.1" xmlns="http://www.w3.org/2000/svg" xmlns:xlink="http://www.w3.org/1999/xlink" x="0px" y="0px"
	 viewBox="0 0 248.5 248.5" enable-background="new 0 0 248.5 248.5" xml:space="preserve">
<g id="Capa_1">
	<g>
		<rect x="0" y="0" fill="#DDCDB0" width="248.5" height="248.5"/>
		<g>
			<g>
				<path fill="#5E615C" d="M164.9,121.8l13.2-23c0.4-0.6,0.4-1.4,0-2l-15.1-26.1c-0.4-0.6-1-1-1.7-1h-30.1c-0.7,0-1.4,0.4-1.7,1
					l-13.5,23.4c-0.4,0.6-1,1-1.7,1H86.6c-0.7,0-1.4,0.4-1.7,1l-15.1,26.1c-0.4,0.6-0.4,1.4,0,2l15.1,26.1c0.4,0.6,1,1,1.7,1h28.1
					c0.7,0,1.4,0.4,1.7,1l13.5,23.4c0.4,0.6,1,1,1.7,1h30.1c0.7,0,1.4-0.4,1.7-1l15.1-26.1c0.4-0.6,0.4-1.4,0-2l-13.8-23.9
					C164.5,123.2,164.5,122.5,164.9,121.8z M134.3,75.1h23.9c0.7,0,1.4,0.4,1.7,1l12,20.7c0.4,0.6,0.4,1.4,0,2l-12,20.7
					c-0.4,0.6-1,1-1.7,1h-23.9c-0.7,0-1.4-0.4-1.7-1l-12-20.7c-0.4-0.6-0.4-1.4,0-2l12-20.7C132.9,75.5,133.6,75.1,134.3,75.1z
					 M113.7,146H89.7c-0.7,0-1.4-0.4-1.7-1l-12-20.7c-0.4-0.6-0.4-1.4,0-2l12-20.7c0.4-0.6,1-1,1.7-1h23.9c0.7,0,1.4,0.4,1.7,1
					l12,20.7c0.4,0.6,0.4,1.4,0,2l-12,20.7C115,145.7,114.4,146,113.7,146z M158.8,171.5h-23.9c-0.7,0-1.4-0.4-1.7-1l-12-20.7
					c-0.4-0.6-0.4-1.4,0-2l12-20.7c0.4-0.6,1-1,1.7-1h23.9c0.7,0,1.4,0.4,1.7,1l12,20.7c0.4,0.6,0.4,1.4,0,2l-12,20.7
					C160.1,171.1,159.5,171.5,158.8,171.5z"/>
				<path fill="#5E615C" d="M89.9,106.2l-9.3,16.2c-0.3,0.6-0.4,1.3,0,1.9l8.8,16.7c0.5,1,1.7,1.4,2.7,0.8l0,0
					c1-0.5,1.4-1.7,0.8-2.7l-7.8-14.7c-0.3-0.6-0.3-1.3,0-1.9l8.2-14.2c0.6-1,0.2-2.2-0.7-2.7l0,0C91.7,104.9,90.4,105.2,89.9,106.2
					z"/>
				<path fill="#5E615C" d="M166.9,97.6L166.9,97.6c0.9-0.6,1.2-1.8,0.6-2.8L157,78.4c-0.4-0.6-1-0.9-1.7-0.9h-17.9
					c-1.1,0-2,0.9-2,2v0c0,1.1,0.9,2,2,2h15.7c0.7,0,1.3,0.3,1.7,0.9l9.4,14.6C164.7,97.9,166,98.2,166.9,97.6z"/>
				<path fill="#5E615C" d="M157.1,130.7L157.1,130.7c-1,0.5-1.3,1.7-0.8,2.7l7.8,14.6c0.3,0.6,0.3,1.4,0,2l-7.7,13.1
					c-0.6,1-0.2,2.2,0.7,2.7l0,0c1,0.6,2.2,0.2,2.8-0.7l8.8-15c0.4-0.6,0.4-1.3,0-2l-8.9-16.6C159.3,130.5,158.1,130.1,157.1,130.7z
					"/>
			</g>
		</g>
	</g>
</g>
<g id="Capa_2">
</g>
</svg>
