<?xml version="1.0" encoding="utf-8"?>
<!-- Generator: Adobe Illustrator 18.1.1, SVG Export Plug-In . SVG Version: 6.00 Build 0)  -->
<svg version="1.1" xmlns="http://www.w3.org/2000/svg" xmlns:xlink="http://www.w3.org/1999/xlink" x="0px" y="0px"
	 viewBox="0 0 145 89.5" enable-background="new 0 0 145 89.5" xml:space="preserve">
<g id="Capa_1">
	<g>
		<polygon fill-rule="evenodd" clip-rule="evenodd" points="0.7,88.6 9.5,88.6 10.5,85.8 10.1,86.1 9.6,86.3 9.1,86.5 8.6,86.7 
			8.1,86.8 7.6,86.9 7.1,87 6.5,87 6,87 5.3,86.9 4.6,86.9 3.8,86.7 3.8,81.5 5.1,81.5 5.9,81.5 6.5,81.6 6.8,81.7 7,81.8 7.2,81.9 
			7.4,82.1 7.4,79.9 3.8,79.9 3.8,75.9 4.4,75.7 5,75.6 5.5,75.6 6,75.5 6.4,75.5 6.8,75.6 7.1,75.6 7.5,75.7 7.6,75.8 7.8,75.9 
			8.1,76 8.4,76.2 8.6,76.4 8.6,74.1 0.7,74.1 0.9,74.3 1.1,74.6 1.2,74.8 1.3,74.9 1.4,75.2 1.5,75.5 1.5,75.9 1.5,76.3 1.5,76.6 
			1.5,86.1 1.5,86.5 1.5,86.8 1.5,87.2 1.4,87.5 1.3,87.8 1.1,88.1 0.9,88.4 		"/>
		<rect x="0.7" y="88.3" width="8.8" height="0.7"/>
		<polygon fill-rule="evenodd" clip-rule="evenodd" points="9.2,88.5 9.8,88.8 10.8,85.9 10.2,85.7 		"/>
		<polygon fill-rule="evenodd" clip-rule="evenodd" points="9.5,89 9.8,89 9.8,88.8 9.2,88.5 9.5,88.3 		"/>
		<polygon fill-rule="evenodd" clip-rule="evenodd" points="10.7,86.1 9.7,86.6 8.7,87 8.4,86.4 9.4,86.1 10.3,85.5 		"/>
		<polygon fill-rule="evenodd" clip-rule="evenodd" points="10.8,85.9 11.1,85.1 10.3,85.5 10.7,86.1 10.2,85.7 		"/>
		<polygon fill-rule="evenodd" clip-rule="evenodd" points="8.7,87 7.6,87.3 6.5,87.3 6.4,86.7 7.5,86.6 8.5,86.4 		"/>
		<polygon fill-rule="evenodd" clip-rule="evenodd" points="8.7,87 8.7,87 8.5,86.4 8.4,86.4 		"/>
		<polygon fill-rule="evenodd" clip-rule="evenodd" points="6.5,87.3 5.3,87.3 5.3,86.6 6.5,86.7 		"/>
		<polygon fill-rule="evenodd" clip-rule="evenodd" points="6.5,87.3 6.5,87.3 6.5,86.7 6.4,86.7 		"/>
		<polygon fill-rule="evenodd" clip-rule="evenodd" points="5.3,87.3 3.8,87.1 3.9,86.4 5.4,86.6 		"/>
		<polygon fill-rule="evenodd" clip-rule="evenodd" points="5.3,87.3 5.3,87.3 5.4,86.6 5.3,86.6 		"/>
		<rect x="3.5" y="81.5" width="0.7" height="5.2"/>
		<polygon fill-rule="evenodd" clip-rule="evenodd" points="3.8,87.1 3.5,87.1 3.5,86.7 4.2,86.7 3.9,86.4 		"/>
		<rect x="3.8" y="81.2" width="1.3" height="0.7"/>
		<polygon fill-rule="evenodd" clip-rule="evenodd" points="3.5,81.5 3.5,81.2 3.8,81.2 3.8,81.9 4.2,81.5 		"/>
		<polygon fill-rule="evenodd" clip-rule="evenodd" points="5.1,81.2 6.5,81.3 6.4,81.9 5.1,81.9 		"/>
		<polygon fill-rule="evenodd" clip-rule="evenodd" points="5.1,81.2 5.1,81.9 5.1,81.9 		"/>
		<polygon fill-rule="evenodd" clip-rule="evenodd" points="6.6,81.3 7.1,81.5 7.5,81.7 7.2,82.3 6.9,82.1 6.3,81.9 		"/>
		<polygon fill-rule="evenodd" clip-rule="evenodd" points="6.5,81.3 6.6,81.3 6.3,81.9 6.4,81.9 		"/>
		<rect x="7.1" y="79.9" width="0.7" height="2.1"/>
		<polygon fill-rule="evenodd" clip-rule="evenodd" points="7.2,82.3 7.7,82.6 7.7,82 7.1,82 7.5,81.7 		"/>
		<rect x="3.8" y="79.6" width="3.5" height="0.7"/>
		<polygon fill-rule="evenodd" clip-rule="evenodd" points="7.7,79.9 7.7,79.6 7.4,79.6 7.4,80.3 7.1,79.9 		"/>
		<rect x="3.5" y="75.9" width="0.7" height="4.1"/>
		<polygon fill-rule="evenodd" clip-rule="evenodd" points="3.8,80.3 3.5,80.3 3.5,79.9 4.2,79.9 3.8,79.6 		"/>
		<polygon fill-rule="evenodd" clip-rule="evenodd" points="3.8,75.5 4.9,75.3 5,76 3.9,76.2 		"/>
		<polygon fill-rule="evenodd" clip-rule="evenodd" points="3.5,75.9 3.5,75.6 3.8,75.5 3.9,76.2 4.2,75.9 		"/>
		<polygon fill-rule="evenodd" clip-rule="evenodd" points="5,75.3 6,75.2 6,75.9 5,76 		"/>
		<polygon fill-rule="evenodd" clip-rule="evenodd" points="4.9,75.3 5,75.3 5,76 5,76 		"/>
		<polygon fill-rule="evenodd" clip-rule="evenodd" points="6,75.2 6.8,75.3 7.5,75.4 7.4,76.1 6.7,76 5.9,75.9 		"/>
		<polygon fill-rule="evenodd" clip-rule="evenodd" points="6,75.2 5.9,75.9 6,75.9 		"/>
		<polygon fill-rule="evenodd" clip-rule="evenodd" points="7.6,75.4 8.2,75.7 8.7,76.1 8.5,76.7 7.9,76.3 7.3,76.1 		"/>
		<polygon fill-rule="evenodd" clip-rule="evenodd" points="7.5,75.4 7.6,75.4 7.3,76.1 7.4,76.1 		"/>
		<rect x="8.3" y="74.1" width="0.7" height="2.3"/>
		<polygon fill-rule="evenodd" clip-rule="evenodd" points="8.5,76.7 9,76.9 9,76.4 8.3,76.4 8.7,76.1 		"/>
		<rect x="0.7" y="73.8" width="8" height="0.7"/>
		<polygon fill-rule="evenodd" clip-rule="evenodd" points="9,74.1 9,73.8 8.6,73.8 8.6,74.4 8.3,74.1 		"/>
		<polygon fill-rule="evenodd" clip-rule="evenodd" points="0.9,73.9 1.4,74.5 1.6,75 1.1,75.4 0.8,74.8 0.4,74.3 		"/>
		<polygon fill-rule="evenodd" clip-rule="evenodd" points="0.7,73.8 0,73.8 0.4,74.3 0.9,73.9 0.7,74.4 		"/>
		<polygon fill-rule="evenodd" clip-rule="evenodd" points="1.7,75.1 1.8,75.9 1.8,76.6 1.2,76.7 1.1,75.9 1,75.2 		"/>
		<polygon fill-rule="evenodd" clip-rule="evenodd" points="1.6,75 1.7,75.1 1.7,75.1 1,75.2 1.1,75.4 		"/>
		<rect x="1.2" y="76.6" width="0.7" height="9.5"/>
		<polygon fill-rule="evenodd" clip-rule="evenodd" points="1.8,76.6 1.9,76.6 1.2,76.6 1.2,76.7 		"/>
		<polygon fill-rule="evenodd" clip-rule="evenodd" points="1.8,86.1 1.8,86.8 1.7,87.5 1,87.5 1.1,86.8 1.2,86.1 		"/>
		<polygon fill-rule="evenodd" clip-rule="evenodd" points="1.9,86.1 1.8,86.1 1.2,86.1 1.2,86.1 		"/>
		<polygon fill-rule="evenodd" clip-rule="evenodd" points="1.7,87.7 1.4,88.3 0.9,88.8 0.4,88.5 0.8,87.9 1.1,87.4 		"/>
		<polygon fill-rule="evenodd" clip-rule="evenodd" points="1.7,87.5 1.7,87.7 1.7,87.7 1.1,87.4 1,87.5 		"/>
		<polygon fill-rule="evenodd" clip-rule="evenodd" points="0.4,88.5 0.1,89 0.7,89 0.7,88.3 0.9,88.8 		"/>
		<polygon fill-rule="evenodd" clip-rule="evenodd" points="13.1,88.6 21.9,88.6 23,85.8 22.5,86.1 22,86.3 21.5,86.5 21,86.7 
			20.5,86.8 19.9,86.9 19.4,87 18.9,87 18.4,87 17.7,86.9 17,86.9 16.2,86.7 16.2,76.6 16.2,76.3 16.2,75.9 16.3,75.5 16.4,75.2 
			16.5,74.9 16.6,74.6 16.8,74.3 17.1,74.1 13.1,74.1 13.3,74.3 13.6,74.6 13.6,74.7 13.7,74.9 13.8,75.2 13.9,75.5 13.9,75.9 
			13.9,76.3 13.9,76.6 13.9,86.1 13.9,86.5 13.9,86.8 13.9,87.2 13.8,87.5 13.7,87.8 13.6,88.1 13.3,88.4 		"/>
		<rect x="13" y="88.3" width="8.9" height="0.7"/>
		<polygon fill-rule="evenodd" clip-rule="evenodd" points="21.6,88.5 22.2,88.8 23.2,85.9 22.6,85.7 		"/>
		<polygon fill-rule="evenodd" clip-rule="evenodd" points="21.9,89 22.2,89 22.2,88.8 21.6,88.5 21.9,88.3 		"/>
		<polygon fill-rule="evenodd" clip-rule="evenodd" points="23.1,86.1 22.1,86.6 21.1,87 20.8,86.4 21.8,86.1 22.7,85.5 		"/>
		<polygon fill-rule="evenodd" clip-rule="evenodd" points="23.2,85.9 23.5,85.1 22.7,85.5 23.1,86.1 22.6,85.7 		"/>
		<polygon fill-rule="evenodd" clip-rule="evenodd" points="21.1,87 20,87.3 18.9,87.3 18.8,86.7 19.8,86.6 20.9,86.4 		"/>
		<polygon fill-rule="evenodd" clip-rule="evenodd" points="21.1,87 21.1,87 20.9,86.4 20.8,86.4 		"/>
		<polygon fill-rule="evenodd" clip-rule="evenodd" points="18.9,87.3 17.7,87.3 16.2,87.1 16.3,86.4 17.8,86.6 18.9,86.7 		"/>
		<polygon fill-rule="evenodd" clip-rule="evenodd" points="18.9,87.3 18.9,87.3 18.9,86.7 18.8,86.7 		"/>
		<rect x="15.9" y="76.6" width="0.7" height="10.1"/>
		<polygon fill-rule="evenodd" clip-rule="evenodd" points="16.2,87.1 15.9,87.1 15.9,86.7 16.6,86.7 16.3,86.4 		"/>
		<polygon fill-rule="evenodd" clip-rule="evenodd" points="15.9,76.6 15.9,75.8 16,75.1 16.6,75.2 16.5,75.9 16.5,76.6 		"/>
		<polygon fill-rule="evenodd" clip-rule="evenodd" points="15.9,76.6 16.5,76.6 16.6,76.6 		"/>
		<polygon fill-rule="evenodd" clip-rule="evenodd" points="16,75 16.3,74.5 16.6,74.1 16.8,73.8 17.3,74.3 17,74.6 16.8,74.8 
			16.6,75.3 		"/>
		<polygon fill-rule="evenodd" clip-rule="evenodd" points="16,75.1 16,75 16,75 16.6,75.3 16.6,75.2 		"/>
		<rect x="13" y="73.8" width="4" height="0.7"/>
		<polygon fill-rule="evenodd" clip-rule="evenodd" points="17.3,74.3 17.8,73.8 17.1,73.8 17.1,74.4 16.8,73.8 		"/>
		<polygon fill-rule="evenodd" clip-rule="evenodd" points="13.3,73.9 13.8,74.5 14.1,75 13.5,75.4 13.2,74.8 12.8,74.3 		"/>
		<polygon fill-rule="evenodd" clip-rule="evenodd" points="13,73.8 12.4,73.8 12.8,74.3 13.3,73.9 13,74.4 		"/>
		<polygon fill-rule="evenodd" clip-rule="evenodd" points="14.1,75.1 14.2,75.9 14.2,76.6 13.6,76.7 13.6,75.9 13.5,75.2 		"/>
		<polygon fill-rule="evenodd" clip-rule="evenodd" points="14.1,75 14.1,75.1 14.1,75.1 13.5,75.2 13.5,75.4 		"/>
		<rect x="13.6" y="76.6" width="0.7" height="9.5"/>
		<polygon fill-rule="evenodd" clip-rule="evenodd" points="14.2,76.6 14.3,76.6 13.6,76.6 13.6,76.7 		"/>
		<polygon fill-rule="evenodd" clip-rule="evenodd" points="14.2,86.1 14.2,86.8 14.1,87.5 13.5,87.5 13.6,86.8 13.6,86.1 		"/>
		<polygon fill-rule="evenodd" clip-rule="evenodd" points="14.3,86.1 14.2,86.1 13.6,86.1 13.6,86.1 		"/>
		<polygon fill-rule="evenodd" clip-rule="evenodd" points="14.1,87.7 13.8,88.3 13.3,88.8 12.7,88.5 13.2,87.9 13.5,87.4 		"/>
		<polygon fill-rule="evenodd" clip-rule="evenodd" points="14.1,87.5 14.1,87.7 14.1,87.7 13.5,87.4 13.5,87.5 		"/>
		<polygon fill-rule="evenodd" clip-rule="evenodd" points="12.7,88.5 12.4,89 13,89 13,88.3 13.3,88.8 		"/>
		<polygon fill-rule="evenodd" clip-rule="evenodd" points="38.3,89 44.2,74.1 40.9,74.1 41.2,74.5 41.4,74.8 41.5,75 41.5,75.2 
			41.6,75.3 41.6,75.5 41.6,75.9 41.5,76.3 41.4,76.6 41.3,77.1 37.9,85.8 34.4,75.3 34.3,75 34.2,74.7 34.2,74.6 34.2,74.4 
			34.2,74.1 31.1,74.1 31.6,74.9 31.8,75.2 32,75.6 32.3,76.4 32.5,77 35.5,85.5 35.8,86.2 35.9,86.6 36.1,86.9 36.2,87.2 
			36.3,87.4 36.7,87.9 36.8,88.1 37,88.3 37.2,88.5 37.4,88.6 37.6,88.7 37.8,88.8 38.1,88.9 		"/>
		<polygon fill-rule="evenodd" clip-rule="evenodd" points="38,88.9 38.6,89.1 44.5,74.2 43.9,74 		"/>
		<rect x="40.9" y="73.8" width="3.3" height="0.7"/>
		<polygon fill-rule="evenodd" clip-rule="evenodd" points="44.5,74.2 44.7,73.8 44.2,73.8 44.2,74.4 43.9,74 		"/>
		<polygon fill-rule="evenodd" clip-rule="evenodd" points="41.1,73.9 41.7,74.7 41.1,75 40.6,74.3 		"/>
		<polygon fill-rule="evenodd" clip-rule="evenodd" points="40.9,73.8 40.2,73.8 40.6,74.3 41.1,73.9 40.9,74.4 		"/>
		<polygon fill-rule="evenodd" clip-rule="evenodd" points="41.7,74.7 41.8,75.1 41.9,75.4 41.2,75.6 41.2,75.3 41.1,75 		"/>
		<polygon fill-rule="evenodd" clip-rule="evenodd" points="41.7,74.7 41.7,74.7 41.1,75 41.1,75 		"/>
		<polygon fill-rule="evenodd" clip-rule="evenodd" points="41.9,75.5 41.8,76.2 41.2,76.2 41.2,75.4 		"/>
		<polygon fill-rule="evenodd" clip-rule="evenodd" points="41.9,75.4 41.9,75.5 41.2,75.4 41.2,75.6 		"/>
		<polygon fill-rule="evenodd" clip-rule="evenodd" points="41.8,76.3 41.6,77.2 41,77 41.2,76.1 		"/>
		<polygon fill-rule="evenodd" clip-rule="evenodd" points="41.8,76.2 41.8,76.4 41.8,76.3 41.2,76.1 41.2,76.2 		"/>
		<polygon fill-rule="evenodd" clip-rule="evenodd" points="41.6,77.2 41,77 37.6,85.6 38.2,85.9 		"/>
		<polygon fill-rule="evenodd" clip-rule="evenodd" points="41.6,77.2 41.6,77.2 41,77 		"/>
		<polygon fill-rule="evenodd" clip-rule="evenodd" points="37.6,85.9 38.2,85.6 34.7,75.2 34.1,75.4 		"/>
		<polygon fill-rule="evenodd" clip-rule="evenodd" points="38.2,85.9 37.9,86.7 37.6,85.9 38.2,85.6 37.6,85.6 		"/>
		<polygon fill-rule="evenodd" clip-rule="evenodd" points="34.1,75.4 33.9,74.8 33.9,74.2 34.5,74 34.5,74.7 34.7,75.2 		"/>
		<polygon fill-rule="evenodd" clip-rule="evenodd" points="34.1,75.4 34.1,75.4 34.7,75.2 		"/>
		<rect x="31.1" y="73.8" width="3" height="0.7"/>
		<polygon fill-rule="evenodd" clip-rule="evenodd" points="34.5,74 34.5,73.8 34.2,73.8 34.2,74.4 33.9,74.2 		"/>
		<polygon fill-rule="evenodd" clip-rule="evenodd" points="31.4,73.9 32.3,75.5 31.7,75.9 30.8,74.3 		"/>
		<polygon fill-rule="evenodd" clip-rule="evenodd" points="31.1,73.8 30.6,73.8 30.8,74.3 31.4,73.9 31.1,74.4 		"/>
		<polygon fill-rule="evenodd" clip-rule="evenodd" points="32.3,75.5 32.8,76.9 32.2,77.2 31.7,75.8 		"/>
		<polygon fill-rule="evenodd" clip-rule="evenodd" points="32.3,75.5 32.3,75.5 31.7,75.8 31.7,75.9 		"/>
		<polygon fill-rule="evenodd" clip-rule="evenodd" points="32.8,76.9 32.2,77.2 35.2,85.7 35.8,85.4 		"/>
		<path fill-rule="evenodd" clip-rule="evenodd" d="M32.8,76.9l-0.6,0.3L32.8,76.9z"/>
		<polygon fill-rule="evenodd" clip-rule="evenodd" points="35.8,85.4 36.1,86.1 36.3,86.7 36.9,87.7 36.4,88.1 35.7,87.1 
			35.4,86.4 35.2,85.7 		"/>
		<path fill-rule="evenodd" clip-rule="evenodd" d="M35.2,85.7l0.6-0.3L35.2,85.7z"/>
		<polygon fill-rule="evenodd" clip-rule="evenodd" points="36.9,87.7 37.2,88 37.5,88.3 38,88.5 38.4,88.7 38.2,89.3 37.7,89.1 
			37.2,88.9 36.7,88.5 36.4,88.1 		"/>
		<polygon fill-rule="evenodd" clip-rule="evenodd" points="36.4,88.1 36.4,88.1 36.9,87.7 36.9,87.7 		"/>
		<polygon fill-rule="evenodd" clip-rule="evenodd" points="38.2,89.3 38.5,89.4 38.6,89.1 38,88.9 38.4,88.7 		"/>
		<polygon fill-rule="evenodd" clip-rule="evenodd" points="46.2,88.6 55.1,88.6 56.1,85.8 55.6,86.1 55.2,86.3 54.7,86.5 
			54.2,86.7 53.7,86.8 53.1,86.9 52.6,87 52.1,87 51.6,87 50.9,86.9 50.2,86.9 49.4,86.7 49.4,81.5 50.7,81.5 51.5,81.5 52.1,81.6 
			52.4,81.7 52.6,81.8 52.8,81.9 53,82.1 53,79.9 49.4,79.9 49.4,75.9 50,75.7 50.6,75.6 51.1,75.6 51.6,75.5 52,75.5 52.4,75.6 
			52.7,75.6 53,75.7 53.2,75.8 53.4,75.9 53.7,76 54,76.2 54.3,76.4 54.3,74.1 46.2,74.1 46.5,74.3 46.7,74.6 46.8,74.8 46.9,74.9 
			47,75.2 47.1,75.5 47.1,75.9 47.1,76.3 47.1,76.6 47.1,86.1 47.1,86.5 47.1,86.8 47.1,87.2 47,87.5 46.9,87.8 46.7,88.1 
			46.5,88.4 		"/>
		<rect x="46.2" y="88.3" width="8.9" height="0.7"/>
		<polygon fill-rule="evenodd" clip-rule="evenodd" points="54.8,88.5 55.4,88.8 56.4,85.9 55.8,85.7 		"/>
		<polygon fill-rule="evenodd" clip-rule="evenodd" points="55.1,89 55.4,89 55.4,88.8 54.8,88.5 55.1,88.3 		"/>
		<polygon fill-rule="evenodd" clip-rule="evenodd" points="56.3,86.1 55.3,86.6 54.3,87 54,86.4 55,86.1 55.9,85.5 		"/>
		<polygon fill-rule="evenodd" clip-rule="evenodd" points="56.4,85.9 56.7,85.1 55.9,85.5 56.3,86.1 55.8,85.7 		"/>
		<polygon fill-rule="evenodd" clip-rule="evenodd" points="54.3,87 53.2,87.3 52.1,87.3 52,86.7 53,86.6 54.1,86.4 		"/>
		<polygon fill-rule="evenodd" clip-rule="evenodd" points="54.3,87 54.3,87 54.1,86.4 54,86.4 		"/>
		<polygon fill-rule="evenodd" clip-rule="evenodd" points="52.1,87.3 50.9,87.3 50.9,86.6 52.1,86.7 		"/>
		<polygon fill-rule="evenodd" clip-rule="evenodd" points="52.1,87.3 52.1,87.3 52.1,86.7 52,86.7 		"/>
		<polygon fill-rule="evenodd" clip-rule="evenodd" points="50.9,87.3 49.4,87.1 49.5,86.4 51,86.6 		"/>
		<polygon fill-rule="evenodd" clip-rule="evenodd" points="50.9,87.3 50.9,87.3 51,86.6 50.9,86.6 		"/>
		<rect x="49.1" y="81.5" width="0.7" height="5.2"/>
		<polygon fill-rule="evenodd" clip-rule="evenodd" points="49.4,87.1 49.1,87.1 49.1,86.7 49.8,86.7 49.5,86.4 		"/>
		<rect x="49.4" y="81.2" width="1.3" height="0.7"/>
		<polygon fill-rule="evenodd" clip-rule="evenodd" points="49.1,81.5 49.1,81.2 49.4,81.2 49.4,81.9 49.8,81.5 		"/>
		<polygon fill-rule="evenodd" clip-rule="evenodd" points="50.7,81.2 52.1,81.3 52.1,81.9 50.7,81.9 		"/>
		<polygon fill-rule="evenodd" clip-rule="evenodd" points="50.7,81.2 50.7,81.9 50.7,81.9 		"/>
		<polygon fill-rule="evenodd" clip-rule="evenodd" points="52.2,81.3 52.7,81.5 53.1,81.7 52.8,82.3 52.4,82.1 52,81.9 		"/>
		<polygon fill-rule="evenodd" clip-rule="evenodd" points="52.1,81.3 52.2,81.3 52,81.9 52.1,81.9 		"/>
		<rect x="52.7" y="79.9" width="0.7" height="2.1"/>
		<polygon fill-rule="evenodd" clip-rule="evenodd" points="52.8,82.3 53.3,82.6 53.3,82 52.7,82 53.1,81.7 		"/>
		<rect x="49.4" y="79.6" width="3.6" height="0.7"/>
		<polygon fill-rule="evenodd" clip-rule="evenodd" points="53.3,79.9 53.3,79.6 53,79.6 53,80.3 52.7,79.9 		"/>
		<rect x="49.1" y="75.9" width="0.7" height="4.1"/>
		<polygon fill-rule="evenodd" clip-rule="evenodd" points="49.4,80.3 49.1,80.3 49.1,79.9 49.8,79.9 49.4,79.6 		"/>
		<polygon fill-rule="evenodd" clip-rule="evenodd" points="49.4,75.5 50.5,75.3 50.6,76 49.5,76.2 		"/>
		<polygon fill-rule="evenodd" clip-rule="evenodd" points="49.1,75.9 49.1,75.6 49.4,75.5 49.5,76.2 49.8,75.9 		"/>
		<polygon fill-rule="evenodd" clip-rule="evenodd" points="50.6,75.3 51.6,75.2 51.6,75.9 50.6,76 		"/>
		<polygon fill-rule="evenodd" clip-rule="evenodd" points="50.5,75.3 50.6,75.3 50.6,76 50.6,76 		"/>
		<polygon fill-rule="evenodd" clip-rule="evenodd" points="51.6,75.2 52.4,75.3 53.1,75.4 53,76.1 52.3,76 51.6,75.9 		"/>
		<polygon fill-rule="evenodd" clip-rule="evenodd" points="51.6,75.2 51.6,75.9 51.6,75.9 		"/>
		<polygon fill-rule="evenodd" clip-rule="evenodd" points="53.1,75.4 53.8,75.7 54.4,76.1 54.1,76.7 53.6,76.3 52.9,76.1 		"/>
		<polygon fill-rule="evenodd" clip-rule="evenodd" points="53.1,75.4 53.1,75.4 52.9,76.1 53,76.1 		"/>
		<rect x="54" y="74.1" width="0.7" height="2.3"/>
		<polygon fill-rule="evenodd" clip-rule="evenodd" points="54.1,76.7 54.6,76.9 54.6,76.4 54,76.4 54.4,76.1 		"/>
		<rect x="46.2" y="73.8" width="8" height="0.7"/>
		<polygon fill-rule="evenodd" clip-rule="evenodd" points="54.6,74.1 54.6,73.8 54.3,73.8 54.3,74.4 54,74.1 		"/>
		<polygon fill-rule="evenodd" clip-rule="evenodd" points="46.5,73.9 47,74.5 47.3,75 46.7,75.4 46.4,74.8 46,74.3 		"/>
		<polygon fill-rule="evenodd" clip-rule="evenodd" points="46.2,73.8 45.6,73.8 46,74.3 46.5,73.9 46.2,74.4 		"/>
		<polygon fill-rule="evenodd" clip-rule="evenodd" points="47.3,75.1 47.4,75.9 47.4,76.6 46.7,76.7 46.7,75.9 46.6,75.2 		"/>
		<polygon fill-rule="evenodd" clip-rule="evenodd" points="47.3,75 47.3,75.1 47.3,75.1 46.6,75.2 46.7,75.4 		"/>
		<rect x="46.8" y="76.6" width="0.7" height="9.5"/>
		<polygon fill-rule="evenodd" clip-rule="evenodd" points="47.4,76.6 47.5,76.6 46.8,76.6 46.7,76.7 		"/>
		<polygon fill-rule="evenodd" clip-rule="evenodd" points="47.4,86.1 47.4,86.8 47.3,87.5 46.6,87.5 46.7,86.8 46.7,86.1 		"/>
		<polygon fill-rule="evenodd" clip-rule="evenodd" points="47.5,86.1 47.4,86.1 46.7,86.1 46.8,86.1 		"/>
		<polygon fill-rule="evenodd" clip-rule="evenodd" points="47.3,87.7 47,88.3 46.5,88.8 45.9,88.5 46.4,87.9 46.7,87.4 		"/>
		<polygon fill-rule="evenodd" clip-rule="evenodd" points="47.3,87.5 47.3,87.7 47.3,87.7 46.7,87.4 46.6,87.5 		"/>
		<polygon fill-rule="evenodd" clip-rule="evenodd" points="45.9,88.5 45.6,89 46.2,89 46.2,88.3 46.5,88.8 		"/>
		<polygon fill-rule="evenodd" clip-rule="evenodd" points="72.7,74.1 69.4,74.1 69.7,74.3 69.9,74.6 70,74.7 70,74.9 70.1,75.2 
			70.2,75.5 70.2,75.9 70.3,76.3 70.3,76.6 70.3,85 61.6,74.1 58.7,74.1 58.9,74.3 59.1,74.6 59.2,74.7 59.3,74.9 59.4,75.2 
			59.5,75.5 59.5,75.9 59.5,76.3 59.5,76.6 59.5,86.1 59.5,86.5 59.5,86.8 59.5,87.2 59.4,87.5 59.3,87.8 59.1,88.1 58.9,88.4 
			58.7,88.6 62,88.6 61.7,88.4 61.5,88.1 61.4,88 61.4,87.8 61.3,87.5 61.2,87.2 61.2,86.8 61.1,86.5 61.1,86.1 61.1,77.2 
			68.7,86.7 69,87.2 69.5,87.6 69.8,88 70.2,88.3 70.4,88.5 70.6,88.6 71,88.8 71.4,88.9 71.6,89 71.9,89 71.9,76.6 71.9,76.3 
			71.9,75.9 71.9,75.5 72,75.2 72.1,74.9 72.2,74.6 72.4,74.3 		"/>
		<rect x="69.4" y="73.8" width="3.3" height="0.7"/>
		<polygon fill-rule="evenodd" clip-rule="evenodd" points="69.7,73.9 70.1,74.5 70.4,75 69.8,75.4 69.6,74.8 69.2,74.3 		"/>
		<polygon fill-rule="evenodd" clip-rule="evenodd" points="69.4,73.8 68.7,73.8 69.2,74.3 69.7,73.9 69.4,74.4 		"/>
		<polygon fill-rule="evenodd" clip-rule="evenodd" points="70.4,75.1 70.5,75.9 70.6,76.6 69.9,76.7 69.9,75.9 69.8,75.2 		"/>
		<polygon fill-rule="evenodd" clip-rule="evenodd" points="70.4,75 70.4,75.1 70.4,75.1 69.8,75.2 69.8,75.4 		"/>
		<rect x="70" y="76.6" width="0.7" height="8.4"/>
		<polygon fill-rule="evenodd" clip-rule="evenodd" points="70.6,76.6 70.6,76.6 70,76.6 69.9,76.7 		"/>
		<polygon fill-rule="evenodd" clip-rule="evenodd" points="70,85.2 70.5,84.8 61.9,73.9 61.4,74.3 		"/>
		<polygon fill-rule="evenodd" clip-rule="evenodd" points="70.6,85 70.6,86 70,85.2 70.5,84.8 70,85 		"/>
		<rect x="58.7" y="73.8" width="3" height="0.7"/>
		<polygon fill-rule="evenodd" clip-rule="evenodd" points="61.9,73.9 61.8,73.8 61.6,73.8 61.6,74.4 61.4,74.3 		"/>
		<polygon fill-rule="evenodd" clip-rule="evenodd" points="58.9,73.9 59.4,74.5 59.6,75 59.1,75.4 58.8,74.8 58.4,74.3 		"/>
		<polygon fill-rule="evenodd" clip-rule="evenodd" points="58.7,73.8 58,73.8 58.4,74.3 58.9,73.9 58.7,74.4 		"/>
		<polygon fill-rule="evenodd" clip-rule="evenodd" points="59.7,75.1 59.8,75.9 59.8,76.6 59.2,76.7 59.1,75.9 59,75.2 		"/>
		<polygon fill-rule="evenodd" clip-rule="evenodd" points="59.6,75 59.7,75.1 59.7,75.1 59,75.2 59.1,75.4 		"/>
		<rect x="59.2" y="76.6" width="0.7" height="9.5"/>
		<polygon fill-rule="evenodd" clip-rule="evenodd" points="59.8,76.6 59.9,76.6 59.2,76.6 59.2,76.7 		"/>
		<polygon fill-rule="evenodd" clip-rule="evenodd" points="59.8,86.1 59.8,86.8 59.7,87.5 59,87.5 59.1,86.8 59.2,86.1 		"/>
		<polygon fill-rule="evenodd" clip-rule="evenodd" points="59.9,86.1 59.8,86.1 59.2,86.1 59.2,86.1 		"/>
		<polygon fill-rule="evenodd" clip-rule="evenodd" points="59.7,87.7 59.4,88.3 58.9,88.8 58.4,88.5 58.8,87.9 59.1,87.4 		"/>
		<polygon fill-rule="evenodd" clip-rule="evenodd" points="59.7,87.5 59.7,87.7 59.7,87.7 59.1,87.4 59,87.5 		"/>
		<rect x="58.7" y="88.3" width="3.3" height="0.7"/>
		<polygon fill-rule="evenodd" clip-rule="evenodd" points="58.4,88.5 58.1,89 58.7,89 58.7,88.3 58.9,88.8 		"/>
		<polygon fill-rule="evenodd" clip-rule="evenodd" points="61.7,88.9 61.5,88.6 61.2,88.3 61,87.7 61.5,87.4 61.8,87.9 61.9,88.2 
			62.2,88.4 		"/>
		<polygon fill-rule="evenodd" clip-rule="evenodd" points="62,89 62.8,89 62.2,88.4 61.7,88.9 62,88.3 		"/>
		<polygon fill-rule="evenodd" clip-rule="evenodd" points="61,87.6 60.9,86.9 60.8,86.1 61.4,86 61.5,86.8 61.6,87.5 		"/>
		<polygon fill-rule="evenodd" clip-rule="evenodd" points="61,87.7 61,87.7 61,87.6 61.6,87.5 61.5,87.4 		"/>
		<rect x="60.8" y="77.2" width="0.7" height="8.9"/>
		<polygon fill-rule="evenodd" clip-rule="evenodd" points="60.8,86.1 60.8,86.1 61.5,86.1 61.4,86 		"/>
		<polygon fill-rule="evenodd" clip-rule="evenodd" points="61.4,77 60.9,77.4 68.4,86.9 68.9,86.5 		"/>
		<polygon fill-rule="evenodd" clip-rule="evenodd" points="60.8,77.2 60.8,76.3 61.4,77 60.9,77.4 61.5,77.2 		"/>
		<polygon fill-rule="evenodd" clip-rule="evenodd" points="68.9,86.5 69.7,87.4 70.4,88.1 69.9,88.5 69.2,87.8 68.4,86.9 		"/>
		<path fill-rule="evenodd" clip-rule="evenodd" d="M68.4,86.9l0.5-0.4L68.4,86.9z"/>
		<polygon fill-rule="evenodd" clip-rule="evenodd" points="70.3,88.1 71.1,88.5 72,88.7 71.7,89.3 70.8,89.1 70,88.6 		"/>
		<polygon fill-rule="evenodd" clip-rule="evenodd" points="69.9,88.5 70.1,88.7 70,88.6 70.3,88.1 70.4,88.1 		"/>
		<rect x="71.6" y="76.6" width="0.7" height="12.4"/>
		<polygon fill-rule="evenodd" clip-rule="evenodd" points="71.7,89.3 72.2,89.5 72.2,89 71.6,89 72,88.7 		"/>
		<polygon fill-rule="evenodd" clip-rule="evenodd" points="71.6,76.6 71.6,75.8 71.7,75.1 72.3,75.2 72.2,75.9 72.2,76.6 		"/>
		<polygon fill-rule="evenodd" clip-rule="evenodd" points="71.6,76.6 72.2,76.6 72.2,76.6 		"/>
		<polygon fill-rule="evenodd" clip-rule="evenodd" points="71.7,75 71.9,74.5 72.2,74.1 72.4,73.8 72.9,74.3 72.6,74.6 72.5,74.8 
			72.2,75.3 		"/>
		<polygon fill-rule="evenodd" clip-rule="evenodd" points="71.7,75.1 71.7,75 71.7,75 72.2,75.3 72.3,75.2 		"/>
		<polygon fill-rule="evenodd" clip-rule="evenodd" points="72.9,74.3 73.4,73.8 72.7,73.8 72.7,74.4 72.4,73.8 		"/>
		<polygon fill-rule="evenodd" clip-rule="evenodd" points="81.9,86.1 81.9,75.6 83.5,75.6 83.9,75.7 84.2,75.7 84.5,75.7 
			84.8,75.9 85.1,76 85.3,76.1 85.5,76.2 85.6,76.3 85.7,76.4 86.4,74.1 76,74.1 75.2,76.5 75.3,76.4 75.5,76.3 75.8,76.1 76.2,76 
			76.5,75.9 76.9,75.7 77.4,75.7 77.9,75.6 78.4,75.6 79.6,75.6 79.6,86.1 79.6,86.5 79.6,86.8 79.5,87.2 79.5,87.5 79.4,87.8 
			79.2,88.1 79,88.4 78.8,88.6 82.8,88.6 82.5,88.4 82.3,88.2 82.2,88.1 82.2,88 82.1,87.8 82,87.5 81.9,87.2 81.9,86.8 81.9,86.5 
					"/>
		<rect x="81.6" y="75.6" width="0.7" height="10.4"/>
		<rect x="81.9" y="75.3" width="1.6" height="0.7"/>
		<polygon fill-rule="evenodd" clip-rule="evenodd" points="81.6,75.6 81.6,75.3 81.9,75.3 81.9,76 82.2,75.6 		"/>
		<polygon fill-rule="evenodd" clip-rule="evenodd" points="83.5,75.3 84.3,75.4 84.9,75.5 84.7,76.2 84.2,76.1 83.5,76 		"/>
		<polygon fill-rule="evenodd" clip-rule="evenodd" points="83.5,75.3 83.5,76 83.5,76 		"/>
		<polygon fill-rule="evenodd" clip-rule="evenodd" points="84.9,75.5 85.5,75.8 85.9,76.2 85.5,76.7 85.1,76.4 84.6,76.2 		"/>
		<polygon fill-rule="evenodd" clip-rule="evenodd" points="84.9,75.5 84.9,75.5 84.6,76.2 84.7,76.2 		"/>
		<polygon fill-rule="evenodd" clip-rule="evenodd" points="85.4,76.3 86,76.6 86.7,74.2 86.1,74 		"/>
		<polygon fill-rule="evenodd" clip-rule="evenodd" points="85.5,76.7 85.9,77 86,76.6 85.4,76.3 85.9,76.2 		"/>
		<rect x="76" y="73.8" width="10.4" height="0.7"/>
		<polygon fill-rule="evenodd" clip-rule="evenodd" points="86.7,74.2 86.8,73.8 86.4,73.8 86.4,74.4 86.1,74 		"/>
		<polygon fill-rule="evenodd" clip-rule="evenodd" points="76.3,74.2 75.6,74 74.9,76.4 75.5,76.6 		"/>
		<polygon fill-rule="evenodd" clip-rule="evenodd" points="76,73.8 75.7,73.8 75.6,74 76.3,74.2 76,74.4 		"/>
		<polygon fill-rule="evenodd" clip-rule="evenodd" points="75,76.2 75.6,75.7 76.4,75.5 76.6,76.2 75.9,76.4 75.4,76.8 		"/>
		<polygon fill-rule="evenodd" clip-rule="evenodd" points="74.9,76.4 74.7,77.3 75.4,76.8 75,76.2 75.5,76.6 		"/>
		<polygon fill-rule="evenodd" clip-rule="evenodd" points="76.5,75.5 77.4,75.4 78.4,75.3 78.5,76 77.4,76.1 76.6,76.2 		"/>
		<polygon fill-rule="evenodd" clip-rule="evenodd" points="76.4,75.5 76.3,75.6 76.5,75.5 76.6,76.2 76.6,76.2 		"/>
		<rect x="78.4" y="75.3" width="1.2" height="0.7"/>
		<polygon fill-rule="evenodd" clip-rule="evenodd" points="78.4,75.3 78.4,76 78.5,76 		"/>
		<rect x="79.3" y="75.6" width="0.7" height="10.4"/>
		<polygon fill-rule="evenodd" clip-rule="evenodd" points="79.6,75.3 79.9,75.3 79.9,75.6 79.3,75.6 79.6,76 		"/>
		<polygon fill-rule="evenodd" clip-rule="evenodd" points="79.9,86.1 79.9,86.8 79.8,87.5 79.1,87.5 79.2,86.8 79.2,86.1 		"/>
		<polygon fill-rule="evenodd" clip-rule="evenodd" points="79.9,86.1 79.9,86.1 79.2,86.1 79.3,86.1 		"/>
		<polygon fill-rule="evenodd" clip-rule="evenodd" points="79.8,87.7 79.5,88.3 79,88.8 78.4,88.5 78.9,87.9 79.2,87.4 		"/>
		<polygon fill-rule="evenodd" clip-rule="evenodd" points="79.8,87.5 79.8,87.7 79.8,87.7 79.2,87.4 79.1,87.5 		"/>
		<rect x="78.7" y="88.3" width="4" height="0.7"/>
		<polygon fill-rule="evenodd" clip-rule="evenodd" points="78.4,88.5 78.1,89 78.7,89 78.7,88.3 79,88.8 		"/>
		<polygon fill-rule="evenodd" clip-rule="evenodd" points="82.5,88.9 82.2,88.6 81.9,88.3 81.7,87.7 82.2,87.4 82.5,87.9 
			82.7,88.2 83,88.4 		"/>
		<polygon fill-rule="evenodd" clip-rule="evenodd" points="82.8,89 83.6,89 83,88.4 82.5,88.9 82.8,88.3 		"/>
		<polygon fill-rule="evenodd" clip-rule="evenodd" points="81.7,87.6 81.6,86.9 81.6,86.1 82.2,86 82.2,86.8 82.3,87.5 		"/>
		<polygon fill-rule="evenodd" clip-rule="evenodd" points="81.7,87.7 81.7,87.6 82.3,87.5 82.2,87.4 		"/>
		<polygon fill-rule="evenodd" clip-rule="evenodd" points="81.6,86.1 81.6,86.1 82.2,86.1 82.2,86 		"/>
		<path fill-rule="evenodd" clip-rule="evenodd" d="M91.3,81.7l2.2-5.6l2.1,5.6H91.3z M89.4,86.7l1.4-3.5h5.5l1.2,3.4l0.2,0.6
			l0.1,0.3l0.1,0.3l-0.1,0.2L97.6,88l-0.1,0.1v0.1l-0.2,0.3l-0.3,0.3h4.1l-0.3-0.3l-0.3-0.3l-0.3-0.3l-0.2-0.3l-0.2-0.3l-0.2-0.3
			l-0.2-0.3l-0.1-0.3L95,74.1h-3.3l0.3,0.2l0.2,0.2l0.1,0.2v0.2l0.1,0.1l-0.1,0.3l-0.1,0.3l-0.1,0.3L91.9,76l-4.1,10.4l-0.3,0.7
			l-0.2,0.3l-0.2,0.3L87,88l-0.2,0.3l-0.2,0.2l-0.2,0.2h3.4l-0.2-0.2l-0.2-0.1l-0.2-0.3l-0.1-0.2l-0.1-0.3l0.1-0.3v-0.2l0.1-0.3
			L89.4,86.7z"/>
		<polygon fill-rule="evenodd" clip-rule="evenodd" points="89,86.5 89.7,86.8 91,83.3 90.4,83.1 		"/>
		<rect x="90.7" y="82.9" width="5.5" height="0.7"/>
		<polygon fill-rule="evenodd" clip-rule="evenodd" points="90.4,83.1 90.5,82.9 90.7,82.9 90.7,83.5 91,83.3 		"/>
		<polygon fill-rule="evenodd" clip-rule="evenodd" points="96.5,83.1 95.9,83.3 97.1,86.7 97.7,86.4 		"/>
		<polygon fill-rule="evenodd" clip-rule="evenodd" points="96.2,82.9 96.5,82.9 96.5,83.1 95.9,83.3 96.2,83.5 		"/>
		<polygon fill-rule="evenodd" clip-rule="evenodd" points="97.7,86.4 97.9,87.1 97.3,87.3 97.1,86.7 		"/>
		<path fill-rule="evenodd" clip-rule="evenodd" d="M97.7,86.4l-0.6,0.3L97.7,86.4z"/>
		<polygon fill-rule="evenodd" clip-rule="evenodd" points="97.9,87.1 98,87.7 97.4,87.8 97.3,87.2 		"/>
		<polygon fill-rule="evenodd" clip-rule="evenodd" points="97.9,87.1 97.9,87.1 97.3,87.2 97.3,87.3 		"/>
		<polygon fill-rule="evenodd" clip-rule="evenodd" points="98,87.8 98,88.1 97.9,88.3 97.3,88 97.4,87.8 97.4,87.7 		"/>
		<polygon fill-rule="evenodd" clip-rule="evenodd" points="98,87.7 98,87.7 98,87.8 97.4,87.7 97.4,87.8 		"/>
		<polygon fill-rule="evenodd" clip-rule="evenodd" points="97.8,88.3 97.4,88.8 96.9,88.4 97.3,87.9 		"/>
		<polygon fill-rule="evenodd" clip-rule="evenodd" points="97.9,88.3 97.8,88.3 97.3,87.9 97.3,88 		"/>
		<rect x="97.1" y="88.3" width="4.1" height="0.7"/>
		<polygon fill-rule="evenodd" clip-rule="evenodd" points="96.9,88.4 96.4,89 97.1,89 97.1,88.3 97.4,88.8 		"/>
		<polygon fill-rule="evenodd" clip-rule="evenodd" points="101,88.9 100.4,88.3 99.9,87.7 100.4,87.2 100.9,87.8 101.5,88.4 		"/>
		<polygon fill-rule="evenodd" clip-rule="evenodd" points="101.3,89 102.1,89 101.5,88.4 101,88.9 101.3,88.3 		"/>
		<polygon fill-rule="evenodd" clip-rule="evenodd" points="99.9,87.6 99.6,87 99.3,86.4 99.9,86.1 100.1,86.7 100.5,87.3 		"/>
		<polygon fill-rule="evenodd" clip-rule="evenodd" points="99.9,87.7 99.9,87.6 100.5,87.3 100.4,87.2 		"/>
		<polygon fill-rule="evenodd" clip-rule="evenodd" points="99.3,86.4 99.9,86.2 95.3,74 94.7,74.2 		"/>
		<polygon fill-rule="evenodd" clip-rule="evenodd" points="99.3,86.4 99.9,86.2 99.9,86.1 		"/>
		<rect x="91.7" y="73.8" width="3.3" height="0.7"/>
		<polygon fill-rule="evenodd" clip-rule="evenodd" points="95.3,74 95.2,73.8 95,73.8 95,74.4 94.7,74.2 		"/>
		<polygon fill-rule="evenodd" clip-rule="evenodd" points="91.9,73.8 92.3,74.2 91.8,74.7 91.4,74.3 		"/>
		<polygon fill-rule="evenodd" clip-rule="evenodd" points="91.7,73.8 90.9,73.8 91.4,74.3 91.9,73.8 91.7,74.4 		"/>
		<polygon fill-rule="evenodd" clip-rule="evenodd" points="92.4,74.4 92.5,74.9 91.8,75 91.7,74.5 		"/>
		<polygon fill-rule="evenodd" clip-rule="evenodd" points="92.3,74.2 92.3,74.3 92.4,74.4 91.7,74.5 91.8,74.7 		"/>
		<polygon fill-rule="evenodd" clip-rule="evenodd" points="92.5,74.9 92.4,75.4 91.8,75.4 91.8,74.9 		"/>
		<polygon fill-rule="evenodd" clip-rule="evenodd" points="92.5,74.9 92.5,74.9 91.8,74.9 91.8,75 		"/>
		<polygon fill-rule="evenodd" clip-rule="evenodd" points="92.4,75.6 92.2,76.2 91.6,75.9 91.8,75.3 		"/>
		<polygon fill-rule="evenodd" clip-rule="evenodd" points="92.4,75.4 92.4,75.7 92.4,75.6 91.8,75.3 91.8,75.4 		"/>
		<polygon fill-rule="evenodd" clip-rule="evenodd" points="92.2,76.2 91.6,75.9 87.5,86.3 88.1,86.6 		"/>
		<path fill-rule="evenodd" clip-rule="evenodd" d="M92.2,76.2l-0.6-0.3L92.2,76.2z"/>
		<polygon fill-rule="evenodd" clip-rule="evenodd" points="88.1,86.6 87.8,87.3 87.5,87.9 86.9,87.7 87.2,87.1 87.5,86.3 		"/>
		<path fill-rule="evenodd" clip-rule="evenodd" d="M88.1,86.6l-0.6-0.3L88.1,86.6z"/>
		<polygon fill-rule="evenodd" clip-rule="evenodd" points="87.5,88 87.1,88.5 86.6,88.8 86.1,88.4 86.5,88.1 86.9,87.6 		"/>
		<polygon fill-rule="evenodd" clip-rule="evenodd" points="87.5,87.9 87.5,88 86.9,87.6 86.9,87.7 		"/>
		<rect x="86.3" y="88.3" width="3.5" height="0.7"/>
		<polygon fill-rule="evenodd" clip-rule="evenodd" points="86.1,88.4 85.6,89 86.3,89 86.3,88.3 86.6,88.8 		"/>
		<polygon fill-rule="evenodd" clip-rule="evenodd" points="89.6,88.9 89,88.3 89.5,87.9 90,88.4 		"/>
		<polygon fill-rule="evenodd" clip-rule="evenodd" points="89.8,89 90.5,89 90,88.4 89.6,88.9 89.8,88.3 		"/>
		<polygon fill-rule="evenodd" clip-rule="evenodd" points="89,88.2 88.8,87.8 89.5,87.5 89.6,88 		"/>
		<polygon fill-rule="evenodd" clip-rule="evenodd" points="89,88.3 89,88.3 89,88.2 89.6,88 89.5,87.9 		"/>
		<polygon fill-rule="evenodd" clip-rule="evenodd" points="88.8,87.6 88.9,87.1 89.5,87.2 89.5,87.7 		"/>
		<polygon fill-rule="evenodd" clip-rule="evenodd" points="88.8,87.8 88.8,87.7 88.8,87.6 89.5,87.7 89.5,87.5 		"/>
		<polygon fill-rule="evenodd" clip-rule="evenodd" points="88.9,87.1 89,86.5 89.7,86.8 89.5,87.3 		"/>
		<polygon fill-rule="evenodd" clip-rule="evenodd" points="88.9,87.1 88.9,87.1 89.5,87.3 89.5,87.2 		"/>
		<path fill-rule="evenodd" clip-rule="evenodd" d="M89,86.5l0.6,0.3L89,86.5z"/>
		<polygon fill-rule="evenodd" clip-rule="evenodd" points="91,81.6 91.7,81.9 93.9,76.3 93.2,76 		"/>
		<polygon fill-rule="evenodd" clip-rule="evenodd" points="93.9,76 93.2,76.3 95.3,81.9 96,81.6 		"/>
		<polygon fill-rule="evenodd" clip-rule="evenodd" points="93.2,76 93.5,75.2 93.9,76 93.2,76.3 93.9,76.3 		"/>
		<rect x="91.3" y="81.4" width="4.3" height="0.7"/>
		<polygon fill-rule="evenodd" clip-rule="evenodd" points="96,81.6 96.1,82.1 95.6,82.1 95.6,81.4 95.3,81.9 		"/>
		<polygon fill-rule="evenodd" clip-rule="evenodd" points="91.3,82.1 90.9,82.1 91,81.6 91.7,81.9 91.3,81.4 		"/>
		<polygon fill-rule="evenodd" clip-rule="evenodd" points="116.7,74.1 113.4,74.1 113.6,74.3 113.9,74.6 114,74.7 114,74.9 
			114.1,75.2 114.2,75.5 114.3,75.9 114.3,76.3 114.3,76.6 114.3,85 105.6,74.1 102.7,74.1 103,74.3 103.2,74.6 103.2,74.7 
			103.3,74.9 103.4,75.2 103.5,75.5 103.5,75.9 103.5,76.3 103.5,76.6 103.5,86.1 103.5,86.5 103.5,86.8 103.5,87.2 103.4,87.5 
			103.3,87.8 103.2,88.1 103,88.4 102.7,88.6 106,88.6 105.7,88.4 105.5,88.1 105.4,88 105.4,87.8 105.3,87.5 105.2,87.2 
			105.2,86.8 105.2,86.5 105.2,86.1 105.2,77.2 112.7,86.7 113.1,87.2 113.4,87.6 113.9,88 114.2,88.3 114.4,88.5 114.6,88.6 
			115,88.8 115.4,88.9 115.6,89 115.8,89 115.8,76.6 115.8,76.3 115.9,75.9 115.9,75.5 116,75.2 116.1,74.9 116.3,74.6 116.5,74.3 
					"/>
		<rect x="113.4" y="73.8" width="3.3" height="0.7"/>
		<polygon fill-rule="evenodd" clip-rule="evenodd" points="113.6,73.9 114.1,74.5 114.4,75 113.8,75.4 113.5,74.8 113.1,74.3 		"/>
		<polygon fill-rule="evenodd" clip-rule="evenodd" points="113.4,73.8 112.7,73.8 113.1,74.3 113.6,73.9 113.4,74.4 		"/>
		<polygon fill-rule="evenodd" clip-rule="evenodd" points="114.4,75.1 114.5,75.9 114.6,76.6 113.9,76.7 113.9,75.9 113.7,75.2 		
			"/>
		<polygon fill-rule="evenodd" clip-rule="evenodd" points="114.4,75 114.4,75.1 114.4,75.1 113.7,75.2 113.8,75.4 		"/>
		<rect x="114" y="76.6" width="0.7" height="8.4"/>
		<polygon fill-rule="evenodd" clip-rule="evenodd" points="114.6,76.6 114.6,76.6 114,76.6 113.9,76.7 		"/>
		<polygon fill-rule="evenodd" clip-rule="evenodd" points="114,85.2 114.5,84.8 105.9,73.9 105.4,74.3 		"/>
		<polygon fill-rule="evenodd" clip-rule="evenodd" points="114.6,85 114.6,86 114,85.2 114.5,84.8 114,85 		"/>
		<rect x="102.7" y="73.8" width="3" height="0.7"/>
		<polygon fill-rule="evenodd" clip-rule="evenodd" points="105.9,73.9 105.8,73.8 105.6,73.8 105.6,74.4 105.4,74.3 		"/>
		<polygon fill-rule="evenodd" clip-rule="evenodd" points="102.9,73.9 103.4,74.5 103.7,75 103.1,75.4 102.8,74.8 102.4,74.3 		"/>
		<polygon fill-rule="evenodd" clip-rule="evenodd" points="102.7,73.8 102,73.8 102.4,74.3 102.9,73.9 102.7,74.4 		"/>
		<polygon fill-rule="evenodd" clip-rule="evenodd" points="103.7,75.1 103.8,75.9 103.8,76.6 103.2,76.7 103.2,75.9 103.1,75.2 		
			"/>
		<polygon fill-rule="evenodd" clip-rule="evenodd" points="103.7,75 103.7,75.1 103.7,75.1 103.1,75.2 103.1,75.4 		"/>
		<rect x="103.2" y="76.6" width="0.7" height="9.5"/>
		<polygon fill-rule="evenodd" clip-rule="evenodd" points="103.8,76.6 103.9,76.6 103.2,76.6 103.2,76.7 		"/>
		<polygon fill-rule="evenodd" clip-rule="evenodd" points="103.8,86.1 103.8,86.8 103.7,87.5 103.1,87.5 103.2,86.8 103.2,86.1 		
			"/>
		<polygon fill-rule="evenodd" clip-rule="evenodd" points="103.9,86.1 103.8,86.1 103.2,86.1 103.2,86.1 		"/>
		<polygon fill-rule="evenodd" clip-rule="evenodd" points="103.7,87.7 103.4,88.3 102.9,88.8 102.3,88.5 102.8,87.9 103.1,87.4 		
			"/>
		<polygon fill-rule="evenodd" clip-rule="evenodd" points="103.7,87.5 103.7,87.7 103.7,87.7 103.1,87.4 103.1,87.5 		"/>
		<rect x="102.7" y="88.3" width="3.3" height="0.7"/>
		<polygon fill-rule="evenodd" clip-rule="evenodd" points="102.3,88.5 102,89 102.7,89 102.7,88.3 102.9,88.8 		"/>
		<polygon fill-rule="evenodd" clip-rule="evenodd" points="105.7,88.9 105.5,88.6 105.2,88.3 105,87.7 105.5,87.4 105.8,87.9 
			105.9,88.2 106.2,88.4 		"/>
		<polygon fill-rule="evenodd" clip-rule="evenodd" points="106,89 106.8,89 106.2,88.4 105.7,88.9 106,88.3 		"/>
		<polygon fill-rule="evenodd" clip-rule="evenodd" points="105,87.6 104.9,86.9 104.9,86.1 105.5,86 105.5,86.8 105.6,87.5 		"/>
		<polygon fill-rule="evenodd" clip-rule="evenodd" points="105,87.7 105,87.7 105,87.6 105.6,87.5 105.5,87.4 		"/>
		<rect x="104.9" y="77.2" width="0.7" height="8.9"/>
		<polygon fill-rule="evenodd" clip-rule="evenodd" points="104.9,86.1 104.9,86.1 105.5,86.1 105.5,86 		"/>
		<polygon fill-rule="evenodd" clip-rule="evenodd" points="105.4,77 104.9,77.4 112.4,86.9 112.9,86.5 		"/>
		<polygon fill-rule="evenodd" clip-rule="evenodd" points="104.9,77.2 104.9,76.3 105.4,77 104.9,77.4 105.5,77.2 		"/>
		<polygon fill-rule="evenodd" clip-rule="evenodd" points="112.9,86.5 113.7,87.4 114.5,88.1 114,88.5 113.2,87.8 112.4,86.9 		"/>
		<path fill-rule="evenodd" clip-rule="evenodd" d="M112.4,86.9l0.5-0.4L112.4,86.9z"/>
		<polygon fill-rule="evenodd" clip-rule="evenodd" points="114.4,88.1 115.1,88.5 115.9,88.7 115.7,89.3 114.8,89.1 114,88.6 		"/>
		<polygon fill-rule="evenodd" clip-rule="evenodd" points="114,88.5 114.1,88.7 114,88.6 114.4,88.1 114.5,88.1 		"/>
		<rect x="115.5" y="76.6" width="0.7" height="12.4"/>
		<polygon fill-rule="evenodd" clip-rule="evenodd" points="115.7,89.3 116.2,89.5 116.2,89 115.5,89 115.9,88.7 		"/>
		<polygon fill-rule="evenodd" clip-rule="evenodd" points="115.5,76.6 115.5,75.8 115.7,75.1 116.3,75.2 116.2,75.9 116.2,76.6 		
			"/>
		<polygon fill-rule="evenodd" clip-rule="evenodd" points="115.5,76.6 116.2,76.6 116.2,76.6 		"/>
		<polygon fill-rule="evenodd" clip-rule="evenodd" points="115.7,75 115.9,74.5 116.2,74.1 116.5,73.8 116.9,74.3 116.7,74.6 
			116.5,74.8 116.3,75.3 		"/>
		<polygon fill-rule="evenodd" clip-rule="evenodd" points="115.7,75.1 115.7,75 115.7,75 116.3,75.3 116.3,75.2 		"/>
		<polygon fill-rule="evenodd" clip-rule="evenodd" points="116.9,74.3 117.5,73.8 116.7,73.8 116.7,74.4 116.5,73.8 		"/>
		<path fill-rule="evenodd" clip-rule="evenodd" d="M123.2,81.7l2.2-5.6l2.1,5.6H123.2z M121.2,86.7l1.4-3.5h5.5l1.2,3.4l0.2,0.6
			l0.1,0.3l0.1,0.3l-0.1,0.2l-0.1,0.1l-0.1,0.1v0.1l-0.2,0.3l-0.3,0.3h4.1l-0.3-0.3l-0.3-0.3l-0.3-0.3l-0.2-0.3l-0.2-0.3l-0.2-0.3
			l-0.2-0.3l-0.1-0.3l-4.7-12.2h-3.3l0.3,0.2l0.2,0.2l0.1,0.2v0.2v0.1v0.3l-0.1,0.3l-0.1,0.3l-0.2,0.3l-4.1,10.4l-0.3,0.7l-0.2,0.3
			l-0.2,0.3l-0.2,0.3l-0.2,0.3l-0.2,0.2l-0.2,0.2h3.4l-0.2-0.2l-0.2-0.1l-0.2-0.3l-0.1-0.2l-0.1-0.3v-0.3l0.1-0.2l0.1-0.3
			L121.2,86.7z"/>
		<polygon fill-rule="evenodd" clip-rule="evenodd" points="120.9,86.5 121.5,86.8 122.9,83.3 122.3,83.1 		"/>
		<rect x="122.6" y="82.9" width="5.5" height="0.7"/>
		<polygon fill-rule="evenodd" clip-rule="evenodd" points="122.3,83.1 122.4,82.9 122.6,82.9 122.6,83.5 122.9,83.3 		"/>
		<polygon fill-rule="evenodd" clip-rule="evenodd" points="128.4,83.1 127.8,83.3 129,86.7 129.6,86.4 		"/>
		<polygon fill-rule="evenodd" clip-rule="evenodd" points="128.1,82.9 128.3,82.9 128.4,83.1 127.8,83.3 128.1,83.5 		"/>
		<polygon fill-rule="evenodd" clip-rule="evenodd" points="129.6,86.4 129.8,87.1 129.2,87.3 129,86.7 		"/>
		<path fill-rule="evenodd" clip-rule="evenodd" d="M129.6,86.4l-0.6,0.3L129.6,86.4z"/>
		<polygon fill-rule="evenodd" clip-rule="evenodd" points="129.8,87.1 129.9,87.7 129.2,87.8 129.1,87.2 		"/>
		<polygon fill-rule="evenodd" clip-rule="evenodd" points="129.8,87.1 129.8,87.1 129.1,87.2 129.2,87.3 		"/>
		<polygon fill-rule="evenodd" clip-rule="evenodd" points="129.9,87.8 129.9,88.1 129.8,88.3 129.1,88 129.2,87.8 129.2,87.7 		"/>
		<polygon fill-rule="evenodd" clip-rule="evenodd" points="129.9,87.7 129.9,87.7 129.9,87.8 129.2,87.7 129.2,87.8 		"/>
		<polygon fill-rule="evenodd" clip-rule="evenodd" points="129.7,88.3 129.2,88.8 128.7,88.4 129.2,87.9 		"/>
		<polygon fill-rule="evenodd" clip-rule="evenodd" points="129.8,88.3 129.7,88.3 129.2,87.9 129.1,88 		"/>
		<rect x="129" y="88.3" width="4.1" height="0.7"/>
		<polygon fill-rule="evenodd" clip-rule="evenodd" points="128.7,88.4 128.3,89 129,89 129,88.3 129.2,88.8 		"/>
		<polygon fill-rule="evenodd" clip-rule="evenodd" points="132.9,88.9 132.3,88.3 131.8,87.7 132.3,87.2 132.7,87.8 133.3,88.4 		
			"/>
		<polygon fill-rule="evenodd" clip-rule="evenodd" points="133.1,89 134,89 133.3,88.4 132.9,88.9 133.1,88.3 		"/>
		<polygon fill-rule="evenodd" clip-rule="evenodd" points="131.8,87.6 131.4,87 131.2,86.4 131.8,86.1 132,86.7 132.3,87.3 		"/>
		<polygon fill-rule="evenodd" clip-rule="evenodd" points="131.8,87.7 131.8,87.6 132.3,87.3 132.3,87.2 		"/>
		<polygon fill-rule="evenodd" clip-rule="evenodd" points="131.2,86.4 131.8,86.2 127.1,74 126.5,74.2 		"/>
		<polygon fill-rule="evenodd" clip-rule="evenodd" points="131.2,86.4 131.8,86.2 131.8,86.1 		"/>
		<rect x="123.5" y="73.8" width="3.3" height="0.7"/>
		<polygon fill-rule="evenodd" clip-rule="evenodd" points="127.1,74 127.1,73.8 126.8,73.8 126.8,74.4 126.5,74.2 		"/>
		<polygon fill-rule="evenodd" clip-rule="evenodd" points="123.7,73.8 124.1,74.2 123.7,74.7 123.3,74.3 		"/>
		<polygon fill-rule="evenodd" clip-rule="evenodd" points="123.5,73.8 122.8,73.8 123.3,74.3 123.7,73.8 123.5,74.4 		"/>
		<polygon fill-rule="evenodd" clip-rule="evenodd" points="124.2,74.4 124.3,74.9 123.7,75 123.6,74.5 		"/>
		<polygon fill-rule="evenodd" clip-rule="evenodd" points="124.1,74.2 124.2,74.3 124.2,74.4 123.6,74.5 123.7,74.7 		"/>
		<polygon fill-rule="evenodd" clip-rule="evenodd" points="124.3,74.9 124.3,75.4 123.6,75.4 123.7,74.9 		"/>
		<polygon fill-rule="evenodd" clip-rule="evenodd" points="124.3,74.9 124.3,74.9 123.7,74.9 123.7,75 		"/>
		<polygon fill-rule="evenodd" clip-rule="evenodd" points="124.3,75.6 124.1,76.2 123.5,75.9 123.7,75.3 		"/>
		<polygon fill-rule="evenodd" clip-rule="evenodd" points="124.3,75.4 124.2,75.7 124.3,75.6 123.7,75.3 123.6,75.4 		"/>
		<polygon fill-rule="evenodd" clip-rule="evenodd" points="124.1,76.2 123.5,75.9 119.4,86.3 120,86.6 		"/>
		<path fill-rule="evenodd" clip-rule="evenodd" d="M124.1,76.2l-0.6-0.3L124.1,76.2z"/>
		<polygon fill-rule="evenodd" clip-rule="evenodd" points="120,86.6 119.7,87.3 119.3,87.9 118.7,87.7 119.1,87.1 119.4,86.3 		"/>
		<path fill-rule="evenodd" clip-rule="evenodd" d="M120,86.6l-0.6-0.3L120,86.6z"/>
		<polygon fill-rule="evenodd" clip-rule="evenodd" points="119.3,88 118.9,88.5 118.5,88.8 117.9,88.4 118.4,88.1 118.8,87.6 		"/>
		<polygon fill-rule="evenodd" clip-rule="evenodd" points="119.3,87.9 119.3,88 118.8,87.6 118.7,87.7 		"/>
		<rect x="118.2" y="88.3" width="3.5" height="0.7"/>
		<polygon fill-rule="evenodd" clip-rule="evenodd" points="117.9,88.4 117.4,89 118.2,89 118.2,88.3 118.5,88.8 		"/>
		<polygon fill-rule="evenodd" clip-rule="evenodd" points="121.4,88.9 120.9,88.3 121.4,87.9 121.9,88.4 		"/>
		<polygon fill-rule="evenodd" clip-rule="evenodd" points="121.7,89 122.4,89 121.9,88.4 121.4,88.9 121.7,88.3 		"/>
		<polygon fill-rule="evenodd" clip-rule="evenodd" points="120.9,88.2 120.7,87.8 121.3,87.5 121.5,88 		"/>
		<polygon fill-rule="evenodd" clip-rule="evenodd" points="120.9,88.3 120.9,88.3 120.9,88.2 121.5,88 121.4,87.9 		"/>
		<polygon fill-rule="evenodd" clip-rule="evenodd" points="120.7,87.6 120.8,87.1 121.4,87.2 121.3,87.7 		"/>
		<polygon fill-rule="evenodd" clip-rule="evenodd" points="120.7,87.8 120.7,87.7 120.7,87.6 121.3,87.7 121.3,87.5 		"/>
		<polygon fill-rule="evenodd" clip-rule="evenodd" points="120.8,87.1 120.9,86.5 121.5,86.8 121.4,87.3 		"/>
		<polygon fill-rule="evenodd" clip-rule="evenodd" points="120.8,87.1 120.8,87.1 121.4,87.3 121.4,87.2 		"/>
		<path fill-rule="evenodd" clip-rule="evenodd" d="M120.9,86.5l0.6,0.3L120.9,86.5z"/>
		<polygon fill-rule="evenodd" clip-rule="evenodd" points="122.9,81.6 123.5,81.9 125.7,76.3 125.1,76 		"/>
		<polygon fill-rule="evenodd" clip-rule="evenodd" points="125.7,76 125.1,76.3 127.2,81.9 127.8,81.6 		"/>
		<polygon fill-rule="evenodd" clip-rule="evenodd" points="125.1,76 125.4,75.2 125.7,76 125.1,76.3 125.7,76.3 		"/>
		<rect x="123.2" y="81.4" width="4.3" height="0.7"/>
		<polygon fill-rule="evenodd" clip-rule="evenodd" points="127.8,81.6 128,82.1 127.5,82.1 127.5,81.4 127.2,81.9 		"/>
		<polygon fill-rule="evenodd" clip-rule="evenodd" points="123.2,82.1 122.8,82.1 122.9,81.6 123.5,81.9 123.2,81.4 		"/>
		<polygon fill-rule="evenodd" clip-rule="evenodd" points="134.5,88.6 143.4,88.6 144.4,85.8 143.9,86.1 143.5,86.3 143,86.5 
			142.4,86.7 141.9,86.8 141.4,86.9 140.9,87 140.3,87 139.8,87 139.2,86.9 138.5,86.9 137.7,86.7 137.7,76.6 137.7,76.3 
			137.7,75.9 137.7,75.5 137.8,75.2 137.9,74.9 138,74.6 138.2,74.3 138.6,74.1 134.5,74.1 134.8,74.3 135,74.6 135.1,74.7 
			135.2,74.9 135.3,75.2 135.3,75.5 135.4,75.9 135.4,76.3 135.4,76.6 135.4,86.1 135.4,86.5 135.4,86.8 135.3,87.2 135.3,87.5 
			135.2,87.8 135,88.1 134.8,88.4 		"/>
		<rect x="134.5" y="88.3" width="8.8" height="0.7"/>
		<polygon fill-rule="evenodd" clip-rule="evenodd" points="143.1,88.5 143.7,88.8 144.7,85.9 144.1,85.7 		"/>
		<polygon fill-rule="evenodd" clip-rule="evenodd" points="143.4,89 143.6,89 143.7,88.8 143.1,88.5 143.4,88.3 		"/>
		<polygon fill-rule="evenodd" clip-rule="evenodd" points="144.5,86.1 143.6,86.6 142.6,87 142.2,86.4 143.2,86.1 144.2,85.5 		"/>
		<polygon fill-rule="evenodd" clip-rule="evenodd" points="144.7,85.9 145,85.1 144.2,85.5 144.5,86.1 144.1,85.7 		"/>
		<polygon fill-rule="evenodd" clip-rule="evenodd" points="142.5,87 141.5,87.3 140.4,87.3 140.2,86.7 141.3,86.6 142.3,86.4 		"/>
		<polygon fill-rule="evenodd" clip-rule="evenodd" points="142.6,87 142.5,87 142.3,86.4 142.2,86.4 		"/>
		<polygon fill-rule="evenodd" clip-rule="evenodd" points="140.3,87.3 139.1,87.3 137.6,87.1 137.7,86.4 139.2,86.6 140.3,86.7 		
			"/>
		<polygon fill-rule="evenodd" clip-rule="evenodd" points="140.4,87.3 140.3,87.3 140.3,86.7 140.2,86.7 		"/>
		<rect x="137.4" y="76.6" width="0.7" height="10.1"/>
		<polygon fill-rule="evenodd" clip-rule="evenodd" points="137.6,87.1 137.4,87.1 137.4,86.7 138,86.7 137.7,86.4 		"/>
		<polygon fill-rule="evenodd" clip-rule="evenodd" points="137.4,76.6 137.4,75.8 137.5,75.1 138.1,75.2 138,75.9 138,76.6 		"/>
		<polygon fill-rule="evenodd" clip-rule="evenodd" points="137.4,76.6 138,76.6 138,76.6 		"/>
		<polygon fill-rule="evenodd" clip-rule="evenodd" points="137.5,75 137.7,74.5 138,74.1 138.2,73.8 138.7,74.3 138.5,74.6 
			138.3,74.8 138,75.3 		"/>
		<polygon fill-rule="evenodd" clip-rule="evenodd" points="137.5,75.1 137.5,75 137.5,75 138,75.3 138.1,75.2 		"/>
		<rect x="134.5" y="73.8" width="4" height="0.7"/>
		<polygon fill-rule="evenodd" clip-rule="evenodd" points="138.7,74.3 139.3,73.8 138.5,73.8 138.5,74.4 138.2,73.8 		"/>
		<polygon fill-rule="evenodd" clip-rule="evenodd" points="134.8,73.9 135.2,74.5 135.5,75 134.9,75.4 134.7,74.8 134.3,74.3 		"/>
		<polygon fill-rule="evenodd" clip-rule="evenodd" points="134.5,73.8 133.9,73.8 134.3,74.3 134.8,73.9 134.5,74.4 		"/>
		<polygon fill-rule="evenodd" clip-rule="evenodd" points="135.5,75.1 135.7,75.9 135.7,76.6 135,76.7 135,75.9 134.9,75.2 		"/>
		<polygon fill-rule="evenodd" clip-rule="evenodd" points="135.5,75 135.5,75.1 135.5,75.1 134.9,75.2 134.9,75.4 		"/>
		<rect x="135.1" y="76.6" width="0.7" height="9.5"/>
		<polygon fill-rule="evenodd" clip-rule="evenodd" points="135.7,76.6 135.7,76.6 135.1,76.6 135,76.7 		"/>
		<polygon fill-rule="evenodd" clip-rule="evenodd" points="135.7,86.1 135.7,86.8 135.5,87.5 134.9,87.5 135,86.8 135,86.1 		"/>
		<polygon fill-rule="evenodd" clip-rule="evenodd" points="135.7,86.1 135.7,86.1 135,86.1 135.1,86.1 		"/>
		<polygon fill-rule="evenodd" clip-rule="evenodd" points="135.5,87.7 135.2,88.3 134.8,88.8 134.2,88.5 134.7,87.9 134.9,87.4 		
			"/>
		<polygon fill-rule="evenodd" clip-rule="evenodd" points="135.5,87.5 135.5,87.7 135.5,87.7 134.9,87.4 134.9,87.5 		"/>
		<polygon fill-rule="evenodd" clip-rule="evenodd" points="134.2,88.5 133.9,89 134.5,89 134.5,88.3 134.8,88.8 		"/>
		<path fill-rule="evenodd" clip-rule="evenodd" d="M47.8,68.3l0.9-2.3l0.9,2.3H47.8z M47.1,70.3l0.6-1.4h2.2l0.5,1.4l0.1,0.3v0.2
			v0.1l-0.1,0.1L50.3,71l-0.1,0.2h1.7L51.8,71l-0.1-0.1l-0.1-0.2l-0.1-0.1l-0.1-0.3l-0.1-0.2l-1.9-5H48l0.1,0.1l0.1,0.1l0.1,0.1v0.1
			v0.2L48.1,66l-1.6,4.2l-0.2,0.3l-0.2,0.2L46,70.9L45.9,71l-0.1,0.1h1.4L47.1,71L47,70.9L47,70.8v-0.1l0.1-0.2L47.1,70.3z"/>
		<polygon fill-rule="evenodd" clip-rule="evenodd" points="56.1,70.1 56.1,65.9 56.4,65.8 56.7,65.8 57,65.8 57.3,65.9 57.5,66 
			57.7,66.1 57.8,66.3 57.9,66.4 58,66.7 58.1,66.9 58,67.2 58,67.3 57.9,67.4 57.8,67.6 57.6,67.8 57.4,68 57.1,68.1 56.8,68.3 
			56.4,68.3 56.8,68.4 57.1,68.4 57.3,68.4 57.5,68.4 57.9,68.3 58.2,68.2 58.4,68.1 58.5,68 58.6,67.9 58.7,67.7 58.9,67.5 
			59,67.2 59,67 59,66.8 59,66.4 58.9,66.1 58.8,66 58.7,65.9 58.6,65.8 58.5,65.6 58.3,65.5 58.2,65.5 57.8,65.3 57.4,65.2 
			56.9,65.2 54.8,65.2 54.9,65.3 54.9,65.4 55,65.5 55,65.6 55.1,65.9 55.1,66.2 55.1,70.1 55.1,70.4 55,70.6 55,70.8 54.9,70.9 
			54.9,71 54.8,71.1 56.4,71.1 56.2,70.9 56.1,70.8 56.1,70.6 56.1,70.4 		"/>
		<polygon fill-rule="evenodd" clip-rule="evenodd" points="63.9,70.1 63.9,66.2 63.9,65.9 63.9,65.6 63.9,65.5 64,65.4 64.1,65.3 
			64.2,65.2 62.6,65.2 62.7,65.3 62.8,65.4 62.9,65.5 62.9,65.6 62.9,65.9 62.9,66.2 62.9,70.1 62.9,70.4 62.9,70.6 62.9,70.8 
			62.8,70.9 62.7,71 62.6,71.1 64.2,71.1 64,70.9 63.9,70.8 63.9,70.6 63.9,70.4 		"/>
		<polygon fill-rule="evenodd" clip-rule="evenodd" points="73,69.9 72.5,70.2 72,70.4 71.6,70.5 71.1,70.5 70.8,70.5 70.6,70.5 
			70.4,70.4 70.2,70.4 70,70.3 69.8,70.2 69.6,70 69.5,69.9 69.3,69.7 69.2,69.5 69.1,69.3 69,69.1 68.9,68.8 68.9,68.6 68.8,68.1 
			68.8,67.8 68.9,67.6 68.9,67.4 69,67.1 69.1,67 69.2,66.7 69.5,66.4 69.6,66.3 69.8,66.1 69.9,66 70.1,66 70.3,65.9 70.6,65.8 
			71,65.8 71.4,65.8 71.8,65.9 72.1,66 72.5,66.2 72.5,65.3 72.1,65.2 71.8,65.1 71.4,65.1 71.1,65.1 70.8,65.1 70.5,65.1 
			70.2,65.2 69.9,65.3 69.6,65.4 69.3,65.5 69,65.7 68.8,65.9 68.7,66 68.6,66.1 68.4,66.4 68.2,66.6 68.1,67 67.9,67.2 67.9,67.5 
			67.8,67.8 67.8,68.1 67.8,68.5 67.9,68.7 67.9,68.9 67.9,69.2 68,69.4 68.2,69.7 68.4,70 68.6,70.3 68.9,70.5 69.2,70.8 69.6,71 
			69.9,71 70.1,71.1 70.5,71.2 71,71.2 71.4,71.2 71.8,71.2 72.2,71.1 72.5,71 		"/>
		<path fill-rule="evenodd" clip-rule="evenodd" d="M79.6,65.7h0.3l0.3,0.1l0.3,0.1l0.3,0.1l0.2,0.2l0.2,0.2l0.2,0.2l0.2,0.3
			l0.2,0.3l0.1,0.4l0.1,0.3v0.4v0.3l-0.1,0.3l-0.1,0.2l-0.1,0.3l-0.1,0.2l-0.1,0.2l-0.2,0.2L81.1,70L81,70.1l-0.2,0.1l-0.2,0.2
			l-0.2,0.1l-0.2,0.1L80,70.6l-0.3,0.1h-0.3l-0.3-0.1l-0.3-0.1l-0.3-0.1l-0.3-0.2l-0.2-0.2l-0.2-0.2l-0.2-0.3l-0.2-0.3l-0.2-0.3
			l-0.1-0.3l-0.1-0.4v-0.4v-0.3l0.1-0.3l0.1-0.3l0.1-0.2l0.1-0.2l0.1-0.2l0.2-0.2l0.2-0.2l0.2-0.2l0.2-0.1l0.2-0.2l0.2-0.1l0.2-0.1
			l0.2-0.1l0.3-0.1H79.6z M79.5,71.2h0.3l0.3-0.1l0.3-0.1l0.3-0.1l0.3-0.1l0.3-0.2l0.3-0.2l0.3-0.2l0.1-0.1l0.1-0.2l0.2-0.3l0.2-0.3
			l0.2-0.3l0.1-0.3l0.1-0.3l0.1-0.3v-0.4v-0.3l-0.1-0.3l-0.1-0.3l-0.1-0.3l-0.1-0.3l-0.2-0.3l-0.2-0.2l-0.3-0.3l-0.2-0.2l-0.3-0.2
			l-0.3-0.2l-0.3-0.1l-0.3-0.1l-0.3-0.1l-0.3-0.1h-0.4h-0.4l-0.4,0.1l-0.4,0.1L78,65.4l-0.4,0.2l-0.3,0.2L77.1,66l-0.3,0.3l-0.3,0.5
			L76.5,67l-0.1,0.2l-0.1,0.5l-0.1,0.5v0.4l0.1,0.3l0.1,0.3l0.1,0.3l0.2,0.3l0.2,0.3l0.2,0.2l0.3,0.3l0.2,0.2l0.3,0.2l0.3,0.2
			l0.3,0.1l0.3,0.1l0.4,0.1l0.3,0.1H79.5z"/>
		<polygon fill-rule="evenodd" clip-rule="evenodd" points="86.3,71.1 90,71.1 90.4,70 90.2,70.1 90,70.2 89.6,70.3 89.4,70.4 
			89.1,70.4 88.9,70.4 88.7,70.5 88.3,70.4 87.6,70.4 87.6,66.2 87.7,65.9 87.7,65.6 87.7,65.5 87.8,65.4 87.9,65.3 88,65.2 
			86.3,65.2 86.5,65.3 86.5,65.4 86.6,65.5 86.6,65.6 86.7,65.9 86.7,66.2 86.7,70.1 86.7,70.4 86.6,70.6 86.6,70.8 86.5,70.9 
			86.5,71 		"/>
		<path fill-rule="evenodd" clip-rule="evenodd" d="M94.9,68.3l0.9-2.3l0.9,2.3H94.9z M94.1,70.3l0.6-1.4h2.2l0.5,1.4l0.1,0.3
			l0.1,0.2l-0.1,0.1l-0.1,0.1L97.3,71l-0.1,0.2h1.7L98.8,71l-0.1-0.1l-0.1-0.2l-0.1-0.1l-0.1-0.3l-0.1-0.2l-1.9-5H95l0.1,0.1
			l0.1,0.1l0.1,0.1v0.1v0.2L95.1,66l-1.6,4.2l-0.2,0.3l-0.1,0.2L93,70.9L92.9,71l-0.1,0.1h1.4L94.1,71l-0.1-0.1L94,70.8L94,70.7
			l0.1-0.2L94.1,70.3z"/>
		<polygon fill-rule="evenodd" clip-rule="evenodd" fill="#FFCC33" points="72.1,0 85.4,7.6 98.6,15.2 98.6,30.4 98.6,45.6 
			85.4,53.2 72.1,60.8 58.9,53.2 45.7,45.6 45.7,30.4 45.7,15.2 58.9,7.6 		"/>
		<polygon fill-rule="evenodd" clip-rule="evenodd" points="98.8,32.3 98.8,45.6 85.6,53.2 72.3,60.8 59.1,53.2 45.8,45.6 
			45.8,32.3 55.3,32.3 55.3,47.3 89.4,47.3 89.4,32.3 		"/>
		<path fill-rule="evenodd" clip-rule="evenodd" d="M72.3,0l13.2,7.6l13.2,7.6v13.2h-9.4v-3.5v-0.3v-0.3V23H55.3v5.4h-9.5V15.2
			L59,7.6L72.3,0z M88.3,18.8l-0.5-1.2L87.6,17l-0.3-0.6l-0.3-0.6l-0.4-0.6l-0.4-0.5l-0.4-0.5l-0.4-0.5l-0.4-0.5l-0.5-0.5l-0.4-0.5
			l-1-0.9l-0.5-0.4l-0.5-0.4l-0.5-0.4L81.1,10l-0.6-0.3L80,9.4l-0.6-0.3l-0.6-0.3l-0.6-0.2l-0.6-0.3L77,8.2L76.4,8l-0.7-0.1L75,7.8
			l-0.7-0.1l-0.7-0.1H73l-0.7-0.1l-0.7,0.1H71l-0.7,0.1l-0.7,0.1L69,7.9L68.3,8l-0.6,0.2l-0.7,0.2l-0.6,0.3l-0.6,0.2l-0.6,0.3
			l-0.6,0.3l-0.6,0.3L63.5,10L63,10.4l-0.6,0.4l-0.5,0.4l-0.5,0.4L61,11.9l-0.5,0.5L60,12.8l-0.4,0.5l-0.8,1l-0.4,0.5l-0.4,0.5
			l-0.3,0.6l-0.4,0.6L57.1,17l-0.3,0.6l-0.3,0.6l-0.3,0.6H88.3z"/>
	</g>
</g>
<g id="Capa_2">
</g>
</svg>
