<?xml version="1.0" encoding="utf-8"?>
<!-- Generator: Adobe Illustrator 18.1.1, SVG Export Plug-In . SVG Version: 6.00 Build 0)  -->
<svg version="1.1" xmlns="http://www.w3.org/2000/svg" xmlns:xlink="http://www.w3.org/1999/xlink" x="0px" y="0px"
	 viewBox="0 0 579.8 163.1" enable-background="new 0 0 579.8 163.1" xml:space="preserve">
<g id="Capa_1">
	<g>
		<g>
			<path fill="#C1BFB1" d="M50.2,42.6c0,9.9-3.9,16.3-11.8,19.2l15.7,22.1h-17L23.4,64.1h-9.6v19.7H0V22h23.4
				c9.6,0,16.5,1.6,20.6,4.9C48.1,30.1,50.2,35.4,50.2,42.6z M33.5,49.9c1.7-1.5,2.6-4,2.6-7.3c0-3.3-0.9-5.6-2.7-6.9
				s-4.9-1.9-9.3-1.9H13.8v18.3h10.1C28.6,52.2,31.8,51.4,33.5,49.9z"/>
			<path fill="#C1BFB1" d="M104.5,22v12.3H73.7v12.7h27.7v11.8H73.7v12.8h31.8v12.2H59.9V22H104.5z"/>
			<path fill="#C1BFB1" d="M155.9,27.6c4.3,3.7,6.5,9.3,6.5,17c0,7.6-2.2,13.2-6.7,16.8c-4.5,3.5-11.3,5.3-20.4,5.3h-8.2v17.3h-13.8
				V22h21.9C144.7,22,151.6,23.9,155.9,27.6z M145.8,51.9c1.7-1.9,2.5-4.6,2.5-8.1c0-3.6-1.1-6.1-3.2-7.6c-2.2-1.5-5.5-2.3-10-2.3
				h-7.9v20.8h9.3C141,54.7,144.2,53.8,145.8,51.9z"/>
			<path fill="#C1BFB1" d="M185.2,67.9c2.3,2.9,5.4,4.3,9.3,4.3s7-1.4,9.2-4.3c2.3-2.9,3.4-6.8,3.4-11.7V22h13.8v34.6
				c0,9-2.5,15.9-7.4,20.7c-5,4.8-11.3,7.2-19,7.2c-7.7,0-14.1-2.4-19.1-7.3c-5-4.8-7.5-11.7-7.5-20.6V22h13.8v34.2
				C181.7,61.1,182.9,65,185.2,67.9z M200.8,15.7h-12.7L199.3,0l13.7,5.8L200.8,15.7z"/>
			<path fill="#C1BFB1" d="M257.9,83.9h-27.1V22h24.1c4.2,0,7.8,0.5,10.8,1.5c3,1,5.3,2.4,6.9,4.1c2.8,3.2,4.2,6.8,4.2,10.8
				c0,4.8-1.6,8.4-4.7,10.8c-1.1,0.8-1.8,1.3-2.2,1.5c-0.4,0.2-1.2,0.5-2.2,1c3.8,0.8,6.9,2.6,9.2,5.2c2.3,2.6,3.4,5.9,3.4,9.8
				c0,4.3-1.5,8.1-4.4,11.4C272.4,82,266.4,83.9,257.9,83.9z M244.6,47.1h6.5c3.8,0,6.7-0.4,8.5-1.2c1.9-0.8,2.8-2.6,2.8-5.4
				c0-2.7-0.9-4.6-2.6-5.4c-1.7-0.9-4.6-1.3-8.7-1.3h-6.6V47.1z M244.6,72.2h9.5c4,0,6.9-0.5,8.9-1.5c2-1,3-2.9,3-5.8
				c0-2.9-1-4.7-3.1-5.7c-2.1-0.9-5.4-1.4-10-1.4h-8.1V72.2z"/>
			<path fill="#C1BFB1" d="M287.4,83.9V22h13.8v49.5h26.4v12.3H287.4z"/>
			<path fill="#C1BFB1" d="M333.2,22H347v61.8h-13.8V22z"/>
			<path fill="#C1BFB1" d="M386.2,71.7c6.8,0,12.3-2.7,16.6-8.1l8.8,9.1c-7,7.9-15.3,11.9-24.8,11.9c-9.5,0-17.4-3-23.5-9
				c-6.2-6-9.2-13.6-9.2-22.8c0-9.2,3.1-16.8,9.4-23c6.3-6.1,14-9.2,23-9.2c10.1,0,18.6,3.9,25.5,11.6l-8.6,9.7
				c-4.4-5.4-9.8-8.1-16.3-8.1c-5.2,0-9.6,1.7-13.3,5.1c-3.7,3.4-5.5,8-5.5,13.7s1.7,10.4,5.2,13.8C377,69.9,381.2,71.7,386.2,71.7z
				"/>
			<path fill="#C1BFB1" d="M461.8,83.9L456,70.5h-25.9l-5.8,13.4h-14.7L436.4,22h13.4l26.7,61.8H461.8z M443.1,40.4l-7.8,18h15.5
				L443.1,40.4z"/>
		</g>
		<g>
			<path fill="#5E615C" d="M497.2,66.7c2,1.8,3,4.3,3,7.5s-1,5.7-2.9,7.6c-1.9,1.9-4.9,2.8-8.8,2.8h-6.8V64h7.1
				C492.3,64,495.2,64.9,497.2,66.7z M496.6,74.3c0-4.7-2.7-7.1-8.1-7.1h-3.5v14.1h3.9c2.5,0,4.4-0.6,5.7-1.8
				C496,78.4,496.6,76.6,496.6,74.3z"/>
			<path fill="#5E615C" d="M517.6,64v3.3h-11v5.5h9.9v3.1h-9.9v5.5H518v3.3h-14.8V64H517.6z"/>
			<path fill="#5E615C" d="M527.6,84.6V64h3.5v17.3h9.4v3.3H527.6z"/>
			<path fill="#5E615C" d="M559.5,81.8c-2.1,2-4.7,3.1-7.7,3.1s-5.6-1-7.7-3.1c-2.1-2-3.1-4.6-3.1-7.6s1-5.6,3.1-7.6
				c2.1-2,4.7-3.1,7.7-3.1s5.6,1,7.7,3.1c2.1,2,3.1,4.6,3.1,7.6S561.5,79.7,559.5,81.8z M556.9,68.9c-1.4-1.5-3.1-2.2-5.2-2.2
				s-3.8,0.7-5.2,2.2c-1.4,1.5-2.1,3.2-2.1,5.3c0,2.1,0.7,3.8,2.1,5.3c1.4,1.5,3.1,2.2,5.2,2.2s3.8-0.7,5.2-2.2
				c1.4-1.5,2.1-3.2,2.1-5.3C559,72.1,558.3,70.3,556.9,68.9z"/>
			<path fill="#5E615C" d="M571.7,66.7c-1,0-1.8,0.2-2.5,0.6c-0.6,0.4-1,1-1,1.9c0,0.8,0.3,1.5,1,1.9c0.6,0.4,2,0.9,4.1,1.4
				c2.1,0.5,3.7,1.2,4.8,2.2c1.1,0.9,1.6,2.3,1.6,4.1c0,1.8-0.7,3.3-2,4.4c-1.4,1.1-3.1,1.7-5.3,1.7c-3.2,0-6.1-1.1-8.6-3.3l2.2-2.6
				c2.1,1.8,4.2,2.7,6.5,2.7c1.1,0,2-0.2,2.7-0.7c0.7-0.5,1-1.1,1-1.9s-0.3-1.4-0.9-1.9c-0.6-0.4-1.7-0.8-3.2-1.2
				c-1.5-0.4-2.7-0.7-3.5-1c-0.8-0.3-1.5-0.7-2.1-1.2c-1.2-0.9-1.8-2.3-1.8-4.2c0-1.9,0.7-3.4,2.1-4.4c1.4-1,3.1-1.5,5.1-1.5
				c1.3,0,2.6,0.2,3.9,0.6c1.3,0.4,2.4,1,3.4,1.8l-1.9,2.6c-0.6-0.5-1.4-1-2.5-1.4C573.8,66.9,572.8,66.7,571.7,66.7z"/>
		</g>
		<g>
			<path fill="#83867E" d="M42.5,100.6v12.1H13.8v13.4h27.3v12.1H13.8v24.2H0v-61.8H42.5z"/>
			<path fill="#83867E" d="M90.4,162.4l-5.8-13.4H58.8L53,162.4H38.3L65,100.6h13.4l26.7,61.8H90.4z M71.8,119l-7.8,18h15.5
				L71.8,119z"/>
			<path fill="#83867E" d="M151.1,100.6h13.8v61.8h-13.8l-29.5-38.8v38.8h-13.8v-61.8h12.9l30.3,39.8V100.6z"/>
			<path fill="#83867E" d="M201.9,112.5v49.9h-13.8v-49.9h-17.5v-11.9h48.8v11.9H201.9z"/>
			<path fill="#83867E" d="M264.6,162.4l-5.8-13.4H233l-5.8,13.4h-14.7l26.7-61.8h13.4l26.7,61.8H264.6z M246,119l-7.8,18h15.5
				L246,119z"/>
			<path fill="#83867E" d="M296.1,112.9c-1.3,1.1-2,2.5-2,4.3c0,1.8,0.8,3.2,2.4,4.3c1.6,1.1,5.4,2.3,11.2,3.8
				c5.9,1.4,10.4,3.6,13.7,6.5c3.2,2.9,4.9,7.1,4.9,12.7c0,5.5-2.1,10-6.2,13.5s-9.6,5.2-16.4,5.2c-9.8,0-18.6-3.6-26.5-10.9
				l8.2-10.1c6.7,5.8,12.8,8.8,18.5,8.8c2.5,0,4.5-0.5,6-1.6c1.4-1.1,2.2-2.6,2.2-4.4c0-1.9-0.8-3.3-2.3-4.4
				c-1.5-1.1-4.6-2.2-9.1-3.3c-7.2-1.7-12.5-3.9-15.8-6.7c-3.3-2.7-5-7-5-12.9c0-5.9,2.1-10.4,6.3-13.6c4.2-3.2,9.5-4.8,15.8-4.8
				c4.1,0,8.3,0.7,12.4,2.1c4.1,1.4,7.7,3.4,10.8,6l-7,10.1c-5.4-4.1-10.9-6.1-16.6-6.1C299.2,111.3,297.4,111.8,296.1,112.9z"/>
			<path fill="#83867E" d="M389,123.5l-16.7,33.8h-8.2l-16.6-33.8v38.9h-13.8v-61.8h18.7l15.9,34l16-34h18.6v61.8H389V123.5z"/>
			<path fill="#83867E" d="M457.7,162.4l-5.8-13.4H426l-5.8,13.4h-14.7l26.7-61.8h13.4l26.7,61.8H457.7z M439,119l-7.8,18h15.5
				L439,119z"/>
			<path fill="#83867E" d="M489.1,112.9c-1.3,1.1-2,2.5-2,4.3c0,1.8,0.8,3.2,2.4,4.3c1.6,1.1,5.4,2.3,11.2,3.8
				c5.9,1.4,10.4,3.6,13.7,6.5c3.2,2.9,4.9,7.1,4.9,12.7c0,5.5-2.1,10-6.2,13.5s-9.6,5.2-16.4,5.2c-9.8,0-18.6-3.6-26.5-10.9
				l8.2-10.1c6.7,5.8,12.8,8.8,18.5,8.8c2.5,0,4.5-0.5,6-1.6c1.4-1.1,2.2-2.6,2.2-4.4c0-1.9-0.8-3.3-2.3-4.4
				c-1.5-1.1-4.6-2.2-9.1-3.3c-7.2-1.7-12.5-3.9-15.8-6.7c-3.3-2.7-5-7-5-12.9c0-5.9,2.1-10.4,6.3-13.6c4.2-3.2,9.5-4.8,15.8-4.8
				c4.1,0,8.3,0.7,12.4,2.1c4.1,1.4,7.7,3.4,10.8,6l-7,10.1c-5.4-4.1-10.9-6.1-16.6-6.1C492.3,111.3,490.5,111.8,489.1,112.9z"/>
		</g>
	</g>
</g>
<g id="Capa_2">
</g>
</svg>
