<?xml version="1.0" encoding="utf-8"?>
<!-- Generator: Adobe Illustrator 18.1.1, SVG Export Plug-In . SVG Version: 6.00 Build 0)  -->
<svg version="1.1" xmlns="http://www.w3.org/2000/svg" xmlns:xlink="http://www.w3.org/1999/xlink" x="0px" y="0px"
	 viewBox="0 0 145 88.7" enable-background="new 0 0 145 88.7" xml:space="preserve">
<g id="Capa_1">
	<g>
		<g>
			<g>
				<rect x="43.4" y="10.9" width="58.3" height="58.3"/>
				<g>
					<path d="M46,0.6h-1.2V2h1v0.6h-1v2.1H44V0H46V0.6z"/>
					<path d="M48.9,3h-0.7V2.3l-0.6,0v2.5H47V1.7h0.7v0.1c0.1,0,0.3-0.1,0.4-0.1c0.2,0,0.3,0,0.4,0c0.2,0,0.4,0.1,0.4,0.4V3z"/>
					<path d="M51.9,4.8h-0.7V4.7c-0.2,0-0.3,0.1-0.5,0.1c-0.2,0-0.4,0-0.5,0c-0.3,0-0.4-0.1-0.4-0.4V3.3c0-0.3,0.1-0.4,0.4-0.4h0.9
						V2.2h-0.7v0.4H50V2.1c0-0.3,0.1-0.4,0.4-0.4h1.2c0.3,0,0.4,0.1,0.4,0.4V4.8z M51.3,4.2V3.4h-0.7v0.8L51.3,4.2z"/>
					<path d="M55,4.4c0,0.3-0.1,0.4-0.4,0.4h-1.2c-0.3,0-0.4-0.1-0.4-0.4V2.1c0-0.3,0.1-0.4,0.4-0.4h1.2c0.3,0,0.4,0.1,0.4,0.4v0.7
						h-0.7V2.3h-0.6v1.9h0.6V3.6H55V4.4z"/>
					<path d="M57.5,4.8h-0.8c-0.3,0-0.4-0.1-0.4-0.4V2.3H56V1.7h0.3V0.9H57v0.8h0.4v0.6H57v1.9h0.5V4.8z"/>
					<path d="M60.5,4.8h-0.7V4.7c-0.2,0-0.3,0.1-0.5,0.1c-0.2,0-0.4,0-0.5,0c-0.2,0-0.4-0.1-0.4-0.4V3.3c0-0.3,0.1-0.4,0.4-0.4h0.9
						V2.2h-0.7v0.4h-0.6V2.1c0-0.3,0.1-0.4,0.4-0.4h1.2c0.3,0,0.4,0.1,0.4,0.4V4.8z M59.8,4.2V3.4h-0.7v0.8L59.8,4.2z"/>
					<path d="M62.3,4.8h-0.7V0h0.7V4.8z"/>
					<path d="M67.8,4.8h-0.6l-1.1-3c0,0.1,0,0.3,0,0.3v2.7h-0.7V0H66l1.1,2.9c0-0.1,0-0.3,0-0.4V0h0.7V4.8z"/>
					<path d="M71,4.4c0,0.3-0.1,0.4-0.4,0.4h-1.3c-0.3,0-0.4-0.1-0.4-0.4V2.1c0-0.3,0.1-0.4,0.4-0.4h1.3c0.3,0,0.4,0.1,0.4,0.4V4.4z
						 M70.3,4.2V2.3h-0.7v1.9H70.3z"/>
					<path d="M72.8,4.8h-0.7V4h0.7V4.8z"/>
					<path d="M80.1,4.3c0,0.3-0.1,0.4-0.4,0.4h-1.5c-0.3,0-0.4-0.1-0.4-0.4V0.4c0-0.3,0.1-0.4,0.4-0.4h1.5c0.3,0,0.4,0.1,0.4,0.4
						V4.3z M79.4,4.2V0.6h-0.9v3.5H79.4z"/>
					<path d="M83.7,4.3c0,0.3-0.2,0.4-0.4,0.4h-1.5c-0.3,0-0.4-0.1-0.4-0.4V0.4c0-0.3,0.1-0.4,0.4-0.4h1.5c0.3,0,0.4,0.1,0.4,0.4
						V4.3z M83,4.2V0.6H82v3.5H83z"/>
					<path d="M86.4,4.8h-0.7V1.4h-0.3V1.3L85.8,0h0.6V4.8z"/>
				</g>
			</g>
			<g>
				<path d="M43.9,81.4"/>
				<path d="M9,82.8v-2.2H7.7L8,78.5H5.8l-0.4,2.2H4.2l0.4-2.2H2.4L2,80.6H0.7v2.2h1l-0.3,1.5H0v2.2h1l-0.3,2h2.2l0.3-2h1.3l-0.3,2
					h2.2l0.3-2h1.6v-2.2H7.1l0.3-1.5H9z M4.9,84.3H3.6l0.3-1.5h1.3L4.9,84.3z"/>
				<path d="M20.3,84.7c-0.4,0.9-1.4,1.5-2.4,1.5c-1.5,0-2.7-1.2-2.7-2.7c0-1.5,1.2-2.7,2.7-2.7c1.1,0,2,0.6,2.4,1.5l2.3-1.2
					c-0.9-1.7-2.7-2.9-4.7-2.9c-2.9,0-5.3,2.4-5.3,5.3c0,2.9,2.4,5.3,5.3,5.3c2,0,3.8-1.1,4.7-2.8L20.3,84.7z"/>
				<path d="M107.7,84.7c-0.4,0.9-1.4,1.5-2.4,1.5c-1.5,0-2.7-1.2-2.7-2.7c0-1.5,1.2-2.7,2.7-2.7c1.1,0,2,0.6,2.4,1.5l2.3-1.2
					c-0.9-1.7-2.7-2.9-4.7-2.9c-2.9,0-5.3,2.4-5.3,5.3c0,2.9,2.4,5.3,5.3,5.3c2,0,3.8-1.1,4.7-2.8L107.7,84.7z"/>
				<path d="M31.7,78.5h-2.6l-4,9.9h2.8l0.5-1.4h4l0.4,1.4h2.9L31.7,78.5z M29.2,84.9l1.1-3h0.3l1.2,3H29.2z"/>
				<path d="M55.9,78.5h-2.6l-4,9.9h2.8l0.5-1.4h4l0.4,1.4H60L55.9,78.5z M53.4,84.9l1.1-3h0.3l1.2,3H53.4z"/>
				<path d="M93.4,78.5h-2.6l-4,9.9h2.8l0.5-1.4h4l0.4,1.4h2.9L93.4,78.5z M90.9,84.9l1.1-3h0.3l1.2,3H90.9z"/>
				<path d="M130,78.5h-2.6l-4,9.9h2.8l0.5-1.4h4l0.4,1.4h2.9L130,78.5z M127.5,84.9l1.1-3h0.3l1.2,3H127.5z"/>
				<polygon points="122,78.5 113.1,78.5 113.1,80.9 116.2,80.9 116.2,88.5 118.9,88.5 118.9,80.9 122,80.9 				"/>
				<polygon points="71.1,80.9 71.1,78.5 63.5,78.5 63.5,80.8 63.5,80.9 63.5,82.7 63.5,85.1 63.5,88.5 66.3,88.5 66.3,85.1 
					70,85.1 70,82.7 66.3,82.7 66.3,80.9 				"/>
				<polygon points="140.3,86.1 140.3,78.5 137.7,78.5 137.7,86.1 137.7,87.7 137.7,88.5 145,88.5 145,86.1 				"/>
				<path d="M80.8,88.5h3l-2.2-3.1c1.3-0.5,2.2-1.8,2.2-3.3c0-2-1.6-3.6-3.6-3.6h-2.3h-2.3H75v10h2.8v-2.8h1L80.8,88.5z M77.8,80.9
					h2.1c0.7,0,1.3,0.6,1.3,1.3c0,0.7-0.6,1.3-1.3,1.3h-2.1V80.9z"/>
				<path fill-rule="evenodd" clip-rule="evenodd" d="M45,83.1c-0.9-0.5-1.8-0.8-2.7-1.2c-0.4-0.2-1-0.3-0.8-0.9
					c0.1-0.5,0.7-0.5,1.1-0.5c0.3,0,0.6,0,0.9,0.2h0c0,0,0.4,0.2,0.4,0.6l0,0v0.4h2.7v-0.5l0,0c0-0.2-0.1-0.4-0.1-0.6
					c-0.5-1.4-1.9-2.2-3.9-2.2c-0.2,0-0.5,0-0.8,0c-1.6,0.2-2.8,1.2-3,2.5c-0.2,1.4,0.4,2.4,1.9,3.2c0.6,0.3,1.3,0.5,1.9,0.8
					c0.5,0.3,1.6,0.3,1.3,1.1c-0.3,0.8-1.2,0.6-1.9,0.4c-0.3-0.1-0.6-0.3-0.8-0.5h-2.5c-0.1,0.7,0.2,1.3,0.8,1.7
					c1.4,1.1,2.9,1.3,4.6,0.9c1.5-0.3,2.4-1.1,2.6-2.4C46.9,85,46.3,83.9,45,83.1z"/>
			</g>
		</g>
	</g>
</g>
<g id="Capa_2">
</g>
</svg>
