<?xml version="1.0" encoding="utf-8"?>
<!-- Generator: Adobe Illustrator 18.1.1, SVG Export Plug-In . SVG Version: 6.00 Build 0)  -->
<svg version="1.1" xmlns="http://www.w3.org/2000/svg" xmlns:xlink="http://www.w3.org/1999/xlink" x="0px" y="0px"
	 viewBox="0 0 145 48.6" enable-background="new 0 0 145 48.6" xml:space="preserve">
<g id="Capa_1">
	<g>
		<path fill="#3C6197" d="M10.1,13.6c-0.6,0.3-1.9,0.6-3.5,0.6C2.8,14.2,0,11.8,0,7.5c0-4.2,2.8-7,6.9-7c1.7,0,2.7,0.4,3.2,0.6
			L9.7,2.5C9,2.2,8.1,1.9,7,1.9c-3.1,0-5.2,2-5.2,5.5c0,3.3,1.9,5.4,5.1,5.4c1,0,2.1-0.2,2.8-0.6L10.1,13.6z"/>
		<path fill="#3C6197" d="M12.6,9.3L12.6,9.3c0,2.1,1.2,3.7,2.9,3.7c1.7,0,2.9-1.6,2.9-3.7c0-1.6-0.8-3.7-2.9-3.7
			C13.5,5.5,12.6,7.4,12.6,9.3 M20.2,9.2c0,3.5-2.5,5.1-4.8,5.1c-2.6,0-4.6-1.9-4.6-4.9c0-3.2,2.1-5.1,4.7-5.1
			C18.4,4.2,20.2,6.2,20.2,9.2z"/>
		<path fill="#3C6197" d="M22,7c0-1,0-1.8-0.1-2.6h1.5L23.6,6h0c0.5-0.9,1.6-1.8,3.2-1.8c1.3,0,3.4,0.8,3.4,4.1V14h-1.7V8.5
			c0-1.5-0.6-2.8-2.2-2.8c-1.1,0-2,0.8-2.3,1.8c-0.1,0.2-0.1,0.5-0.1,0.8V14H22V7z"/>
		<path fill="#3C6197" d="M32.3,12.2c0.5,0.3,1.4,0.7,2.3,0.7c1.3,0,1.9-0.6,1.9-1.4c0-0.8-0.5-1.3-1.8-1.8C33,9.1,32.2,8.2,32.2,7
			c0-1.5,1.2-2.8,3.3-2.8c1,0,1.8,0.3,2.3,0.6l-0.4,1.3c-0.4-0.2-1.1-0.6-2-0.6c-1,0-1.6,0.6-1.6,1.3c0,0.8,0.6,1.1,1.8,1.6
			c1.7,0.6,2.5,1.5,2.5,2.9c0,1.7-1.3,2.9-3.6,2.9c-1,0-2-0.3-2.7-0.7L32.3,12.2z"/>
		<path fill="#3C6197" d="M42.1,1.7v2.7h2.5v1.3h-2.5v5.2c0,1.2,0.3,1.9,1.3,1.9c0.5,0,0.8-0.1,1-0.1l0.1,1.3
			c-0.3,0.1-0.9,0.2-1.5,0.2c-0.8,0-1.5-0.3-1.9-0.7c-0.5-0.5-0.7-1.4-0.7-2.5V5.8h-1.5V4.5h1.5V2.2L42.1,1.7z"/>
		<path fill="#3C6197" d="M46.1,7.4c0-1.1,0-2.1-0.1-3h1.5l0.1,1.9h0.1c0.4-1.3,1.5-2.1,2.6-2.1c0.2,0,0.3,0,0.5,0.1v1.6
			c-0.2,0-0.4-0.1-0.6-0.1c-1.2,0-2.1,0.9-2.3,2.2c0,0.2-0.1,0.5-0.1,0.8V14h-1.7V7.4z"/>
		<path fill="#3C6197" d="M60.2,11.4c0,1,0,1.9,0.1,2.6h-1.5l-0.1-1.6h0c-0.5,0.8-1.5,1.8-3.2,1.8c-1.5,0-3.3-0.8-3.3-4.2V4.5h1.7
			v5.3c0,1.8,0.5,3,2.1,3c1.2,0,2-0.8,2.3-1.6c0.1-0.3,0.2-0.6,0.2-0.9V4.5h1.7V11.4z"/>
		<path fill="#3C6197" d="M63.3,4.5l2.1,5.6c0.2,0.6,0.5,1.4,0.6,2h0c0.2-0.6,0.4-1.3,0.6-2l1.9-5.6h1.8l-2.6,6.8
			c-1.2,3.3-2.1,5-3.3,6c-0.9,0.8-1.7,1-2.1,1.1l-0.4-1.5c0.4-0.1,1-0.4,1.5-0.8c0.5-0.4,1.1-1,1.5-1.9c0.1-0.2,0.1-0.3,0.1-0.4
			c0-0.1,0-0.2-0.1-0.5l-3.5-8.8H63.3z"/>
		<path fill="#3C6197" d="M77.4,8.3L77.4,8.3c0-1.1-0.5-2.8-2.4-2.8c-1.8,0-2.5,1.6-2.7,2.8H77.4z M72.4,9.6c0,2.3,1.5,3.3,3.3,3.3
			c1.2,0,2-0.2,2.6-0.5l0.3,1.2c-0.6,0.3-1.7,0.6-3.2,0.6c-2.9,0-4.7-1.9-4.7-4.8c0-2.9,1.7-5.2,4.5-5.2c3.1,0,4,2.7,4,4.5
			c0,0.4,0,0.6-0.1,0.8H72.4z"/>
		<path fill="#3C6197" d="M80.9,7c0-1,0-1.8-0.1-2.6h1.5L82.4,6h0c0.5-0.9,1.6-1.8,3.2-1.8C87,4.2,89,5,89,8.3V14h-1.7V8.5
			c0-1.5-0.6-2.8-2.2-2.8c-1.1,0-2,0.8-2.3,1.8c-0.1,0.2-0.1,0.5-0.1,0.8V14h-1.7V7z"/>
		<path fill="#3C6197" d="M98,8.4L98,8.4c0-0.2,0-0.5-0.1-0.7c-0.3-1.1-1.2-2-2.5-2c-1.8,0-2.9,1.6-2.9,3.7c0,1.9,1,3.5,2.8,3.5
			c1.2,0,2.2-0.8,2.5-2.1c0.1-0.2,0.1-0.5,0.1-0.8V8.4z M99.7,0v11.5c0,0.8,0,1.8,0.1,2.5h-1.6l-0.1-1.7h0c-0.5,1.1-1.7,1.9-3.3,1.9
			c-2.3,0-4.1-2-4.1-4.9c0-3.2,2-5.1,4.3-5.1c1.5,0,2.4,0.7,2.9,1.5h0V0H99.7z"/>
		<path fill="#3C6197" d="M103.2,9.3L103.2,9.3c0,2.1,1.2,3.7,2.9,3.7c1.7,0,2.9-1.6,2.9-3.7c0-1.6-0.8-3.7-2.9-3.7
			C104.1,5.5,103.2,7.4,103.2,9.3 M110.8,9.2c0,3.5-2.4,5.1-4.8,5.1c-2.6,0-4.6-1.9-4.6-4.9c0-3.2,2.1-5.1,4.7-5.1
			C109,4.2,110.8,6.2,110.8,9.2z"/>
		<path fill="#3C6197" d="M116.4,0h1.7v6h0c0.3-0.5,0.7-0.9,1.2-1.2c0.5-0.3,1.1-0.5,1.8-0.5c1.3,0,3.3,0.8,3.3,4.1V14h-1.7V8.5
			c0-1.5-0.6-2.8-2.2-2.8c-1.1,0-2,0.8-2.3,1.7c-0.1,0.2-0.1,0.5-0.1,0.8V14h-1.7V0z"/>
		<path fill="#3C6197" d="M128,9.3L128,9.3c0,2.1,1.2,3.7,2.9,3.7c1.7,0,2.9-1.6,2.9-3.7c0-1.6-0.8-3.7-2.9-3.7
			C128.9,5.5,128,7.4,128,9.3 M135.6,9.2c0,3.5-2.4,5.1-4.8,5.1c-2.6,0-4.6-1.9-4.6-4.9c0-3.2,2.1-5.1,4.7-5.1
			C133.8,4.2,135.6,6.2,135.6,9.2z"/>
		<path fill="#3C6197" d="M137.9,4.5l2.1,5.6c0.2,0.6,0.4,1.4,0.6,2h0c0.2-0.6,0.4-1.3,0.6-2l1.9-5.6h1.8l-2.6,6.8
			c-1.2,3.3-2.1,5-3.3,6c-0.9,0.8-1.7,1-2.1,1.1l-0.4-1.5c0.4-0.1,1-0.4,1.5-0.8c0.5-0.4,1.1-1,1.5-1.9c0.1-0.2,0.1-0.3,0.1-0.4
			c0-0.1,0-0.2-0.1-0.5L136,4.5H137.9z"/>
		<rect x="0.5" y="18.8" fill="#3C6197" width="2.6" height="14.7"/>
		<path fill="#3C6197" d="M9.6,28.6L9.6,28.6C7.7,28.6,6,29,6,30.5c0,1,0.6,1.4,1.5,1.4c1,0,1.8-0.7,2-1.4c0.1-0.2,0.1-0.4,0.1-0.6
			V28.6z M9.9,33.5l-0.2-1.1H9.7c-0.6,0.8-1.7,1.3-3,1.3c-2.1,0-3.2-1.5-3.2-3c0-2.5,2.3-3.8,6-3.8v-0.2c0-0.7-0.3-1.8-2.1-1.8
			c-1,0-2.1,0.3-2.7,0.7l-0.5-1.7c0.8-0.5,2.1-0.9,3.7-0.9c3.3,0,4.2,2,4.2,4.2v3.6c0,0.9,0,1.8,0.1,2.4H9.9z"/>
		<path fill="#3C6197" d="M62.5,27.7L62.5,27.7c0-0.2,0-0.5-0.1-0.7c-0.2-1-1-1.8-2.2-1.8c-1.7,0-2.6,1.4-2.6,3.3
			c0,1.8,0.9,3.2,2.6,3.2c1,0,2-0.7,2.2-1.8c0.1-0.2,0.1-0.5,0.1-0.7V27.7z M65.1,18.8v11.9c0,1,0,2.2,0.1,2.8h-2.3l-0.1-1.6h0
			c-0.6,1.1-1.8,1.8-3.3,1.8c-2.4,0-4.4-2-4.4-5.2c0-3.4,2.1-5.4,4.6-5.4c1.4,0,2.4,0.6,2.9,1.3h0v-5.7H65.1z"/>
		<path fill="#3C6197" d="M72.5,27.4L72.5,27.4c0-0.9-0.4-2.5-2.1-2.5c-1.6,0-2.3,1.4-2.4,2.5H72.5z M68,29.2
			c0.1,1.8,1.5,2.6,3.1,2.6c1.2,0,2-0.2,2.8-0.5l0.4,1.8c-0.9,0.4-2.1,0.6-3.6,0.6c-3.3,0-5.3-2-5.3-5.1c0-2.8,1.7-5.4,5-5.4
			c3.3,0,4.4,2.7,4.4,4.9c0,0.5,0,0.8-0.1,1.1H68z"/>
		<rect x="75.3" y="18.8" fill="#3C6197" width="2.6" height="14.7"/>
		<path fill="#3C6197" d="M81.6,26.4c0-1.2,0-2.1-0.1-3h2.2l0.1,1.5h0.1c0.5-0.8,1.4-1.7,3.1-1.7c1.3,0,2.4,0.7,2.8,1.9h0
			c0.4-0.6,0.8-1,1.3-1.3c0.6-0.4,1.2-0.6,2-0.6c1.7,0,3.4,1.1,3.4,4.4v5.9h-2.5V28c0-1.7-0.6-2.7-1.8-2.7c-0.9,0-1.5,0.6-1.8,1.3
			c-0.1,0.3-0.1,0.6-0.1,0.8v6h-2.5v-5.8c0-1.4-0.6-2.4-1.8-2.4c-1,0-1.6,0.7-1.8,1.5c-0.1,0.2-0.1,0.5-0.1,0.8v6h-2.5V26.4z"/>
		<path fill="#3C6197" d="M103.1,28.6L103.1,28.6c-1.8,0-3.6,0.4-3.6,1.9c0,1,0.6,1.4,1.5,1.4c1,0,1.8-0.7,2-1.4
			c0.1-0.2,0.1-0.4,0.1-0.6V28.6z M103.5,33.5l-0.2-1.1h-0.1c-0.6,0.8-1.7,1.3-3,1.3c-2.1,0-3.2-1.5-3.2-3c0-2.5,2.3-3.8,6-3.8v-0.2
			c0-0.7-0.3-1.8-2.1-1.8c-1,0-2,0.3-2.7,0.7l-0.5-1.7c0.8-0.5,2.1-0.9,3.7-0.9c3.3,0,4.2,2,4.2,4.2v3.6c0,0.9,0,1.8,0.1,2.4H103.5z
			"/>
		<path fill="#3C6197" d="M108.5,21.9L108.5,21.9c0-1.6,0.6-2.5,1.6-2.5c0.5,0,0.9,0.2,1.3,0.4c0.3,0.2,0.6,0.4,0.9,0.4
			c0.3,0,0.5-0.2,0.6-0.9h1.2c0.1,1.7-0.5,2.4-1.6,2.4c-0.5,0-0.9-0.2-1.4-0.4c-0.4-0.2-0.6-0.4-0.8-0.4c-0.3,0-0.5,0.3-0.5,0.9
			H108.5z M106.7,26.4c0-1.2,0-2.1-0.1-3h2.3L109,25h0.1c0.4-0.8,1.5-1.7,3.2-1.7c1.8,0,3.6,1.1,3.6,4.3v6h-2.6v-5.7
			c0-1.5-0.5-2.5-1.9-2.5c-1,0-1.7,0.7-2,1.5c-0.1,0.2-0.1,0.5-0.1,0.8v5.9h-2.6V26.4z"/>
		<path fill="#3C6197" d="M122.4,28.6L122.4,28.6c-1.8,0-3.6,0.4-3.6,1.9c0,1,0.6,1.4,1.5,1.4c1,0,1.8-0.7,2-1.4
			c0.1-0.2,0.1-0.4,0.1-0.6V28.6z M122.7,33.5l-0.2-1.1h-0.1c-0.6,0.8-1.7,1.3-3,1.3c-2,0-3.2-1.5-3.2-3c0-2.5,2.3-3.8,6-3.8v-0.2
			c0-0.7-0.3-1.8-2.1-1.8c-1,0-2.1,0.3-2.7,0.7l-0.5-1.7c0.8-0.5,2.1-0.9,3.7-0.9c3.3,0,4.2,2,4.2,4.2v3.6c0,0.9,0,1.8,0.1,2.4
			H122.7z"/>
		<path fill="#3C6197" d="M126,26.4c0-1.2,0-2.1-0.1-3h2.3l0.1,1.5h0.1c0.4-0.8,1.5-1.7,3.2-1.7c1.8,0,3.6,1.1,3.6,4.3v6h-2.6v-5.7
			c0-1.5-0.5-2.5-1.9-2.5c-1,0-1.7,0.7-2,1.5c-0.1,0.2-0.1,0.5-0.1,0.8v5.9H126V26.4z"/>
		<path fill="#3C6197" d="M141.7,28.6L141.7,28.6c-1.8,0-3.6,0.4-3.6,1.9c0,1,0.6,1.4,1.5,1.4c1,0,1.8-0.7,2-1.4
			c0.1-0.2,0.1-0.4,0.1-0.6V28.6z M142,33.5l-0.2-1.1h-0.1c-0.6,0.8-1.7,1.3-3,1.3c-2,0-3.2-1.5-3.2-3c0-2.5,2.3-3.8,6.1-3.8v-0.2
			c0-0.7-0.3-1.8-2.1-1.8c-1,0-2,0.3-2.7,0.7l-0.5-1.7c0.8-0.5,2.1-0.9,3.7-0.9c3.3,0,4.2,2,4.2,4.2v3.6c0,0.9,0,1.8,0.2,2.4H142z"
			/>
		<g>
			<defs>
				<path id="SVGID_2272_" d="M28.9,30.2c-0.5,0.3-1.1,0.6-1.7,0.8c-0.6,0.2-1.3,0.3-2.1,0.3c-1.4,0-2.5-0.5-3.4-1.3
					c-0.8-0.9-1.2-2-1.2-3.4c0-0.9,0.2-1.7,0.5-2.4c0.3-0.7,0.8-1.3,1.5-1.8c0,0,0,0-0.1,0c-0.8-0.9-1.4-1.7-1.9-2.4
					c-1.2,0.7-2.1,1.6-2.7,2.7c-0.7,1.2-1,2.5-1,3.9c0,1.5,0.3,2.8,0.9,3.9c0.6,1.1,1.5,2,2.6,2.7c1.2,0.6,2.6,1,4.3,1
					c0.8,0,1.6-0.1,2.5-0.3c0.9-0.2,1.7-0.5,2.7-1L28.9,30.2z"/>
			</defs>
			<clipPath id="SVGID_2_">
				<use xlink:href="#SVGID_2272_"  overflow="visible"/>
			</clipPath>
			<linearGradient id="SVGID_3_" gradientUnits="userSpaceOnUse" x1="10.0938" y1="24.4901" x2="33.6187" y2="29.1537">
				<stop  offset="0" style="stop-color:#6CB8E9"/>
				<stop  offset="0.33" style="stop-color:#6AAFE3"/>
				<stop  offset="0.66" style="stop-color:#67A6DC"/>
				<stop  offset="1" style="stop-color:#67A6DC"/>
			</linearGradient>
			<rect x="16.8" y="20" clip-path="url(#SVGID_2_)" fill="url(#SVGID_3_)" width="13" height="14.2"/>
		</g>
		<g>
			<defs>
				<path id="SVGID_2275_" d="M25.2,21.7c0.7,0,1.4,0.1,2.1,0.3c0.7,0.2,1.3,0.4,1.9,0.8v-3.2c-0.5-0.2-1.1-0.4-1.8-0.5
					c-0.7-0.1-1.4-0.2-2.3-0.2c-1.7,0-3.2,0.4-4.4,1.1c-0.1,0-0.1,0.1-0.2,0.1c0.5,0.7,1.2,1.6,1.9,2.4c0,0,0,0,0.1,0
					C23.2,22,24.1,21.7,25.2,21.7"/>
			</defs>
			<clipPath id="SVGID_4_">
				<use xlink:href="#SVGID_2275_"  overflow="visible"/>
			</clipPath>
			<linearGradient id="SVGID_6_" gradientUnits="userSpaceOnUse" x1="3.0606" y1="11.3002" x2="41.2186" y2="27.9308">
				<stop  offset="0" style="stop-color:#F2D733"/>
				<stop  offset="0.13" style="stop-color:#EEC934"/>
				<stop  offset="0.27" style="stop-color:#ECBA34"/>
				<stop  offset="0.36" style="stop-color:#EFC934"/>
				<stop  offset="0.46" style="stop-color:#F2D733"/>
				<stop  offset="0.76" style="stop-color:#F2D733"/>
				<stop  offset="1" style="stop-color:#F2D733"/>
			</linearGradient>
			<rect x="20.5" y="18.8" clip-path="url(#SVGID_4_)" fill="url(#SVGID_6_)" width="8.6" height="3.9"/>
		</g>
		<g>
			<defs>
				<path id="SVGID_2278_" d="M39.1,24.8c-0.1-0.1-0.1-0.2-0.2-0.3c-0.1-0.2-0.2-0.3-0.4-0.4c-0.7-0.7-1.9-1.1-3.6-1.1
					c-0.9,0-1.6,0.1-2.4,0.3c-0.7,0.2-1.4,0.4-2,0.8l1.1,2.2c0.4-0.2,0.8-0.4,1.3-0.5c0.5-0.1,1-0.2,1.4-0.2c0.6,0,1,0.1,1.4,0.3
					c0.1,0,0.1,0.1,0.2,0.2C36,26,36,26.1,36,26.2C37.3,26,38.3,25.5,39.1,24.8"/>
			</defs>
			<clipPath id="SVGID_8_">
				<use xlink:href="#SVGID_2278_"  overflow="visible"/>
			</clipPath>
			<linearGradient id="SVGID_9_" gradientUnits="userSpaceOnUse" x1="7.6403" y1="10.467" x2="41.8345" y2="28.1844">
				<stop  offset="0" style="stop-color:#F2D733"/>
				<stop  offset="0.13" style="stop-color:#EEC934"/>
				<stop  offset="0.27" style="stop-color:#ECBA34"/>
				<stop  offset="0.36" style="stop-color:#EFC934"/>
				<stop  offset="0.46" style="stop-color:#F2D733"/>
				<stop  offset="0.76" style="stop-color:#F2D733"/>
				<stop  offset="1" style="stop-color:#F2D733"/>
			</linearGradient>
			<rect x="30.5" y="22.9" clip-path="url(#SVGID_8_)" fill="url(#SVGID_9_)" width="8.6" height="3.3"/>
		</g>
		<g>
			<defs>
				<path id="SVGID_2281_" d="M39.7,32.9c0-0.4,0-0.7,0-1.1V27c0-0.1,0-0.2,0-0.3c0,0-0.1,0-0.1,0c-1.9,0.5-3.1,1-4.9,2.5
					c0.2,0,0.3,0,0.5,0l1.2,0v2c-0.1,0.1-0.3,0.2-0.6,0.3c-0.3,0.1-0.6,0.1-1,0.1c-0.4,0-0.7-0.1-1-0.3c-0.2-0.1-0.3-0.3-0.3-0.5
					c-0.6,0.9-1.3,1.9-2.1,2.7c0.6,0.4,1.4,0.7,2.2,0.7c0.7,0,1.2-0.1,1.7-0.3c0.5-0.2,0.9-0.5,1.3-0.8l0.5,0.9h2.8
					C39.7,33.6,39.7,33.3,39.7,32.9"/>
			</defs>
			<clipPath id="SVGID_11_">
				<use xlink:href="#SVGID_2281_"  overflow="visible"/>
			</clipPath>
			<linearGradient id="SVGID_12_" gradientUnits="userSpaceOnUse" x1="27.3125" y1="42.7056" x2="41.7918" y2="21.1471">
				<stop  offset="0" style="stop-color:#CB205D"/>
				<stop  offset="0.44" style="stop-color:#8D2143"/>
				<stop  offset="0.53" style="stop-color:#8D2143"/>
				<stop  offset="0.59" style="stop-color:#A8204F"/>
				<stop  offset="0.66" style="stop-color:#CB205D"/>
				<stop  offset="1" style="stop-color:#CB205D"/>
			</linearGradient>
			<rect x="31.3" y="26.7" clip-path="url(#SVGID_11_)" fill="url(#SVGID_12_)" width="8.5" height="7.4"/>
		</g>
		<g>
			<defs>
				<path id="SVGID_2284_" d="M30.3,32.5c-0.1-0.1-0.1-0.2-0.1-0.3C30.2,32.3,30.3,32.4,30.3,32.5"/>
			</defs>
			<clipPath id="SVGID_14_">
				<use xlink:href="#SVGID_2284_"  overflow="visible"/>
			</clipPath>
			<linearGradient id="SVGID_15_" gradientUnits="userSpaceOnUse" x1="30.0281" y1="32.2857" x2="30.556" y2="32.3604">
				<stop  offset="0" style="stop-color:#365FA8"/>
				<stop  offset="1" style="stop-color:#67AADF"/>
			</linearGradient>
			<rect x="30.2" y="32.2" clip-path="url(#SVGID_14_)" fill="url(#SVGID_15_)" width="0.1" height="0.3"/>
		</g>
		<g>
			<defs>
				<path id="SVGID_2287_" d="M29.9,30.6c0,0.2,0,0.5,0.1,0.7C29.9,31.1,29.9,30.9,29.9,30.6"/>
			</defs>
			<clipPath id="SVGID_17_">
				<use xlink:href="#SVGID_2287_"  overflow="visible"/>
			</clipPath>
			<linearGradient id="SVGID_18_" gradientUnits="userSpaceOnUse" x1="29.7376" y1="30.9629" x2="30.0806" y2="31.0069">
				<stop  offset="0" style="stop-color:#365FA8"/>
				<stop  offset="1" style="stop-color:#67AADF"/>
			</linearGradient>
			<rect x="29.9" y="30.6" clip-path="url(#SVGID_17_)" fill="url(#SVGID_18_)" width="0.1" height="0.7"/>
		</g>
		<g>
			<defs>
				<path id="SVGID_2290_" d="M33.3,30.3c0-0.1,0-0.2,0-0.2C33.3,30.1,33.3,30.2,33.3,30.3"/>
			</defs>
			<clipPath id="SVGID_20_">
				<use xlink:href="#SVGID_2290_"  overflow="visible"/>
			</clipPath>
			<linearGradient id="SVGID_21_" gradientUnits="userSpaceOnUse" x1="33.2436" y1="30.1724" x2="33.4074" y2="30.1901">
				<stop  offset="0" style="stop-color:#365FA8"/>
				<stop  offset="1" style="stop-color:#67AADF"/>
			</linearGradient>
			<rect x="33.3" y="30.1" clip-path="url(#SVGID_20_)" fill="url(#SVGID_21_)" width="0" height="0.2"/>
		</g>
		<g>
			<defs>
				<path id="SVGID_2293_" d="M39.1,24.8c-0.8,0.7-1.8,1.2-3.1,1.4c0.1,0.2,0.2,0.4,0.2,0.7V27l-1.7,0.1l0.3,0
					c-0.1,0.8-0.4,1.5-0.8,2.3c0.1,0,0.2-0.1,0.2-0.1c0.1,0,0.2,0,0.3,0c1.8-1.5,3.1-2,4.9-2.5c0,0,0.1,0,0.1,0c0,0.1,0,0.2,0,0.3
					C39.6,26.1,39.5,25.4,39.1,24.8"/>
			</defs>
			<clipPath id="SVGID_23_">
				<use xlink:href="#SVGID_2293_"  overflow="visible"/>
			</clipPath>
			<linearGradient id="SVGID_24_" gradientUnits="userSpaceOnUse" x1="29.0447" y1="25.874" x2="46.0676" y2="28.4567">
				<stop  offset="0" style="stop-color:#365FA8"/>
				<stop  offset="1" style="stop-color:#67AADF"/>
			</linearGradient>
			<rect x="34.1" y="24.8" clip-path="url(#SVGID_23_)" fill="url(#SVGID_24_)" width="5.6" height="4.6"/>
		</g>
		<g>
			<defs>
				<path id="SVGID_2296_" d="M30,31.6c0,0.1,0.1,0.2,0.1,0.4C30.1,31.8,30,31.7,30,31.6"/>
			</defs>
			<clipPath id="SVGID_26_">
				<use xlink:href="#SVGID_2296_"  overflow="visible"/>
			</clipPath>
			<linearGradient id="SVGID_27_" gradientUnits="userSpaceOnUse" x1="29.8388" y1="31.7065" x2="30.27" y2="31.7681">
				<stop  offset="0" style="stop-color:#365FA8"/>
				<stop  offset="1" style="stop-color:#67AADF"/>
			</linearGradient>
			<rect x="30" y="31.6" clip-path="url(#SVGID_26_)" fill="url(#SVGID_27_)" width="0.1" height="0.4"/>
		</g>
		<g>
			<defs>
				<path id="SVGID_2299_" d="M33.3,30.4c0-0.2,0-0.4,0.1-0.6c0.1-0.2,0.2-0.3,0.4-0.4c0.1-0.1,0.2-0.1,0.3-0.1
					c0.3-0.8,0.6-1.5,0.8-2.3l-0.3,0c-0.5,0-1.1,0.1-1.5,0.2c-0.5,0.1-0.9,0.3-1.3,0.5c-0.6,0.3-1,0.7-1.3,1.1
					c-0.3,0.5-0.5,1.1-0.5,1.8c0,1,0.4,1.9,1,2.5c0.1,0.1,0.2,0.2,0.4,0.3c0.8-0.9,1.5-1.8,2.1-2.7C33.3,30.7,33.3,30.5,33.3,30.4"
					/>
			</defs>
			<clipPath id="SVGID_29_">
				<use xlink:href="#SVGID_2299_"  overflow="visible"/>
			</clipPath>
			<linearGradient id="SVGID_30_" gradientUnits="userSpaceOnUse" x1="0.5351" y1="26.7369" x2="38.0114" y2="30.8857">
				<stop  offset="0" style="stop-color:#6CB8E9"/>
				<stop  offset="0.33" style="stop-color:#6AAFE3"/>
				<stop  offset="0.66" style="stop-color:#67A6DC"/>
				<stop  offset="1" style="stop-color:#67A6DC"/>
			</linearGradient>
			<rect x="29.9" y="27" clip-path="url(#SVGID_29_)" fill="url(#SVGID_30_)" width="5" height="6.4"/>
		</g>
		<g>
			<defs>
				<path id="SVGID_2302_" d="M40.8,22.8l3.2,3v-7.6c-0.2,0.3-0.5,0.6-0.7,1C42.3,20.7,41.5,21.9,40.8,22.8"/>
			</defs>
			<clipPath id="SVGID_32_">
				<use xlink:href="#SVGID_2302_"  overflow="visible"/>
			</clipPath>
			<linearGradient id="SVGID_33_" gradientUnits="userSpaceOnUse" x1="33.948" y1="22.0628" x2="61.2259" y2="22.0628">
				<stop  offset="0" style="stop-color:#B8CF62"/>
				<stop  offset="0.31" style="stop-color:#B8CD62"/>
				<stop  offset="0.66" style="stop-color:#B7CB62"/>
				<stop  offset="1" style="stop-color:#B7CB62"/>
			</linearGradient>
			<rect x="40.8" y="18.2" clip-path="url(#SVGID_32_)" fill="url(#SVGID_33_)" width="3.2" height="7.6"/>
		</g>
		<g>
			<defs>
				<path id="SVGID_2305_" d="M41.4,33.4c0.5,0.5,1.3,0.7,2.4,0.7c0.3,0,0.7,0,1.1-0.1c0.4-0.1,0.8-0.2,1.2-0.3l-0.7-2.6
					c-0.1,0-0.3,0.1-0.4,0.1c-0.1,0-0.2,0-0.3,0c-0.2,0-0.4-0.1-0.6-0.2c-0.1-0.1-0.2-0.3-0.2-0.7v-4.2c-1,0-2.2,0.1-3.4,0.3v4.7
					C40.6,32.2,40.8,32.9,41.4,33.4"/>
			</defs>
			<clipPath id="SVGID_35_">
				<use xlink:href="#SVGID_2305_"  overflow="visible"/>
			</clipPath>
			<linearGradient id="SVGID_36_" gradientUnits="userSpaceOnUse" x1="25.3429" y1="46.3708" x2="49.3431" y2="24.7245">
				<stop  offset="0" style="stop-color:#CB205D"/>
				<stop  offset="0.44" style="stop-color:#8D2143"/>
				<stop  offset="0.53" style="stop-color:#8D2143"/>
				<stop  offset="0.59" style="stop-color:#A8204F"/>
				<stop  offset="0.66" style="stop-color:#CB205D"/>
				<stop  offset="1" style="stop-color:#CB205D"/>
			</linearGradient>
			<rect x="40.6" y="26.1" clip-path="url(#SVGID_35_)" fill="url(#SVGID_36_)" width="5.5" height="8"/>
		</g>
		<g>
			<defs>
				<path id="SVGID_2308_" d="M40.6,23.2v3.3c1.2-0.2,2.4-0.4,3.4-0.3v-0.3l-3.2-3C40.7,23,40.7,23.1,40.6,23.2"/>
			</defs>
			<clipPath id="SVGID_38_">
				<use xlink:href="#SVGID_2308_"  overflow="visible"/>
			</clipPath>
			<linearGradient id="SVGID_39_" gradientUnits="userSpaceOnUse" x1="35.2711" y1="23.1662" x2="44.4976" y2="25.1506">
				<stop  offset="0" style="stop-color:#365FA8"/>
				<stop  offset="1" style="stop-color:#67AADF"/>
			</linearGradient>
			<rect x="40.6" y="22.8" clip-path="url(#SVGID_38_)" fill="url(#SVGID_39_)" width="3.4" height="3.7"/>
		</g>
		<g>
			<defs>
				<path id="SVGID_2311_" d="M44,18.2v-0.4h-3.4v5.3c0.8-1.1,1.6-2.4,2.7-3.9C43.5,18.9,43.8,18.5,44,18.2"/>
			</defs>
			<clipPath id="SVGID_41_">
				<use xlink:href="#SVGID_2311_"  overflow="visible"/>
			</clipPath>
			<linearGradient id="SVGID_42_" gradientUnits="userSpaceOnUse" x1="39.8732" y1="19.4471" x2="44.7069" y2="21.5911">
				<stop  offset="0" style="stop-color:#F2D733"/>
				<stop  offset="0.13" style="stop-color:#EEC934"/>
				<stop  offset="0.27" style="stop-color:#ECBA34"/>
				<stop  offset="0.36" style="stop-color:#EFC934"/>
				<stop  offset="0.46" style="stop-color:#F2D733"/>
				<stop  offset="0.76" style="stop-color:#F2D733"/>
				<stop  offset="1" style="stop-color:#F2D733"/>
			</linearGradient>
			<rect x="40.6" y="17.9" clip-path="url(#SVGID_41_)" fill="url(#SVGID_42_)" width="3.4" height="5.3"/>
		</g>
		<g>
			<defs>
				<path id="SVGID_2314_" d="M48.4,18c-0.6,0-1.1,0.2-1.5,0.6c-0.4,0.4-0.6,0.8-0.6,1.4c0,0.6,0.2,1,0.6,1.4
					c0.4,0.4,0.9,0.6,1.5,0.6c0.6,0,1.1-0.2,1.5-0.6c0.4-0.4,0.6-0.8,0.6-1.4c0-0.6-0.2-1-0.6-1.4C49.5,18.2,49,18,48.4,18"/>
			</defs>
			<clipPath id="SVGID_44_">
				<use xlink:href="#SVGID_2314_"  overflow="visible"/>
			</clipPath>
			<linearGradient id="SVGID_45_" gradientUnits="userSpaceOnUse" x1="33.2044" y1="19.9586" x2="62.5107" y2="19.9586">
				<stop  offset="0" style="stop-color:#B8CF62"/>
				<stop  offset="0.31" style="stop-color:#B8CD62"/>
				<stop  offset="0.66" style="stop-color:#B7CB62"/>
				<stop  offset="1" style="stop-color:#B7CB62"/>
			</linearGradient>
			<rect x="46.4" y="18" clip-path="url(#SVGID_44_)" fill="url(#SVGID_45_)" width="4.1" height="3.9"/>
		</g>
		<g>
			<defs>
				<path id="SVGID_2317_" d="M46.7,23.2v3.5c0.9,0.1,2.2,0.1,3.4,0.9v-4.4H46.7z"/>
			</defs>
			<clipPath id="SVGID_47_">
				<use xlink:href="#SVGID_2317_"  overflow="visible"/>
			</clipPath>
			<linearGradient id="SVGID_48_" gradientUnits="userSpaceOnUse" x1="46.6709" y1="25.3882" x2="50.0968" y2="25.3882">
				<stop  offset="0" style="stop-color:#B8CF62"/>
				<stop  offset="0.31" style="stop-color:#B8CD62"/>
				<stop  offset="0.66" style="stop-color:#B7CB62"/>
				<stop  offset="1" style="stop-color:#B7CB62"/>
			</linearGradient>
			<rect x="46.7" y="23.2" clip-path="url(#SVGID_47_)" fill="url(#SVGID_48_)" width="3.4" height="4.4"/>
		</g>
		<g>
			<defs>
				<path id="SVGID_2320_" d="M50.1,33.9v-6.4c-1.2-0.8-2.5-0.8-3.4-0.9v7.3H50.1z"/>
			</defs>
			<clipPath id="SVGID_50_">
				<use xlink:href="#SVGID_2320_"  overflow="visible"/>
			</clipPath>
			<linearGradient id="SVGID_51_" gradientUnits="userSpaceOnUse" x1="33.7963" y1="41.1807" x2="51.4432" y2="28.017">
				<stop  offset="0" style="stop-color:#CB205D"/>
				<stop  offset="0.44" style="stop-color:#8D2143"/>
				<stop  offset="0.53" style="stop-color:#8D2143"/>
				<stop  offset="0.59" style="stop-color:#A8204F"/>
				<stop  offset="0.66" style="stop-color:#CB205D"/>
				<stop  offset="1" style="stop-color:#CB205D"/>
			</linearGradient>
			<rect x="46.7" y="26.7" clip-path="url(#SVGID_50_)" fill="url(#SVGID_51_)" width="3.4" height="7.3"/>
		</g>
		<g>
			<defs>
				<rect id="SVGID_2323_" x="0" y="38.5" width="144.2" height="10.1"/>
			</defs>
			<clipPath id="SVGID_53_">
				<use xlink:href="#SVGID_2323_"  overflow="visible"/>
			</clipPath>
			<linearGradient id="SVGID_54_" gradientUnits="userSpaceOnUse" x1="8.680963e-007" y1="43.5384" x2="144.1626" y2="43.5384">
				<stop  offset="0" style="stop-color:#365FA8"/>
				<stop  offset="1" style="stop-color:#67AADF"/>
			</linearGradient>
			<rect x="0" y="38.5" clip-path="url(#SVGID_53_)" fill="url(#SVGID_54_)" width="144.2" height="10.1"/>
		</g>
		<path fill="#FFFFFF" d="M34.9,44L34.9,44l-0.3-0.9c-0.1-0.2-0.1-0.5-0.2-0.7h0c-0.1,0.2-0.1,0.5-0.2,0.7L33.9,44H34.9z M33.8,44.5
			l-0.3,1h-0.7l1.2-3.6h0.8l1.2,3.6h-0.7l-0.3-1H33.8z"/>
		<polygon fill="#FFFFFF" points="39,41.9 39.6,41.9 39.6,45 41.1,45 41.1,45.5 39,45.5 		"/>
		<path fill="#FFFFFF" d="M46.5,45.4c-0.2,0.1-0.5,0.2-0.9,0.2c-1.1,0-1.8-0.7-1.8-1.8c0-1.2,0.8-1.9,1.9-1.9c0.4,0,0.7,0.1,0.9,0.2
			l-0.1,0.5c-0.2-0.1-0.4-0.1-0.7-0.1c-0.7,0-1.3,0.5-1.3,1.3c0,0.8,0.5,1.3,1.3,1.3c0.3,0,0.5-0.1,0.7-0.1L46.5,45.4z"/>
		<path fill="#FFFFFF" d="M51.3,44L51.3,44L51,43.1c-0.1-0.2-0.1-0.5-0.2-0.7h0c-0.1,0.2-0.1,0.5-0.2,0.7L50.4,44H51.3z M50.3,44.5
			l-0.3,1h-0.7l1.2-3.6h0.8l1.2,3.6h-0.7l-0.3-1H50.3z"/>
		<polygon fill="#FFFFFF" points="55.4,41.9 56.1,41.9 56.1,45 57.5,45 57.5,45.5 55.4,45.5 		"/>
		<path fill="#FFFFFF" d="M61.2,45L61.2,45c0.1,0,0.2,0,0.4,0c0.9,0,1.4-0.5,1.4-1.4c0-0.8-0.5-1.3-1.3-1.3c-0.2,0-0.4,0-0.5,0V45z
			 M60.5,42c0.3-0.1,0.7-0.1,1.1-0.1c0.7,0,1.1,0.1,1.5,0.4c0.4,0.3,0.6,0.7,0.6,1.3c0,0.6-0.2,1.1-0.6,1.4
			c-0.4,0.3-0.9,0.5-1.6,0.5c-0.4,0-0.7,0-0.9,0V42z"/>
		<path fill="#FFFFFF" d="M67.3,41.9L67.3,41.9v3.6h-0.7v-3.6H67.3z M67.8,41.1l-0.7,0.6h-0.5l0.5-0.6H67.8z"/>
		<path fill="#FFFFFF" d="M72.3,44L72.3,44L72,43.1c-0.1-0.2-0.1-0.5-0.2-0.7h0c-0.1,0.2-0.1,0.5-0.2,0.7L71.3,44H72.3z M71.2,44.5
			l-0.3,1h-0.7l1.2-3.6h0.8l1.2,3.6h-0.7l-0.3-1H71.2z"/>
		<path fill="#FFFFFF" d="M80.6,45L80.6,45c0.1,0,0.2,0,0.4,0c0.9,0,1.4-0.5,1.4-1.4c0-0.8-0.5-1.3-1.3-1.3c-0.2,0-0.4,0-0.4,0V45z
			 M79.9,42c0.3-0.1,0.7-0.1,1.1-0.1c0.7,0,1.1,0.1,1.5,0.4c0.3,0.3,0.6,0.7,0.6,1.3c0,0.6-0.2,1.1-0.6,1.4
			c-0.4,0.3-0.9,0.5-1.6,0.5c-0.4,0-0.7,0-0.9,0V42z"/>
		<polygon fill="#FFFFFF" points="88.1,43.9 86.7,43.9 86.7,45 88.3,45 88.3,45.5 86.1,45.5 86.1,41.9 88.2,41.9 88.2,42.5 
			86.7,42.5 86.7,43.4 88.1,43.4 		"/>
		<path fill="#FFFFFF" d="M97.4,45.4c-0.2,0.1-0.5,0.2-0.9,0.2c-1.1,0-1.8-0.7-1.8-1.8c0-1.2,0.8-1.9,1.9-1.9c0.4,0,0.7,0.1,0.9,0.2
			l-0.1,0.5c-0.2-0.1-0.4-0.1-0.7-0.1c-0.7,0-1.3,0.5-1.3,1.3c0,0.8,0.5,1.3,1.3,1.3c0.3,0,0.5-0.1,0.7-0.1L97.4,45.4z"/>
		<path fill="#FFFFFF" d="M102.3,44L102.3,44l-0.3-0.9c-0.1-0.2-0.1-0.5-0.2-0.7h0c-0.1,0.2-0.1,0.5-0.2,0.7l-0.3,0.9H102.3z
			 M101.2,44.5l-0.3,1h-0.7l1.2-3.6h0.8l1.2,3.6h-0.7l-0.3-1H101.2z"/>
		<polygon fill="#FFFFFF" points="106.4,41.9 107,41.9 107,45 108.5,45 108.5,45.5 106.4,45.5 		"/>
		<rect x="111.5" y="41.9" fill="#FFFFFF" width="0.7" height="3.6"/>
	</g>
</g>
<g id="Capa_2">
</g>
</svg>
