<?xml version="1.0" encoding="utf-8"?>
<!-- Generator: Adobe Illustrator 18.1.1, SVG Export Plug-In . SVG Version: 6.00 Build 0)  -->
<svg version="1.1" xmlns="http://www.w3.org/2000/svg" xmlns:xlink="http://www.w3.org/1999/xlink" x="0px" y="0px"
	 viewBox="0 0 48.9 48.9" enable-background="new 0 0 48.9 48.9" xml:space="preserve">
<g id="Capa_1">
	<g>
		<g>
			<g>
				<path fill="#FFFFFF" d="M15.3,9h18.3c0.5,0,1-0.4,1-1V0H14.3v8C14.3,8.6,14.8,9,15.3,9z"/>
				<path fill="#FFFFFF" d="M48.1,12.3L37.8,2V8c0,2.3-1.9,4.2-4.2,4.2H15.3c-2.3,0-4.2-1.9-4.2-4.2V0H4.5C2,0,0,2,0,4.5v39.9
					c0,2.5,2,4.5,4.5,4.5h39.9c2.5,0,4.5-2,4.5-4.5V14.1C48.9,13.4,48.6,12.8,48.1,12.3z M41.3,38.6c0,1.4-1.2,2.6-2.6,2.6H10.2
					c-1.4,0-2.6-1.2-2.6-2.6V24.9c0-1.4,1.2-2.6,2.6-2.6h28.4c1.4,0,2.6,1.2,2.6,2.6V38.6z"/>
				<path fill="#FFFFFF" d="M35.7,26.5H13.2c-0.9,0-1.6,0.7-1.6,1.6c0,0.9,0.7,1.6,1.6,1.6h22.5c0.9,0,1.6-0.7,1.6-1.6
					C37.3,27.3,36.6,26.5,35.7,26.5z"/>
				<path fill="#FFFFFF" d="M32.4,33.1h-16c-0.9,0-1.6,0.7-1.6,1.6c0,0.9,0.7,1.6,1.6,1.6h16c0.9,0,1.6-0.7,1.6-1.6
					C34,33.8,33.3,33.1,32.4,33.1z"/>
			</g>
		</g>
	</g>
</g>
<g id="Capa_2" display="none">
</g>
</svg>
