<?xml version="1.0" encoding="utf-8"?>
<!-- Generator: Adobe Illustrator 18.1.1, SVG Export Plug-In . SVG Version: 6.00 Build 0)  -->
<svg version="1.1" xmlns="http://www.w3.org/2000/svg" xmlns:xlink="http://www.w3.org/1999/xlink" x="0px" y="0px"
	 viewBox="0 0 47 66.5" enable-background="new 0 0 47 66.5" xml:space="preserve">
<g id="Capa_1">
	<g>
		<path fill="#C1BFB1" d="M3.7,12.5V0h40.2v10.2L30.5,25.5c5.3,0.9,9.3,3.1,12.2,6.6c2.9,3.5,4.3,7.6,4.3,12.3
			c0,6.9-2.3,12.3-7,16.2c-4.7,3.9-10.6,5.9-17.9,5.9S7.5,63.9,0,58.8l6-11.7c6.2,4.4,11.8,6.6,16.6,6.6c2.9,0,5.4-0.7,7.3-2.2
			c1.9-1.4,2.9-3.5,2.9-6.3c0-2.7-1.1-4.9-3.3-6.5c-2.2-1.6-5.2-2.4-9.1-2.4c-2.1,0-5,0.6-8.7,1.8V27.4l12.6-14.9H3.7z"/>
	</g>
</g>
<g id="Capa_2" display="none">
</g>
</svg>
