<?xml version="1.0" encoding="utf-8"?>
<!-- Generator: Adobe Illustrator 18.1.1, SVG Export Plug-In . SVG Version: 6.00 Build 0)  -->
<svg version="1.1" id="Capa_1" xmlns="http://www.w3.org/2000/svg" xmlns:xlink="http://www.w3.org/1999/xlink" x="0px" y="0px"
	 viewBox="0 350 311.6 68" enable-background="new 0 350 311.6 68" xml:space="preserve">
<g id="Capa_1_1_">
	<g>
		<g>
			<path fill="#C1BFB1" d="M22.1,384.6c4.1,0,7.3-1.6,9.9-4.8l5.2,5.4c-4.1,4.7-9.1,7.1-14.7,7.1s-10.4-1.8-14-5.4
				c-3.7-3.6-5.5-8.1-5.5-13.6s1.8-10,5.6-13.7c3.8-3.6,8.3-5.5,13.7-5.5c6,0,11.1,2.3,15.2,6.9l-5.1,5.8c-2.6-3.2-5.8-4.8-9.7-4.8
				c-3.1,0-5.7,1-7.9,3c-2.2,2-3.3,4.8-3.3,8.2c0,3.4,1,6.2,3.1,8.2C16.6,383.5,19.1,384.6,22.1,384.6z"/>
			<path fill="#C1BFB1" d="M71.3,386.7c-3.8,3.6-8.3,5.5-13.8,5.5s-10-1.8-13.8-5.5c-3.8-3.6-5.6-8.2-5.6-13.6s1.8-10,5.6-13.6
				c3.7-3.6,8.3-5.4,13.8-5.4c5.4,0,10,1.8,13.8,5.5s5.6,8.2,5.6,13.6C76.9,378.6,75,383.1,71.3,386.7z M68.5,373.2
				c0-3.3-1.1-6.1-3.2-8.4c-2.1-2.3-4.7-3.5-7.7-3.5c-3.1,0-5.7,1.1-7.8,3.5s-3.2,5.1-3.2,8.4s1.1,6.1,3.2,8.4
				c2.1,2.3,4.7,3.5,7.8,3.5s5.7-1.1,7.7-3.5C67.5,379.3,68.5,376.5,68.5,373.2z"/>
			<path fill="#C1BFB1" d="M107,355h8.2v36.8H107l-17.6-23.1v23.1h-8.2V355h7.7l18.1,23.7L107,355L107,355z"/>
			<path fill="#C1BFB1" d="M130.3,362.4c-0.8,0.7-1.2,1.5-1.2,2.6c0,1.1,0.5,1.9,1.4,2.6c1,0.7,3.2,1.4,6.7,2.3
				c3.5,0.8,6.2,2.1,8.2,3.9c1.9,1.7,2.9,4.2,2.9,7.6c0,3.3-1.3,6-3.7,8s-5.7,3-9.8,3c-5.8,0-11.1-2.1-15.8-6.5l4.9-6
				c4,3.5,7.6,5.2,11,5.2c1.5,0,2.7-0.3,3.6-1c0.8-0.7,1.3-1.5,1.3-2.6c0-1.1-0.5-2-1.4-2.6c-0.9-0.7-2.7-1.3-5.4-2
				c-4.3-1-7.4-2.3-9.4-4c-2-1.6-3-4.2-3-7.7s1.3-6.2,3.8-8.1c2.5-1.9,5.7-2.9,9.4-2.9c2.4,0,4.9,0.4,7.4,1.3c2.4,0.8,4.6,2,6.4,3.6
				l-4.2,6c-3.2-2.4-6.5-3.6-9.9-3.6C132.2,361.3,131.1,361.7,130.3,362.4z"/>
			<path fill="#C1BFB1" d="M167.9,362.1v29.7h-8.2v-29.7h-10.4V355h29.1v7.1L167.9,362.1L167.9,362.1z"/>
			<path fill="#C1BFB1" d="M211.7,367.2c0,5.9-2.3,9.7-7,11.4l9.4,13.2h-10.1l-8.2-11.7H190v11.7h-8.2V355h13.9
				c5.7,0,9.8,1,12.3,2.9C210.4,359.8,211.7,362.9,211.7,367.2z M201.8,371.6c1-0.9,1.5-2.4,1.5-4.4c0-2-0.5-3.3-1.6-4.1
				c-1.1-0.8-2.9-1.1-5.5-1.1H190v10.9h6C198.8,373,200.7,372.5,201.8,371.6z"/>
			<path fill="#C1BFB1" d="M227.2,382.3c1.4,1.7,3.2,2.6,5.5,2.6c2.3,0,4.2-0.8,5.5-2.6c1.4-1.7,2-4.1,2-7V355h8.2v20.6
				c0,5.4-1.5,9.5-4.4,12.3c-3,2.9-6.7,4.3-11.3,4.3c-4.6,0-8.4-1.4-11.4-4.4c-3-2.9-4.5-7-4.5-12.3V355h8.2v20.4
				C225.2,378.3,225.9,380.6,227.2,382.3z"/>
			<path fill="#C1BFB1" d="M270.3,391.9h-8.2v-14.6L249.4,355h8.9l8,13.7l8-13.7h8.9l-12.8,22.3v14.6H270.3z"/>
			<path fill="#C1BFB1" d="M311,355v7.3h-18.4v7.6h16.5v7h-16.5v7.6h19v7.3h-27.2V355H311z"/>
		</g>
	</g>
	<g>
		<path fill="#83867E" d="M3.3,413.7v-10.3h2.3v8.2H10v2L3.3,413.7L3.3,413.7z"/>
		<path fill="#83867E" d="M20.4,413.7l-1-2.2h-4.3l-1,2.2h-2.4l4.5-10.3h2.2l4.5,10.3H20.4z M17.3,406.5l-1.3,3h2.6L17.3,406.5z"/>
		<path fill="#5E615C" d="M39.3,406.9c0,1.7-0.7,2.7-2,3.2l2.6,3.6h-2.8l-2.3-3.3h-1.6v3.3h-2.3v-10.3h3.9c1.6,0,2.7,0.3,3.4,0.8
			C39,404.8,39.3,405.7,39.3,406.9z M36.5,408.1c0.3-0.2,0.4-0.7,0.4-1.2c0-0.5-0.1-1-0.4-1.1c-0.3-0.2-0.8-0.3-1.5-0.3h-1.7v3h1.7
			C35.7,408.5,36.2,408.4,36.5,408.1z"/>
		<path fill="#5E615C" d="M50.5,403.4v2h-5.1v2.1h4.6v2h-4.6v2.1h5.3v2h-7.6v-10.3H50.5z"/>
		<path fill="#5E615C" d="M61.3,404.4c0.7,0.6,1.1,1.5,1.1,2.8c0,1.3-0.4,2.2-1.1,2.8c-0.7,0.6-1.8,0.9-3.4,0.9h-1.4v2.9h-2.3v-10.3
			h3.6C59.5,403.4,60.6,403.8,61.3,404.4z M59.7,408.4c0.3-0.3,0.4-0.8,0.4-1.4s-0.2-1-0.5-1.3c-0.4-0.2-0.9-0.4-1.7-0.4h-1.3v3.5
			h1.5C58.8,408.9,59.4,408.7,59.7,408.4z"/>
		<path fill="#5E615C" d="M68.4,411.1c0.4,0.5,0.9,0.7,1.5,0.7c0.7,0,1.1-0.2,1.5-0.7c0.4-0.5,0.6-1.1,0.6-2v-5.7h2.3v5.8
			c0,1.5-0.4,2.6-1.3,3.5c-0.8,0.8-1.9,1.2-3.2,1.2c-1.3,0-2.3-0.4-3.2-1.2c-0.8-0.8-1.3-2-1.3-3.5v-5.8h2.3v5.7
			C67.8,410,68,410.6,68.4,411.1z M71,402.4h-2.1l1.8-2.6l2.3,1L71,402.4z"/>
		<path fill="#5E615C" d="M82.7,413.7h-4.5v-10.3h4c0.7,0,1.3,0.1,1.8,0.2c0.5,0.2,0.9,0.4,1.1,0.7c0.5,0.5,0.7,1.1,0.7,1.8
			c0,0.8-0.2,1.4-0.8,1.8c-0.2,0.1-0.3,0.2-0.4,0.2c-0.1,0.1-0.2,0.1-0.4,0.2c0.7,0.1,1.1,0.4,1.5,0.8c0.4,0.4,0.6,1,0.6,1.6
			c0,0.7-0.2,1.4-0.7,1.9C85.1,413.4,84.2,413.7,82.7,413.7z M80.5,407.6h1.1c0.7,0,1.1-0.1,1.4-0.2c0.3-0.1,0.5-0.4,0.5-0.9
			s-0.1-0.8-0.4-0.9c-0.3-0.1-0.8-0.2-1.4-0.2h-1.1C80.5,405.4,80.5,407.6,80.5,407.6z M80.5,411.8h1.5c0.7,0,1.1-0.1,1.5-0.2
			c0.4-0.2,0.5-0.5,0.5-1s-0.2-0.8-0.5-1c-0.4-0.2-0.9-0.2-1.7-0.2h-1.4L80.5,411.8L80.5,411.8z"/>
		<path fill="#5E615C" d="M89.8,413.7v-10.3h2.3v8.2h4.4v2L89.8,413.7L89.8,413.7z"/>
		<path fill="#5E615C" d="M99.6,403.4h2.3v10.3h-2.3V403.4z"/>
		<path fill="#5E615C" d="M110.7,411.7c1.1,0,2-0.5,2.7-1.3l1.5,1.5c-1.2,1.3-2.6,2-4.1,2s-2.9-0.5-3.9-1.5c-1-1-1.5-2.3-1.5-3.8
			c0-1.5,0.5-2.8,1.5-3.8s2.3-1.5,3.8-1.5c1.7,0,3.1,0.7,4.2,1.9l-1.4,1.6c-0.7-0.9-1.6-1.4-2.7-1.4c-0.9,0-1.6,0.3-2.2,0.8
			c-0.6,0.5-0.9,1.3-0.9,2.3s0.3,1.7,0.9,2.3C109.2,411.4,109.9,411.7,110.7,411.7z"/>
		<path fill="#5E615C" d="M125.5,413.7l-1-2.2h-4.3l-1,2.2h-2.5l4.5-10.3h2.2l4.5,10.3H125.5z M122.4,406.5l-1.3,3h2.6L122.4,406.5z
			"/>
		<path fill="#83867E" d="M143.8,404.8c1,0.9,1.5,2.1,1.5,3.8c0,1.6-0.5,2.9-1.4,3.8c-1,1-2.4,1.4-4.4,1.4h-3.5v-10.3h3.6
			C141.4,403.4,142.9,403.9,143.8,404.8z M142.1,410.9c0.5-0.5,0.8-1.3,0.8-2.3c0-1-0.3-1.8-0.8-2.3c-0.5-0.5-1.4-0.8-2.6-0.8h-1.3
			v6.3h1.4C140.8,411.7,141.6,411.5,142.1,410.9z"/>
		<path fill="#83867E" d="M156.2,403.4v2h-5.1v2.1h4.6v2h-4.6v2.1h5.3v2h-7.6v-10.3H156.2z"/>
		<path fill="#83867E" d="M165.3,413.7v-10.3h2.3v8.2h4.4v2L165.3,413.7L165.3,413.7z"/>
		<path fill="#83867E" d="M183.4,412.3c-1,1-2.3,1.5-3.9,1.5c-1.5,0-2.8-0.5-3.9-1.5c-1-1-1.5-2.3-1.5-3.8c0-1.5,0.5-2.8,1.5-3.8
			s2.3-1.5,3.9-1.5c1.5,0,2.8,0.5,3.9,1.5c1,1,1.5,2.3,1.5,3.8C185,410,184.5,411.3,183.4,412.3z M182.7,408.5
			c0-0.9-0.3-1.7-0.9-2.3c-0.6-0.7-1.3-1-2.1-1s-1.6,0.3-2.1,1c-0.6,0.7-0.9,1.4-0.9,2.3s0.3,1.7,0.9,2.3c0.6,0.7,1.3,1,2.1,1
			s1.6-0.3,2.1-1C182.4,410.2,182.7,409.4,182.7,408.5z"/>
		<path fill="#83867E" d="M190.8,405.5c-0.2,0.2-0.4,0.4-0.4,0.7c0,0.3,0.1,0.5,0.4,0.7c0.3,0.2,0.9,0.4,1.8,0.7
			c1,0.2,1.7,0.6,2.3,1.1c0.5,0.5,0.8,1.2,0.8,2.1s-0.4,1.7-1,2.3c-0.7,0.6-1.6,0.8-2.7,0.8c-1.6,0-3.1-0.6-4.4-1.8l1.4-1.7
			c1.1,1,2.1,1.4,3.1,1.4c0.4,0,0.8-0.1,1-0.3c0.2-0.2,0.4-0.4,0.4-0.7c0-0.3-0.1-0.5-0.4-0.7c-0.2-0.2-0.8-0.4-1.5-0.5
			c-1.2-0.3-2.1-0.7-2.6-1.1c-0.5-0.5-0.8-1.2-0.8-2.1s0.4-1.7,1.1-2.3c0.7-0.5,1.5-0.8,2.6-0.8c0.7,0,1.4,0.1,2.1,0.4
			c0.7,0.2,1.3,0.6,1.8,1l-1.2,1.7c-0.9-0.7-1.8-1-2.7-1C191.3,405.2,190.9,405.3,190.8,405.5z"/>
		<path fill="#5E615C" d="M211.6,403.4v2h-4.8v2.2h4.5v2h-4.5v4.1h-2.3v-10.3H211.6z"/>
		<path fill="#5E615C" d="M221.8,413.7l-1-2.2h-4.3l-1,2.2h-2.4l4.5-10.3h2.2l4.5,10.3H221.8z M218.7,406.5l-1.3,3h2.6L218.7,406.5z
			"/>
		<path fill="#5E615C" d="M234.2,403.4h2.3v10.3h-2.3l-4.9-6.4v6.4h-2.3v-10.3h2.1l5.1,6.6V403.4z"/>
		<path fill="#5E615C" d="M244.8,405.4v8.3h-2.3v-8.3h-2.9v-2h8.1v2H244.8z"/>
		<path fill="#5E615C" d="M257.5,413.7l-1-2.2h-4.3l-1,2.2h-2.4l4.5-10.3h2.2l4.5,10.3H257.5z M254.4,406.5l-1.3,3h2.6L254.4,406.5z
			"/>
		<path fill="#5E615C" d="M264.9,405.5c-0.2,0.2-0.4,0.4-0.4,0.7c0,0.3,0.1,0.5,0.4,0.7c0.3,0.2,0.9,0.4,1.8,0.7
			c1,0.2,1.7,0.6,2.3,1.1s0.8,1.2,0.8,2.1s-0.4,1.7-1,2.3c-0.7,0.6-1.6,0.8-2.7,0.8c-1.6,0-3.1-0.6-4.4-1.8l1.4-1.7
			c1.1,1,2.1,1.4,3.1,1.4c0.4,0,0.8-0.1,1-0.3c0.2-0.2,0.4-0.4,0.4-0.7c0-0.3-0.1-0.5-0.4-0.7c-0.2-0.2-0.8-0.4-1.5-0.5
			c-1.2-0.3-2.1-0.7-2.6-1.1s-0.8-1.2-0.8-2.1s0.4-1.7,1.1-2.3c0.7-0.5,1.5-0.8,2.6-0.8c0.7,0,1.4,0.1,2.1,0.4
			c0.7,0.2,1.3,0.6,1.8,1l-1.2,1.7c-0.9-0.7-1.8-1-2.7-1C265.4,405.2,265.1,405.3,264.9,405.5z"/>
		<path fill="#5E615C" d="M282.6,407.2l-2.8,5.6h-1.4l-2.7-5.6v6.5h-2.3v-10.3h3.1l2.6,5.7l2.7-5.7h3.1v10.3h-2.3L282.6,407.2
			L282.6,407.2z"/>
		<path fill="#5E615C" d="M296.3,413.7l-1-2.2H291l-1,2.2h-2.4l4.5-10.3h2.2l4.5,10.3H296.3z M293.2,406.5l-1.3,3h2.6L293.2,406.5z"
			/>
		<path fill="#5E615C" d="M303.7,405.5c-0.2,0.2-0.4,0.4-0.4,0.7c0,0.3,0.1,0.5,0.4,0.7c0.3,0.2,0.9,0.4,1.8,0.7
			c1,0.2,1.7,0.6,2.3,1.1s0.8,1.2,0.8,2.1s-0.4,1.7-1,2.3c-0.7,0.6-1.6,0.8-2.7,0.8c-1.6,0-3.1-0.6-4.4-1.8l1.4-1.7
			c1.1,1,2.1,1.4,3.1,1.4c0.4,0,0.8-0.1,1-0.3s0.4-0.4,0.4-0.7c0-0.3-0.1-0.5-0.4-0.7c-0.2-0.2-0.8-0.4-1.5-0.5
			c-1.2-0.3-2.1-0.7-2.6-1.1s-0.8-1.2-0.8-2.1s0.4-1.7,1.1-2.3c0.7-0.5,1.5-0.8,2.6-0.8c0.7,0,1.4,0.1,2.1,0.4
			c0.7,0.2,1.3,0.6,1.8,1l-1.2,1.7c-0.9-0.7-1.8-1-2.7-1C304.2,405.2,303.9,405.3,303.7,405.5z"/>
	</g>
</g>
<g id="Capa_2" display="none">
</g>
</svg>
