<?xml version="1.0" encoding="utf-8"?>
<!-- Generator: Adobe Illustrator 18.1.1, SVG Export Plug-In . SVG Version: 6.00 Build 0)  -->
<svg version="1.1" xmlns="http://www.w3.org/2000/svg" xmlns:xlink="http://www.w3.org/1999/xlink" x="0px" y="0px"
	 viewBox="0 0 435 121.2" enable-background="new 0 0 435 121.2" xml:space="preserve">
<g id="Capa_1">
	<g opacity="0.65">
		<g>
			<path fill="#EAEAEA" d="M37.4,31.8c0,7.4-2.9,12.2-8.8,14.3l11.7,16.5H27.7L17.4,47.9h-7.1v14.7H0V16.4h17.5
				c7.2,0,12.3,1.2,15.4,3.6C35.9,22.5,37.4,26.4,37.4,31.8z M25,37.2c1.3-1.1,1.9-3,1.9-5.4c0-2.5-0.7-4.2-2-5.1
				c-1.3-0.9-3.6-1.4-6.9-1.4h-7.7V39h7.5C21.3,39,23.7,38.4,25,37.2z"/>
			<path fill="#EAEAEA" d="M78,16.4v9.2H55v9.5h20.7v8.8H55v9.6h23.7v9.1h-34V16.4H78z"/>
			<path fill="#EAEAEA" d="M116.4,20.6c3.2,2.8,4.9,7,4.9,12.7s-1.7,9.9-5,12.5c-3.3,2.6-8.4,4-15.2,4h-6.1v12.9H84.6V16.4h16.3
				C108,16.4,113.1,17.8,116.4,20.6z M108.8,38.7c1.2-1.4,1.8-3.4,1.8-6.1c0-2.7-0.8-4.6-2.4-5.7c-1.6-1.1-4.1-1.7-7.5-1.7h-5.9
				v15.5h6.9C105.2,40.8,107.6,40.1,108.8,38.7z"/>
			<path fill="#EAEAEA" d="M138.2,50.7c1.7,2.1,4,3.2,6.9,3.2s5.2-1.1,6.9-3.2c1.7-2.1,2.5-5.1,2.5-8.7V16.4h10.3v25.8
				c0,6.7-1.8,11.8-5.5,15.4c-3.7,3.6-8.4,5.4-14.2,5.4c-5.8,0-10.5-1.8-14.2-5.4c-3.7-3.6-5.6-8.7-5.6-15.4V16.4h10.3v25.5
				C135.6,45.6,136.5,48.5,138.2,50.7z M149.8,11.7h-9.4L148.8,0L159,4.3L149.8,11.7z"/>
			<path fill="#EAEAEA" d="M192.5,62.6h-20.2V16.4h18c3.1,0,5.8,0.4,8.1,1.1c2.3,0.7,4,1.8,5.1,3c2.1,2.4,3.1,5.1,3.1,8.1
				c0,3.6-1.2,6.3-3.5,8.1c-0.8,0.6-1.3,1-1.7,1.2c-0.3,0.2-0.9,0.4-1.7,0.8c2.9,0.6,5.1,1.9,6.8,3.9c1.7,2,2.5,4.4,2.5,7.3
				c0,3.2-1.1,6.1-3.3,8.5C203.2,61.2,198.8,62.6,192.5,62.6z M182.6,35.1h4.9c2.9,0,5-0.3,6.4-0.9c1.4-0.6,2.1-1.9,2.1-4
				c0-2-0.6-3.4-1.9-4.1c-1.3-0.7-3.4-1-6.5-1h-5V35.1z M182.6,53.9h7.1c2.9,0,5.2-0.4,6.6-1.1s2.2-2.2,2.2-4.3
				c0-2.1-0.8-3.5-2.3-4.2c-1.6-0.7-4.1-1-7.5-1h-6.1V53.9z"/>
			<path fill="#EAEAEA" d="M214.4,62.6V16.4h10.3v37h19.7v9.2H214.4z"/>
			<path fill="#EAEAEA" d="M248.6,16.4h10.3v46.2h-10.3V16.4z"/>
			<path fill="#EAEAEA" d="M288.2,53.5c5.1,0,9.2-2,12.4-6l6.6,6.8c-5.2,5.9-11.4,8.8-18.5,8.8c-7.1,0-13-2.2-17.6-6.7
				c-4.6-4.5-6.9-10.2-6.9-17c0-6.8,2.3-12.6,7-17.1s10.4-6.9,17.2-6.9c7.6,0,13.9,2.9,19,8.6l-6.4,7.3c-3.3-4-7.3-6.1-12.1-6.1
				c-3.9,0-7.2,1.3-9.9,3.8c-2.8,2.5-4.1,5.9-4.1,10.2s1.3,7.7,3.9,10.3C281.4,52.2,284.5,53.5,288.2,53.5z"/>
			<path fill="#EAEAEA" d="M344.6,62.6l-4.3-10h-19.3l-4.3,10h-11l19.9-46.2h10l19.9,46.2H344.6z M330.6,30.2l-5.8,13.4h11.6
				L330.6,30.2z"/>
		</g>
		<g>
			<path fill="#FFFFFF" d="M373.3,49.3c1.5,1.3,2.2,3.2,2.2,5.6s-0.7,4.3-2.2,5.7c-1.4,1.4-3.6,2.1-6.6,2.1h-5.1V47.2h5.3
				C369.7,47.2,371.8,47.9,373.3,49.3z M372.9,54.9c0-3.5-2-5.3-6.1-5.3h-2.6v10.5h2.9c1.9,0,3.3-0.4,4.3-1.3S372.9,56.7,372.9,54.9
				z"/>
			<path fill="#FFFFFF" d="M388.6,47.2v2.4h-8.2v4.1h7.4v2.3h-7.4v4.1h8.5v2.4h-11.1V47.2H388.6z"/>
			<path fill="#FFFFFF" d="M396,62.6V47.2h2.6v12.9h7v2.5H396z"/>
			<path fill="#FFFFFF" d="M419.8,60.5c-1.6,1.5-3.5,2.3-5.8,2.3c-2.3,0-4.2-0.8-5.8-2.3c-1.6-1.5-2.3-3.4-2.3-5.7s0.8-4.2,2.3-5.7
				c1.6-1.5,3.5-2.3,5.8-2.3c2.3,0,4.2,0.8,5.8,2.3c1.6,1.5,2.3,3.4,2.3,5.7S421.3,59,419.8,60.5z M417.9,50.9
				c-1-1.1-2.3-1.6-3.9-1.6c-1.5,0-2.8,0.5-3.9,1.6s-1.6,2.4-1.6,4s0.5,2.9,1.6,4s2.3,1.6,3.9,1.6c1.5,0,2.8-0.5,3.9-1.6
				s1.6-2.4,1.6-4S418.9,52,417.9,50.9z"/>
			<path fill="#FFFFFF" d="M429,49.3c-0.8,0-1.4,0.2-1.9,0.5c-0.5,0.3-0.7,0.8-0.7,1.4c0,0.6,0.2,1.1,0.7,1.4s1.5,0.7,3.1,1.1
				c1.6,0.4,2.8,0.9,3.6,1.6s1.2,1.7,1.2,3s-0.5,2.4-1.5,3.3c-1,0.8-2.3,1.3-4,1.3c-2.4,0-4.5-0.8-6.4-2.5l1.6-2
				c1.6,1.3,3.2,2,4.8,2c0.8,0,1.5-0.2,2-0.5c0.5-0.4,0.7-0.8,0.7-1.4c0-0.6-0.2-1.1-0.7-1.4c-0.5-0.3-1.3-0.6-2.4-0.9
				c-1.1-0.3-2-0.5-2.6-0.7s-1.1-0.5-1.6-0.9c-0.9-0.7-1.4-1.7-1.4-3.2c0-1.4,0.5-2.5,1.6-3.3c1-0.8,2.3-1.2,3.8-1.2
				c1,0,2,0.2,2.9,0.5c1,0.3,1.8,0.8,2.5,1.4l-1.4,2c-0.5-0.4-1.1-0.7-1.8-1C430.5,49.4,429.7,49.3,429,49.3z"/>
		</g>
		<g>
			<path fill="#EAEAEA" d="M32.4,75.1v9H11v10h20.3v9H11v18.1H0.7V75.1H32.4z"/>
			<path fill="#EAEAEA" d="M68.2,121.2l-4.3-10H44.5l-4.3,10h-11l19.9-46.2h10l19.9,46.2H68.2z M54.3,88.8l-5.8,13.4H60L54.3,88.8z"
				/>
			<path fill="#EAEAEA" d="M113.5,75.1h10.3v46.2h-10.3l-22-28.9v28.9H81.2V75.1h9.6l22.6,29.7V75.1z"/>
			<path fill="#EAEAEA" d="M151.4,84v37.2h-10.3V84H128v-8.9h36.4V84H151.4z"/>
			<path fill="#EAEAEA" d="M198.2,121.2l-4.3-10h-19.3l-4.3,10h-11l19.9-46.2h10l19.9,46.2H198.2z M184.3,88.8l-5.8,13.4H190
				L184.3,88.8z"/>
			<path fill="#EAEAEA" d="M221.7,84.3c-1,0.8-1.5,1.9-1.5,3.2c0,1.3,0.6,2.4,1.8,3.2c1.2,0.8,4,1.7,8.4,2.8
				c4.4,1.1,7.8,2.7,10.2,4.9c2.4,2.2,3.6,5.3,3.6,9.4c0,4.1-1.6,7.5-4.7,10.1c-3.1,2.6-7.2,3.9-12.2,3.9c-7.3,0-13.9-2.7-19.7-8.1
				l6.1-7.5c5,4.4,9.6,6.5,13.8,6.5c1.9,0,3.4-0.4,4.5-1.2c1.1-0.8,1.6-1.9,1.6-3.3c0-1.4-0.6-2.5-1.7-3.3c-1.1-0.8-3.4-1.6-6.8-2.5
				c-5.4-1.3-9.3-2.9-11.8-5c-2.5-2-3.7-5.3-3.7-9.6c0-4.4,1.6-7.8,4.7-10.1c3.1-2.4,7.1-3.6,11.8-3.6c3.1,0,6.2,0.5,9.2,1.6
				c3.1,1.1,5.8,2.6,8.1,4.5l-5.2,7.5c-4-3-8.1-4.6-12.4-4.6C224,83,222.6,83.5,221.7,84.3z"/>
			<path fill="#EAEAEA" d="M291,92.2l-12.5,25.2h-6.1L260,92.2v29.1h-10.3V75.1h13.9l11.9,25.4l12-25.4h13.9v46.2H291V92.2z"/>
			<path fill="#EAEAEA" d="M342.3,121.2l-4.3-10h-19.3l-4.3,10h-11l19.9-46.2h10l19.9,46.2H342.3z M328.3,88.8l-5.8,13.4h11.6
				L328.3,88.8z"/>
			<path fill="#EAEAEA" d="M365.7,84.3c-1,0.8-1.5,1.9-1.5,3.2c0,1.3,0.6,2.4,1.8,3.2c1.2,0.8,4,1.7,8.4,2.8
				c4.4,1.1,7.8,2.7,10.2,4.9c2.4,2.2,3.6,5.3,3.6,9.4c0,4.1-1.6,7.5-4.7,10.1c-3.1,2.6-7.2,3.9-12.2,3.9c-7.3,0-13.9-2.7-19.7-8.1
				l6.1-7.5c5,4.4,9.6,6.5,13.8,6.5c1.9,0,3.4-0.4,4.5-1.2c1.1-0.8,1.6-1.9,1.6-3.3c0-1.4-0.6-2.5-1.7-3.3c-1.1-0.8-3.4-1.6-6.8-2.5
				c-5.4-1.3-9.3-2.9-11.8-5c-2.5-2-3.7-5.3-3.7-9.6c0-4.4,1.6-7.8,4.7-10.1c3.1-2.4,7.1-3.6,11.8-3.6c3.1,0,6.2,0.5,9.2,1.6
				c3.1,1.1,5.8,2.6,8.1,4.5l-5.2,7.5c-4-3-8.1-4.6-12.4-4.6C368.1,83,366.7,83.5,365.7,84.3z"/>
		</g>
	</g>
</g>
<g id="Capa_2">
</g>
</svg>
