<?xml version="1.0" encoding="utf-8"?>
<!-- Generator: Adobe Illustrator 18.1.1, SVG Export Plug-In . SVG Version: 6.00 Build 0)  -->
<svg version="1.1" xmlns="http://www.w3.org/2000/svg" xmlns:xlink="http://www.w3.org/1999/xlink" x="0px" y="0px"
	 viewBox="0 0 324.6 26" enable-background="new 0 0 324.6 26" xml:space="preserve">
<g id="Capa_1">
	<g>
		<path fill="#5E615C" d="M13.7,11c0,2.4-0.9,3.9-2.8,4.6l3.7,5.3h-4l-3.3-4.7H5.1v4.7H1.8V6.1h5.6c2.3,0,3.9,0.4,4.9,1.2
			C13.2,8.1,13.7,9.3,13.7,11z M9.8,12.8c0.4-0.4,0.6-0.9,0.6-1.7s-0.2-1.3-0.6-1.6S8.6,9,7.5,9H5.1v4.3h2.4
			C8.6,13.3,9.4,13.1,9.8,12.8z"/>
		<path fill="#5E615C" d="M26.6,6.1v2.9h-7.3v3h6.6v2.8h-6.6v3h7.5v2.9H16V6.1H26.6z"/>
		<path fill="#5E615C" d="M38.8,7.5c1,0.9,1.5,2.2,1.5,4s-0.5,3.1-1.6,4c-1.1,0.8-2.7,1.3-4.8,1.3h-2v4.1h-3.3V6.1h5.2
			C36.1,6.1,37.8,6.6,38.8,7.5z M36.4,13.2c0.4-0.4,0.6-1.1,0.6-1.9s-0.3-1.4-0.8-1.8C35.7,9.1,34.9,9,33.9,9H32v4.9h2.2
			C35.3,13.9,36,13.7,36.4,13.2z"/>
		<path fill="#5E615C" d="M45.8,17c0.5,0.7,1.3,1,2.2,1c0.9,0,1.7-0.3,2.2-1c0.5-0.7,0.8-1.6,0.8-2.8V6.1h3.3v8.2
			c0,2.1-0.6,3.8-1.8,4.9S49.8,21,48,21c-1.8,0-3.3-0.6-4.5-1.7c-1.2-1.1-1.8-2.8-1.8-4.9V6.1h3.3v8.1C44.9,15.4,45.2,16.3,45.8,17z
			 M49.5,4.6h-3l2.7-3.7l3.3,1.4L49.5,4.6z"/>
		<path fill="#5E615C" d="M63,20.8h-6.4V6.1h5.7c1,0,1.9,0.1,2.6,0.4c0.7,0.2,1.3,0.6,1.6,1c0.7,0.8,1,1.6,1,2.6
			c0,1.1-0.4,2-1.1,2.6c-0.3,0.2-0.4,0.3-0.5,0.4c-0.1,0-0.3,0.1-0.5,0.2c0.9,0.2,1.6,0.6,2.2,1.2c0.5,0.6,0.8,1.4,0.8,2.3
			c0,1-0.4,1.9-1.1,2.7C66.4,20.4,65,20.8,63,20.8z M59.9,12.1h1.6c0.9,0,1.6-0.1,2-0.3c0.4-0.2,0.7-0.6,0.7-1.3
			c0-0.7-0.2-1.1-0.6-1.3s-1.1-0.3-2.1-0.3h-1.6V12.1z M59.9,18h2.2c0.9,0,1.6-0.1,2.1-0.3c0.5-0.2,0.7-0.7,0.7-1.4
			s-0.2-1.1-0.7-1.3c-0.5-0.2-1.3-0.3-2.4-0.3h-1.9V18z"/>
		<path fill="#5E615C" d="M70,20.8V6.1h3.3v11.8h6.3v2.9H70z"/>
		<path fill="#5E615C" d="M80.9,6.1h3.3v14.7h-3.3V6.1z"/>
		<path fill="#5E615C" d="M93.5,17.9c1.6,0,2.9-0.6,3.9-1.9l2.1,2.2C97.9,20,95.9,21,93.6,21s-4.1-0.7-5.6-2.1
			c-1.5-1.4-2.2-3.2-2.2-5.4s0.7-4,2.2-5.4c1.5-1.5,3.3-2.2,5.5-2.2c2.4,0,4.4,0.9,6,2.8l-2,2.3c-1-1.3-2.3-1.9-3.9-1.9
			c-1.2,0-2.3,0.4-3.2,1.2c-0.9,0.8-1.3,1.9-1.3,3.3c0,1.4,0.4,2.5,1.2,3.3C91.3,17.5,92.3,17.9,93.5,17.9z"/>
		<path fill="#5E615C" d="M111.4,20.8l-1.4-3.2h-6.2l-1.4,3.2H99l6.3-14.7h3.2l6.3,14.7H111.4z M107,10.5l-1.8,4.3h3.7L107,10.5z"/>
		<path fill="#83867E" d="M131.2,8.1c1.4,1.3,2.1,3.1,2.1,5.3c0,2.3-0.7,4.1-2,5.4c-1.4,1.3-3.4,2-6.2,2h-5V6.1h5.2
			C127.8,6.1,129.8,6.8,131.2,8.1z M128.8,16.8c0.8-0.8,1.2-1.9,1.2-3.3c0-1.4-0.4-2.6-1.2-3.3c-0.8-0.8-2-1.2-3.7-1.2h-1.8v8.9h2.1
			C126.9,17.9,128,17.5,128.8,16.8z"/>
		<path fill="#83867E" d="M145.7,6.1v2.9h-7.3v3h6.6v2.8h-6.6v3h7.5v2.9h-10.8V6.1H145.7z"/>
		<path fill="#83867E" d="M152.3,20.8V6.1h3.3v11.8h6.3v2.9H152.3z"/>
		<path fill="#83867E" d="M175.1,18.8c-1.5,1.4-3.3,2.2-5.5,2.2s-4-0.7-5.5-2.2c-1.5-1.4-2.2-3.3-2.2-5.4c0-2.2,0.7-4,2.2-5.4
			c1.5-1.4,3.3-2.2,5.5-2.2s4,0.7,5.5,2.2c1.5,1.4,2.2,3.3,2.2,5.4C177.4,15.5,176.6,17.3,175.1,18.8z M174,13.4
			c0-1.3-0.4-2.4-1.3-3.3s-1.9-1.4-3.1-1.4c-1.2,0-2.3,0.5-3.1,1.4s-1.3,2-1.3,3.3s0.4,2.4,1.3,3.3s1.9,1.4,3.1,1.4
			c1.2,0,2.3-0.5,3.1-1.4S174,14.7,174,13.4z"/>
		<path fill="#83867E" d="M182.4,9.1c-0.3,0.3-0.5,0.6-0.5,1c0,0.4,0.2,0.8,0.6,1c0.4,0.3,1.3,0.5,2.7,0.9c1.4,0.3,2.5,0.9,3.2,1.5
			c0.8,0.7,1.2,1.7,1.2,3c0,1.3-0.5,2.4-1.5,3.2s-2.3,1.2-3.9,1.2c-2.3,0-4.4-0.9-6.3-2.6l2-2.4c1.6,1.4,3,2.1,4.4,2.1
			c0.6,0,1.1-0.1,1.4-0.4c0.3-0.3,0.5-0.6,0.5-1s-0.2-0.8-0.5-1c-0.4-0.3-1.1-0.5-2.2-0.8c-1.7-0.4-3-0.9-3.7-1.6
			c-0.8-0.7-1.2-1.7-1.2-3.1c0-1.4,0.5-2.5,1.5-3.2c1-0.8,2.3-1.1,3.7-1.1c1,0,2,0.2,2.9,0.5c1,0.3,1.8,0.8,2.6,1.4l-1.7,2.4
			c-1.3-1-2.6-1.4-3.9-1.4C183.1,8.7,182.7,8.8,182.4,9.1z"/>
		<path fill="#5E615C" d="M205.9,6.1V9h-6.8v3.2h6.5v2.9h-6.5v5.8h-3.3V6.1H205.9z"/>
		<path fill="#5E615C" d="M217.3,20.8l-1.4-3.2h-6.2l-1.4,3.2h-3.5l6.3-14.7h3.2l6.3,14.7H217.3z M212.8,10.5l-1.8,4.3h3.7
			L212.8,10.5z"/>
		<path fill="#5E615C" d="M231.7,6.1h3.3v14.7h-3.3l-7-9.2v9.2h-3.3V6.1h3.1l7.2,9.5V6.1z"/>
		<path fill="#5E615C" d="M243.7,9v11.8h-3.3V9h-4.2V6.1h11.6V9H243.7z"/>
		<path fill="#5E615C" d="M258.6,20.8l-1.4-3.2h-6.2l-1.4,3.2h-3.5l6.3-14.7h3.2l6.3,14.7H258.6z M254.2,10.5l-1.8,4.3h3.7
			L254.2,10.5z"/>
		<path fill="#5E615C" d="M266.1,9.1c-0.3,0.3-0.5,0.6-0.5,1c0,0.4,0.2,0.8,0.6,1c0.4,0.3,1.3,0.5,2.7,0.9c1.4,0.3,2.5,0.9,3.2,1.5
			c0.8,0.7,1.2,1.7,1.2,3c0,1.3-0.5,2.4-1.5,3.2s-2.3,1.2-3.9,1.2c-2.3,0-4.4-0.9-6.3-2.6l2-2.4c1.6,1.4,3,2.1,4.4,2.1
			c0.6,0,1.1-0.1,1.4-0.4c0.3-0.3,0.5-0.6,0.5-1s-0.2-0.8-0.5-1c-0.4-0.3-1.1-0.5-2.2-0.8c-1.7-0.4-3-0.9-3.7-1.6
			c-0.8-0.7-1.2-1.7-1.2-3.1c0-1.4,0.5-2.5,1.5-3.2c1-0.8,2.3-1.1,3.7-1.1c1,0,2,0.2,2.9,0.5c1,0.3,1.8,0.8,2.6,1.4l-1.7,2.4
			c-1.3-1-2.6-1.4-3.9-1.4C266.8,8.7,266.4,8.8,266.1,9.1z"/>
		<path fill="#5E615C" d="M288.1,11.6l-4,8h-2l-3.9-8v9.2H275V6.1h4.4l3.8,8.1l3.8-8.1h4.4v14.7h-3.3V11.6z"/>
		<path fill="#5E615C" d="M304.4,20.8l-1.4-3.2h-6.2l-1.4,3.2h-3.5l6.3-14.7h3.2l6.3,14.7H304.4z M300,10.5l-1.8,4.3h3.7L300,10.5z"
			/>
		<path fill="#5E615C" d="M311.9,9.1c-0.3,0.3-0.5,0.6-0.5,1c0,0.4,0.2,0.8,0.6,1c0.4,0.3,1.3,0.5,2.7,0.9c1.4,0.3,2.5,0.9,3.2,1.5
			c0.8,0.7,1.2,1.7,1.2,3c0,1.3-0.5,2.4-1.5,3.2s-2.3,1.2-3.9,1.2c-2.3,0-4.4-0.9-6.3-2.6l2-2.4c1.6,1.4,3,2.1,4.4,2.1
			c0.6,0,1.1-0.1,1.4-0.4c0.3-0.3,0.5-0.6,0.5-1s-0.2-0.8-0.5-1c-0.4-0.3-1.1-0.5-2.2-0.8c-1.7-0.4-3-0.9-3.7-1.6
			c-0.8-0.7-1.2-1.7-1.2-3.1c0-1.4,0.5-2.5,1.5-3.2c1-0.8,2.3-1.1,3.7-1.1c1,0,2,0.2,2.9,0.5c1,0.3,1.8,0.8,2.6,1.4l-1.7,2.4
			c-1.3-1-2.6-1.4-3.9-1.4C312.6,8.7,312.2,8.8,311.9,9.1z"/>
	</g>
</g>
<g id="Capa_2" display="none">
</g>
</svg>
