<?xml version="1.0" encoding="utf-8"?>
<!-- Generator: Adobe Illustrator 18.1.1, SVG Export Plug-In . SVG Version: 6.00 Build 0)  -->
<svg version="1.1" id="Capa_1" xmlns="http://www.w3.org/2000/svg" xmlns:xlink="http://www.w3.org/1999/xlink" x="0px" y="0px"
	 viewBox="0 0 82 72" enable-background="new 0 0 82 72" xml:space="preserve">
<g id="Capa_2" display="none">
</g>
<g>
	<path fill="#FFFFFF" d="M74.3,44.4H50l-3.2,3.8c-1.4,1.7-3.5,2.5-5.6,2.5c-2.1,0-4.2-1-5.6-2.5l-3.4-3.8H7.8
		c-2.1,0-3.9,1.8-3.9,3.9v15.6c0,2.1,1.8,3.9,3.9,3.9h66.4c2.1,0,3.9-1.8,3.9-3.9V48.3C78.3,46.2,76.4,44.4,74.3,44.4z M14.9,59.5
		c-1.8,0-3.4-1.5-3.4-3.4c0-1.8,1.5-3.4,3.4-3.4c1.8,0,3.4,1.5,3.4,3.4C18.3,58,16.8,59.5,14.9,59.5z"/>
	<path fill="#FFFFFF" d="M36.9,44.4l1.3,1.4c0.8,0.8,1.8,1.4,2.9,1.4c1.1,0,2.1-0.4,2.9-1.4l1.3-1.4l16.3-18.6
		c2.2-2.5,0.4-6.6-2.9-6.6h-5.2V8.1c0-2.1-1.8-3.9-3.9-3.9h-17c-2.1,0-3.9,1.8-3.9,3.9v11.1h-5.2c-3.4,0-5.2,3.9-2.9,6.6L36.9,44.4z
		"/>
</g>
</svg>
