<?xml version="1.0" encoding="utf-8"?>
<!-- Generator: Adobe Illustrator 18.1.1, SVG Export Plug-In . SVG Version: 6.00 Build 0)  -->
<svg version="1.1" xmlns="http://www.w3.org/2000/svg" xmlns:xlink="http://www.w3.org/1999/xlink" x="0px" y="0px"
	 viewBox="0 0 328.1 23.1" enable-background="new 0 0 328.1 23.1" xml:space="preserve">
<g id="Capa_1">
	<g>
		<g>
			<g>
				<path fill="#6B6B69" d="M155.2,15.8l-2-9.8l5.3,3l2-4.6l3.7,4l3.4-4l2.9,4.4l4.4-2.2l-1.5,9.2C173.5,15.8,162.9,11.7,155.2,15.8
					z"/>
				<g>
					<rect x="178.4" y="9.1" fill="#6B6B69" width="11.1" height="1"/>
					<rect x="178.4" y="12.1" fill="#6B6B69" width="15.6" height="1"/>
					<rect x="178.4" y="15.1" fill="#6B6B69" width="11.1" height="1"/>
				</g>
				<g>
					<rect x="138.3" y="9.1" fill="#6B6B69" width="11.1" height="1"/>
					<rect x="133.9" y="12.1" fill="#6B6B69" width="15.6" height="1"/>
					<rect x="138.3" y="15.1" fill="#6B6B69" width="11.1" height="1"/>
				</g>
			</g>
		</g>
		<g>
			<g>
				<polygon fill="#CDB37C" points="210.6,14.6 208.6,15.9 206.6,14.6 206.6,11.9 208.6,10.5 210.6,11.9 				"/>
				<polygon fill="#CDB37C" points="224.6,14.6 222.6,15.9 220.6,14.6 220.6,11.9 222.6,10.5 224.6,11.9 				"/>
				<polygon fill="#CDB37C" points="237.6,14.6 235.6,15.9 233.6,14.6 233.6,11.9 235.6,10.5 237.6,11.9 				"/>
			</g>
		</g>
		<g>
			<g>
				<polygon fill="#CDB37C" points="93.6,14.6 91.6,15.9 89.6,14.6 89.6,11.9 91.6,10.5 93.6,11.9 				"/>
				<polygon fill="#CDB37C" points="107.6,14.6 105.6,15.9 103.6,14.6 103.6,11.9 105.6,10.5 107.6,11.9 				"/>
				<polygon fill="#CDB37C" points="120.6,14.6 118.6,15.9 116.6,14.6 116.6,11.9 118.6,10.5 120.6,11.9 				"/>
			</g>
		</g>
		<g>
			<g>
				<path fill="#6B6B69" d="M282.6,15.8l-2-9.8l5.3,3l2-4.6l3.7,4l3.4-4l2.9,4.4l4.4-2.2l-1.5,9.2C300.9,15.8,290.3,11.7,282.6,15.8
					z"/>
				<g>
					<rect x="305.8" y="9.1" fill="#6B6B69" width="11.1" height="1"/>
					<rect x="305.8" y="12.1" fill="#6B6B69" width="15.6" height="1"/>
					<rect x="305.8" y="15.1" fill="#6B6B69" width="11.1" height="1"/>
				</g>
				<g>
					<rect x="265.8" y="9.1" fill="#6B6B69" width="11.1" height="1"/>
					<rect x="261.3" y="12.1" fill="#6B6B69" width="15.6" height="1"/>
					<rect x="265.8" y="15.1" fill="#6B6B69" width="11.1" height="1"/>
				</g>
			</g>
		</g>
		<g>
			<g>
				<path fill="#6B6B69" d="M31.9,15.8l-2-9.8l5.3,3l2-4.6l3.7,4l3.4-4l2.9,4.4l4.4-2.2l-1.5,9.2C50.1,15.8,39.6,11.7,31.9,15.8z"/>
				<g>
					<rect x="55" y="9.1" fill="#6B6B69" width="11.1" height="1"/>
					<rect x="55" y="12.1" fill="#6B6B69" width="15.6" height="1"/>
					<rect x="55" y="15.1" fill="#6B6B69" width="11.1" height="1"/>
				</g>
				<g>
					<rect x="15" y="9.1" fill="#6B6B69" width="11.1" height="1"/>
					<rect x="10.5" y="12.1" fill="#6B6B69" width="15.6" height="1"/>
					<rect x="15" y="15.1" fill="#6B6B69" width="11.1" height="1"/>
				</g>
			</g>
		</g>
	</g>
</g>
<g id="Capa_2">
</g>
</svg>
