<?xml version="1.0" encoding="utf-8"?>
<!-- Generator: Adobe Illustrator 18.1.1, SVG Export Plug-In . SVG Version: 6.00 Build 0)  -->
<svg version="1.1" xmlns="http://www.w3.org/2000/svg" xmlns:xlink="http://www.w3.org/1999/xlink" x="0px" y="0px"
	 viewBox="0 0 490 79.8" enable-background="new 0 0 490 79.8" xml:space="preserve">
<g id="Capa_1">
	<g>
		<g>
			<path fill="#C1BFB1" d="M6,52V3H17v39.3h20.9V52H6z"/>
			<path fill="#C1BFB1" d="M77.3,52l-4.6-10.6H52.2L47.6,52H36L57.2,3h10.6l21.2,49H77.3z M62.5,17.6l-6.2,14.2h12.3L62.5,17.6z"/>
			<path fill="#C1BFB1" d="M145.9,19.3c0,7.9-3.1,12.9-9.3,15.2L149,52h-13.5l-10.9-15.6H117V52h-10.9V3h18.6
				c7.6,0,13.1,1.3,16.3,3.9C144.2,9.4,145.9,13.6,145.9,19.3z M132.7,25.1c1.4-1.2,2-3.1,2-5.8c0-2.6-0.7-4.5-2.1-5.4
				c-1.4-1-3.9-1.5-7.4-1.5H117v14.5h8C128.8,26.9,131.3,26.3,132.7,25.1z"/>
			<path fill="#C1BFB1" d="M188.9,3v9.7h-24.4v10.1h22v9.3h-22v10.2h25.2V52h-36.1V3H188.9z"/>
			<path fill="#C1BFB1" d="M229.7,7.4c3.4,2.9,5.2,7.4,5.2,13.5s-1.8,10.5-5.3,13.3c-3.5,2.8-8.9,4.2-16.2,4.2h-6.5V52h-10.9V3h17.3
				C220.8,3,226.3,4.5,229.7,7.4z M221.7,26.7c1.3-1.5,2-3.6,2-6.5c0-2.8-0.9-4.8-2.6-6c-1.7-1.2-4.4-1.8-8-1.8h-6.2v16.5h7.4
				C217.9,28.9,220.4,28.2,221.7,26.7z"/>
			<path fill="#C1BFB1" d="M252.9,39.4c1.8,2.3,4.3,3.4,7.4,3.4s5.5-1.1,7.3-3.4s2.7-5.4,2.7-9.3V3h10.9v27.4c0,7.1-2,12.6-5.9,16.4
				c-3.9,3.8-9,5.7-15.1,5.7c-6.1,0-11.2-1.9-15.1-5.8c-4-3.8-5.9-9.3-5.9-16.3V3h10.9v27.1C250.2,34,251.1,37.1,252.9,39.4z"/>
			<path fill="#C1BFB1" d="M310.5,52h-21.5V3h19.1c3.3,0,6.2,0.4,8.6,1.2c2.4,0.8,4.2,1.9,5.4,3.2c2.2,2.5,3.3,5.4,3.3,8.6
				c0,3.8-1.2,6.7-3.7,8.6c-0.8,0.7-1.4,1.1-1.8,1.2c-0.3,0.2-0.9,0.4-1.8,0.8c3,0.7,5.5,2,7.3,4.1c1.8,2.1,2.7,4.7,2.7,7.7
				c0,3.4-1.2,6.4-3.5,9C322,50.5,317.3,52,310.5,52z M300,22.9h5.2c3,0,5.3-0.3,6.8-1c1.5-0.7,2.2-2.1,2.2-4.2s-0.7-3.6-2-4.3
				s-3.6-1.1-6.9-1.1H300V22.9z M300,42.8h7.5c3.1,0,5.5-0.4,7-1.2c1.6-0.8,2.3-2.3,2.3-4.6s-0.8-3.8-2.5-4.5
				c-1.7-0.7-4.3-1.1-8-1.1H300V42.8z"/>
			<path fill="#C1BFB1" d="M333.9,52V3h10.9v39.3h20.9V52H333.9z"/>
			<path fill="#C1BFB1" d="M370.2,3h10.9v49h-10.9V3z"/>
			<path fill="#C1BFB1" d="M412.2,42.4c5.4,0,9.8-2.1,13.2-6.4l7,7.2c-5.6,6.3-12.1,9.4-19.7,9.4c-7.6,0-13.8-2.4-18.7-7.2
				c-4.9-4.8-7.3-10.8-7.3-18.1c0-7.3,2.5-13.3,7.5-18.2c5-4.9,11.1-7.3,18.3-7.3c8,0,14.8,3.1,20.2,9.2l-6.8,7.7
				c-3.5-4.3-7.8-6.5-12.9-6.5c-4.1,0-7.6,1.3-10.6,4c-2.9,2.7-4.4,6.3-4.4,10.9s1.4,8.2,4.1,11C404.9,41,408.3,42.4,412.2,42.4z"/>
			<path fill="#C1BFB1" d="M472.1,52l-4.6-10.6H447L442.4,52h-11.6L452,3h10.6l21.2,49H472.1z M457.3,17.6l-6.2,14.2h12.3
				L457.3,17.6z"/>
		</g>
		<g>
			<path fill="#FFFFFF" d="M281.1,71.8c1.8,0,3.3-0.7,4.4-2.1l2.3,2.4c-1.9,2.1-4,3.1-6.6,3.1s-4.6-0.8-6.2-2.4
				c-1.6-1.6-2.4-3.6-2.4-6c0-2.4,0.8-4.4,2.5-6.1c1.7-1.6,3.7-2.4,6.1-2.4c2.7,0,4.9,1,6.7,3.1l-2.3,2.6c-1.2-1.4-2.6-2.2-4.3-2.2
				c-1.4,0-2.5,0.4-3.5,1.3c-1,0.9-1.5,2.1-1.5,3.6s0.5,2.7,1.4,3.7C278.7,71.3,279.8,71.8,281.1,71.8z"/>
			<path fill="#FFFFFF" d="M303,72.8c-1.7,1.6-3.7,2.4-6.1,2.4s-4.4-0.8-6.1-2.4c-1.7-1.6-2.5-3.6-2.5-6c0-2.4,0.8-4.4,2.5-6
				c1.7-1.6,3.7-2.4,6.1-2.4s4.4,0.8,6.1,2.4c1.7,1.6,2.5,3.6,2.5,6C305.4,69.2,304.6,71.2,303,72.8z M301.7,66.8
				c0-1.5-0.5-2.7-1.4-3.7c-0.9-1-2.1-1.5-3.4-1.5c-1.4,0-2.5,0.5-3.4,1.5c-0.9,1-1.4,2.3-1.4,3.7s0.5,2.7,1.4,3.7
				c0.9,1,2.1,1.5,3.4,1.5c1.4,0,2.5-0.5,3.4-1.5C301.2,69.5,301.7,68.2,301.7,66.8z"/>
			<path fill="#FFFFFF" d="M318.8,58.7h3.6V75h-3.6L311,64.8V75h-3.6V58.7h3.4l8,10.5V58.7z"/>
			<path fill="#FFFFFF" d="M329.1,62c-0.4,0.3-0.5,0.7-0.5,1.1s0.2,0.9,0.6,1.1c0.4,0.3,1.4,0.6,3,1s2.8,1,3.6,1.7
				c0.9,0.8,1.3,1.9,1.3,3.3s-0.5,2.7-1.6,3.6c-1.1,0.9-2.5,1.4-4.3,1.4c-2.6,0-4.9-1-7-2.9l2.2-2.7c1.8,1.5,3.4,2.3,4.9,2.3
				c0.7,0,1.2-0.1,1.6-0.4c0.4-0.3,0.6-0.7,0.6-1.2c0-0.5-0.2-0.9-0.6-1.2c-0.4-0.3-1.2-0.6-2.4-0.9c-1.9-0.5-3.3-1-4.2-1.8
				c-0.9-0.7-1.3-1.9-1.3-3.4c0-1.5,0.6-2.7,1.7-3.6s2.5-1.3,4.2-1.3c1.1,0,2.2,0.2,3.3,0.6c1.1,0.4,2,0.9,2.9,1.6l-1.8,2.7
				c-1.4-1.1-2.9-1.6-4.4-1.6C329.9,61.5,329.5,61.7,329.1,62z"/>
			<path fill="#FFFFFF" d="M345.8,61.8V75h-3.6V61.8h-4.6v-3.2h12.9v3.2H345.8z"/>
			<path fill="#FFFFFF" d="M365.2,64.1c0,2.6-1,4.3-3.1,5.1l4.1,5.8h-4.5l-3.6-5.2h-2.5V75h-3.6V58.7h6.2c2.5,0,4.4,0.4,5.4,1.3
				C364.6,60.8,365.2,62.2,365.2,64.1z M360.8,66.1c0.5-0.4,0.7-1,0.7-1.9c0-0.9-0.2-1.5-0.7-1.8s-1.3-0.5-2.5-0.5h-2.7v4.8h2.7
				C359.5,66.7,360.3,66.5,360.8,66.1z"/>
			<path fill="#FFFFFF" d="M372.1,70.8c0.6,0.8,1.4,1.1,2.5,1.1c1,0,1.8-0.4,2.4-1.1s0.9-1.8,0.9-3.1v-9h3.6v9.1
				c0,2.4-0.7,4.2-2,5.5c-1.3,1.3-3,1.9-5,1.9c-2,0-3.7-0.6-5-1.9c-1.3-1.3-2-3.1-2-5.4v-9.1h3.6v9C371.2,69,371.5,70.1,372.1,70.8z
				"/>
			<path fill="#FFFFFF" d="M391.6,71.8c1.8,0,3.3-0.7,4.4-2.1l2.3,2.4c-1.9,2.1-4,3.1-6.6,3.1s-4.6-0.8-6.2-2.4
				c-1.6-1.6-2.4-3.6-2.4-6c0-2.4,0.8-4.4,2.5-6.1c1.7-1.6,3.7-2.4,6.1-2.4c2.7,0,4.9,1,6.7,3.1l-2.3,2.6c-1.2-1.4-2.6-2.2-4.3-2.2
				c-1.4,0-2.5,0.4-3.5,1.3c-1,0.9-1.5,2.1-1.5,3.6s0.5,2.7,1.4,3.7C389.2,71.3,390.3,71.8,391.6,71.8z"/>
			<path fill="#FFFFFF" d="M407.6,71.8c1.8,0,3.3-0.7,4.4-2.1l2.3,2.4c-1.9,2.1-4,3.1-6.6,3.1s-4.6-0.8-6.2-2.4
				c-1.6-1.6-2.4-3.6-2.4-6c0-2.4,0.8-4.4,2.5-6.1c1.7-1.6,3.7-2.4,6.1-2.4c2.7,0,4.9,1,6.7,3.1l-2.3,2.6c-1.2-1.4-2.6-2.2-4.3-2.2
				c-1.4,0-2.5,0.4-3.5,1.3c-1,0.9-1.5,2.1-1.5,3.6s0.5,2.7,1.4,3.7C405.2,71.3,406.3,71.8,407.6,71.8z"/>
			<path fill="#FFFFFF" d="M416,58.7h3.6V75H416V58.7z"/>
			<path fill="#FFFFFF" d="M436.3,72.8c-1.7,1.6-3.7,2.4-6.1,2.4s-4.4-0.8-6.1-2.4c-1.7-1.6-2.5-3.6-2.5-6c0-2.4,0.8-4.4,2.5-6
				c1.7-1.6,3.7-2.4,6.1-2.4s4.4,0.8,6.1,2.4c1.7,1.6,2.5,3.6,2.5,6C438.7,69.2,437.9,71.2,436.3,72.8z M435,66.8
				c0-1.5-0.5-2.7-1.4-3.7c-0.9-1-2.1-1.5-3.4-1.5c-1.4,0-2.5,0.5-3.4,1.5c-0.9,1-1.4,2.3-1.4,3.7s0.5,2.7,1.4,3.7
				c0.9,1,2.1,1.5,3.4,1.5c1.4,0,2.5-0.5,3.4-1.5C434.6,69.5,435,68.2,435,66.8z"/>
			<path fill="#FFFFFF" d="M452.1,58.7h3.6V75h-3.6l-7.8-10.2V75h-3.6V58.7h3.4l8,10.5V58.7z"/>
			<path fill="#FFFFFF" d="M470.4,58.7v3.3h-8.1v3.4h7.3v3.1h-7.3v3.4h8.4V75h-12V58.7H470.4z"/>
			<path fill="#FFFFFF" d="M476.5,62c-0.4,0.3-0.5,0.7-0.5,1.1s0.2,0.9,0.6,1.1c0.4,0.3,1.4,0.6,3,1s2.8,1,3.6,1.7
				c0.9,0.8,1.3,1.9,1.3,3.3s-0.5,2.7-1.6,3.6c-1.1,0.9-2.5,1.4-4.3,1.4c-2.6,0-4.9-1-7-2.9l2.2-2.7c1.8,1.5,3.4,2.3,4.9,2.3
				c0.7,0,1.2-0.1,1.6-0.4c0.4-0.3,0.6-0.7,0.6-1.2c0-0.5-0.2-0.9-0.6-1.2c-0.4-0.3-1.2-0.6-2.4-0.9c-1.9-0.5-3.3-1-4.2-1.8
				c-0.9-0.7-1.3-1.9-1.3-3.4c0-1.5,0.6-2.7,1.7-3.6s2.5-1.3,4.2-1.3c1.1,0,2.2,0.2,3.3,0.6c1.1,0.4,2,0.9,2.9,1.6l-1.8,2.7
				c-1.4-1.1-2.9-1.6-4.4-1.6C477.4,61.5,476.9,61.7,476.5,62z"/>
		</g>
	</g>
</g>
<g id="Capa_2">
</g>
</svg>
