<?xml version="1.0" encoding="utf-8"?>
<!-- Generator: Adobe Illustrator 18.1.1, SVG Export Plug-In . SVG Version: 6.00 Build 0)  -->
<svg version="1.1" xmlns="http://www.w3.org/2000/svg" xmlns:xlink="http://www.w3.org/1999/xlink" x="0px" y="0px"
	 viewBox="0 0 248.5 248.5" enable-background="new 0 0 248.5 248.5" xml:space="preserve">
<g id="Capa_1">
	<g>
		<rect x="0" y="0" fill="#D3A682" width="248.5" height="248.5"/>
		<path fill="#5E615C" d="M163,115.2l15.4-14.3c0.8-0.8,1.1-1.9,0.7-2.9c-0.4-1-1.4-1.7-2.5-1.7H143V82.6c0-1.5-1.2-2.7-2.7-2.7
			H89.6c0.9-1.6,1.4-3.4,1.4-5.4c0-6-4.9-10.9-10.9-10.9s-10.9,4.9-10.9,10.9s4.9,10.9,10.9,10.9c0.6,0,1.3-0.1,1.9-0.2h55.6v27.2
			H82.8V95c0-1.5-1.2-2.7-2.7-2.7s-2.7,1.2-2.7,2.7v87.1c0,1.5,1.2,2.7,2.7,2.7s2.7-1.2,2.7-2.7v-64.3h30.9v13.6
			c0,1.5,1.2,2.7,2.7,2.7h23.2c1.5,0,2.7-1.2,2.7-2.7s-1.2-2.7-2.7-2.7h-20.6v-10.9h21.2c1.5,0,2.7-1.2,2.7-2.7v-13.6h26.8
			l-12.5,11.6c-0.5,0.5-0.9,1.2-0.9,2s0.3,1.5,0.9,2l12.5,11.6h-13.6c-1.5,0-2.7,1.2-2.7,2.7c0,1.5,1.2,2.7,2.7,2.7h20.4
			c1.1,0,2.1-0.7,2.5-1.7s0.1-2.2-0.7-2.9L163,115.2z M74.6,74.6c0-3,2.5-5.5,5.5-5.5s5.5,2.5,5.5,5.5c0,3-2.5,5.5-5.5,5.5
			S74.6,77.6,74.6,74.6z"/>
	</g>
</g>
<g id="Capa_2">
</g>
</svg>
