<?xml version="1.0" encoding="utf-8"?>
<!-- Generator: Adobe Illustrator 18.1.1, SVG Export Plug-In . SVG Version: 6.00 Build 0)  -->
<svg version="1.1" xmlns="http://www.w3.org/2000/svg" xmlns:xlink="http://www.w3.org/1999/xlink" x="0px" y="0px"
	 viewBox="0 0 248.5 248.5" enable-background="new 0 0 248.5 248.5" xml:space="preserve">
<g id="Capa_1">
	<g>
		<rect x="0" y="0" fill="#B0B5C5" width="248.5" height="248.5"/>
		<g>
			<path fill="#5E615C" d="M141.8,175.8c0,2.9,2.4,5.3,5.3,5.3c2.9,0,5.3-2.4,5.3-5.3v-20.9l-10.6,8.7V175.8z"/>
			<path fill="#5E615C" d="M156.6,151.5v24.3c0,2.9,2.4,5.3,5.3,5.3c2.9,0,5.3-2.4,5.3-5.3v-32c1.8-0.6,3.1-2.1,3.5-4l-5.2,4.3
				L156.6,151.5z"/>
			<path fill="#5E615C" d="M179,133l-8.1-24.8v-2.9c0-2.8-1.6-5.4-4.1-6.7c-1.3-0.6-2.7-1-4.1-1c-1,0-1.9,0.2-2.8,0.5
				c-0.8,0.3-1.5,0.7-2.2,1.2h-6.3c-0.7-0.5-1.4-0.9-2.2-1.2c-0.9-0.3-1.9-0.5-2.8-0.5c-1.4,0-2.8,0.3-4.1,1
				c-2.5,1.3-4.1,3.8-4.1,6.7v2.9L130,133c-0.9,2.9,0.6,6,3.5,7c0.6,0.2,1.1,0.3,1.7,0.3c1,0,2-0.3,2.9-0.9c0.3,2.1,1.7,3.8,3.6,4.5
				v5.5l6.3-5.1l4.5-3.7h-8.9c-1,0-1.9-0.9-1.9-1.9v-1.3h10.9l0,3.1l12.7-10.4h-9.1l0-3.1h10.9v1.6l0.9-0.7c0.8-0.7,1.8-1.1,2.8-1.2
				c1.8-0.2,3.7,0.4,4.9,2c1.9,2.4,1.6,5.8-0.8,7.8l-4,3.2c1.3,0.7,2.8,0.9,4.3,0.4C178.3,139,179.9,135.9,179,133z M141.8,105.8
				v-0.5c0-1.4,0.8-2.7,2.1-3.4c0.8-0.4,1.6-0.6,2.4-0.6c0.6,0,1.1,0.1,1.7,0.3c1.3,0.5,2.5,1.4,3.1,2.7l1.6,3.4l0,11.7h-10.9V105.8
				z M141.8,130v-3.1h10.9l0,3.1H141.8z M156.3,119.5l0-11.8l1.7-3.4c0.6-1.3,1.7-2.3,3.1-2.7c0.5-0.2,1.1-0.3,1.7-0.3
				c0.8,0,1.7,0.2,2.4,0.6c1.3,0.6,2.1,1.9,2.1,3.4v0.5v13.7H156.3z"/>
			<path fill="#5E615C" d="M142.9,84.6c0.2,6.2,5.3,11.3,11.5,11.3c6.3,0,11.4-5,11.5-11.3c0,0,0,0,0,0H142.9z"/>
			<path fill="#5E615C" d="M142.9,80.9h23c1.3,0,2.3-1,2.3-2.3c0-1.3-1-2.3-2.3-2.3h-0.2c-1.1-5.2-5.7-9.2-11.3-9.2
				c-5.6,0-10.2,3.9-11.3,9.2h-0.2c-1.3,0-2.3,1-2.3,2.3C140.6,79.9,141.7,80.9,142.9,80.9z"/>
			<path fill="#5E615C" d="M135.7,168.5l-1.8-2.1l39.3-32.2c1.2-1,1.4-2.7,0.4-3.9c-1-1.2-2.7-1.4-3.9-0.4l-39.3,32.2l-1.8-2.1
				l-1-1.3c-0.5-0.6-1.2-0.9-1.9-1c-0.8,0-1.5,0.3-2,0.8l-9.2,9.9c-0.9,1-0.9,2.4-0.1,3.5l6.8,8.3c0.8,1,2.3,1.3,3.4,0.6l11.5-7.1
				c0.6-0.4,1.1-1.1,1.2-1.8c0.1-0.7-0.1-1.5-0.6-2.1L135.7,168.5z"/>
			<path fill="#5E615C" d="M98.5,149.1c-1.5-3.4-4.8-5.5-8.5-5.5c-3.7,0-7,2.2-8.5,5.5l-11.8,26.6c-0.6,1.2-0.4,2.7,0.3,3.8
				c0.7,1.1,2,1.8,3.4,1.8h33.4c1.4,0,2.6-0.7,3.4-1.8c0.7-1.1,0.9-2.6,0.3-3.8L98.5,149.1z M107.3,177.7c-0.1,0.2-0.4,0.4-0.7,0.4
				H73.3c-0.3,0-0.5-0.1-0.7-0.4c-0.2-0.2-0.2-0.5-0.1-0.8l11.8-26.6c1-2.2,3.2-3.6,5.6-3.6c2.4,0,4.6,1.4,5.6,3.6l11.8,26.6
				C107.5,177.2,107.5,177.5,107.3,177.7z"/>
			<circle fill="#5E615C" cx="91.4" cy="152.1" r="2.4"/>
			<path fill="#5E615C" d="M96.9,158.6c0-1.2-0.9-2.1-2.1-2.1s-2.1,0.9-2.1,2.1c0,1.2,0.9,2.1,2.1,2.1
				C95.9,160.7,96.9,159.8,96.9,158.6z"/>
			<circle fill="#5E615C" cx="97.9" cy="165" r="2.1"/>
			<circle fill="#5E615C" cx="87.4" cy="157.7" r="2.1"/>
			<circle fill="#5E615C" cx="90.6" cy="164.1" r="2.1"/>
		</g>
	</g>
</g>
<g id="Capa_2">
</g>
</svg>
