<?xml version="1.0" encoding="utf-8"?>
<!-- Generator: Adobe Illustrator 18.1.1, SVG Export Plug-In . SVG Version: 6.00 Build 0)  -->
<svg version="1.1" xmlns="http://www.w3.org/2000/svg" xmlns:xlink="http://www.w3.org/1999/xlink" x="0px" y="0px"
	 viewBox="0 0 145 38.7" enable-background="new 0 0 145 38.7" xml:space="preserve">
<g id="Capa_1">
	<g>
		<g>
			<path fill="#1F1D21" d="M92.6,30.9c0.1,0,0.2-0.1,0.2-0.2c0-0.1,0-0.1,0-0.2c0-0.2-0.1-0.3-0.2-0.4C92.5,30,92.3,30,92.1,30
				c-0.3,0-0.5,0.1-0.6,0.3c-0.1,0.1-0.1,0.2-0.1,0.4l-0.5,0c0-0.4,0.1-0.7,0.3-0.9c0.2-0.2,0.5-0.3,0.9-0.3c0.4,0,0.7,0,1,0.2
				c0.3,0.1,0.4,0.4,0.4,0.7l0.1,1.9c0,0.1,0,0.1,0,0.1c0,0,0.1,0,0.2,0c0,0,0.1,0,0.1,0c0,0,0.1,0,0.1,0l0,0.4
				c-0.1,0-0.2,0-0.2,0.1c0,0-0.1,0-0.2,0c-0.2,0-0.3,0-0.4-0.2c0-0.1-0.1-0.2-0.1-0.3c-0.1,0.2-0.3,0.3-0.5,0.4
				C92.3,33,92.1,33,91.9,33c-0.3,0-0.6-0.1-0.8-0.2c-0.2-0.2-0.3-0.4-0.3-0.7c0-0.3,0.1-0.6,0.2-0.7s0.4-0.3,0.7-0.4L92.6,30.9z
				 M91.5,32.4c0.1,0.1,0.3,0.1,0.4,0.1c0.2,0,0.4-0.1,0.6-0.2c0.3-0.2,0.4-0.4,0.4-0.8l0-0.4c-0.1,0-0.2,0.1-0.3,0.1
				c-0.1,0-0.2,0.1-0.3,0.1L92,31.4c-0.2,0-0.4,0.1-0.4,0.2c-0.2,0.1-0.2,0.3-0.2,0.5C91.3,32.2,91.4,32.4,91.5,32.4z"/>
			<path fill="#1F1D21" d="M94.3,29.5l0.5,0l0,0.6c0-0.1,0.1-0.3,0.3-0.4c0.2-0.2,0.4-0.3,0.6-0.3c0,0,0,0,0.1,0c0,0,0.1,0,0.1,0
				l0,0.6c0,0-0.1,0-0.1,0c0,0-0.1,0-0.1,0c-0.3,0-0.5,0.1-0.6,0.3c-0.1,0.2-0.2,0.4-0.2,0.6l0.1,1.9l-0.6,0L94.3,29.5z"/>
			<path fill="#1F1D21" d="M96.5,28.4l0.6,0l0.1,0.9l0.5,0l0,0.5l-0.5,0l0.1,2.2c0,0.1,0.1,0.2,0.1,0.2c0,0,0.1,0,0.2,0
				c0,0,0.1,0,0.1,0c0,0,0.1,0,0.1,0l0,0.4c-0.1,0-0.1,0-0.2,0.1c-0.1,0-0.1,0-0.2,0c-0.3,0-0.4,0-0.5-0.2c-0.1-0.1-0.2-0.3-0.2-0.5
				l-0.1-2.2l-0.4,0l0-0.5l0.4,0L96.5,28.4z"/>
			<path fill="#1F1D21" d="M100.2,29.2c0.2,0.1,0.4,0.2,0.5,0.4c0.1,0.2,0.2,0.4,0.3,0.6c0,0.2,0.1,0.4,0.1,0.7L98.7,31
				c0,0.3,0.1,0.6,0.3,0.8c0.2,0.2,0.4,0.3,0.7,0.3c0.3,0,0.5-0.1,0.7-0.3c0.1-0.1,0.2-0.3,0.2-0.4l0.5,0c0,0.1,0,0.3-0.1,0.4
				s-0.2,0.3-0.3,0.4c-0.2,0.2-0.4,0.3-0.6,0.4c-0.1,0-0.3,0.1-0.4,0.1c-0.4,0-0.8-0.1-1.1-0.4c-0.3-0.3-0.5-0.7-0.5-1.2
				c0-0.5,0.1-1,0.4-1.3c0.3-0.3,0.6-0.5,1.1-0.6C99.8,29.1,100,29.1,100.2,29.2z M100.5,30.5c0-0.2-0.1-0.4-0.2-0.6
				c-0.2-0.3-0.4-0.4-0.8-0.4c-0.3,0-0.5,0.1-0.6,0.3c-0.2,0.2-0.2,0.4-0.2,0.7L100.5,30.5z"/>
			<path fill="#1F1D21" d="M105.6,28.8l0.6,0c-0.1,0.2-0.2,0.7-0.4,1.5c-0.2,0.6-0.3,1.1-0.4,1.4c-0.3,0.9-0.5,1.4-0.6,1.6
				c-0.1,0.2-0.3,0.3-0.7,0.3c-0.1,0-0.1,0-0.2,0c0,0-0.1,0-0.2,0l0-0.5c0.1,0,0.2,0,0.2,0c0,0,0.1,0,0.1,0c0.1,0,0.2,0,0.2-0.1
				c0,0,0.1-0.1,0.1-0.1c0,0,0-0.1,0.1-0.3c0.1-0.2,0.1-0.3,0.1-0.3l-1.4-3.4l0.6,0l1,2.7L105.6,28.8z"/>
			<path fill="#1F1D21" d="M108.7,28.6l1,2.7l0.8-2.8l0.6,0l-1.1,3.4l-0.6,0l-1.4-3.3L108.7,28.6z"/>
			<path fill="#1F1D21" d="M113.4,29.7c0.1,0,0.2-0.1,0.2-0.2c0-0.1,0-0.1,0-0.2c0-0.2-0.1-0.3-0.2-0.4c-0.1-0.1-0.3-0.1-0.6-0.1
				c-0.3,0-0.5,0.1-0.6,0.3c-0.1,0.1-0.1,0.2-0.1,0.4l-0.5,0c0-0.4,0.1-0.7,0.3-0.9c0.2-0.2,0.5-0.3,0.9-0.3c0.4,0,0.7,0,1,0.2
				c0.3,0.1,0.4,0.4,0.4,0.7l0.1,1.9c0,0.1,0,0.1,0,0.1s0.1,0,0.2,0c0,0,0.1,0,0.1,0c0,0,0.1,0,0.1,0l0,0.4c-0.1,0-0.2,0-0.2,0.1
				c0,0-0.1,0-0.2,0c-0.2,0-0.3,0-0.4-0.2c0-0.1-0.1-0.2-0.1-0.3c-0.1,0.2-0.3,0.3-0.5,0.4c-0.2,0.1-0.4,0.2-0.7,0.2
				c-0.3,0-0.6-0.1-0.8-0.2c-0.2-0.2-0.3-0.4-0.3-0.7c0-0.3,0.1-0.6,0.2-0.7c0.2-0.2,0.4-0.3,0.7-0.4L113.4,29.7z M112.4,31.3
				c0.1,0.1,0.3,0.1,0.4,0.1c0.2,0,0.4-0.1,0.6-0.2c0.3-0.2,0.4-0.4,0.4-0.8l0-0.4c-0.1,0-0.2,0.1-0.3,0.1c-0.1,0-0.2,0.1-0.3,0.1
				l-0.3,0.1c-0.2,0-0.4,0.1-0.4,0.2c-0.2,0.1-0.2,0.3-0.2,0.5C112.2,31,112.2,31.2,112.4,31.3z"/>
			<path fill="#1F1D21" d="M117.3,28.3c0.2,0.2,0.4,0.5,0.5,0.9l-0.5,0c0-0.2-0.1-0.4-0.3-0.5c-0.1-0.1-0.3-0.2-0.6-0.2
				c-0.4,0-0.6,0.2-0.7,0.6c-0.1,0.2-0.1,0.5-0.1,0.8c0,0.3,0.1,0.6,0.3,0.8c0.2,0.2,0.4,0.3,0.7,0.3c0.2,0,0.4-0.1,0.5-0.2
				c0.1-0.1,0.2-0.3,0.2-0.6l0.5,0c0,0.4-0.2,0.8-0.4,1c-0.2,0.2-0.5,0.3-0.9,0.4c-0.4,0-0.8-0.1-1.1-0.4c-0.3-0.3-0.4-0.7-0.5-1.2
				c0-0.6,0.1-1,0.3-1.4c0.3-0.3,0.6-0.5,1.1-0.5C116.8,28.1,117.1,28.2,117.3,28.3z"/>
			<path fill="#1F1D21" d="M118.2,26.9l0.6,0l0,0.6l-0.6,0L118.2,26.9z M118.3,28.1l0.6,0l0.2,3.3l-0.6,0L118.3,28.1z"/>
			<path fill="#1F1D21" d="M119.7,26.8l0.6,0l0.3,4.6l-0.6,0L119.7,26.8z"/>
			<path fill="#1F1D21" d="M123,29.1c0.1,0,0.2-0.1,0.2-0.2c0-0.1,0-0.1,0-0.2c0-0.2-0.1-0.3-0.2-0.4c-0.1-0.1-0.3-0.1-0.6-0.1
				c-0.3,0-0.5,0.1-0.6,0.3c-0.1,0.1-0.1,0.2-0.1,0.4l-0.5,0c0-0.4,0.1-0.7,0.3-0.9c0.2-0.2,0.5-0.3,0.9-0.3c0.4,0,0.7,0,1,0.2
				c0.3,0.1,0.4,0.4,0.4,0.7l0.1,1.9c0,0.1,0,0.1,0,0.1c0,0,0.1,0,0.2,0c0,0,0.1,0,0.1,0c0,0,0.1,0,0.1,0l0,0.4
				c-0.1,0-0.2,0-0.2,0.1c0,0-0.1,0-0.2,0c-0.2,0-0.3,0-0.4-0.2c0-0.1-0.1-0.2-0.1-0.3c-0.1,0.2-0.3,0.3-0.5,0.4
				c-0.2,0.1-0.4,0.2-0.7,0.2c-0.3,0-0.6-0.1-0.8-0.2c-0.2-0.2-0.3-0.4-0.3-0.7c0-0.3,0.1-0.6,0.2-0.7c0.2-0.2,0.4-0.3,0.7-0.4
				L123,29.1z M121.9,30.7c0.1,0.1,0.3,0.1,0.4,0.1c0.2,0,0.4-0.1,0.6-0.2c0.3-0.2,0.4-0.4,0.4-0.8l0-0.4c-0.1,0-0.2,0.1-0.3,0.1
				c-0.1,0-0.2,0.1-0.3,0.1l-0.3,0.1c-0.2,0-0.4,0.1-0.4,0.2c-0.2,0.1-0.2,0.3-0.2,0.5C121.7,30.5,121.8,30.6,121.9,30.7z"/>
			<path fill="#1F1D21" d="M126.9,27.8c0.2,0.2,0.4,0.5,0.5,0.9l-0.5,0c0-0.2-0.1-0.4-0.3-0.5c-0.1-0.1-0.3-0.2-0.6-0.2
				c-0.4,0-0.6,0.2-0.7,0.6c-0.1,0.2-0.1,0.5-0.1,0.8c0,0.3,0.1,0.6,0.3,0.8c0.2,0.2,0.4,0.3,0.7,0.3c0.2,0,0.4-0.1,0.5-0.2
				c0.1-0.1,0.2-0.3,0.2-0.6l0.5,0c0,0.4-0.2,0.8-0.4,1c-0.2,0.2-0.5,0.3-0.9,0.4c-0.4,0-0.8-0.1-1.1-0.4c-0.3-0.3-0.4-0.7-0.5-1.2
				c0-0.6,0.1-1,0.3-1.4c0.3-0.3,0.6-0.5,1.1-0.5C126.3,27.5,126.6,27.6,126.9,27.8z"/>
			<path fill="#1F1D21" d="M127.8,26.3l0.6,0l0,0.6l-0.6,0L127.8,26.3z M127.8,27.6l0.6,0l0.2,3.3l-0.6,0L127.8,27.6z"/>
			<path fill="#1F1D21" d="M131.7,27.7c0.3,0.3,0.5,0.7,0.5,1.2c0,0.5-0.1,1-0.3,1.3c-0.2,0.4-0.6,0.6-1.2,0.6
				c-0.5,0-0.8-0.1-1.1-0.4c-0.3-0.3-0.4-0.7-0.5-1.2c0-0.6,0.1-1,0.3-1.4c0.3-0.3,0.6-0.5,1.1-0.6C131,27.3,131.4,27.4,131.7,27.7z
				 M131.5,29.9c0.1-0.3,0.2-0.6,0.2-0.9c0-0.3-0.1-0.6-0.2-0.7c-0.2-0.3-0.4-0.4-0.8-0.4c-0.3,0-0.6,0.2-0.7,0.4
				c-0.1,0.3-0.2,0.6-0.2,1c0,0.4,0.1,0.6,0.3,0.9c0.2,0.2,0.4,0.3,0.8,0.3C131.1,30.3,131.3,30.2,131.5,29.9z"/>
			<path fill="#1F1D21" d="M132.8,27.3l0.5,0l0,0.5c0.1-0.2,0.3-0.4,0.5-0.4c0.2-0.1,0.4-0.1,0.6-0.2c0.5,0,0.8,0.1,1,0.4
				c0.1,0.2,0.2,0.4,0.2,0.8l0.1,2.1l-0.6,0l-0.1-2.1c0-0.2-0.1-0.4-0.1-0.5c-0.1-0.2-0.3-0.3-0.6-0.3c-0.1,0-0.2,0-0.3,0.1
				c-0.2,0.1-0.3,0.2-0.4,0.3c-0.1,0.1-0.1,0.2-0.2,0.3c0,0.1,0,0.3,0,0.5l0.1,1.7l-0.6,0L132.8,27.3z"/>
			<path fill="#1F1D21" d="M138.4,27c0.2,0.1,0.4,0.2,0.5,0.4c0.1,0.2,0.2,0.4,0.3,0.6c0,0.2,0.1,0.4,0.1,0.7l-2.4,0.1
				c0,0.3,0.1,0.6,0.3,0.8c0.2,0.2,0.4,0.3,0.7,0.3c0.3,0,0.5-0.1,0.7-0.3c0.1-0.1,0.2-0.3,0.2-0.4l0.5,0c0,0.1,0,0.3-0.1,0.4
				c-0.1,0.2-0.2,0.3-0.3,0.4c-0.2,0.2-0.4,0.3-0.6,0.4c-0.1,0-0.3,0.1-0.4,0.1c-0.4,0-0.8-0.1-1.1-0.4c-0.3-0.3-0.5-0.7-0.5-1.2
				c0-0.5,0.1-1,0.4-1.3c0.3-0.3,0.6-0.5,1.1-0.6C137.9,26.9,138.1,26.9,138.4,27z M138.6,28.3c0-0.2-0.1-0.4-0.2-0.6
				c-0.2-0.3-0.4-0.4-0.8-0.4c-0.3,0-0.5,0.1-0.6,0.3c-0.2,0.2-0.2,0.4-0.2,0.7L138.6,28.3z"/>
			<path fill="#1F1D21" d="M140.3,29.1c0,0.2,0.1,0.3,0.2,0.4c0.2,0.2,0.4,0.2,0.8,0.2c0.2,0,0.4-0.1,0.5-0.2
				c0.2-0.1,0.2-0.2,0.2-0.4c0-0.1-0.1-0.2-0.2-0.3c-0.1,0-0.2-0.1-0.5-0.1l-0.5-0.1c-0.3-0.1-0.5-0.1-0.7-0.2
				c-0.3-0.1-0.4-0.3-0.4-0.6c0-0.3,0.1-0.6,0.3-0.8c0.2-0.2,0.5-0.3,0.9-0.3c0.5,0,0.9,0.1,1.1,0.4c0.2,0.2,0.2,0.4,0.2,0.6l-0.5,0
				c0-0.1-0.1-0.2-0.2-0.3c-0.1-0.1-0.4-0.2-0.7-0.2c-0.2,0-0.4,0.1-0.5,0.1c-0.1,0.1-0.2,0.2-0.1,0.3c0,0.1,0.1,0.3,0.2,0.3
				c0.1,0,0.2,0.1,0.4,0.1l0.4,0.1c0.4,0.1,0.7,0.2,0.8,0.2c0.2,0.1,0.3,0.3,0.4,0.7c0,0.3-0.1,0.6-0.3,0.8c-0.2,0.2-0.6,0.4-1,0.4
				c-0.5,0-0.9-0.1-1.1-0.3c-0.2-0.2-0.3-0.5-0.4-0.8L140.3,29.1z"/>
			<path fill="#1F1D21" d="M143.3,29.3l0.6,0l0,0.7l-0.6,0L143.3,29.3z"/>
		</g>
		<g>
			<g>
				<g>
					<g>
						<path fill="#61AAEA" d="M134.4,15.4l2.1-0.5c0.2,0.8,0.5,1.5,1.1,1.9c0.6,0.4,1.3,0.6,2.3,0.5c1-0.1,1.7-0.3,2.1-0.7
							c0.4-0.4,0.7-0.9,0.6-1.4c0-0.5-0.3-0.8-0.7-1.1c-0.3-0.2-1-0.4-2.2-0.6c-1.6-0.3-2.7-0.6-3.3-0.8c-0.6-0.3-1.1-0.6-1.4-1.1
							c-0.3-0.5-0.5-1-0.6-1.7c0-0.6,0.1-1.1,0.3-1.6c0.2-0.5,0.6-0.9,1-1.2c0.3-0.3,0.8-0.5,1.3-0.7c0.6-0.2,1.2-0.3,1.8-0.4
							c1-0.1,1.9,0,2.6,0.3c0.8,0.2,1.3,0.6,1.7,1.1c0.4,0.5,0.7,1.1,0.8,1.9l-2.1,0.4c-0.1-0.6-0.4-1.1-0.9-1.5
							c-0.5-0.3-1.1-0.5-1.9-0.4c-1,0.1-1.7,0.3-2.1,0.6c-0.4,0.3-0.6,0.7-0.6,1.2c0,0.3,0.1,0.5,0.3,0.7c0.2,0.2,0.5,0.4,0.8,0.5
							c0.2,0.1,0.9,0.2,1.9,0.4c1.5,0.3,2.6,0.6,3.2,0.8c0.6,0.2,1.1,0.6,1.5,1c0.4,0.5,0.6,1.1,0.6,1.8c0,0.7-0.1,1.4-0.5,2
							c-0.4,0.6-0.9,1.2-1.7,1.6c-0.8,0.4-1.6,0.6-2.6,0.7c-1.6,0.1-2.9-0.2-3.8-0.8C135.3,17.7,134.7,16.8,134.4,15.4z"/>
					</g>
				</g>
				<g>
					<g>
						<path fill="#61AAEA" d="M117.6,2.8l-2.1,0.1l0.4,6.2c-0.4-0.5-0.9-0.9-1.5-1.2c-0.4-0.2-0.9-0.3-1.4-0.4c-0.2,0-0.4,0-0.6,0
							c-1,0.1-1.9,0.4-2.8,1c-0.8,0.6-1.4,1.4-1.7,2.4c-0.4,1-0.5,2.2-0.4,3.4c0.1,1.3,0.4,2.4,0.9,3.4c0.5,1,1.2,1.7,2.1,2.2
							c0.8,0.5,1.7,0.7,2.6,0.7c0.1,0,0.1,0,0.2,0c1.5-0.1,2.7-0.8,3.4-2.1l0.1,1.6l2-0.1L117.6,2.8z M115.6,17.7
							c-0.6,0.8-1.4,1.2-2.3,1.3c-0.1,0-0.2,0-0.3,0c-0.8,0-1.5-0.4-2.2-1.1c-0.7-0.8-1.1-1.9-1.2-3.5c-0.1-1.7,0.1-2.9,0.7-3.7
							c0.6-0.8,1.4-1.2,2.3-1.3c0.1,0,0.2,0,0.3,0c0.8,0,1.5,0.4,2.2,1.1c0.7,0.8,1.1,2,1.2,3.7C116.5,15.7,116.2,16.9,115.6,17.7z"
							/>
					</g>
				</g>
				<g>
					<g>
						<path fill="#61AAEA" d="M103.3,21l-0.1-1.8c-0.9,1.5-2.2,2.3-3.9,2.4c-0.7,0-1.4-0.1-2.1-0.3c-0.7-0.2-1.2-0.6-1.5-1
							c-0.3-0.4-0.6-0.9-0.7-1.5c-0.1-0.4-0.2-1.1-0.2-2L94.3,9l2.1-0.1l0.4,6.9c0.1,1.1,0.2,1.9,0.3,2.2c0.2,0.6,0.5,1,0.9,1.3
							c0.5,0.3,1,0.4,1.6,0.4c0.6,0,1.2-0.2,1.8-0.6c0.5-0.4,0.9-0.8,1.1-1.4c0.2-0.6,0.3-1.4,0.2-2.5l-0.4-6.7l2.1-0.1l0.7,12.5
							L103.3,21z"/>
					</g>
				</g>
				<g>
					<g>
						<path fill="#61AAEA" d="M90.8,4.4l-2.1,0.1l0.4,6.2c-0.4-0.5-0.9-0.9-1.5-1.2c-0.4-0.2-0.9-0.3-1.4-0.4c-0.2,0-0.4,0-0.6,0
							c-1,0.1-1.9,0.4-2.8,1c-0.8,0.6-1.4,1.4-1.7,2.4c-0.4,1-0.5,2.2-0.4,3.4c0.1,1.3,0.4,2.4,0.9,3.4c0.5,1,1.2,1.7,2.1,2.2
							c0.8,0.5,1.7,0.7,2.6,0.7c0.1,0,0.1,0,0.2,0c1.5-0.1,2.7-0.8,3.4-2.1l0.1,1.6l2-0.1L90.8,4.4z M88.7,19.3
							c-0.6,0.8-1.4,1.2-2.3,1.3c-0.1,0-0.2,0-0.3,0c-0.8,0-1.5-0.4-2.2-1.1c-0.7-0.8-1.1-1.9-1.2-3.5c-0.1-1.7,0.2-2.9,0.7-3.7
							c0.6-0.8,1.4-1.2,2.3-1.3c0.1,0,0.2,0,0.3,0c0.8,0,1.5,0.4,2.2,1.1c0.7,0.8,1.1,2,1.2,3.7C89.6,17.3,89.3,18.5,88.7,19.3z"/>
					</g>
				</g>
				<g>
					<g>
						<path fill="#61AAEA" d="M46.7,24.3L46,11.8l1.9-0.1l0.1,1.9c0.4-0.9,0.9-1.5,1.3-1.8c0.4-0.3,0.8-0.5,1.3-0.5
							c0.7,0,1.5,0.1,2.2,0.6l-0.6,2c-0.5-0.3-1.1-0.4-1.6-0.4c-0.5,0-0.9,0.2-1.2,0.5c-0.4,0.3-0.6,0.7-0.7,1.2
							c-0.2,0.8-0.3,1.6-0.2,2.5l0.4,6.6L46.7,24.3z"/>
					</g>
				</g>
				<g>
					<g>
						<polygon fill="#61AAEA" points="1,27 0,9.7 2.1,9.6 3.1,26.9 1,27 						"/>
					</g>
				</g>
				<g>
					<g>
						<path fill="#61AAEA" d="M30,23.6l-0.6-10.8l-2,0.1l0.1,1.5c-0.9-1-2-1.5-3.2-1.6c-0.2,0-0.4,0-0.6,0c-1.1,0.1-2.1,0.4-2.8,1
							c-0.8,0.6-1.4,1.4-1.7,2.5c-0.4,1-0.5,2.2-0.5,3.3c0.1,1.7,0.7,3.2,1.7,4.4c1,1.2,2.3,1.7,3.9,1.6c0.1,0,0.1,0,0.2,0
							c1.4-0.1,2.5-0.7,3.4-1.8c0.1,1.4,0.1,2.3,0,2.7c-0.1,0.7-0.5,1.3-1,1.7c-0.5,0.4-1.3,0.7-2.2,0.7c-0.1,0-0.2,0-0.3,0
							c-0.8,0-1.4-0.2-1.9-0.5c-0.4-0.3-0.7-0.7-0.8-1.4L19.5,27c0,1.4,0.5,2.3,1.5,3c0.9,0.6,1.9,0.8,3.2,0.8c0.1,0,0.3,0,0.4,0
							c1.3-0.1,2.3-0.4,3.1-0.9c0.8-0.5,1.4-1.2,1.8-2C30,26.9,30.1,25.5,30,23.6z M27,22.6c-0.6,0.8-1.4,1.2-2.4,1.3
							c-0.1,0-0.2,0-0.3,0c-0.9,0-1.6-0.3-2.2-1c-0.7-0.7-1.1-1.9-1.2-3.5c-0.1-1.5,0.2-2.7,0.8-3.5c0.6-0.8,1.4-1.2,2.3-1.3
							c0.1,0,0.2,0,0.3,0c0.8,0,1.6,0.4,2.2,1c0.7,0.7,1.1,1.9,1.2,3.4C27.8,20.6,27.6,21.8,27,22.6z"/>
					</g>
				</g>
				<g>
					<g>
						<path fill="#61AAEA" d="M14.6,26.2l-0.1-1.8c-0.9,1.5-2.2,2.3-3.9,2.4c-0.7,0-1.4-0.1-2.1-0.3c-0.7-0.2-1.2-0.6-1.5-1
							c-0.3-0.4-0.6-0.9-0.7-1.5c-0.1-0.4-0.2-1.1-0.2-2l-0.5-7.8L7.8,14L8.2,21c0.1,1.1,0.2,1.9,0.3,2.2c0.2,0.6,0.5,1,0.9,1.3
							c0.5,0.3,1,0.4,1.6,0.4c0.6,0,1.2-0.2,1.8-0.6c0.5-0.4,0.9-0.8,1.1-1.4c0.2-0.6,0.3-1.4,0.2-2.5l-0.4-6.7l2.1-0.1l0.7,12.5
							L14.6,26.2z"/>
					</g>
				</g>
				<g>
					<g>
						<path fill="#61AAEA" d="M45,22.5c-2.3,0.5-1.8-1.4-2-3.3l-0.2-2.8c-0.1-0.9-0.1-1.6-0.2-2c-0.2-0.6-0.4-1-0.7-1.4
							c-0.3-0.4-0.9-0.7-1.5-0.9c-0.7-0.2-1.6-0.3-2.6-0.2l0,0c-1.1,0.1-2,0.3-2.8,0.6c-0.8,0.3-1.4,0.8-1.8,1.4
							c-0.4,0.6-0.6,1.8-0.8,2.7l2.1-0.1c0.2-0.9,0.5-1.7,0.9-2.1c0.5-0.4,1.2-0.6,2.2-0.7c0.1,0,0.1,0,0.2,0c1,0,1.7,0.2,2.3,0.6
							c0.4,0.3,0.7,0.9,0.7,1.8c0,0.1,0,0.3,0,0.6c-0.7,0.3-1.7,0.6-3,0.8c-0.2,0-0.5,0.1-0.7,0.1c-0.8,0.2-1.5,0.3-1.9,0.4
							c-0.6,0.2-1.1,0.5-1.5,0.8c-0.4,0.3-0.8,0.8-1,1.3c-0.3,0.5-0.4,1.1-0.3,1.7c0.1,1,0.5,1.9,1.3,2.5c0.8,0.6,1.9,0.9,3.2,0.8
							c0.3,0,0.6-0.1,0.9-0.1c0.5-0.1,0.9-0.2,1.4-0.4c0.7-0.3,1.4-0.9,2.2-1.7c0.6,1.8,2.6,1.2,3.7,1.1L45,22.5z M40.7,21.2
							c-0.3,0.6-0.7,1.2-1.3,1.6c-0.5,0.3-1,0.5-1.6,0.6c-0.2,0-0.3,0-0.5,0.1c-0.8,0-1.5-0.1-1.9-0.5c-0.4-0.4-0.7-0.8-0.7-1.4
							c0-0.4,0.1-0.7,0.2-1c0.2-0.3,0.4-0.6,0.8-0.7c0.3-0.2,1-0.4,1.8-0.5c0.1,0,0.2,0,0.3-0.1c1.4-0.3,2.4-0.6,3.1-0.9l0,0.8
							C41,20,40.9,20.8,40.7,21.2z"/>
					</g>
				</g>
				<g>
					<g>
						<path fill="#61AAEA" d="M133.8,17.3c-2.3,0.5-1.8-1.4-2-3.3l-0.2-2.8c-0.1-0.9-0.1-1.6-0.2-2c-0.2-0.6-0.4-1-0.7-1.4
							c-0.3-0.4-0.9-0.7-1.5-0.9c-0.7-0.2-1.6-0.3-2.6-0.2l0,0c-1.1,0.1-2,0.3-2.8,0.6c-0.8,0.3-1.4,0.8-1.8,1.4
							c-0.4,0.6-0.6,1.8-0.8,2.7l2.1-0.1c0.2-0.9,0.5-1.7,0.9-2.1c0.5-0.4,1.2-0.6,2.2-0.7c0.1,0,0.1,0,0.2,0c1,0,1.7,0.2,2.3,0.6
							c0.4,0.3,0.7,0.9,0.7,1.8c0,0.1,0,0.3,0,0.6c-0.7,0.3-1.7,0.6-3,0.8c-0.2,0-0.5,0.1-0.7,0.1c-0.8,0.2-1.5,0.3-1.9,0.4
							c-0.6,0.2-1.1,0.5-1.5,0.8c-0.4,0.3-0.8,0.8-1,1.3c-0.3,0.5-0.4,1.1-0.3,1.7c0.1,1,0.5,1.9,1.3,2.5c0.8,0.6,1.9,0.9,3.2,0.8
							c0.3,0,0.6-0.1,0.9-0.1c0.5-0.1,0.9-0.2,1.4-0.4c0.7-0.3,1.4-0.9,2.2-1.7c0.6,1.8,2.6,1.2,3.7,1.1L133.8,17.3z M129.4,16
							c-0.3,0.6-0.7,1.2-1.3,1.6c-0.5,0.3-1,0.5-1.6,0.6c-0.2,0-0.3,0-0.5,0.1c-0.8,0-1.5-0.1-1.9-0.5c-0.4-0.4-0.7-0.8-0.7-1.4
							c0-0.4,0.1-0.7,0.2-1c0.2-0.3,0.4-0.6,0.8-0.7c0.3-0.2,1-0.4,1.8-0.5c0.1,0,0.2,0,0.3-0.1c1.4-0.3,2.4-0.6,3.1-0.9l0,0.8
							C129.7,14.8,129.6,15.5,129.4,16z"/>
					</g>
				</g>
				<g>
					<g>
						<path fill="#61AAEA" d="M73.3,20.9c-2.3,0.5-1.8-1.4-2-3.3l-0.2-2.8c-0.1-0.9-0.1-1.6-0.2-2c-0.2-0.6-0.4-1-0.7-1.4
							c-0.3-0.4-0.9-0.7-1.5-0.9c-0.7-0.2-1.6-0.3-2.6-0.2l0,0c-1.1,0.1-2,0.3-2.8,0.6c-0.8,0.3-1.4,0.8-1.8,1.4
							c-0.4,0.6-0.6,1.8-0.8,2.7l2.1-0.1c0.2-0.9,0.5-1.7,0.9-2.1c0.5-0.4,1.2-0.6,2.2-0.7c0.1,0,0.1,0,0.2,0c1,0,1.7,0.2,2.3,0.6
							c0.4,0.3,0.7,0.9,0.7,1.8c0,0.1,0,0.3,0,0.6c-0.7,0.3-1.7,0.6-3,0.8c-0.2,0-0.5,0.1-0.7,0.1c-0.8,0.2-1.5,0.3-1.9,0.4
							c-0.6,0.2-1.1,0.5-1.5,0.8c-0.4,0.3-0.8,0.8-1,1.3c-0.3,0.5-0.4,1.1-0.3,1.7c0.1,1,0.5,1.9,1.3,2.5c0.8,0.6,1.9,0.9,3.2,0.8
							c0.3,0,0.6-0.1,0.9-0.1c0.5-0.1,0.9-0.2,1.4-0.4c0.7-0.3,1.4-0.9,2.2-1.7c0.6,1.8,2.6,1.2,3.7,1.1L73.3,20.9z M69,19.6
							c-0.3,0.6-0.7,1.2-1.3,1.6c-0.5,0.3-1,0.5-1.6,0.6c-0.2,0-0.3,0-0.5,0.1c-0.8,0-1.5-0.1-1.9-0.5c-0.4-0.4-0.7-0.8-0.7-1.4
							c0-0.4,0.1-0.7,0.2-1c0.2-0.3,0.4-0.6,0.8-0.7c0.3-0.2,1-0.4,1.8-0.5c0.1,0,0.2,0,0.3-0.1c1.4-0.3,2.4-0.6,3.1-0.9l0,0.8
							C69.2,18.4,69.2,19.1,69,19.6z"/>
					</g>
				</g>
			</g>
			<g opacity="0.9">
				<g>
					<g>
						<path fill="#C80086" d="M134.6,18.7l2.1-0.5c0.2,0.8,0.5,1.5,1.1,1.9c0.6,0.4,1.3,0.6,2.3,0.5c1-0.1,1.7-0.3,2.1-0.7
							c0.4-0.4,0.7-0.9,0.6-1.4c0-0.5-0.3-0.8-0.7-1.1c-0.3-0.2-1-0.4-2.2-0.6c-1.6-0.3-2.7-0.6-3.3-0.8c-0.6-0.3-1.1-0.6-1.4-1.1
							c-0.3-0.5-0.5-1-0.6-1.7c0-0.6,0.1-1.1,0.3-1.6c0.2-0.5,0.6-0.9,1-1.2c0.3-0.3,0.8-0.5,1.3-0.7c0.6-0.2,1.2-0.3,1.8-0.4
							c1-0.1,1.9,0,2.6,0.3c0.8,0.2,1.3,0.6,1.7,1.1c0.4,0.5,0.7,1.1,0.8,1.9l-2.1,0.4c-0.1-0.6-0.4-1.1-0.9-1.5
							c-0.5-0.3-1.1-0.5-1.9-0.4c-1,0.1-1.7,0.3-2.1,0.6c-0.4,0.3-0.6,0.7-0.6,1.2c0,0.3,0.1,0.5,0.3,0.7c0.2,0.2,0.5,0.4,0.8,0.5
							c0.2,0.1,0.9,0.2,1.9,0.4c1.5,0.3,2.6,0.6,3.2,0.8c0.6,0.2,1.1,0.6,1.5,1c0.4,0.5,0.6,1.1,0.6,1.8c0,0.7-0.1,1.4-0.5,2
							c-0.4,0.6-0.9,1.2-1.7,1.6c-0.8,0.4-1.6,0.6-2.6,0.7c-1.6,0.1-2.9-0.2-3.8-0.8C135.5,21,134.9,20,134.6,18.7z"/>
					</g>
				</g>
				<g>
					<g>
						<path fill="#C80086" d="M117.9,6.1l-2.1,0.1l0.4,6.2c-0.4-0.5-0.9-0.9-1.5-1.2c-0.4-0.2-0.9-0.3-1.4-0.4c-0.2,0-0.4,0-0.6,0
							c-1,0.1-1.9,0.4-2.8,1c-0.8,0.6-1.4,1.4-1.7,2.5c-0.4,1-0.5,2.2-0.4,3.4c0.1,1.3,0.4,2.4,0.9,3.4c0.5,1,1.2,1.7,2.1,2.2
							c0.8,0.5,1.7,0.7,2.6,0.7c0.1,0,0.1,0,0.2,0c1.5-0.1,2.7-0.8,3.4-2.1l0.1,1.6l2-0.1L117.9,6.1z M115.8,21
							c-0.6,0.8-1.4,1.2-2.3,1.3c-0.1,0-0.2,0-0.3,0c-0.8,0-1.5-0.4-2.2-1.1c-0.7-0.8-1.1-1.9-1.2-3.5c-0.1-1.7,0.2-2.9,0.7-3.7
							c0.6-0.8,1.4-1.2,2.3-1.3c0.1,0,0.2,0,0.3,0c0.8,0,1.5,0.4,2.2,1.1c0.7,0.8,1.1,2,1.2,3.7C116.7,19,116.4,20.2,115.8,21z"/>
					</g>
				</g>
				<g>
					<g>
						<path fill="#C80086" d="M103.5,24.3l-0.1-1.8c-0.9,1.5-2.2,2.3-3.9,2.4c-0.7,0-1.4-0.1-2.1-0.3c-0.7-0.2-1.2-0.6-1.5-1
							c-0.3-0.4-0.6-0.9-0.7-1.5c-0.1-0.4-0.2-1.1-0.2-2l-0.5-7.8l2.1-0.1l0.4,6.9c0.1,1.1,0.2,1.9,0.3,2.2c0.2,0.6,0.5,1,0.9,1.3
							c0.5,0.3,1,0.4,1.6,0.4c0.6,0,1.2-0.2,1.8-0.6c0.5-0.4,0.9-0.8,1.1-1.4c0.2-0.6,0.3-1.4,0.2-2.5l-0.4-6.7l2.1-0.1l0.7,12.5
							L103.5,24.3z"/>
					</g>
				</g>
				<g>
					<g>
						<path fill="#C80086" d="M91,7.7l-2.1,0.1l0.4,6.2c-0.4-0.5-0.9-0.9-1.5-1.2c-0.4-0.2-0.9-0.3-1.4-0.4c-0.2,0-0.4,0-0.6,0
							c-1,0.1-1.9,0.4-2.8,1c-0.8,0.6-1.4,1.4-1.7,2.5c-0.4,1-0.5,2.2-0.4,3.4c0.1,1.3,0.4,2.4,0.9,3.4c0.5,1,1.2,1.7,2.1,2.2
							c0.8,0.5,1.7,0.7,2.6,0.7c0.1,0,0.1,0,0.2,0c1.5-0.1,2.7-0.8,3.4-2.1l0.1,1.6l2-0.1L91,7.7z M88.9,22.5
							c-0.6,0.8-1.4,1.2-2.3,1.3c-0.1,0-0.2,0-0.3,0c-0.8,0-1.5-0.4-2.2-1.1c-0.7-0.8-1.1-1.9-1.2-3.5c-0.1-1.7,0.2-2.9,0.7-3.7
							c0.6-0.8,1.4-1.2,2.3-1.3c0.1,0,0.2,0,0.3,0c0.8,0,1.5,0.4,2.2,1.1c0.7,0.8,1.1,2,1.2,3.7C89.8,20.6,89.5,21.7,88.9,22.5z"/>
					</g>
				</g>
				<g>
					<g>
						<path fill="#C80086" d="M46.9,27.6l-0.7-12.5l1.9-0.1l0.1,1.9c0.4-0.9,0.9-1.5,1.3-1.8c0.4-0.3,0.8-0.5,1.3-0.5
							c0.7,0,1.5,0.1,2.2,0.6l-0.6,2c-0.5-0.3-1.1-0.4-1.6-0.4c-0.5,0-0.9,0.2-1.2,0.5c-0.4,0.3-0.6,0.7-0.7,1.2
							c-0.2,0.8-0.3,1.6-0.2,2.5l0.4,6.6L46.9,27.6z"/>
					</g>
				</g>
				<g>
					<g>
						<polygon fill="#C80086" points="1.2,30.3 0.2,13 2.3,12.9 3.3,30.2 1.2,30.3 						"/>
					</g>
				</g>
				<g>
					<g>
						<path fill="#C80086" d="M30.2,26.9L29.6,16l-2,0.1l0.1,1.5c-0.9-1-2-1.5-3.2-1.6c-0.2,0-0.4,0-0.6,0c-1.1,0.1-2.1,0.4-2.8,1
							c-0.8,0.6-1.4,1.4-1.7,2.5c-0.4,1-0.5,2.2-0.5,3.3c0.1,1.7,0.7,3.2,1.7,4.4c1,1.2,2.3,1.7,3.9,1.6c0.1,0,0.1,0,0.2,0
							c1.4-0.1,2.5-0.7,3.4-1.8c0.1,1.4,0.1,2.3,0,2.7c-0.1,0.7-0.5,1.3-1,1.7c-0.5,0.4-1.3,0.7-2.2,0.7c-0.1,0-0.2,0-0.3,0
							c-0.8,0-1.4-0.2-1.9-0.5c-0.4-0.3-0.7-0.7-0.8-1.4l-2.1-0.2c0,1.4,0.5,2.3,1.5,3c0.9,0.6,1.9,0.8,3.2,0.8c0.1,0,0.3,0,0.4,0
							c1.3-0.1,2.3-0.4,3.1-0.9c0.8-0.5,1.4-1.2,1.8-2C30.2,30.2,30.3,28.8,30.2,26.9z M27.2,25.9c-0.6,0.8-1.4,1.2-2.4,1.3
							c-0.1,0-0.2,0-0.3,0c-0.9,0-1.6-0.3-2.2-1c-0.7-0.7-1.1-1.9-1.2-3.5c-0.1-1.5,0.2-2.7,0.8-3.5c0.6-0.8,1.4-1.2,2.3-1.3
							c0.1,0,0.2,0,0.3,0c0.8,0,1.6,0.4,2.2,1c0.7,0.7,1.1,1.9,1.2,3.4C28,23.9,27.8,25.1,27.2,25.9z"/>
					</g>
				</g>
				<g>
					<g>
						<path fill="#C80086" d="M14.9,29.5l-0.1-1.8c-0.9,1.5-2.2,2.3-3.9,2.4c-0.7,0-1.4-0.1-2.1-0.3c-0.7-0.2-1.2-0.6-1.5-1
							c-0.3-0.4-0.6-0.9-0.7-1.5c-0.1-0.4-0.2-1.1-0.2-2l-0.5-7.8L8,17.3l0.4,6.9c0.1,1.1,0.2,1.9,0.3,2.2c0.2,0.6,0.5,1,0.9,1.3
							c0.5,0.3,1,0.4,1.6,0.4c0.6,0,1.2-0.2,1.8-0.6c0.5-0.4,0.9-0.8,1.1-1.4c0.2-0.6,0.3-1.4,0.2-2.5L13.9,17l2.1-0.1l0.7,12.5
							L14.9,29.5z"/>
					</g>
				</g>
				<g>
					<g>
						<path fill="#C80086" d="M45.3,25.8c-2.3,0.5-1.8-1.4-2-3.3l-0.2-2.8c-0.1-0.9-0.1-1.6-0.2-2c-0.2-0.6-0.4-1-0.7-1.4
							c-0.3-0.4-0.9-0.7-1.5-0.9c-0.7-0.2-1.6-0.3-2.6-0.2l0,0c-1.1,0.1-2,0.3-2.8,0.6c-0.8,0.3-1.4,0.8-1.8,1.4
							c-0.4,0.6-0.6,1.8-0.8,2.7l2.1-0.1c0.2-0.9,0.5-1.7,0.9-2.1c0.5-0.4,1.2-0.6,2.2-0.7c0.1,0,0.1,0,0.2,0c1,0,1.7,0.2,2.3,0.6
							c0.4,0.3,0.7,0.9,0.7,1.8c0,0.1,0,0.3,0,0.6c-0.7,0.3-1.7,0.6-3,0.8c-0.2,0-0.5,0.1-0.7,0.1c-0.8,0.2-1.5,0.3-1.9,0.4
							c-0.6,0.2-1.1,0.5-1.5,0.8c-0.4,0.3-0.8,0.8-1,1.3c-0.3,0.5-0.4,1.1-0.3,1.7c0.1,1,0.5,1.9,1.3,2.5c0.8,0.6,1.9,0.9,3.2,0.8
							c0.3,0,0.6-0.1,0.9-0.1c0.5-0.1,0.9-0.2,1.4-0.4c0.7-0.3,1.4-0.9,2.2-1.7c0.6,1.8,2.6,1.2,3.7,1.1L45.3,25.8z M40.9,24.5
							c-0.3,0.6-0.7,1.2-1.3,1.6c-0.5,0.3-1,0.5-1.6,0.6c-0.2,0-0.3,0-0.5,0.1c-0.8,0-1.5-0.1-1.9-0.5c-0.4-0.4-0.7-0.8-0.7-1.4
							c0-0.4,0.1-0.7,0.2-1c0.2-0.3,0.4-0.6,0.8-0.7c0.3-0.2,1-0.4,1.8-0.5c0.1,0,0.2,0,0.3-0.1c1.4-0.3,2.4-0.6,3.1-0.9l0,0.8
							C41.2,23.3,41.1,24,40.9,24.5z"/>
					</g>
				</g>
				<g>
					<g>
						<path fill="#C80086" d="M134,20.6c-2.3,0.5-1.8-1.4-2-3.3l-0.2-2.8c-0.1-0.9-0.1-1.6-0.2-2c-0.2-0.6-0.4-1-0.7-1.4
							c-0.3-0.4-0.9-0.7-1.5-0.9c-0.7-0.2-1.6-0.3-2.6-0.2l0,0c-1.1,0.1-2,0.3-2.8,0.6c-0.8,0.3-1.4,0.8-1.8,1.4
							c-0.4,0.6-0.6,1.8-0.8,2.7l2.1-0.1c0.2-0.9,0.5-1.7,0.9-2.1c0.5-0.4,1.2-0.6,2.2-0.7c0.1,0,0.1,0,0.2,0c1,0,1.7,0.2,2.3,0.6
							c0.4,0.3,0.7,0.9,0.7,1.8c0,0.1,0,0.3,0,0.6c-0.7,0.3-1.7,0.6-3,0.8c-0.2,0-0.5,0.1-0.7,0.1c-0.8,0.2-1.5,0.3-1.9,0.4
							c-0.6,0.2-1.1,0.5-1.5,0.8c-0.4,0.3-0.8,0.8-1,1.3c-0.3,0.5-0.4,1.1-0.3,1.7c0.1,1,0.5,1.9,1.3,2.5c0.8,0.6,1.9,0.9,3.2,0.8
							c0.3,0,0.6-0.1,0.9-0.1c0.5-0.1,0.9-0.2,1.4-0.4c0.7-0.3,1.4-0.9,2.2-1.7c0.6,1.8,2.6,1.2,3.7,1.1L134,20.6z M129.6,19.3
							c-0.3,0.6-0.7,1.2-1.3,1.6c-0.5,0.3-1,0.5-1.6,0.6c-0.2,0-0.3,0-0.5,0.1c-0.8,0-1.5-0.1-1.9-0.5c-0.4-0.4-0.7-0.8-0.7-1.4
							c0-0.4,0.1-0.7,0.2-1c0.2-0.3,0.4-0.6,0.8-0.7c0.3-0.2,1-0.4,1.8-0.5c0.1,0,0.2,0,0.3-0.1c1.4-0.3,2.4-0.6,3.1-0.9l0,0.8
							C129.9,18.1,129.8,18.8,129.6,19.3z"/>
					</g>
				</g>
				<g>
					<g>
						<path fill="#C80086" d="M73.5,24.2c-2.3,0.5-1.8-1.4-2-3.3L71.4,18c-0.1-0.9-0.1-1.6-0.2-2c-0.2-0.6-0.4-1-0.7-1.4
							c-0.3-0.4-0.9-0.7-1.5-0.9c-0.7-0.2-1.6-0.3-2.6-0.2l0,0c-1.1,0.1-2,0.3-2.8,0.6c-0.8,0.3-1.4,0.8-1.8,1.4
							c-0.4,0.6-0.6,1.8-0.8,2.7l2.1-0.1c0.2-0.9,0.5-1.7,0.9-2.1c0.5-0.4,1.2-0.6,2.2-0.7c0.1,0,0.1,0,0.2,0c1,0,1.7,0.2,2.3,0.6
							c0.4,0.3,0.7,0.9,0.7,1.8c0,0.1,0,0.3,0,0.6c-0.7,0.3-1.7,0.6-3,0.8c-0.2,0-0.5,0.1-0.7,0.1c-0.8,0.2-1.5,0.3-1.9,0.4
							c-0.6,0.2-1.1,0.5-1.5,0.8c-0.4,0.3-0.8,0.8-1,1.3c-0.3,0.5-0.4,1.1-0.3,1.7c0.1,1,0.5,1.9,1.3,2.5c0.8,0.6,1.9,0.9,3.2,0.8
							c0.3,0,0.6-0.1,0.9-0.1c0.5-0.1,0.9-0.2,1.4-0.4c0.7-0.3,1.4-0.9,2.2-1.7c0.6,1.8,2.6,1.2,3.7,1.1L73.5,24.2z M69.2,22.9
							c-0.3,0.6-0.7,1.2-1.3,1.6c-0.5,0.3-1,0.5-1.6,0.6c-0.2,0-0.3,0-0.5,0.1c-0.8,0-1.5-0.1-1.9-0.5c-0.4-0.4-0.7-0.8-0.7-1.4
							c0-0.4,0.1-0.7,0.2-1c0.2-0.3,0.4-0.6,0.8-0.7c0.3-0.2,1-0.4,1.8-0.5c0.1,0,0.2,0,0.3-0.1c1.4-0.3,2.4-0.6,3.1-0.9l0,0.8
							C69.4,21.7,69.4,22.4,69.2,22.9z"/>
					</g>
				</g>
			</g>
		</g>
	</g>
</g>
<g id="Capa_2">
</g>
</svg>
