<?xml version="1.0" encoding="utf-8"?>
<!-- Generator: Adobe Illustrator 18.1.1, SVG Export Plug-In . SVG Version: 6.00 Build 0)  -->
<svg version="1.1" xmlns="http://www.w3.org/2000/svg" xmlns:xlink="http://www.w3.org/1999/xlink" x="0px" y="0px"
	 viewBox="0 0 178.9 109.5" enable-background="new 0 0 178.9 109.5" xml:space="preserve">
<g id="Capa_1">
	<g>
		<g>
			<g>
				<rect x="53.5" y="13.5" width="71.9" height="71.9"/>
				<g>
					<path d="M56.8,0.8h-1.5v1.7h1.3v0.8h-1.3v2.6h-0.9V0h2.4V0.8z"/>
					<path d="M60.4,3.7h-0.8V2.8l-0.7,0v3.1H58V2.1h0.9v0.1c0.2,0,0.4-0.1,0.5-0.1c0.2,0,0.4-0.1,0.5-0.1c0.3,0,0.5,0.2,0.5,0.5V3.7
						z"/>
					<path d="M64.1,5.9h-0.8V5.8c-0.2,0-0.4,0.1-0.6,0.1c-0.3,0-0.5,0.1-0.6,0.1c-0.3,0-0.5-0.2-0.5-0.5V4.1c0-0.3,0.2-0.5,0.5-0.5
						h1.2V2.7h-0.8v0.5h-0.8V2.6c0-0.3,0.2-0.5,0.5-0.5h1.5c0.3,0,0.5,0.2,0.5,0.5V5.9z M63.3,5.2v-1h-0.8v1L63.3,5.2z"/>
					<path d="M67.9,5.4c0,0.3-0.2,0.5-0.5,0.5H66c-0.3,0-0.5-0.2-0.5-0.5V2.6c0-0.3,0.2-0.5,0.5-0.5h1.5c0.3,0,0.5,0.2,0.5,0.5v0.9
						h-0.8V2.8h-0.8v2.4h0.8V4.5h0.8V5.4z"/>
					<path d="M71,5.9h-1c-0.3,0-0.5-0.2-0.5-0.5V2.8h-0.4V2.1h0.4v-1h0.9v1h0.6v0.7h-0.6v2.3H71V5.9z"/>
					<path d="M74.7,5.9h-0.8V5.8c-0.2,0-0.4,0.1-0.6,0.1c-0.2,0-0.4,0.1-0.6,0.1c-0.3,0-0.5-0.2-0.5-0.5V4.1c0-0.3,0.2-0.5,0.5-0.5
						h1.2V2.7H73v0.5h-0.8V2.6c0-0.3,0.2-0.5,0.5-0.5h1.4c0.3,0,0.5,0.2,0.5,0.5V5.9z M73.9,5.2v-1H73v1L73.9,5.2z"/>
					<path d="M76.9,5.9h-0.8V0h0.8V5.9z"/>
					<path d="M83.7,5.9H83l-1.4-3.7c0,0.2,0.1,0.3,0.1,0.4v3.3h-0.9V0h0.8l1.4,3.6c0-0.2-0.1-0.3-0.1-0.4V0h0.9V5.9z"/>
					<path d="M87.7,5.4c0,0.3-0.2,0.5-0.5,0.5h-1.5c-0.3,0-0.5-0.2-0.5-0.5V2.6c0-0.3,0.2-0.5,0.5-0.5h1.5c0.3,0,0.5,0.2,0.5,0.5
						V5.4z M86.8,5.2V2.8H86v2.4H86.8z"/>
					<path d="M89.9,5.9H89V5h0.9V5.9z"/>
					<path d="M98.9,5.4c0,0.4-0.2,0.5-0.5,0.5h-1.8c-0.4,0-0.5-0.2-0.5-0.5V0.5C96,0.2,96.2,0,96.5,0h1.8c0.3,0,0.5,0.2,0.5,0.5V5.4
						z M98,5.1V0.8h-1.2v4.4H98z"/>
					<path d="M103.3,5.4c0,0.4-0.2,0.5-0.5,0.5h-1.8c-0.4,0-0.5-0.2-0.5-0.5V0.5c0-0.4,0.2-0.5,0.5-0.5h1.8c0.3,0,0.5,0.2,0.5,0.5
						V5.4z M102.4,5.1V0.8h-1.2v4.4H102.4z"/>
					<path d="M106.7,5.9h-0.9V1.7h-0.3V1.6l0.5-1.6h0.7V5.9z"/>
				</g>
			</g>
			<g>
				<path d="M54.2,100.4"/>
				<path d="M11.1,102.2v-2.7H9.5l0.4-2.7H7.2l-0.4,2.7H5.2l0.4-2.7H2.9l-0.4,2.7H0.9v2.7H2l-0.3,1.9H0v2.7h1.3l-0.4,2.5h2.7
					l0.4-2.5h1.6l-0.4,2.5h2.7l0.4-2.5h2v-2.7H8.7l0.3-1.9H11.1z M6,104.1H4.4l0.3-1.9h1.6L6,104.1z"/>
				<path d="M25.1,104.5c-0.5,1.1-1.7,1.9-3,1.9c-1.8,0-3.3-1.5-3.3-3.3c0-1.8,1.5-3.3,3.3-3.3c1.3,0,2.4,0.8,3,1.8l2.9-1.5
					c-1.1-2.2-3.3-3.6-5.8-3.6c-3.6,0-6.5,2.9-6.5,6.5c0,3.6,2.9,6.5,6.5,6.5c2.5,0,4.7-1.4,5.8-3.5L25.1,104.5z"/>
				<path d="M132.9,104.5c-0.5,1.1-1.7,1.9-3,1.9c-1.8,0-3.3-1.5-3.3-3.3c0-1.8,1.5-3.3,3.3-3.3c1.3,0,2.4,0.8,3,1.8l2.9-1.5
					c-1.1-2.2-3.3-3.6-5.8-3.6c-3.6,0-6.5,2.9-6.5,6.5c0,3.6,2.9,6.5,6.5,6.5c2.5,0,4.7-1.4,5.7-3.5L132.9,104.5z"/>
				<path d="M39.1,96.9h-3.2L31,109.2h3.5l0.6-1.7H40l0.5,1.7h3.6L39.1,96.9z M36.1,104.7l1.3-3.7h0.3l1.4,3.7H36.1z"/>
				<path d="M69,96.9h-3.2l-4.9,12.3h3.5l0.7-1.7h4.9l0.5,1.7H74L69,96.9z M66,104.7l1.3-3.7h0.3l1.4,3.7H66z"/>
				<path d="M115.3,96.9h-3.2l-4.9,12.3h3.5l0.7-1.7h4.9l0.5,1.7h3.6L115.3,96.9z M112.2,104.7l1.3-3.7h0.3l1.4,3.7H112.2z"/>
				<path d="M160.5,96.9h-3.2l-4.9,12.3h3.5l0.7-1.7h4.9l0.5,1.7h3.6L160.5,96.9z M157.4,104.7l1.3-3.7h0.3l1.4,3.7H157.4z"/>
				<polygon points="150.6,96.9 139.5,96.9 139.5,99.9 143.4,99.9 143.4,109.2 146.8,109.2 146.8,99.9 150.6,99.9 				"/>
				<polygon points="87.8,99.9 87.8,96.9 78.4,96.9 78.4,99.7 78.4,99.9 78.4,102.1 78.4,105 78.4,109.2 81.8,109.2 81.8,105 
					86.4,105 86.4,102.1 81.8,102.1 81.8,99.9 				"/>
				<polygon points="173.2,106.2 173.2,96.9 169.9,96.9 169.9,106.2 169.9,108.2 169.9,109.2 178.9,109.2 178.9,106.2 				"/>
				<path d="M99.7,109.2h3.7l-2.7-3.8c1.6-0.7,2.7-2.2,2.7-4.1c0-2.4-2-4.4-4.4-4.4h-2.9h-2.8h-0.6v12.3h3.4v-3.4h1.3L99.7,109.2z
					 M96,99.9h2.6c0.9,0,1.6,0.7,1.6,1.6c0,0.9-0.7,1.6-1.6,1.6H96V99.9z"/>
				<path fill-rule="evenodd" clip-rule="evenodd" d="M55.5,102.6c-1.1-0.6-2.2-1-3.3-1.4c-0.5-0.2-1.2-0.3-1-1.1
					c0.2-0.6,0.8-0.7,1.4-0.6c0.4,0,0.7,0,1.1,0.2h0c0,0,0.5,0.3,0.5,0.7l0,0v0.5h3.3v-0.6l0,0c0-0.2-0.1-0.5-0.2-0.8
					c-0.6-1.7-2.3-2.7-4.9-2.7c-0.3,0-0.6,0-1,0.1c-1.9,0.2-3.4,1.5-3.7,3.1c-0.3,1.7,0.5,3,2.4,3.9c0.8,0.4,1.6,0.6,2.4,1
					c0.7,0.3,2,0.4,1.6,1.3c-0.3,0.9-1.5,0.7-2.4,0.5c-0.4-0.1-0.7-0.3-1-0.6h-3c-0.2,0.9,0.3,1.6,1,2.1c1.7,1.4,3.6,1.6,5.7,1.2
					c1.9-0.4,3-1.4,3.2-2.9C57.9,104.9,57.2,103.5,55.5,102.6z"/>
			</g>
		</g>
	</g>
</g>
<g id="Capa_2">
</g>
</svg>
