<?xml version="1.0" encoding="utf-8"?>
<!-- Generator: Adobe Illustrator 18.1.1, SVG Export Plug-In . SVG Version: 6.00 Build 0)  -->
<svg version="1.1" xmlns="http://www.w3.org/2000/svg" xmlns:xlink="http://www.w3.org/1999/xlink" x="0px" y="0px"
	 viewBox="0 0 488.2 100.5" enable-background="new 0 0 488.2 100.5" xml:space="preserve">
<g id="Capa_1">
	<g>
		<g>
			<path fill="#C1BFB1" d="M6,72.4v-49H17v39.3h20.9v9.7H6z"/>
			<path fill="#C1BFB1" d="M77.3,72.4l-4.6-10.6H52.2l-4.6,10.6H36l21.2-49h10.6l21.2,49H77.3z M62.5,38l-6.2,14.2h12.3L62.5,38z"/>
			<path fill="#C1BFB1" d="M145.9,39.7c0,7.9-3.1,12.9-9.3,15.2L149,72.4h-13.5l-10.9-15.6H117v15.6h-10.9v-49h18.6
				c7.6,0,13.1,1.3,16.3,3.9C144.2,29.8,145.9,34,145.9,39.7z M132.7,45.5c1.4-1.2,2-3.1,2-5.8c0-2.6-0.7-4.5-2.1-5.4
				c-1.4-1-3.9-1.5-7.4-1.5H117v14.5h8C128.8,47.3,131.3,46.7,132.7,45.5z"/>
			<path fill="#C1BFB1" d="M188.9,23.4v9.7h-24.4v10.1h22v9.3h-22v10.2h25.2v9.7h-36.1v-49H188.9z"/>
			<path fill="#C1BFB1" d="M229.7,27.8c3.4,2.9,5.2,7.4,5.2,13.5s-1.8,10.5-5.3,13.3c-3.5,2.8-8.9,4.2-16.2,4.2h-6.5v13.7h-10.9v-49
				h17.3C220.8,23.4,226.3,24.9,229.7,27.8z M221.7,47.1c1.3-1.5,2-3.6,2-6.5c0-2.8-0.9-4.8-2.6-6c-1.7-1.2-4.4-1.8-8-1.8h-6.2v16.5
				h7.4C217.9,49.3,220.4,48.6,221.7,47.1z"/>
			<path fill="#C1BFB1" d="M252.9,59.8c1.8,2.3,4.3,3.4,7.4,3.4s5.5-1.1,7.3-3.4s2.7-5.4,2.7-9.3V23.4h10.9v27.4
				c0,7.1-2,12.6-5.9,16.4c-3.9,3.8-9,5.7-15.1,5.7c-6.1,0-11.2-1.9-15.1-5.8c-4-3.8-5.9-9.3-5.9-16.3V23.4h10.9v27.1
				C250.2,54.4,251.1,57.5,252.9,59.8z M265.2,18.4h-10L264.1,6l10.9,4.6L265.2,18.4z"/>
			<path fill="#C1BFB1" d="M310.5,72.4h-21.5v-49h19.1c3.3,0,6.2,0.4,8.6,1.2c2.4,0.8,4.2,1.9,5.4,3.2c2.2,2.5,3.3,5.4,3.3,8.6
				c0,3.8-1.2,6.7-3.7,8.6c-0.8,0.7-1.4,1.1-1.8,1.2c-0.3,0.2-0.9,0.4-1.8,0.8c3,0.7,5.5,2,7.3,4.1c1.8,2.1,2.7,4.7,2.7,7.7
				c0,3.4-1.2,6.4-3.5,9C322,70.9,317.3,72.4,310.5,72.4z M300,43.3h5.2c3,0,5.3-0.3,6.8-1c1.5-0.7,2.2-2.1,2.2-4.2s-0.7-3.6-2-4.3
				s-3.6-1.1-6.9-1.1H300V43.3z M300,63.2h7.5c3.1,0,5.5-0.4,7-1.2c1.6-0.8,2.3-2.3,2.3-4.6s-0.8-3.8-2.5-4.5
				c-1.7-0.7-4.3-1.1-8-1.1H300V63.2z"/>
			<path fill="#C1BFB1" d="M333.9,72.4v-49h10.9v39.3h20.9v9.7H333.9z"/>
			<path fill="#C1BFB1" d="M370.2,23.4h10.9v49h-10.9V23.4z"/>
			<path fill="#C1BFB1" d="M412.2,62.8c5.4,0,9.8-2.1,13.2-6.4l7,7.2c-5.6,6.3-12.1,9.4-19.7,9.4c-7.6,0-13.8-2.4-18.7-7.2
				c-4.9-4.8-7.3-10.8-7.3-18.1c0-7.3,2.5-13.3,7.5-18.2c5-4.9,11.1-7.3,18.3-7.3c8,0,14.8,3.1,20.2,9.2l-6.8,7.7
				c-3.5-4.3-7.8-6.5-12.9-6.5c-4.1,0-7.6,1.3-10.6,4c-2.9,2.7-4.4,6.3-4.4,10.9s1.4,8.2,4.1,11C404.9,61.4,408.3,62.8,412.2,62.8z"
				/>
			<path fill="#C1BFB1" d="M472.1,72.4l-4.6-10.6H447l-4.6,10.6h-11.6l21.2-49h10.6l21.2,49H472.1z M457.3,38l-6.2,14.2h12.3
				L457.3,38z"/>
		</g>
		<g>
			<path fill="#FFFFFF" d="M279.8,92.9c1,0,1.8-0.2,2.5-0.5c0.7-0.3,1.4-0.8,2.2-1.5l1.8,1.8c-1.7,1.9-3.8,2.9-6.3,2.9
				c-2.5,0-4.5-0.8-6.1-2.4s-2.4-3.6-2.4-6c0-2.4,0.8-4.5,2.5-6.1c1.7-1.6,3.8-2.4,6.3-2.4c2.5,0,4.6,0.9,6.3,2.8l-1.8,1.9
				c-0.8-0.7-1.5-1.3-2.2-1.6s-1.5-0.4-2.4-0.4c-1.7,0-3,0.5-4.2,1.6s-1.7,2.4-1.7,4.1c0,1.7,0.6,3,1.7,4.2
				C276.9,92.4,278.3,92.9,279.8,92.9z"/>
			<path fill="#FFFFFF" d="M301.7,93.2c-1.7,1.6-3.7,2.4-6.1,2.4c-2.4,0-4.5-0.8-6.1-2.4s-2.5-3.6-2.5-6s0.8-4.4,2.5-6
				s3.7-2.4,6.1-2.4c2.4,0,4.5,0.8,6.1,2.4c1.7,1.6,2.5,3.6,2.5,6S303.3,91.6,301.7,93.2z M299.7,82.9c-1.1-1.2-2.5-1.7-4.1-1.7
				c-1.6,0-3,0.6-4.1,1.7s-1.7,2.6-1.7,4.2s0.6,3,1.7,4.2s2.5,1.7,4.1,1.7c1.6,0,3-0.6,4.1-1.7s1.7-2.6,1.7-4.2
				S300.8,84.1,299.7,82.9z"/>
			<path fill="#FFFFFF" d="M318.7,79.1h2.8v16.3h-3l-9.3-11.9v11.9h-2.8V79.1h2.8l9.5,12.2V79.1z"/>
			<path fill="#FFFFFF" d="M329.8,81.2c-0.8,0-1.5,0.2-2,0.5s-0.8,0.8-0.8,1.5c0,0.7,0.3,1.2,0.8,1.5s1.6,0.7,3.3,1.1
				c1.7,0.4,2.9,1,3.8,1.7s1.3,1.8,1.3,3.2s-0.5,2.6-1.6,3.5s-2.5,1.3-4.2,1.3c-2.6,0-4.8-0.9-6.8-2.6l1.7-2.1
				c1.7,1.4,3.4,2.2,5.1,2.2c0.9,0,1.6-0.2,2.1-0.6c0.5-0.4,0.8-0.9,0.8-1.5s-0.2-1.1-0.7-1.5c-0.5-0.4-1.3-0.7-2.5-1
				c-1.2-0.3-2.1-0.6-2.7-0.8c-0.6-0.2-1.2-0.6-1.7-0.9c-1-0.7-1.4-1.9-1.4-3.4s0.5-2.7,1.6-3.5s2.5-1.2,4.1-1.2
				c1,0,2.1,0.2,3.1,0.5c1,0.3,1.9,0.8,2.7,1.4l-1.5,2.1c-0.5-0.4-1.1-0.8-2-1.1C331.4,81.4,330.6,81.2,329.8,81.2z"/>
			<path fill="#FFFFFF" d="M344.6,81.6v13.8h-2.8V81.6h-5v-2.5h12.7v2.5H344.6z"/>
			<path fill="#FFFFFF" d="M364.4,84.4c0,2.7-1.2,4.4-3.5,5.1l4.3,5.9h-3.5l-3.9-5.5h-3.6v5.5h-2.8V79.1h6.1c2.5,0,4.3,0.4,5.4,1.3
				C363.9,81.2,364.4,82.5,364.4,84.4z M360.7,86.7c0.6-0.5,0.8-1.3,0.8-2.3c0-1.1-0.3-1.8-0.9-2.2c-0.6-0.4-1.6-0.6-3.1-0.6h-3.5
				v5.8h3.4C359.1,87.4,360.2,87.2,360.7,86.7z"/>
			<path fill="#FFFFFF" d="M370.9,91.7c0.7,0.9,1.8,1.3,3,1.3c1.3,0,2.3-0.4,3-1.3s1.1-2.1,1.1-3.6v-9h2.8v9.2
				c0,2.4-0.6,4.2-1.9,5.4c-1.3,1.3-3,1.9-5,1.9c-2,0-3.7-0.6-5-1.9c-1.3-1.3-1.9-3.1-1.9-5.4v-9.2h2.8v9
				C369.8,89.6,370.1,90.8,370.9,91.7z"/>
			<path fill="#FFFFFF" d="M391.5,92.9c1,0,1.8-0.2,2.5-0.5c0.7-0.3,1.4-0.8,2.2-1.5l1.8,1.8c-1.7,1.9-3.8,2.9-6.3,2.9
				c-2.5,0-4.5-0.8-6.1-2.4s-2.4-3.6-2.4-6c0-2.4,0.8-4.5,2.5-6.1c1.7-1.6,3.8-2.4,6.3-2.4c2.5,0,4.6,0.9,6.3,2.8l-1.8,1.9
				c-0.8-0.7-1.5-1.3-2.2-1.6s-1.5-0.4-2.4-0.4c-1.7,0-3,0.5-4.2,1.6s-1.7,2.4-1.7,4.1c0,1.7,0.6,3,1.7,4.2
				C388.6,92.4,389.9,92.9,391.5,92.9z"/>
			<path fill="#FFFFFF" d="M407.5,92.9c1,0,1.8-0.2,2.5-0.5c0.7-0.3,1.4-0.8,2.2-1.5l1.8,1.8c-1.7,1.9-3.8,2.9-6.3,2.9
				c-2.5,0-4.5-0.8-6.1-2.4s-2.4-3.6-2.4-6c0-2.4,0.8-4.5,2.5-6.1c1.7-1.6,3.8-2.4,6.3-2.4c2.5,0,4.6,0.9,6.3,2.8l-1.8,1.9
				c-0.8-0.7-1.5-1.3-2.2-1.6s-1.5-0.4-2.4-0.4c-1.7,0-3,0.5-4.2,1.6s-1.7,2.4-1.7,4.1c0,1.7,0.6,3,1.7,4.2
				C404.6,92.4,406,92.9,407.5,92.9z"/>
			<path fill="#FFFFFF" d="M416.1,79.1h2.8v16.3h-2.8V79.1z"/>
			<path fill="#FFFFFF" d="M435.9,93.2c-1.7,1.6-3.7,2.4-6.1,2.4c-2.4,0-4.5-0.8-6.1-2.4s-2.5-3.6-2.5-6s0.8-4.4,2.5-6
				s3.7-2.4,6.1-2.4c2.4,0,4.5,0.8,6.1,2.4c1.7,1.6,2.5,3.6,2.5,6S437.5,91.6,435.9,93.2z M433.9,82.9c-1.1-1.2-2.5-1.7-4.1-1.7
				c-1.6,0-3,0.6-4.1,1.7s-1.7,2.6-1.7,4.2s0.6,3,1.7,4.2s2.5,1.7,4.1,1.7c1.6,0,3-0.6,4.1-1.7s1.7-2.6,1.7-4.2S435,84.1,433.9,82.9
				z"/>
			<path fill="#FFFFFF" d="M452.9,79.1h2.8v16.3h-3l-9.3-11.9v11.9h-2.8V79.1h2.8l9.5,12.2V79.1z"/>
			<path fill="#FFFFFF" d="M470.5,79.1v2.6h-8.7V86h7.8v2.5h-7.8v4.4h9v2.6H459V79.1H470.5z"/>
			<path fill="#FFFFFF" d="M478.1,81.2c-0.8,0-1.5,0.2-2,0.5s-0.8,0.8-0.8,1.5c0,0.7,0.3,1.2,0.8,1.5s1.6,0.7,3.3,1.1
				c1.7,0.4,2.9,1,3.8,1.7s1.3,1.8,1.3,3.2s-0.5,2.6-1.6,3.5s-2.5,1.3-4.2,1.3c-2.6,0-4.8-0.9-6.8-2.6l1.7-2.1
				c1.7,1.4,3.4,2.2,5.1,2.2c0.9,0,1.6-0.2,2.1-0.6c0.5-0.4,0.8-0.9,0.8-1.5s-0.2-1.1-0.7-1.5c-0.5-0.4-1.3-0.7-2.5-1
				c-1.2-0.3-2.1-0.6-2.7-0.8c-0.6-0.2-1.2-0.6-1.7-0.9c-1-0.7-1.4-1.9-1.4-3.4s0.5-2.7,1.6-3.5s2.5-1.2,4.1-1.2
				c1,0,2.1,0.2,3.1,0.5c1,0.3,1.9,0.8,2.7,1.4l-1.5,2.1c-0.5-0.4-1.1-0.8-2-1.1C479.7,81.4,478.9,81.2,478.1,81.2z"/>
		</g>
	</g>
</g>
<g id="Capa_2">
</g>
</svg>
