<?xml version="1.0" encoding="utf-8"?>
<!-- Generator: Adobe Illustrator 18.1.1, SVG Export Plug-In . SVG Version: 6.00 Build 0)  -->
<svg version="1.1" xmlns="http://www.w3.org/2000/svg" xmlns:xlink="http://www.w3.org/1999/xlink" x="0px" y="0px"
	 viewBox="0 0 1020.7 137.6" enable-background="new 0 0 1020.7 137.6" xml:space="preserve">
<g id="Capa_1">
	<g>
		<g>
			<g>
				<path fill="#C1BFB1" d="M329.1,2.7h9.7v43.4h-9.7V2.7z"/>
				<path fill="#C1BFB1" d="M379.5,8.4c4.1,3.8,6.2,9.1,6.2,15.8s-2,12.1-6.1,16c-4,3.9-10.2,5.9-18.5,5.9h-14.8V2.7h15.3
					C369.4,2.7,375.3,4.6,379.5,8.4z M372.4,34.2c2.4-2.2,3.6-5.5,3.6-9.7s-1.2-7.5-3.6-9.8c-2.4-2.3-6-3.4-11-3.4H356v26.4h6.1
					C366.6,37.5,370,36.4,372.4,34.2z"/>
				<path fill="#C1BFB1" d="M422.3,2.7v8.6h-21.6v8.9h19.4v8.3h-19.4v9h22.3v8.6h-32V2.7H422.3z"/>
				<path fill="#C1BFB1" d="M464.3,40.1c-4.4,4.3-9.8,6.4-16.2,6.4c-6.4,0-11.8-2.1-16.2-6.4c-4.4-4.3-6.6-9.6-6.6-16
					c0-6.4,2.2-11.7,6.6-16c4.4-4.3,9.8-6.4,16.2-6.4c6.4,0,11.8,2.1,16.2,6.4c4.4,4.3,6.6,9.6,6.6,16
					C470.9,30.5,468.7,35.8,464.3,40.1z M461,24.1c0-3.9-1.2-7.2-3.7-9.9s-5.5-4.1-9.2-4.1c-3.6,0-6.7,1.4-9.2,4.1
					c-2.5,2.7-3.7,6-3.7,9.9c0,3.9,1.2,7.2,3.7,9.9c2.5,2.7,5.5,4.1,9.2,4.1c3.6,0,6.7-1.4,9.2-4.1C459.8,31.3,461,28,461,24.1z"/>
				<path fill="#C1BFB1" d="M476,46.1V2.7h9.7v34.8h18.5v8.6H476z"/>
				<path fill="#C1BFB1" d="M543.5,40.1c-4.4,4.3-9.8,6.4-16.2,6.4c-6.4,0-11.8-2.1-16.2-6.4c-4.4-4.3-6.6-9.6-6.6-16
					c0-6.4,2.2-11.7,6.6-16c4.4-4.3,9.8-6.4,16.2-6.4c6.4,0,11.8,2.1,16.2,6.4c4.4,4.3,6.6,9.6,6.6,16
					C550.1,30.5,547.9,35.8,543.5,40.1z M540.2,24.1c0-3.9-1.2-7.2-3.7-9.9s-5.5-4.1-9.2-4.1c-3.6,0-6.7,1.4-9.2,4.1
					c-2.5,2.7-3.7,6-3.7,9.9c0,3.9,1.2,7.2,3.7,9.9c2.5,2.7,5.5,4.1,9.2,4.1c3.6,0,6.7-1.4,9.2-4.1C538.9,31.3,540.2,28,540.2,24.1z
					"/>
				<path fill="#C1BFB1" d="M583.3,24h9.7v15.4c-4.3,4.8-10.3,7.2-17.9,7.2c-6.4,0-11.7-2.1-16.1-6.3c-4.3-4.2-6.5-9.6-6.5-16
					c0-6.4,2.2-11.8,6.6-16.1c4.4-4.3,9.7-6.5,16-6.5s11.6,2,16.2,6.1l-5,7.3c-1.9-1.7-3.7-2.9-5.4-3.5c-1.6-0.6-3.4-1-5.3-1
					c-3.7,0-6.8,1.3-9.3,3.8c-2.5,2.5-3.8,5.8-3.8,9.9c0,4.1,1.2,7.4,3.6,9.8s5.3,3.7,8.7,3.7s6.1-0.6,8.4-1.9V24z"/>
				<path fill="#C1BFB1" d="M598.6,2.7h9.7v43.4h-9.7V2.7z"/>
				<path fill="#C1BFB1" d="M646.8,46.1l-4-9.4h-18.2l-4,9.4h-10.3L629,2.7h9.4l18.8,43.4H646.8z M633.7,15.6l-5.5,12.6h10.9
					L633.7,15.6z"/>
				<path fill="#C1BFB1" d="M668.9,11.3c-0.9,0.8-1.4,1.8-1.4,3c0,1.3,0.6,2.3,1.7,3c1.1,0.7,3.8,1.6,7.9,2.6c4.1,1,7.3,2.5,9.6,4.6
					s3.4,5,3.4,8.9c0,3.9-1.5,7-4.4,9.5c-2.9,2.4-6.8,3.6-11.5,3.6c-6.9,0-13.1-2.5-18.6-7.6l5.8-7.1c4.7,4.1,9,6.1,13,6.1
					c1.8,0,3.2-0.4,4.2-1.1c1-0.8,1.5-1.8,1.5-3.1c0-1.3-0.5-2.3-1.6-3.1c-1.1-0.8-3.2-1.5-6.4-2.3c-5.1-1.2-8.7-2.8-11.1-4.7
					s-3.5-4.9-3.5-9.1s1.5-7.3,4.4-9.5s6.7-3.4,11.1-3.4c2.9,0,5.8,0.5,8.7,1.5c2.9,1,5.4,2.4,7.6,4.2l-4.9,7.1
					c-3.8-2.9-7.7-4.3-11.7-4.3C671.1,10.2,669.8,10.6,668.9,11.3z"/>
				<path fill="#C1BFB1" d="M285.1,68.4c4.1,3.8,6.2,9.1,6.2,15.8s-2,12.1-6.1,16c-4,3.9-10.2,5.9-18.5,5.9H252V62.7h15.3
					C275.1,62.7,281,64.6,285.1,68.4z M278,94.2c2.4-2.2,3.6-5.5,3.6-9.7s-1.2-7.5-3.6-9.8c-2.4-2.3-6-3.4-11-3.4h-5.4v26.4h6.1
					C272.2,97.5,275.6,96.4,278,94.2z"/>
				<path fill="#C1BFB1" d="M327.9,62.7v8.6h-21.6v8.9h19.4v8.3h-19.4v9h22.3v8.6h-32V62.7H327.9z"/>
				<path fill="#C1BFB1" d="M347.4,106.1V62.7h9.7v34.8h18.5v8.6H347.4z"/>
				<path fill="#C1BFB1" d="M410.5,106.1l-4-9.4h-18.2l-4,9.4h-10.3l18.8-43.4h9.4l18.8,43.4H410.5z M397.4,75.6l-5.5,12.6h10.9
					L397.4,75.6z"/>
				<path fill="#C1BFB1" d="M471.2,77.1c0,7-2.8,11.4-8.3,13.5l11,15.5H462l-9.6-13.8h-6.7v13.8H436V62.7h16.5
					c6.7,0,11.6,1.1,14.4,3.4S471.2,72,471.2,77.1z M459.6,82.2c1.2-1.1,1.8-2.8,1.8-5.1s-0.6-3.9-1.9-4.8S456.1,71,453,71h-7.3
					v12.9h7.1C456.1,83.8,458.4,83.3,459.6,82.2z"/>
				<path fill="#C1BFB1" d="M509.4,62.7v8.6h-21.6v8.9h19.4v8.3h-19.4v9H510v8.6h-32V62.7H509.4z"/>
				<path fill="#C1BFB1" d="M545.5,66.5c3,2.6,4.6,6.6,4.6,11.9c0,5.4-1.6,9.3-4.7,11.8c-3.1,2.5-7.9,3.7-14.3,3.7h-5.8v12.1h-9.7
					V62.7h15.3C537.6,62.7,542.4,64,545.5,66.5z M538.3,83.6c1.2-1.3,1.7-3.2,1.7-5.7c0-2.5-0.8-4.3-2.3-5.3c-1.5-1.1-3.9-1.6-7-1.6
					h-5.5v14.6h6.5C535,85.6,537.2,84.9,538.3,83.6z"/>
				<path fill="#C1BFB1" d="M566,94.9c1.6,2,3.8,3,6.5,3c2.7,0,4.9-1,6.5-3c1.6-2,2.4-4.8,2.4-8.2v-24h9.7v24.3
					c0,6.3-1.7,11.1-5.2,14.5c-3.5,3.4-7.9,5.1-13.3,5.1c-5.4,0-9.9-1.7-13.4-5.1c-3.5-3.4-5.2-8.2-5.2-14.5V62.7h9.7v24
					C563.6,90.1,564.4,92.9,566,94.9z M576.9,58.2H568l7.9-11l9.6,4L576.9,58.2z"/>
				<path fill="#C1BFB1" d="M617,106.1h-19V62.7h16.9c2.9,0,5.5,0.4,7.6,1.1c2.1,0.7,3.7,1.7,4.8,2.9c1.9,2.2,2.9,4.8,2.9,7.6
					c0,3.4-1.1,5.9-3.3,7.6c-0.7,0.6-1.3,0.9-1.6,1.1c-0.3,0.1-0.8,0.4-1.6,0.7c2.7,0.6,4.8,1.8,6.4,3.6c1.6,1.8,2.4,4.1,2.4,6.9
					c0,3-1,5.7-3.1,8C627.2,104.7,623,106.1,617,106.1z M607.7,80.2h4.6c2.7,0,4.7-0.3,6-0.9s2-1.8,2-3.8s-0.6-3.2-1.8-3.8
					s-3.2-0.9-6.1-0.9h-4.7V80.2z M607.7,97.9h6.6c2.8,0,4.9-0.3,6.2-1c1.4-0.7,2.1-2,2.1-4s-0.7-3.3-2.2-4c-1.5-0.6-3.8-1-7-1h-5.7
					V97.9z"/>
				<path fill="#C1BFB1" d="M637.7,106.1V62.7h9.7v34.8h18.5v8.6H637.7z"/>
				<path fill="#C1BFB1" d="M669.9,62.7h9.7v43.4h-9.7V62.7z"/>
				<path fill="#C1BFB1" d="M707.1,97.5c4.8,0,8.7-1.9,11.7-5.7l6.2,6.4c-4.9,5.5-10.7,8.3-17.4,8.3s-12.2-2.1-16.5-6.3
					s-6.5-9.6-6.5-16c0-6.4,2.2-11.8,6.6-16.1c4.4-4.3,9.8-6.5,16.2-6.5c7.1,0,13.1,2.7,17.9,8.1l-6,6.8c-3.1-3.8-6.9-5.7-11.4-5.7
					c-3.6,0-6.8,1.2-9.3,3.6c-2.6,2.4-3.9,5.6-3.9,9.6s1.2,7.3,3.7,9.7C700.6,96.3,703.6,97.5,707.1,97.5z"/>
				<path fill="#C1BFB1" d="M760.1,106.1l-4-9.4h-18.2l-4,9.4h-10.3l18.8-43.4h9.4l18.8,43.4H760.1z M747,75.6l-5.5,12.6h10.9
					L747,75.6z"/>
			</g>
		</g>
		<g>
			<g>
				<g>
					<rect x="731.9" y="13.6" fill="#83867E" width="28.4" height="2.7"/>
				</g>
				<g>
					<rect x="731.9" y="21.2" fill="#83867E" width="39.9" height="2.7"/>
				</g>
				<g>
					<rect x="731.9" y="28.9" fill="#83867E" width="28.4" height="2.7"/>
				</g>
			</g>
			<g>
				<g>
					<rect x="261.2" y="13.6" fill="#83867E" width="28.4" height="2.7"/>
				</g>
				<g>
					<rect x="249.7" y="21.2" fill="#83867E" width="39.9" height="2.7"/>
				</g>
				<g>
					<rect x="261.2" y="28.9" fill="#83867E" width="28.4" height="2.7"/>
				</g>
			</g>
		</g>
		<g>
			<rect y="128" fill="#83867E" width="417" height="2"/>
		</g>
		<g>
			<g>
				<g>
					<polygon fill="#CDB37C" points="441,133.7 434.5,137.6 428,133.7 428,125.9 434.5,122 441,125.9 					"/>
				</g>
				<g>
					<polygon fill="#CDB37C" points="481,133.7 474.5,137.6 468,133.7 468,125.9 474.5,122 481,125.9 					"/>
				</g>
				<g>
					<polygon fill="#CDB37C" points="518,133.7 511.5,137.6 505,133.7 505,125.9 511.5,122 518,125.9 					"/>
				</g>
				<g>
					<polygon fill="#CDB37C" points="556,133.7 549.5,137.6 543,133.7 543,125.9 549.5,122 556,125.9 					"/>
				</g>
				<g>
					<polygon fill="#CDB37C" points="594,133.7 587.5,137.6 581,133.7 581,125.9 587.5,122 594,125.9 					"/>
				</g>
			</g>
		</g>
		<g>
			<rect x="604" y="128" fill="#83867E" width="417" height="2"/>
		</g>
	</g>
</g>
<g id="Capa_2">
</g>
</svg>
