<?xml version="1.0" encoding="utf-8"?>
<!-- Generator: Adobe Illustrator 18.1.1, SVG Export Plug-In . SVG Version: 6.00 Build 0)  -->
<svg version="1.1" id="Capa_1" xmlns="http://www.w3.org/2000/svg" xmlns:xlink="http://www.w3.org/1999/xlink" x="0px" y="0px"
	 viewBox="0 0 167 38.8" enable-background="new 0 0 167 38.8" xml:space="preserve">
<g>
	<g>
		<g enable-background="new    ">
			<g>
				<g>
					<rect x="31.7" y="8.2" fill="#C1BFB1" width="1" height="22.4"/>
				</g>
			</g>
			<g>
				<g>
					<path fill="#C1BFB1" d="M16.7,38.8v-8.9l16-7.8V31L16.7,38.8z M17.7,30.5v6.7l14-6.8v-6.7L17.7,30.5z"/>
				</g>
			</g>
			<g>
				<g>
					<path fill="#C1BFB1" d="M17.7,38.8L0.7,31v-8.9l17,7.8V38.8z M1.7,30.3l15,6.9v-6.7l-15-6.9V30.3z"/>
				</g>
			</g>
			<g>
				<g>
					<path fill="#C1BFB1" d="M16.7,30.7l-16-7.5V7.9l16-7.5l16,7.5v15.3L16.7,30.7z M1.7,22.5l15,7.1l15-7.1v-14l-15-7.1l-15,7.1
						V22.5z"/>
				</g>
			</g>
		</g>
		<g enable-background="new    ">
			<g>
				<g>
					<rect x="66.7" y="8.2" fill="#C1BFB1" width="1" height="22.4"/>
				</g>
			</g>
			<g>
				<g>
					<path fill="#C1BFB1" d="M49.7,38.7v-8.9l18-7.7V31L49.7,38.7z M50.7,30.5v6.7l16-6.9v-6.7L50.7,30.5z"/>
				</g>
			</g>
			<g>
				<g>
					<path fill="#C1BFB1" d="M50.7,38.8l-17-7.8v-8.9l17,7.8V38.8z M34.7,30.3l15,6.9v-6.7l-15-6.9V30.3z"/>
				</g>
			</g>
			<g>
				<g>
					<path fill="#C1BFB1" d="M50.7,30.7l-17-7.5V7.9l17-7.5l17,7.5v15.3L50.7,30.7z M34.7,22.5l16,7.1l16-7.1v-14l-16-7.1l-16,7.1
						V22.5z"/>
				</g>
			</g>
		</g>
		<g enable-background="new    ">
			<g>
				<g>
					<rect x="99.7" y="8.2" fill="#C1BFB1" width="1" height="22.4"/>
				</g>
			</g>
			<g>
				<g>
					<path fill="#C1BFB1" d="M84.7,38.8v-8.9l16-7.8V31L84.7,38.8z M85.7,30.5v6.7l14-6.8v-6.7L85.7,30.5z"/>
				</g>
			</g>
			<g>
				<g>
					<path fill="#C1BFB1" d="M85.7,38.8l-17-7.8v-8.9l17,7.8V38.8z M69.7,30.3l15,6.9v-6.7l-15-6.9V30.3z"/>
				</g>
			</g>
			<g>
				<g>
					<path fill="#C1BFB1" d="M84.7,30.7l-16-7.5V7.9l16-7.5l16,7.5v15.3L84.7,30.7z M69.7,22.5l15,7.1l15-7.1v-14l-15-7.1l-15,7.1
						V22.5z"/>
				</g>
			</g>
		</g>
		<g enable-background="new    ">
			<g>
				<g>
					<rect x="132.7" y="8.2" fill="#C1BFB1" width="1" height="22.4"/>
				</g>
			</g>
			<g>
				<g>
					<path fill="#C1BFB1" d="M117.7,38.8v-8.9l16-7.8V31L117.7,38.8z M118.7,30.5v6.7l14-6.8v-6.7L118.7,30.5z"/>
				</g>
			</g>
			<g>
				<g>
					<path fill="#C1BFB1" d="M118.7,38.8l-17-7.8v-8.9l17,7.8V38.8z M102.7,30.3l15,6.9v-6.7l-15-6.9V30.3z"/>
				</g>
			</g>
			<g>
				<g>
					<path fill="#C1BFB1" d="M117.7,30.7l-16-7.5V7.9l16-7.5l16,7.5v15.3L117.7,30.7z M102.7,22.5l15,7.1l15-7.1v-14l-15-7.1
						l-15,7.1V22.5z"/>
				</g>
			</g>
		</g>
		<g enable-background="new    ">
			<g>
				<g>
					<rect x="165.7" y="8.2" fill="#C1BFB1" width="1" height="22.4"/>
				</g>
			</g>
			<g>
				<g>
					<path fill="#C1BFB1" d="M150.7,38.8v-8.9l16-7.8V31L150.7,38.8z M151.7,30.5v6.7l14-6.8v-6.7L151.7,30.5z"/>
				</g>
			</g>
			<g>
				<g>
					<path fill="#C1BFB1" d="M151.7,38.8l-17-7.8v-8.9l17,7.8V38.8z M135.7,30.3l15,6.9v-6.7l-15-6.9V30.3z"/>
				</g>
			</g>
			<g>
				<g>
					<path fill="#C1BFB1" d="M150.7,30.7l-16-7.5V7.9l16-7.5l16,7.5v15.3L150.7,30.7z M135.7,22.5l15,7.1l15-7.1v-14l-15-7.1
						l-15,7.1V22.5z"/>
				</g>
			</g>
		</g>
	</g>
</g>
</svg>
