<?xml version="1.0" encoding="utf-8"?>
<!-- Generator: Adobe Illustrator 18.1.1, SVG Export Plug-In . SVG Version: 6.00 Build 0)  -->
<svg version="1.1" id="Capa_1" xmlns="http://www.w3.org/2000/svg" xmlns:xlink="http://www.w3.org/1999/xlink" x="0px" y="0px"
	 viewBox="0 0 569.1 184.6" enable-background="new 0 0 569.1 184.6" xml:space="preserve">
<g>
	<g>
		<path fill="#C1BFB1" d="M11.7,25.8h-11V0.6h9.8c1.7,0,3.2,0.2,4.4,0.6c1.2,0.4,2.2,1,2.8,1.7c1.2,1.3,1.7,2.8,1.7,4.4
			c0,2-0.6,3.4-1.9,4.4c-0.5,0.3-0.8,0.5-0.9,0.6c-0.2,0.1-0.5,0.2-0.9,0.4c1.6,0.3,2.8,1,3.7,2.1c0.9,1.1,1.4,2.4,1.4,4
			c0,1.8-0.6,3.3-1.8,4.6C17.5,25,15.1,25.8,11.7,25.8z M4.9,11.1h5.4c3.1,0,4.6-1,4.6-3.1c0-1.2-0.4-2.1-1.1-2.6
			c-0.7-0.5-1.9-0.8-3.5-0.8H4.9V11.1z M4.9,21.9h6.7c1.6,0,2.8-0.2,3.6-0.7c0.8-0.5,1.2-1.4,1.2-2.8c0-2.2-1.8-3.3-5.4-3.3H4.9
			V21.9z"/>
		<path fill="#C1BFB1" d="M24.3,25.8V0.6h4.2v21.1H40v4H24.3z"/>
		<path fill="#C1BFB1" d="M63.2,22.3c-2.5,2.5-5.7,3.7-9.4,3.7s-6.9-1.2-9.4-3.7c-2.5-2.5-3.8-5.6-3.8-9.3s1.3-6.8,3.8-9.3
			C46.9,1.2,50,0,53.8,0s6.9,1.2,9.4,3.7C65.7,6.2,67,9.3,67,13S65.7,19.8,63.2,22.3z M60.1,6.6c-1.7-1.8-3.8-2.7-6.3-2.7
			s-4.6,0.9-6.3,2.7c-1.7,1.8-2.6,3.9-2.6,6.5s0.9,4.7,2.6,6.5c1.7,1.8,3.8,2.7,6.3,2.7s4.6-0.9,6.3-2.7c1.7-1.8,2.6-3.9,2.6-6.5
			S61.8,8.3,60.1,6.6z"/>
		<path fill="#C1BFB1" d="M88,13.5h4.2v8.6c-2.4,2.6-5.8,3.9-10.2,3.9c-3.7,0-6.8-1.2-9.3-3.7S69,16.8,69,13.1s1.3-6.9,3.8-9.4
			C75.3,1.2,78.4,0,82.1,0c3.6,0,6.6,1.1,9,3.2l-2.3,3.2c-1-0.8-2-1.4-3-1.7c-1-0.3-2.2-0.5-3.5-0.5c-2.5,0-4.7,0.8-6.4,2.5
			s-2.6,3.8-2.6,6.5c0,2.7,0.8,4.8,2.5,6.4S79.6,22,82,22s4.4-0.5,6-1.5V13.5z"/>
	</g>
	<g>
		<g>
			<path fill="#83867E" d="M50.8,64c0,9.9-3.9,16.3-11.8,19.2l15.7,22.1h-17L24,85.6h-9.6v19.7H0.7V43.5h23.4
				c9.6,0,16.5,1.6,20.6,4.9C48.8,51.6,50.8,56.8,50.8,64z M34.2,71.3c1.7-1.5,2.6-4,2.6-7.3s-0.9-5.6-2.7-6.9s-4.9-1.9-9.3-1.9
				H14.5v18.3h10.1C29.3,73.6,32.5,72.9,34.2,71.3z"/>
			<path fill="#83867E" d="M105.2,43.5v12.3H74.4v12.7h27.7v11.8H74.4v12.8h31.8v12.2H60.6V43.5H105.2z"/>
			<path fill="#83867E" d="M156.6,49c4.3,3.7,6.5,9.3,6.5,17c0,7.6-2.2,13.2-6.7,16.8C152,86.3,145.2,88,136,88h-8.2v17.3H114V43.5
				h21.9C145.3,43.5,152.3,45.3,156.6,49z M146.5,73.3c1.7-1.9,2.5-4.6,2.5-8.1s-1.1-6.1-3.2-7.6c-2.2-1.5-5.5-2.3-10-2.3h-7.9v20.8
				h9.3C141.7,76.1,144.8,75.2,146.5,73.3z"/>
			<path fill="#83867E" d="M185.8,89.3c2.3,2.9,5.4,4.3,9.3,4.3s7-1.4,9.2-4.3c2.3-2.9,3.4-6.8,3.4-11.7V43.5h13.8V78
				c0,9-2.5,15.9-7.4,20.7c-5,4.8-11.3,7.2-19,7.2c-7.7,0-14.1-2.4-19.1-7.3c-5-4.8-7.5-11.7-7.5-20.6V43.5h13.8v34.2
				C182.4,82.6,183.5,86.5,185.8,89.3z"/>
			<path fill="#83867E" d="M258.6,105.3h-27.1V43.5h24.1c4.2,0,7.8,0.5,10.8,1.5c3,1,5.3,2.4,6.9,4.1c2.8,3.2,4.2,6.8,4.2,10.8
				c0,4.8-1.6,8.4-4.7,10.8c-1.1,0.8-1.8,1.3-2.2,1.5c-0.4,0.2-1.2,0.5-2.2,1c3.8,0.8,6.9,2.6,9.2,5.2c2.3,2.6,3.4,5.9,3.4,9.8
				c0,4.3-1.5,8.1-4.4,11.4C273,103.4,267.1,105.3,258.6,105.3z M245.3,68.5h6.5c3.8,0,6.7-0.4,8.5-1.2c1.9-0.8,2.8-2.6,2.8-5.4
				s-0.9-4.6-2.6-5.4c-1.7-0.9-4.6-1.3-8.7-1.3h-6.6V68.5z M245.3,93.6h9.5c4,0,6.9-0.5,8.9-1.5c2-1,3-2.9,3-5.8s-1-4.7-3.1-5.7
				c-2.1-0.9-5.4-1.4-10-1.4h-8.1V93.6z"/>
			<path fill="#83867E" d="M288,105.3V43.5h13.8V93h26.4v12.3H288z"/>
			<path fill="#83867E" d="M333.9,43.5h13.8v61.8h-13.8V43.5z"/>
			<path fill="#83867E" d="M386.9,93.1c6.8,0,12.3-2.7,16.6-8.1l8.8,9.1c-7,7.9-15.3,11.9-24.8,11.9c-9.5,0-17.4-3-23.5-9
				c-6.2-6-9.2-13.6-9.2-22.8c0-9.2,3.1-16.8,9.4-23c6.3-6.1,14-9.2,23-9.2c10.1,0,18.6,3.9,25.5,11.6l-8.6,9.7
				c-4.4-5.4-9.8-8.1-16.3-8.1c-5.2,0-9.6,1.7-13.3,5.1c-3.7,3.4-5.5,8-5.5,13.7c0,5.8,1.7,10.4,5.2,13.8
				C377.7,91.4,381.9,93.1,386.9,93.1z"/>
			<path fill="#83867E" d="M462.4,105.3l-5.8-13.4h-25.9l-5.8,13.4h-14.7L437,43.5h13.4l26.7,61.8H462.4z M443.8,61.9l-7.8,18h15.5
				L443.8,61.9z"/>
		</g>
		<g>
			<path fill="#5E615C" d="M473.2,82.8l1.1,0c1.6-0.1,3.1-0.1,4.4-0.1c2.9,0,5.2,0.6,6.9,1.9c1.6,1.2,2.4,3.1,2.4,5.5
				c0,2.1-0.5,4.2-1.5,6.3c-1,2.1-2.7,3.8-4.9,5.1s-5.1,2.1-8.5,2.1c-0.4,0-1.1,0-1.9,0c-0.9,0-1.8,0-2.8,0c-2.2,0-3.8,0-5,0.1
				l0.1-0.6c0.7,0,1.2-0.1,1.5-0.2c0.3-0.1,0.6-0.4,0.8-0.7c0.2-0.3,0.4-0.9,0.6-1.6l3.9-14.6c0.1-0.5,0.2-0.9,0.2-1.2
				c0-0.4-0.1-0.7-0.4-1s-0.8-0.4-1.5-0.4l0.1-0.6C470.2,82.8,471.7,82.8,473.2,82.8z M472,102.3c0,0.3,0.1,0.5,0.3,0.6
				c0.2,0.1,0.5,0.2,1,0.2c1.7,0,3.2-0.7,4.6-2.2c1.3-1.4,2.3-3.2,3-5.4c0.7-2.2,1-4.3,1-6.4c0-3.9-1.2-5.8-3.7-5.8
				c-0.4,0-0.8,0.1-0.9,0.2s-0.3,0.3-0.4,0.6c-0.1,0.3-0.3,0.9-0.5,1.8l-3.9,14.7C472.2,101.4,472,102,472,102.3z"/>
			<path fill="#5E615C" d="M501.1,82.8c2.8,0,4.9,0,6.1-0.1c-0.5,1.2-0.9,2.4-1.1,3.5c-0.1,0.4-0.2,1.1-0.4,1.8H505
				c0-1.1-0.1-2.1-0.4-2.7c-0.3-0.7-0.7-1.2-1.2-1.5c-0.5-0.3-1.2-0.4-2-0.4h-0.1c-0.7,0-1.2,0.1-1.5,0.2s-0.6,0.3-0.8,0.7
				c-0.2,0.3-0.4,0.9-0.6,1.6l-1.8,7h0.5c0.6,0,1.2-0.2,1.8-0.5s1.1-0.7,1.5-1.2c0.4-0.5,0.7-1,1-1.6h0.6c-0.3,0.8-0.5,1.5-0.6,2.1
				c-0.2,0.7-0.3,1.2-0.4,1.5c-0.3,1-0.5,2.2-0.8,3.6h-0.6c0-0.5-0.1-1-0.3-1.5s-0.5-0.9-0.9-1.3c-0.4-0.3-1-0.5-1.7-0.5h-0.3
				l-1.9,7.1c-0.2,0.7-0.3,1.2-0.3,1.4c0,0.3,0.1,0.5,0.2,0.6c0.1,0.1,0.3,0.2,0.6,0.3s0.6,0.1,1.1,0.1h0.4c1,0,1.8-0.2,2.5-0.5
				c0.7-0.3,1.4-0.9,2-1.6s1.3-1.8,1.9-3.1h0.7c-0.1,0.3-0.3,1.1-0.6,2.1c-0.3,1.1-0.6,2.4-0.8,3.8c-1.3-0.1-3.6-0.1-6.7-0.1
				c-4.6,0-8,0-10.3,0.1l0.1-0.6c0.7,0,1.2-0.1,1.6-0.2c0.4-0.1,0.6-0.4,0.8-0.7s0.4-0.9,0.6-1.6l3.9-14.6c0.2-0.6,0.2-1.1,0.2-1.4
				c0-0.3-0.1-0.5-0.2-0.7c-0.1-0.2-0.3-0.3-0.6-0.3c-0.3-0.1-0.7-0.1-1.2-0.1l0.2-0.6C493.1,82.8,496.5,82.8,501.1,82.8z"/>
			<path fill="#5E615C" d="M526.6,99.8c-0.3,1-0.6,2.3-0.8,3.8c-1.3-0.1-3.6-0.1-6.7-0.1c-4.6,0-8.1,0-10.4,0.1l0.1-0.6
				c0.7,0,1.2-0.1,1.6-0.2c0.4-0.1,0.6-0.4,0.8-0.7s0.4-0.9,0.6-1.6l3.9-14.6c0.2-0.6,0.2-1.1,0.2-1.4c0-0.3-0.1-0.5-0.2-0.7
				c-0.1-0.2-0.3-0.3-0.6-0.3c-0.3-0.1-0.7-0.1-1.2-0.1l0.2-0.6c1.1,0.1,3,0.1,5.6,0.1c2.1,0,3.8,0,5.2-0.1l-0.1,0.6
				c-0.7,0-1.3,0.1-1.6,0.2c-0.4,0.1-0.6,0.4-0.8,0.7c-0.2,0.3-0.4,0.9-0.6,1.6l-3.9,14.6c-0.2,0.7-0.3,1.2-0.3,1.4
				c0,0.3,0.1,0.5,0.2,0.6s0.3,0.2,0.6,0.3s0.6,0.1,1.1,0.1h0.5c0.7,0,1.5-0.2,2.3-0.6c0.8-0.4,1.6-1,2.3-1.8
				c0.8-0.8,1.4-1.9,1.9-3.2h0.6C527.1,97.9,526.9,98.7,526.6,99.8z"/>
			<path fill="#5E615C" d="M529.7,90.2c1.2-2.3,2.9-4.2,5-5.6c2.2-1.5,4.6-2.2,7.3-2.2c1.8,0,3.4,0.3,4.7,0.8s2.3,1.4,3,2.4
				c0.7,1.1,1.1,2.3,1.1,3.8c0,2.2-0.6,4.5-1.8,6.7c-1.2,2.3-2.9,4.1-5,5.6c-2.2,1.5-4.6,2.2-7.3,2.2c-1.8,0-3.4-0.3-4.7-0.8
				s-2.3-1.4-3-2.4s-1-2.3-1-3.8C528,94.7,528.5,92.5,529.7,90.2z M538.2,85c-1.2,1.4-2.1,3.2-2.8,5.5c-0.7,2.2-1.1,4.5-1.1,6.9
				c0,1.3,0.1,2.4,0.3,3.3c0.2,0.9,0.5,1.6,0.9,2.1c0.4,0.5,0.8,0.7,1.3,0.7c1.2,0,2.4-0.7,3.6-2.1c1.2-1.4,2.1-3.2,2.8-5.5
				c0.7-2.2,1.1-4.5,1.1-6.9c0-1.3-0.1-2.4-0.3-3.3c-0.2-0.9-0.5-1.6-0.9-2.1s-0.8-0.7-1.3-0.7C540.5,82.8,539.3,83.5,538.2,85z"/>
			<path fill="#5E615C" d="M566.7,88.5h-0.6c0.1-0.5,0.2-1.1,0.2-1.6c0-1.2-0.4-2.1-1.1-2.8s-1.8-1-3.1-1c-0.9,0-1.7,0.2-2.3,0.7
				c-0.6,0.5-0.9,1.2-0.9,2.2c0,1.3,0.7,2.8,2.2,4.5c1.4,1.7,2.5,3,3.3,4.1c0.7,1,1.1,2.2,1.1,3.6c0,1.3-0.5,2.5-1.4,3.3
				c-0.9,0.9-2,1.6-3.4,2c-1.3,0.4-2.6,0.6-3.9,0.6c-1,0-1.8,0-2.5-0.1c-0.6-0.1-1.2-0.2-1.6-0.4s-1-0.5-1.6-0.8
				c-0.5-0.3-0.9-0.4-1-0.4c-0.2,0-0.3,0-0.5,0.1c-0.1,0.1-0.2,0.2-0.4,0.5c-0.1,0.2-0.3,0.5-0.5,1h-0.6c0.7-1.6,1.3-3.9,2-7.1h0.6
				c-0.2,0.5-0.3,1.2-0.3,2c0,1.5,0.4,2.6,1.3,3.4c0.8,0.8,2,1.2,3.6,1.2c1.3,0,2.2-0.2,2.7-0.7c0.5-0.5,0.8-1.1,0.8-2
				c0-1.1-0.3-2.1-0.8-3s-1.5-2.3-3-4.1c-1.5-1.9-2.2-3.6-2.2-5.1c0-1.3,0.4-2.4,1.2-3.3s1.8-1.6,3-2c1.2-0.4,2.4-0.7,3.6-0.7
				c0.8,0,1.6,0.1,2.3,0.2c0.7,0.2,1.2,0.3,1.5,0.4s0.8,0.4,1.5,0.7c0.1,0,0.3,0.1,0.5,0.2s0.4,0.2,0.5,0.2c0.2,0,0.3-0.1,0.5-0.4
				c0.1-0.2,0.3-0.6,0.5-1.2h0.6C567.7,84.3,567.2,86.3,566.7,88.5z"/>
		</g>
		<g>
			<path fill="#83867E" d="M43.1,122v12.1H14.5v13.4h27.3v12.1H14.5v24.2H0.7V122H43.1z"/>
			<path fill="#83867E" d="M91.1,183.8l-5.8-13.4H59.4l-5.8,13.4H39L65.7,122h13.4l26.7,61.8H91.1z M72.4,140.4l-7.8,18h15.5
				L72.4,140.4z"/>
			<path fill="#83867E" d="M151.8,122h13.8v61.8h-13.8l-29.5-38.8v38.8h-13.8V122h12.9l30.3,39.8V122z"/>
			<path fill="#83867E" d="M202.6,133.9v49.9h-13.8v-49.9h-17.5V122h48.8v11.9H202.6z"/>
			<path fill="#83867E" d="M265.3,183.8l-5.8-13.4h-25.9l-5.8,13.4h-14.7l26.7-61.8h13.4l26.7,61.8H265.3z M246.6,140.4l-7.8,18
				h15.5L246.6,140.4z"/>
			<path fill="#83867E" d="M296.7,134.3c-1.3,1.1-2,2.5-2,4.3c0,1.8,0.8,3.2,2.4,4.3c1.6,1.1,5.4,2.3,11.2,3.8
				c5.9,1.4,10.4,3.6,13.7,6.5c3.2,2.9,4.9,7.1,4.9,12.7c0,5.5-2.1,10-6.2,13.5s-9.6,5.2-16.4,5.2c-9.8,0-18.6-3.6-26.5-10.9
				l8.2-10.1c6.7,5.8,12.8,8.8,18.5,8.8c2.5,0,4.5-0.5,6-1.6c1.4-1.1,2.2-2.6,2.2-4.4s-0.8-3.3-2.3-4.4c-1.5-1.1-4.6-2.2-9.1-3.3
				c-7.2-1.7-12.5-3.9-15.8-6.7c-3.3-2.7-5-7-5-12.9s2.1-10.4,6.3-13.6c4.2-3.2,9.5-4.8,15.8-4.8c4.1,0,8.3,0.7,12.4,2.1
				c4.1,1.4,7.7,3.4,10.8,6l-7,10.1c-5.4-4.1-10.9-6.1-16.6-6.1C299.9,132.7,298.1,133.3,296.7,134.3z"/>
			<path fill="#83867E" d="M389.7,144.9L373,178.7h-8.2l-16.6-33.8v38.9h-13.8V122H353l15.9,34l16-34h18.6v61.8h-13.8V144.9z"/>
			<path fill="#83867E" d="M458.4,183.8l-5.8-13.4h-25.9l-5.8,13.4h-14.7L433,122h13.4l26.7,61.8H458.4z M439.7,140.4l-7.8,18h15.5
				L439.7,140.4z"/>
			<path fill="#83867E" d="M489.8,134.3c-1.3,1.1-2,2.5-2,4.3c0,1.8,0.8,3.2,2.4,4.3c1.6,1.1,5.4,2.3,11.2,3.8
				c5.9,1.4,10.4,3.6,13.7,6.5c3.2,2.9,4.9,7.1,4.9,12.7c0,5.5-2.1,10-6.2,13.5s-9.6,5.2-16.4,5.2c-9.8,0-18.6-3.6-26.5-10.9
				l8.2-10.1c6.7,5.8,12.8,8.8,18.5,8.8c2.5,0,4.5-0.5,6-1.6c1.4-1.1,2.2-2.6,2.2-4.4s-0.8-3.3-2.3-4.4c-1.5-1.1-4.6-2.2-9.1-3.3
				c-7.2-1.7-12.5-3.9-15.8-6.7c-3.3-2.7-5-7-5-12.9s2.1-10.4,6.3-13.6c4.2-3.2,9.5-4.8,15.8-4.8c4.1,0,8.3,0.7,12.4,2.1
				c4.1,1.4,7.7,3.4,10.8,6l-7,10.1c-5.4-4.1-10.9-6.1-16.6-6.1C492.9,132.7,491.1,133.3,489.8,134.3z"/>
		</g>
	</g>
</g>
</svg>
