<?xml version="1.0" encoding="utf-8"?>
<!-- Generator: Adobe Illustrator 18.1.1, SVG Export Plug-In . SVG Version: 6.00 Build 0)  -->
<svg version="1.1" xmlns="http://www.w3.org/2000/svg" xmlns:xlink="http://www.w3.org/1999/xlink" x="0px" y="0px"
	 viewBox="0 0 168 167" enable-background="new 0 0 168 167" xml:space="preserve">
<g id="Capa_1">
	<rect fill="#E3E3DD" width="168" height="167"/>
	<g>
		<path fill="#C1BFB1" d="M128.6,115.8c-4.3,0-7.2-2.3-8.9-7c-1.7-4.7-3.5-12.8-5.4-24.4c-1.8-11.2-3.7-19.5-5.8-24.9
			c-1.9-4.9-4.8-8.8-8.7-11.7c-3.8-2.9-8.3-4.3-13.3-4.3c-13-0.1-21.6,5.1-25.8,15.8c-1.9,4.7-3.9,13-6.1,25.1
			c-1.3,7.4-2.6,14.7-3.9,22c-1.1,5.2-4.8,7.8-11,7.8c-1.9,0-4.1-0.2-6.7-0.6c-0.2,0.5-0.3,1-0.3,1.5c0,3.3,3.5,5.4,10.6,6.3
			c1,0.1,2.1,0.2,3.1,0.2c3.6,0,7.5-0.9,11.5-2.6c4-1.7,7-2.5,8.9-2.5c2.3,0,4.9,1,7.9,3.1c2.9,2.1,5.9,3.1,9,3.1
			c3,0.1,6.2-0.7,9.7-2.4c3.3-1.5,6.2-2.2,8.7-2c1.9,0.2,4.4,1.1,7.5,2.8c2.9,1.5,6.5,2.3,10.8,2.4c2.7-0.1,5.1-0.5,7.1-1.3
			c4.7-1.8,7.3-4.9,7.7-9.3C133.4,114.8,131.2,115.8,128.6,115.8z M74,69.7c-0.8,0.8-1.7,1.1-2.8,1.1c-1.1,0-2-0.4-2.8-1.1
			c-0.8-0.8-1.1-1.7-1.1-2.8c0-1.1,0.4-2,1.1-2.8c0.8-0.8,1.7-1.1,2.8-1.1c1.1,0,2,0.4,2.8,1.1c0.8,0.8,1.2,1.7,1.2,2.8
			C75.2,68,74.8,68.9,74,69.7z M81.5,86c-0.7,0-1.4-0.1-2-0.2c-3-1.2-4.6-3-4.6-5.5c0-0.6,0.1-1.3,0.4-2c1.9,2.4,4.7,3.6,8.4,3.6
			c1.9,0,3.7-0.3,5.6-0.9C87.4,84.3,84.8,86,81.5,86z M99.3,72.6c-0.8,0.8-1.7,1.2-2.8,1.2c-1.1,0-2-0.4-2.8-1.2
			c-0.8-0.8-1.1-1.7-1.1-2.8c0-1.1,0.4-2,1.1-2.8c0.8-0.8,1.7-1.1,2.8-1.1c1.1,0,2,0.4,2.8,1.1c0.8,0.8,1.2,1.7,1.2,2.8
			C100.5,70.9,100.1,71.9,99.3,72.6z"/>
	</g>
</g>
<g id="Capa_2">
</g>
</svg>
