<?xml version="1.0" encoding="utf-8"?>
<!-- Generator: Adobe Illustrator 18.1.1, SVG Export Plug-In . SVG Version: 6.00 Build 0)  -->
<svg version="1.1" id="Capa_1" xmlns="http://www.w3.org/2000/svg" xmlns:xlink="http://www.w3.org/1999/xlink" x="0px" y="0px"
	 viewBox="0 0 52.3 52" enable-background="new 0 0 52.3 52" xml:space="preserve">
<path fill="#FFFFFF" d="M0.3,0v52h25.4c0.1,0,0.2,0,0.3,0s0.2,0,0.3,0h26.1V0H0.3z M28.1,34c-3,3.8-8.5,5-13,3.5
	C10.4,35.8,7,31.1,7.1,26c-0.2-6.2,5.2-11.9,11.4-12c3.2-0.3,6.2,1,8.6,3c-1,1.1-2,2.1-3.1,3.1c-2.1-1.3-4.6-2.3-7.1-1.4
	c-4,1.1-6.4,5.8-4.9,9.7c1.2,4.1,6.2,6.3,10,4.6c2-0.7,3.3-2.6,3.9-4.6c-2.3,0-4.6,0-6.9-0.1c0-1.4,0-2.7,0-4.1c3.8,0,7.7,0,11.5,0
	C30.8,27.7,30.3,31.3,28.1,34z M45.3,27.7c-2,0-2.5,0-3.6,0c0,1.1-0.1,2.3-0.1,3.4c-1.1,0-2.3,0-3.5,0c0-1.1-0.2-2.3-0.2-3.4
	c-1.1,0-2.6,0-3.6,0v-3.4c1,0,2.4,0.1,3.6,0.1c0-1.1,0.2-2.4,0.2-3.4h3.4c0,1,0.2,2.2,0.2,3.4c1.1,0,1.6-0.1,3.6-0.1V27.7z"/>
</svg>
