<?xml version="1.0" encoding="utf-8"?>
<!-- Generator: Adobe Illustrator 18.1.1, SVG Export Plug-In . SVG Version: 6.00 Build 0)  -->
<svg version="1.1" id="Capa_1" xmlns="http://www.w3.org/2000/svg" xmlns:xlink="http://www.w3.org/1999/xlink" x="0px" y="0px"
	 viewBox="0 0 222.3 47.8" enable-background="new 0 0 222.3 47.8" xml:space="preserve">
<g>
	<g>
		<g>
			<path fill="#1F1D21" d="M142,43c0.2,0,0.3-0.1,0.4-0.3c0-0.1,0-0.2,0-0.3c0-0.3-0.1-0.5-0.3-0.6c-0.2-0.1-0.5-0.2-0.9-0.1
				c-0.4,0-0.8,0.2-0.9,0.4c-0.1,0.1-0.2,0.3-0.2,0.6l-0.8,0c0-0.6,0.2-1.1,0.5-1.3c0.4-0.3,0.8-0.4,1.3-0.4c0.6,0,1.1,0.1,1.5,0.3
				c0.4,0.2,0.6,0.6,0.6,1l0.2,2.9c0,0.1,0,0.2,0.1,0.2c0,0.1,0.1,0.1,0.2,0.1c0,0,0.1,0,0.1,0c0,0,0.1,0,0.2,0l0,0.6
				c-0.1,0-0.2,0.1-0.3,0.1c-0.1,0-0.2,0-0.3,0c-0.3,0-0.5-0.1-0.7-0.3c-0.1-0.1-0.1-0.3-0.2-0.5c-0.2,0.2-0.4,0.5-0.7,0.6
				c-0.3,0.2-0.7,0.3-1.1,0.3c-0.5,0-0.9-0.1-1.2-0.4c-0.3-0.3-0.5-0.6-0.5-1.1c0-0.5,0.1-0.8,0.4-1.1s0.7-0.5,1.1-0.5L142,43z
				 M140.3,45.4c0.2,0.1,0.4,0.2,0.7,0.2c0.3,0,0.6-0.1,0.9-0.3c0.5-0.3,0.7-0.7,0.6-1.2l0-0.7c-0.1,0.1-0.2,0.1-0.4,0.2
				c-0.2,0.1-0.3,0.1-0.5,0.1l-0.5,0.1c-0.3,0.1-0.5,0.1-0.7,0.2c-0.3,0.2-0.4,0.4-0.4,0.7C140,45.1,140.1,45.3,140.3,45.4z"/>
			<path fill="#1F1D21" d="M144.6,40.8l0.8,0l0,0.9c0.1-0.2,0.2-0.4,0.5-0.7c0.2-0.3,0.5-0.4,0.9-0.4c0,0,0,0,0.1,0c0,0,0.1,0,0.2,0
				l0.1,0.9c-0.1,0-0.1,0-0.1,0c0,0-0.1,0-0.1,0c-0.4,0-0.8,0.2-1,0.5c-0.2,0.3-0.3,0.6-0.3,1l0.2,2.9l-0.9,0L144.6,40.8z"/>
			<path fill="#1F1D21" d="M147.9,39.2l0.9,0l0.1,1.4l0.8,0l0,0.7l-0.8,0l0.2,3.3c0,0.2,0.1,0.3,0.2,0.3c0.1,0,0.2,0,0.3,0
				c0,0,0.1,0,0.1,0c0,0,0.1,0,0.2,0l0,0.7c-0.1,0-0.2,0.1-0.3,0.1c-0.1,0-0.2,0-0.3,0c-0.4,0-0.7-0.1-0.8-0.3
				c-0.2-0.2-0.2-0.5-0.3-0.8l-0.2-3.4l-0.7,0l0-0.7l0.7,0L147.9,39.2z"/>
			<path fill="#1F1D21" d="M153.7,40.5c0.3,0.2,0.6,0.4,0.8,0.6c0.2,0.2,0.3,0.5,0.4,0.9c0.1,0.2,0.1,0.6,0.1,1.1l-3.7,0.2
				c0,0.5,0.2,0.9,0.4,1.2c0.2,0.3,0.6,0.4,1.1,0.4c0.4,0,0.8-0.2,1-0.5c0.1-0.2,0.2-0.4,0.3-0.6l0.8,0c0,0.2-0.1,0.4-0.2,0.6
				s-0.2,0.4-0.4,0.6c-0.2,0.3-0.6,0.5-0.9,0.6c-0.2,0.1-0.4,0.1-0.7,0.1c-0.6,0-1.2-0.2-1.6-0.6c-0.5-0.4-0.7-1.1-0.8-1.9
				c0-0.8,0.1-1.5,0.5-2c0.4-0.5,1-0.8,1.7-0.9C153,40.2,153.3,40.3,153.7,40.5z M154.1,42.4c-0.1-0.4-0.2-0.7-0.3-0.9
				c-0.3-0.4-0.7-0.6-1.2-0.6c-0.4,0-0.7,0.2-1,0.5c-0.2,0.3-0.4,0.7-0.4,1.1L154.1,42.4z"/>
			<path fill="#1F1D21" d="M161.8,39.9l0.9-0.1c-0.1,0.3-0.3,1.1-0.7,2.3c-0.3,0.9-0.5,1.6-0.7,2.2c-0.4,1.3-0.7,2.1-0.9,2.4
				c-0.2,0.3-0.5,0.5-1,0.5c-0.1,0-0.2,0-0.3,0c-0.1,0-0.1,0-0.2,0l0-0.8c0.2,0,0.3,0.1,0.3,0.1c0.1,0,0.1,0,0.2,0
				c0.2,0,0.3,0,0.3-0.1c0.1-0.1,0.1-0.1,0.2-0.2c0,0,0.1-0.2,0.1-0.4c0.1-0.2,0.1-0.4,0.2-0.5l-2.2-5.1l1-0.1l1.6,4.1L161.8,39.9z"
				/>
			<path fill="#1F1D21" d="M166.6,39.6l1.6,4.1l1.2-4.2l0.9-0.1l-1.6,5.2l-0.9,0.1l-2.2-5L166.6,39.6z"/>
			<path fill="#1F1D21" d="M173.9,41.2c0.2,0,0.3-0.1,0.4-0.3c0-0.1,0-0.2,0-0.3c0-0.3-0.1-0.5-0.3-0.6c-0.2-0.1-0.5-0.2-0.9-0.1
				c-0.4,0-0.8,0.2-0.9,0.4c-0.1,0.1-0.2,0.3-0.2,0.6l-0.8,0c0-0.6,0.2-1.1,0.5-1.3c0.4-0.3,0.8-0.4,1.3-0.4c0.6,0,1.1,0.1,1.5,0.3
				c0.4,0.2,0.6,0.6,0.6,1l0.2,2.9c0,0.1,0,0.2,0.1,0.2c0,0.1,0.1,0.1,0.2,0.1c0,0,0.1,0,0.1,0c0,0,0.1,0,0.2,0l0,0.6
				c-0.1,0-0.2,0.1-0.3,0.1c-0.1,0-0.2,0-0.3,0c-0.3,0-0.5-0.1-0.7-0.3c-0.1-0.1-0.1-0.3-0.2-0.5c-0.2,0.2-0.4,0.5-0.7,0.6
				c-0.3,0.2-0.7,0.3-1.1,0.3c-0.5,0-0.9-0.1-1.2-0.4c-0.3-0.3-0.5-0.6-0.5-1.1c0-0.5,0.1-0.8,0.4-1.1c0.3-0.3,0.7-0.5,1.1-0.5
				L173.9,41.2z M172.3,43.6c0.2,0.1,0.4,0.2,0.7,0.2c0.3,0,0.6-0.1,0.9-0.3c0.5-0.3,0.7-0.6,0.6-1.2l0-0.7
				c-0.1,0.1-0.2,0.1-0.4,0.2c-0.2,0.1-0.3,0.1-0.5,0.1l-0.5,0.1c-0.3,0.1-0.5,0.1-0.7,0.2c-0.3,0.2-0.4,0.4-0.4,0.7
				C172,43.3,172.1,43.5,172.3,43.6z"/>
			<path fill="#1F1D21" d="M179.9,39.1c0.4,0.3,0.6,0.7,0.7,1.4l-0.8,0c-0.1-0.3-0.2-0.6-0.4-0.8c-0.2-0.2-0.5-0.3-0.9-0.3
				c-0.5,0-0.9,0.3-1.1,0.9c-0.1,0.4-0.2,0.8-0.2,1.3c0,0.5,0.2,0.9,0.4,1.3c0.2,0.3,0.6,0.5,1,0.5c0.4,0,0.6-0.1,0.8-0.4
				c0.2-0.2,0.3-0.5,0.4-0.9l0.8,0c-0.1,0.7-0.3,1.2-0.6,1.5c-0.4,0.3-0.8,0.5-1.4,0.6c-0.7,0-1.2-0.2-1.6-0.6
				c-0.4-0.5-0.7-1.1-0.7-1.8c-0.1-0.9,0.1-1.6,0.5-2.1c0.4-0.5,0.9-0.8,1.6-0.8C179,38.7,179.5,38.8,179.9,39.1z"/>
			<path fill="#1F1D21" d="M181.3,36.9l0.9,0l0.1,1l-0.9,0L181.3,36.9z M181.4,38.8l0.9,0l0.3,5.1l-0.9,0L181.4,38.8z"/>
			<path fill="#1F1D21" d="M183.5,36.7l0.9,0l0.4,7l-0.9,0L183.5,36.7z"/>
			<path fill="#1F1D21" d="M188.5,40.4c0.2,0,0.3-0.1,0.4-0.3c0-0.1,0-0.2,0-0.3c0-0.3-0.1-0.5-0.3-0.6c-0.2-0.1-0.5-0.2-0.9-0.1
				c-0.4,0-0.8,0.2-0.9,0.4c-0.1,0.1-0.2,0.3-0.2,0.6l-0.8,0c0-0.6,0.2-1.1,0.5-1.3c0.4-0.3,0.8-0.4,1.3-0.4c0.6,0,1.1,0.1,1.5,0.3
				c0.4,0.2,0.6,0.6,0.6,1l0.2,2.9c0,0.1,0,0.2,0.1,0.2c0,0.1,0.1,0.1,0.2,0.1c0,0,0.1,0,0.1,0c0,0,0.1,0,0.2,0l0,0.6
				c-0.1,0-0.2,0.1-0.3,0.1c-0.1,0-0.2,0-0.3,0c-0.3,0-0.5-0.1-0.7-0.3c-0.1-0.1-0.1-0.3-0.2-0.5c-0.2,0.2-0.4,0.5-0.7,0.6
				c-0.3,0.2-0.7,0.3-1.1,0.3c-0.5,0-0.9-0.1-1.2-0.4c-0.3-0.3-0.5-0.6-0.5-1.1c0-0.5,0.1-0.8,0.4-1.1c0.3-0.3,0.7-0.5,1.1-0.5
				L188.5,40.4z M186.9,42.8c0.2,0.1,0.4,0.2,0.7,0.2c0.3,0,0.6-0.1,0.9-0.3c0.5-0.3,0.7-0.6,0.6-1.2l0-0.7
				c-0.1,0.1-0.2,0.1-0.4,0.2c-0.2,0.1-0.3,0.1-0.5,0.1l-0.5,0.1c-0.3,0.1-0.5,0.1-0.7,0.2c-0.3,0.2-0.4,0.4-0.4,0.7
				C186.6,42.5,186.7,42.6,186.9,42.8z"/>
			<path fill="#1F1D21" d="M194.5,38.3c0.4,0.3,0.6,0.7,0.7,1.4l-0.8,0c-0.1-0.3-0.2-0.6-0.4-0.8c-0.2-0.2-0.5-0.3-0.9-0.3
				c-0.5,0-0.9,0.3-1.1,0.9c-0.1,0.4-0.2,0.8-0.2,1.3c0,0.5,0.2,0.9,0.4,1.3c0.2,0.3,0.6,0.5,1,0.5c0.4,0,0.6-0.1,0.8-0.4
				c0.2-0.2,0.3-0.5,0.4-0.9l0.8,0c-0.1,0.7-0.3,1.2-0.6,1.5c-0.4,0.3-0.8,0.5-1.4,0.6c-0.7,0-1.2-0.2-1.6-0.6
				c-0.4-0.5-0.7-1.1-0.7-1.8c-0.1-0.9,0.1-1.6,0.5-2.1c0.4-0.5,0.9-0.8,1.6-0.8C193.7,37.9,194.1,38,194.5,38.3z"/>
			<path fill="#1F1D21" d="M195.9,36l0.9,0l0.1,1l-0.9,0L195.9,36z M196,37.9l0.9,0l0.3,5.1l-0.9,0L196,37.9z"/>
			<path fill="#1F1D21" d="M201.9,38.1c0.5,0.4,0.7,1,0.8,1.9c0,0.8-0.1,1.5-0.5,2.1c-0.4,0.6-1,0.9-1.8,0.9c-0.7,0-1.3-0.2-1.7-0.6
				c-0.4-0.4-0.7-1.1-0.7-1.9c0-0.9,0.1-1.5,0.5-2.1c0.4-0.5,1-0.8,1.7-0.9C200.8,37.5,201.4,37.7,201.9,38.1z M201.5,41.5
				c0.2-0.4,0.3-0.9,0.2-1.4c0-0.5-0.1-0.9-0.3-1.1c-0.3-0.5-0.7-0.7-1.3-0.6c-0.5,0-0.9,0.3-1.1,0.7c-0.2,0.4-0.3,0.9-0.3,1.5
				c0,0.5,0.2,1,0.4,1.3c0.3,0.3,0.6,0.5,1.2,0.5C201,42.2,201.4,42,201.5,41.5z"/>
			<path fill="#1F1D21" d="M203.6,37.5l0.8,0l0,0.7c0.2-0.3,0.5-0.5,0.7-0.7c0.3-0.1,0.6-0.2,0.9-0.2c0.7,0,1.2,0.2,1.5,0.7
				c0.2,0.3,0.2,0.7,0.3,1.2l0.2,3.3l-0.9,0l-0.2-3.2c0-0.3-0.1-0.6-0.2-0.7c-0.2-0.3-0.5-0.5-0.9-0.4c-0.2,0-0.4,0-0.5,0.1
				c-0.2,0.1-0.4,0.2-0.6,0.5c-0.1,0.2-0.2,0.4-0.2,0.5c0,0.2,0,0.4,0,0.8l0.2,2.7l-0.9,0L203.6,37.5z"/>
			<path fill="#1F1D21" d="M212.1,37.1c0.3,0.2,0.6,0.4,0.8,0.6c0.2,0.2,0.3,0.5,0.4,0.9c0.1,0.2,0.1,0.6,0.1,1.1l-3.7,0.2
				c0,0.5,0.2,0.9,0.4,1.2c0.2,0.3,0.6,0.4,1.1,0.4c0.4,0,0.8-0.2,1-0.5c0.1-0.2,0.2-0.4,0.3-0.6l0.8,0c0,0.2-0.1,0.4-0.2,0.6
				c-0.1,0.2-0.2,0.4-0.4,0.6c-0.2,0.3-0.6,0.5-0.9,0.6c-0.2,0.1-0.4,0.1-0.7,0.1c-0.6,0-1.2-0.2-1.6-0.6c-0.5-0.4-0.7-1.1-0.8-1.9
				c0-0.8,0.1-1.5,0.5-2c0.4-0.5,1-0.8,1.7-0.9C211.4,36.9,211.8,37,212.1,37.1z M212.6,39.1c-0.1-0.4-0.2-0.7-0.3-0.9
				c-0.3-0.4-0.7-0.6-1.2-0.6c-0.4,0-0.7,0.2-1,0.5c-0.2,0.3-0.4,0.7-0.4,1.1L212.6,39.1z"/>
			<path fill="#1F1D21" d="M215.1,40.3c0,0.3,0.1,0.5,0.3,0.6c0.2,0.3,0.6,0.4,1.2,0.3c0.3,0,0.6-0.1,0.8-0.3
				c0.2-0.2,0.3-0.4,0.3-0.7c0-0.2-0.1-0.4-0.3-0.5c-0.1-0.1-0.4-0.1-0.8-0.2l-0.7-0.1c-0.4-0.1-0.8-0.2-1-0.3
				c-0.4-0.2-0.6-0.5-0.6-0.9c0-0.5,0.1-0.9,0.5-1.2c0.3-0.3,0.8-0.5,1.4-0.5c0.8,0,1.4,0.1,1.7,0.6c0.2,0.3,0.4,0.6,0.4,0.9l-0.8,0
				c0-0.2-0.1-0.4-0.2-0.5c-0.2-0.2-0.6-0.3-1.1-0.3c-0.3,0-0.6,0.1-0.7,0.2c-0.2,0.1-0.2,0.3-0.2,0.5c0,0.2,0.1,0.4,0.4,0.5
				c0.1,0.1,0.3,0.1,0.6,0.2l0.6,0.1c0.6,0.1,1.1,0.2,1.3,0.4c0.3,0.2,0.5,0.5,0.6,1c0,0.5-0.1,0.9-0.5,1.2
				c-0.3,0.4-0.9,0.5-1.6,0.6c-0.8,0-1.3-0.1-1.7-0.4c-0.3-0.3-0.5-0.7-0.6-1.2L215.1,40.3z"/>
			<path fill="#1F1D21" d="M219.7,40.6l1-0.1l0.1,1l-1,0.1L219.7,40.6z"/>
		</g>
		<g>
			<g>
				<g>
					<g>
						<path fill="#61AAEA" d="M206,19.4l3.2-0.7c0.3,1.3,0.8,2.2,1.7,2.9c0.9,0.6,2,0.9,3.5,0.8c1.5-0.1,2.6-0.5,3.3-1.1
							c0.7-0.7,1-1.4,1-2.2c0-0.7-0.4-1.3-1.1-1.7c-0.5-0.3-1.6-0.6-3.4-0.9c-2.4-0.5-4.1-0.9-5.1-1.3c-0.9-0.4-1.7-1-2.2-1.7
							c-0.5-0.8-0.8-1.6-0.9-2.5c0-0.9,0.1-1.7,0.5-2.4c0.3-0.8,0.8-1.4,1.5-1.9c0.5-0.4,1.2-0.8,2-1.1c0.9-0.3,1.8-0.5,2.8-0.6
							c1.5-0.1,2.8,0.1,4,0.4c1.2,0.4,2,0.9,2.6,1.6c0.6,0.7,1,1.7,1.3,2.9l-3.2,0.6c-0.2-1-0.7-1.7-1.4-2.2c-0.7-0.5-1.7-0.7-3-0.7
							c-1.5,0.1-2.5,0.4-3.2,0.9c-0.6,0.5-0.9,1.1-0.9,1.8c0,0.4,0.2,0.8,0.5,1.1c0.3,0.3,0.7,0.6,1.3,0.8c0.3,0.1,1.3,0.3,2.9,0.7
							c2.3,0.5,4,0.9,4.9,1.2c0.9,0.3,1.7,0.9,2.2,1.6c0.6,0.7,0.9,1.6,0.9,2.7c0.1,1.1-0.2,2.1-0.8,3.1c-0.6,1-1.5,1.8-2.6,2.4
							c-1.2,0.6-2.5,0.9-4,1c-2.5,0.1-4.4-0.3-5.8-1.2C207.4,22.9,206.5,21.4,206,19.4z"/>
					</g>
				</g>
				<g>
					<g>
						<path fill="#61AAEA" d="M180.4,0l-3.2,0.2l0.6,9.5c-0.6-0.8-1.4-1.3-2.3-1.8c-0.7-0.3-1.4-0.5-2.1-0.5c-0.3,0-0.7,0-1,0
							c-1.6,0.1-3,0.6-4.2,1.5c-1.2,0.9-2.1,2.2-2.7,3.8c-0.5,1.6-0.8,3.4-0.7,5.3c0.1,2,0.6,3.7,1.4,5.2c0.8,1.5,1.9,2.6,3.2,3.4
							c1.2,0.7,2.6,1.1,4,1c0.1,0,0.2,0,0.3,0c2.4-0.1,4.1-1.2,5.2-3.2l0.1,2.4l3-0.2L180.4,0z M177.2,22.8c-0.9,1.2-2.1,1.9-3.5,2
							c-0.2,0-0.3,0-0.5,0c-1.2-0.1-2.3-0.6-3.3-1.6c-1.1-1.2-1.7-3-1.9-5.4c-0.1-2.5,0.2-4.4,1.1-5.7c0.9-1.2,2.1-1.9,3.5-2
							c0.2,0,0.4,0,0.5,0c1.3,0.1,2.4,0.6,3.3,1.6c1.1,1.2,1.7,3.1,1.9,5.7C178.5,19.8,178.1,21.6,177.2,22.8z"/>
					</g>
				</g>
				<g>
					<g>
						<path fill="#61AAEA" d="M158.4,27.9l-0.2-2.8c-1.4,2.3-3.3,3.5-5.9,3.6c-1.1,0.1-2.2-0.1-3.2-0.5c-1-0.4-1.8-0.9-2.3-1.5
							c-0.5-0.6-0.9-1.4-1.1-2.4c-0.2-0.6-0.3-1.6-0.4-3l-0.7-11.9l3.3-0.2l0.6,10.7c0.1,1.7,0.2,2.8,0.4,3.4
							c0.3,0.8,0.7,1.5,1.4,1.9c0.7,0.4,1.5,0.6,2.5,0.6c1-0.1,1.9-0.4,2.7-0.9c0.8-0.6,1.4-1.3,1.7-2.2c0.3-0.9,0.4-2.1,0.3-3.8
							l-0.6-10.3l3.3-0.2l1.1,19.2L158.4,27.9z"/>
					</g>
				</g>
				<g>
					<g>
						<path fill="#61AAEA" d="M139.1,2.4l-3.2,0.2l0.6,9.5c-0.6-0.8-1.4-1.3-2.3-1.8c-0.7-0.3-1.4-0.5-2.1-0.5c-0.3,0-0.6,0-1,0
							c-1.6,0.1-3,0.6-4.2,1.5c-1.2,0.9-2.1,2.2-2.7,3.8c-0.5,1.6-0.8,3.4-0.7,5.3c0.1,2,0.6,3.7,1.4,5.2c0.8,1.5,1.9,2.6,3.2,3.4
							c1.2,0.7,2.6,1.1,4,1c0.1,0,0.2,0,0.3,0c2.4-0.1,4.1-1.2,5.2-3.2l0.1,2.4l3-0.2L139.1,2.4z M136,25.2c-0.9,1.2-2.1,1.9-3.5,2
							c-0.2,0-0.3,0-0.5,0c-1.2-0.1-2.3-0.6-3.3-1.6c-1.1-1.2-1.7-3-1.9-5.4c-0.1-2.5,0.2-4.4,1.1-5.7c0.9-1.2,2.1-1.9,3.5-2
							c0.2,0,0.4,0,0.5,0c1.3,0.1,2.4,0.6,3.3,1.6c1.1,1.2,1.7,3.1,1.9,5.7C137.3,22.2,136.9,24,136,25.2z"/>
					</g>
				</g>
				<g>
					<g>
						<path fill="#61AAEA" d="M71.6,33l-1.1-19.2l2.9-0.2l0.2,2.9c0.7-1.4,1.3-2.3,1.9-2.8c0.6-0.5,1.3-0.7,2-0.8
							c1.1-0.1,2.2,0.2,3.4,0.9L80,16.9c-0.8-0.4-1.6-0.6-2.4-0.6c-0.7,0-1.3,0.3-1.9,0.8c-0.5,0.5-0.9,1.1-1.1,1.9
							c-0.3,1.2-0.4,2.5-0.3,3.8l0.6,10.1L71.6,33z"/>
					</g>
				</g>
				<g>
					<g>
						<polygon fill="#61AAEA" points="1.6,37.1 0,10.5 3.3,10.4 4.8,36.9 1.6,37.1 						"/>
					</g>
				</g>
				<g>
					<g>
						<path fill="#61AAEA" d="M46,31.9l-1-16.6l-3,0.2l0.1,2.3c-1.4-1.5-3-2.3-4.9-2.4c-0.3,0-0.6,0-0.9,0c-1.7,0.1-3.2,0.6-4.4,1.5
							c-1.2,0.9-2.1,2.2-2.7,3.8c-0.6,1.6-0.8,3.3-0.7,5.1c0.2,2.7,1,4.9,2.6,6.7c1.5,1.8,3.5,2.6,6,2.5c0.1,0,0.2,0,0.3,0
							c2.1-0.1,3.8-1.1,5.2-2.8c0.1,2.1,0.1,3.5,0,4.2c-0.2,1.1-0.7,2-1.5,2.6c-0.8,0.6-1.9,1-3.4,1.1c-0.2,0-0.3,0-0.5,0
							c-1.2,0-2.1-0.2-2.9-0.7c-0.6-0.4-1-1.1-1.2-2.1L30,37c0.1,2.1,0.8,3.6,2.3,4.5c1.3,0.9,3,1.3,5,1.2c0.2,0,0.4,0,0.7,0
							c1.9-0.1,3.5-0.6,4.8-1.4c1.3-0.8,2.2-1.8,2.7-3.1C46,37,46.2,34.8,46,31.9z M41.3,30.3c-0.9,1.2-2.2,1.9-3.7,1.9
							c-0.1,0-0.3,0-0.4,0c-1.3,0-2.5-0.5-3.4-1.5c-1.1-1.1-1.7-2.9-1.8-5.4c-0.1-2.3,0.3-4.1,1.2-5.3c1-1.2,2.1-1.9,3.6-2
							c0.2,0,0.3,0,0.5,0c1.3,0,2.4,0.6,3.4,1.6c1.1,1.1,1.7,2.9,1.9,5.2C42.7,27.3,42.3,29.1,41.3,30.3z"/>
					</g>
				</g>
				<g>
					<g>
						<path fill="#61AAEA" d="M22.4,35.8L22.3,33c-1.4,2.3-3.3,3.5-5.9,3.6c-1.1,0.1-2.2-0.1-3.2-0.5c-1-0.4-1.8-0.9-2.3-1.5
							c-0.5-0.6-0.9-1.4-1.1-2.4c-0.2-0.6-0.3-1.6-0.4-3L8.7,17.4l3.3-0.2l0.6,10.7c0.1,1.7,0.2,2.8,0.4,3.4
							c0.3,0.8,0.7,1.5,1.4,1.9c0.7,0.4,1.5,0.6,2.5,0.6c1-0.1,1.9-0.4,2.7-0.9c0.8-0.6,1.4-1.3,1.7-2.2c0.3-0.9,0.4-2.1,0.3-3.8
							L21,16.7l3.3-0.2l1.1,19.2L22.4,35.8z"/>
					</g>
				</g>
				<g>
					<g>
						<path fill="#61AAEA" d="M69.1,30.2c-3.5,0.8-2.8-2.1-3-5.1l-0.3-4.4c-0.1-1.5-0.2-2.5-0.3-3c-0.3-0.9-0.6-1.6-1.1-2.2
							c-0.5-0.6-1.3-1-2.4-1.3c-1-0.3-2.4-0.4-4-0.4l0,0c-1.6,0.1-3.1,0.4-4.3,0.9c-1.2,0.5-2.2,1.2-2.8,2.1c-0.6,0.9-1,2.7-1.2,4.1
							l3.2-0.2c0.3-1.4,0.7-2.6,1.4-3.2c0.7-0.6,1.8-0.9,3.3-1c0.1,0,0.2,0,0.3,0c1.5,0,2.7,0.2,3.5,0.9c0.6,0.5,1,1.4,1.1,2.8
							c0,0.1,0,0.4,0,0.9c-1,0.4-2.6,0.9-4.6,1.3c-0.4,0.1-0.7,0.1-1.1,0.2c-1.3,0.2-2.2,0.5-2.9,0.7c-0.9,0.3-1.6,0.7-2.3,1.2
							c-0.7,0.5-1.2,1.2-1.6,2c-0.4,0.8-0.5,1.7-0.5,2.6c0.1,1.6,0.7,2.9,1.9,3.9c1.2,1,2.8,1.4,5,1.3c0.5,0,1-0.1,1.4-0.2
							c0.7-0.1,1.4-0.4,2.1-0.7c1.1-0.5,2.2-1.4,3.3-2.5c1,2.8,4,1.8,5.7,1.8L69.1,30.2z M62.4,28.3c-0.4,1-1.1,1.8-2,2.4
							c-0.7,0.5-1.6,0.8-2.5,0.9c-0.3,0-0.5,0.1-0.8,0.1c-1.3,0.1-2.2-0.2-2.9-0.7c-0.7-0.5-1.1-1.3-1.1-2.1c0-0.6,0.1-1.1,0.4-1.6
							c0.3-0.5,0.7-0.9,1.2-1.1c0.5-0.3,1.5-0.5,2.8-0.8c0.2,0,0.3-0.1,0.5-0.1c2.1-0.5,3.7-0.9,4.8-1.5l0.1,1.2
							C62.8,26.4,62.7,27.5,62.4,28.3z"/>
					</g>
				</g>
				<g>
					<g>
						<path fill="#61AAEA" d="M205.1,22.2c-3.5,0.8-2.8-2.1-3-5.1l-0.3-4.4c-0.1-1.5-0.2-2.5-0.3-3c-0.3-0.9-0.6-1.6-1.1-2.2
							c-0.5-0.6-1.3-1-2.4-1.3c-1-0.3-2.4-0.4-4-0.4l0,0c-1.6,0.1-3.1,0.4-4.3,0.9c-1.2,0.5-2.2,1.2-2.8,2.1c-0.6,0.9-1,2.7-1.2,4.1
							l3.2-0.2c0.3-1.4,0.7-2.6,1.4-3.2c0.7-0.6,1.8-0.9,3.3-1c0.1,0,0.2,0,0.3,0c1.5,0,2.7,0.2,3.5,0.9c0.6,0.5,1,1.4,1.1,2.8
							c0,0.1,0,0.4,0,0.9c-1,0.4-2.6,0.9-4.6,1.3c-0.4,0.1-0.7,0.1-1.1,0.2c-1.3,0.2-2.2,0.5-2.9,0.7c-0.9,0.3-1.6,0.7-2.3,1.2
							c-0.7,0.5-1.2,1.2-1.6,2c-0.4,0.8-0.5,1.7-0.5,2.6c0.1,1.6,0.7,2.9,1.9,3.9c1.2,1,2.8,1.4,5,1.3c0.5,0,1-0.1,1.4-0.2
							c0.7-0.1,1.4-0.4,2.1-0.7c1.1-0.5,2.2-1.4,3.3-2.5c1,2.8,4,1.8,5.7,1.8L205.1,22.2z M198.4,20.3c-0.4,1-1.1,1.8-2,2.4
							c-0.7,0.5-1.6,0.8-2.5,0.9c-0.3,0-0.5,0.1-0.8,0.1c-1.3,0.1-2.2-0.2-2.9-0.7c-0.7-0.5-1.1-1.3-1.1-2.1c0-0.6,0.1-1.1,0.4-1.6
							c0.3-0.5,0.7-0.9,1.2-1.1c0.5-0.3,1.5-0.5,2.8-0.8c0.2,0,0.3-0.1,0.5-0.1c2.1-0.5,3.7-0.9,4.8-1.5l0.1,1.2
							C198.8,18.4,198.7,19.5,198.4,20.3z"/>
					</g>
				</g>
				<g>
					<g>
						<path fill="#61AAEA" d="M112.4,27.7c-3.5,0.8-2.8-2.1-3-5.1l-0.3-4.4c-0.1-1.5-0.2-2.5-0.3-3c-0.3-0.9-0.6-1.6-1.1-2.2
							c-0.5-0.6-1.3-1-2.4-1.3c-1-0.3-2.4-0.4-4-0.4l0,0c-1.6,0.1-3.1,0.4-4.3,0.9c-1.2,0.5-2.2,1.2-2.8,2.1c-0.6,0.9-1,2.7-1.2,4.1
							l3.2-0.2c0.3-1.4,0.7-2.6,1.4-3.2c0.7-0.6,1.8-0.9,3.3-1c0.1,0,0.2,0,0.3,0c1.5,0,2.7,0.2,3.5,0.9c0.6,0.5,1,1.4,1.1,2.8
							c0,0.1,0,0.4,0,0.9c-1,0.4-2.6,0.9-4.6,1.3c-0.4,0.1-0.7,0.1-1.1,0.2c-1.3,0.2-2.2,0.5-2.9,0.7c-0.9,0.3-1.6,0.7-2.3,1.2
							c-0.7,0.5-1.2,1.2-1.6,2c-0.4,0.8-0.5,1.7-0.5,2.6c0.1,1.6,0.7,2.9,1.9,3.9c1.2,1,2.8,1.4,5,1.3c0.5,0,1-0.1,1.4-0.2
							c0.7-0.1,1.4-0.4,2.1-0.7c1.1-0.5,2.2-1.4,3.3-2.5c1,2.8,4,1.8,5.7,1.8L112.4,27.7z M105.7,25.8c-0.4,1-1.1,1.8-2,2.4
							c-0.7,0.5-1.6,0.8-2.5,0.9c-0.3,0-0.5,0.1-0.8,0.1c-1.3,0.1-2.2-0.2-2.9-0.7c-0.7-0.5-1.1-1.3-1.1-2.1c0-0.6,0.1-1.1,0.4-1.6
							c0.3-0.5,0.7-0.9,1.2-1.1c0.5-0.3,1.5-0.5,2.8-0.8c0.2,0,0.3-0.1,0.5-0.1c2.1-0.5,3.7-0.9,4.8-1.5l0.1,1.2
							C106.1,23.9,106,25,105.7,25.8z"/>
					</g>
				</g>
			</g>
			<g opacity="0.9">
				<g>
					<g>
						<path fill="#C80086" d="M206.3,24.4l3.2-0.7c0.3,1.3,0.8,2.2,1.7,2.9c0.9,0.6,2,0.9,3.5,0.8c1.5-0.1,2.6-0.5,3.3-1.1
							c0.7-0.7,1-1.4,1-2.2c0-0.7-0.4-1.3-1.1-1.7c-0.5-0.3-1.6-0.6-3.4-0.9c-2.4-0.5-4.1-0.9-5.1-1.3c-0.9-0.4-1.7-1-2.2-1.7
							c-0.5-0.8-0.8-1.6-0.9-2.5c-0.1-0.9,0.1-1.7,0.5-2.4c0.3-0.8,0.8-1.4,1.5-1.9c0.5-0.4,1.2-0.8,2-1.1c0.9-0.3,1.8-0.5,2.8-0.6
							c1.5-0.1,2.8,0.1,4,0.4c1.2,0.4,2,0.9,2.6,1.6c0.6,0.7,1,1.7,1.3,2.9l-3.2,0.6c-0.2-1-0.7-1.7-1.4-2.2c-0.7-0.5-1.7-0.7-3-0.7
							c-1.5,0.1-2.5,0.4-3.2,0.9c-0.6,0.5-0.9,1.1-0.9,1.8c0,0.4,0.2,0.8,0.5,1.1c0.3,0.3,0.7,0.6,1.3,0.8c0.3,0.1,1.3,0.3,2.9,0.7
							c2.3,0.5,4,0.9,4.9,1.2c0.9,0.3,1.7,0.9,2.2,1.6c0.6,0.7,0.9,1.6,0.9,2.7c0.1,1.1-0.2,2.1-0.8,3.1c-0.6,1-1.5,1.8-2.6,2.4
							c-1.2,0.6-2.5,0.9-4,1c-2.5,0.1-4.4-0.3-5.8-1.2C207.7,27.9,206.8,26.4,206.3,24.4z"/>
					</g>
				</g>
				<g>
					<g>
						<path fill="#C80086" d="M180.7,5l-3.2,0.2l0.6,9.5c-0.6-0.8-1.4-1.3-2.3-1.8c-0.7-0.3-1.4-0.5-2.1-0.5c-0.3,0-0.6,0-1,0
							c-1.6,0.1-3,0.6-4.2,1.5c-1.2,0.9-2.1,2.2-2.7,3.8c-0.5,1.6-0.8,3.4-0.7,5.3c0.1,2,0.6,3.7,1.4,5.2c0.8,1.5,1.9,2.6,3.2,3.4
							c1.2,0.7,2.6,1.1,4,1c0.1,0,0.2,0,0.3,0c2.4-0.1,4.1-1.2,5.2-3.2l0.1,2.4l3-0.2L180.7,5z M177.5,27.8c-0.9,1.2-2.1,1.9-3.5,2
							c-0.2,0-0.3,0-0.5,0c-1.2-0.1-2.3-0.6-3.3-1.6c-1.1-1.2-1.7-3-1.9-5.4c-0.1-2.5,0.2-4.4,1.1-5.7c0.9-1.2,2.1-1.9,3.5-2
							c0.2,0,0.4,0,0.5,0c1.3,0.1,2.4,0.6,3.3,1.6c1.1,1.2,1.7,3.1,1.9,5.7C178.9,24.8,178.5,26.6,177.5,27.8z"/>
					</g>
				</g>
				<g>
					<g>
						<path fill="#C80086" d="M158.7,32.9l-0.2-2.8c-1.4,2.3-3.3,3.5-5.9,3.6c-1.1,0.1-2.2-0.1-3.2-0.5c-1-0.4-1.8-0.9-2.3-1.5
							c-0.5-0.6-0.9-1.4-1.1-2.4c-0.2-0.6-0.3-1.6-0.4-3l-0.7-11.9l3.3-0.2l0.6,10.7c0.1,1.7,0.2,2.8,0.4,3.4
							c0.3,0.8,0.7,1.5,1.4,1.9c0.7,0.4,1.5,0.6,2.5,0.6c1-0.1,1.9-0.4,2.7-0.9c0.8-0.6,1.4-1.3,1.7-2.1c0.3-0.9,0.4-2.1,0.3-3.8
							l-0.6-10.3l3.3-0.2l1.1,19.2L158.7,32.9z"/>
					</g>
				</g>
				<g>
					<g>
						<path fill="#C80086" d="M139.5,7.5l-3.2,0.2l0.6,9.5c-0.6-0.8-1.4-1.3-2.3-1.8c-0.7-0.3-1.4-0.5-2.1-0.5c-0.3,0-0.6,0-1,0
							c-1.6,0.1-3,0.6-4.2,1.5c-1.2,0.9-2.1,2.2-2.7,3.8c-0.5,1.6-0.8,3.4-0.7,5.3c0.1,2,0.6,3.7,1.4,5.2c0.8,1.5,1.9,2.6,3.2,3.4
							c1.2,0.7,2.6,1.1,4,1c0.1,0,0.2,0,0.3,0c2.4-0.1,4.1-1.2,5.2-3.2l0.1,2.4l3-0.2L139.5,7.5z M136.3,30.2
							c-0.9,1.2-2.1,1.9-3.5,2c-0.2,0-0.3,0-0.5,0c-1.2-0.1-2.3-0.6-3.3-1.6c-1.1-1.2-1.7-3-1.9-5.4c-0.1-2.5,0.2-4.4,1.1-5.7
							c0.9-1.2,2.1-1.9,3.5-2c0.2,0,0.4,0,0.5,0c1.3,0.1,2.4,0.6,3.3,1.6c1.1,1.2,1.7,3.1,1.9,5.7C137.7,27.2,137.3,29,136.3,30.2z"
							/>
					</g>
				</g>
				<g>
					<g>
						<path fill="#C80086" d="M72,38l-1.1-19.2l2.9-0.2l0.2,2.9c0.7-1.4,1.3-2.3,1.9-2.8c0.6-0.5,1.3-0.7,2-0.8
							c1.1-0.1,2.2,0.2,3.4,0.9l-0.9,3.1c-0.8-0.4-1.6-0.6-2.4-0.6c-0.7,0-1.3,0.3-1.9,0.8c-0.5,0.5-0.9,1.1-1.1,1.9
							c-0.3,1.2-0.4,2.5-0.3,3.8l0.6,10.1L72,38z"/>
					</g>
				</g>
				<g>
					<g>
						<polygon fill="#C80086" points="1.9,42.1 0.3,15.6 3.6,15.4 5.1,41.9 1.9,42.1 						"/>
					</g>
				</g>
				<g>
					<g>
						<path fill="#C80086" d="M46.3,36.9l-1-16.6l-3,0.2l0.1,2.3c-1.4-1.5-3-2.3-4.9-2.4c-0.3,0-0.6,0-0.9,0
							c-1.7,0.1-3.2,0.6-4.4,1.5c-1.2,0.9-2.1,2.2-2.7,3.8c-0.6,1.6-0.8,3.3-0.7,5.1c0.2,2.7,1,4.9,2.6,6.7c1.5,1.8,3.5,2.6,6,2.5
							c0.1,0,0.2,0,0.3,0c2.1-0.1,3.8-1.1,5.2-2.8c0.1,2.1,0.1,3.5,0,4.2c-0.2,1.1-0.7,2-1.5,2.6c-0.8,0.6-1.9,1-3.4,1.1
							c-0.2,0-0.3,0-0.5,0c-1.2,0-2.1-0.2-2.9-0.7c-0.6-0.4-1-1.1-1.2-2.1L30.3,42c0.1,2.1,0.8,3.6,2.3,4.5c1.3,0.9,3,1.3,5,1.2
							c0.2,0,0.4,0,0.7,0c1.9-0.1,3.5-0.6,4.8-1.4c1.3-0.8,2.2-1.8,2.7-3.1C46.3,42,46.5,39.9,46.3,36.9z M41.7,35.3
							c-0.9,1.2-2.2,1.9-3.7,1.9c-0.1,0-0.3,0-0.4,0c-1.3,0-2.5-0.5-3.4-1.5c-1.1-1.1-1.7-2.9-1.8-5.4c-0.1-2.3,0.3-4.1,1.2-5.3
							c1-1.2,2.1-1.9,3.6-2c0.2,0,0.3,0,0.5,0c1.3,0,2.4,0.6,3.4,1.6c1.1,1.1,1.7,2.9,1.9,5.2C43,32.3,42.6,34.1,41.7,35.3z"/>
					</g>
				</g>
				<g>
					<g>
						<path fill="#C80086" d="M22.8,40.9l-0.2-2.8c-1.4,2.3-3.3,3.5-5.9,3.6c-1.1,0.1-2.2-0.1-3.2-0.5c-1-0.4-1.8-0.9-2.3-1.5
							c-0.5-0.6-0.9-1.4-1.1-2.4c-0.2-0.6-0.3-1.6-0.4-3L9,22.4l3.3-0.2l0.6,10.7c0.1,1.7,0.2,2.8,0.4,3.4c0.3,0.8,0.7,1.5,1.4,1.9
							c0.7,0.4,1.5,0.6,2.5,0.6c1-0.1,1.9-0.4,2.7-0.9c0.8-0.6,1.4-1.3,1.7-2.1c0.3-0.9,0.4-2.1,0.3-3.8l-0.6-10.3l3.3-0.2l1.1,19.2
							L22.8,40.9z"/>
					</g>
				</g>
				<g>
					<g>
						<path fill="#C80086" d="M69.4,35.3c-3.5,0.8-2.8-2.1-3-5.1l-0.3-4.4c-0.1-1.5-0.2-2.5-0.3-3c-0.3-0.9-0.6-1.6-1.1-2.2
							c-0.5-0.6-1.3-1-2.4-1.3c-1-0.3-2.4-0.4-4-0.4l0,0c-1.6,0.1-3.1,0.4-4.3,0.9c-1.2,0.5-2.2,1.2-2.8,2.1c-0.6,0.9-1,2.7-1.2,4.1
							l3.2-0.2c0.3-1.4,0.7-2.6,1.4-3.2c0.7-0.6,1.8-0.9,3.3-1c0.1,0,0.2,0,0.3,0c1.5,0,2.7,0.2,3.5,0.9c0.6,0.5,1,1.4,1.1,2.8
							c0,0.1,0,0.4,0,0.9c-1,0.4-2.6,0.9-4.6,1.3c-0.4,0.1-0.7,0.1-1.1,0.2c-1.3,0.2-2.2,0.5-2.9,0.7c-0.9,0.3-1.6,0.7-2.3,1.2
							c-0.7,0.5-1.2,1.2-1.6,2c-0.4,0.8-0.5,1.7-0.5,2.6c0.1,1.6,0.7,2.9,1.9,3.9c1.2,1,2.8,1.4,5,1.3c0.5,0,1-0.1,1.4-0.2
							c0.7-0.1,1.4-0.4,2.1-0.7c1.1-0.5,2.2-1.4,3.3-2.5c1,2.8,4,1.8,5.7,1.8L69.4,35.3z M62.7,33.3c-0.4,1-1.1,1.8-2,2.4
							c-0.7,0.5-1.6,0.8-2.5,0.9c-0.3,0-0.5,0.1-0.8,0.1c-1.3,0.1-2.2-0.2-2.9-0.7c-0.7-0.5-1.1-1.3-1.1-2.1c0-0.6,0.1-1.1,0.4-1.6
							c0.3-0.5,0.7-0.9,1.2-1.1c0.5-0.3,1.5-0.5,2.8-0.8c0.2,0,0.3-0.1,0.5-0.1c2.1-0.5,3.7-0.9,4.8-1.5l0.1,1.2
							C63.2,31.4,63,32.5,62.7,33.3z"/>
					</g>
				</g>
				<g>
					<g>
						<path fill="#C80086" d="M205.4,27.3c-3.5,0.8-2.8-2.1-3-5.1l-0.3-4.4c-0.1-1.5-0.2-2.5-0.3-3c-0.3-0.9-0.6-1.6-1.1-2.2
							c-0.5-0.6-1.3-1-2.4-1.3c-1-0.3-2.4-0.4-4-0.4l0,0c-1.6,0.1-3.1,0.4-4.3,0.9c-1.2,0.5-2.2,1.2-2.8,2.1c-0.6,0.9-1,2.7-1.2,4.1
							l3.2-0.2c0.3-1.4,0.7-2.6,1.4-3.2c0.7-0.6,1.8-0.9,3.3-1c0.1,0,0.2,0,0.3,0c1.5,0,2.7,0.2,3.5,0.9c0.6,0.5,1,1.4,1.1,2.8
							c0,0.1,0,0.4,0,0.9c-1,0.4-2.6,0.9-4.6,1.3c-0.4,0.1-0.7,0.1-1.1,0.2c-1.3,0.2-2.2,0.5-2.9,0.7c-0.9,0.3-1.6,0.7-2.3,1.2
							c-0.7,0.5-1.2,1.2-1.6,2c-0.4,0.8-0.5,1.7-0.5,2.6c0.1,1.6,0.7,2.9,1.9,3.9c1.2,1,2.8,1.4,5,1.3c0.5,0,1-0.1,1.4-0.2
							c0.7-0.1,1.4-0.4,2.1-0.7c1.1-0.5,2.2-1.4,3.3-2.5c1,2.8,4,1.8,5.7,1.8L205.4,27.3z M198.7,25.3c-0.4,1-1.1,1.8-2,2.4
							c-0.7,0.5-1.6,0.8-2.5,0.9c-0.3,0-0.5,0.1-0.8,0.1c-1.3,0.1-2.2-0.2-2.9-0.7c-0.7-0.5-1.1-1.3-1.1-2.1c0-0.6,0.1-1.1,0.4-1.6
							c0.3-0.5,0.7-0.9,1.2-1.1c0.5-0.3,1.5-0.5,2.8-0.8c0.2,0,0.3-0.1,0.5-0.1c2.1-0.5,3.7-0.9,4.8-1.5l0.1,1.2
							C199.2,23.5,199.1,24.6,198.7,25.3z"/>
					</g>
				</g>
				<g>
					<g>
						<path fill="#C80086" d="M112.7,32.8c-3.5,0.8-2.8-2.1-3-5.1l-0.3-4.4c-0.1-1.5-0.2-2.5-0.3-3c-0.3-0.9-0.6-1.6-1.1-2.2
							c-0.5-0.6-1.3-1-2.4-1.3c-1-0.3-2.4-0.4-4-0.4l0,0c-1.6,0.1-3.1,0.4-4.3,0.9c-1.2,0.5-2.2,1.2-2.8,2.1c-0.6,0.9-1,2.7-1.2,4.1
							l3.2-0.2c0.3-1.4,0.7-2.6,1.4-3.2c0.7-0.6,1.8-0.9,3.3-1c0.1,0,0.2,0,0.3,0c1.5,0,2.7,0.2,3.5,0.9c0.6,0.5,1,1.4,1.1,2.8
							c0,0.1,0,0.4,0,0.9c-1,0.4-2.6,0.9-4.6,1.3c-0.4,0.1-0.7,0.1-1.1,0.2c-1.3,0.2-2.2,0.5-2.9,0.7c-0.9,0.3-1.6,0.7-2.3,1.2
							c-0.7,0.5-1.2,1.2-1.6,2c-0.4,0.8-0.5,1.7-0.5,2.6c0.1,1.6,0.7,2.9,1.9,3.9c1.2,1,2.8,1.4,5,1.3c0.5,0,1-0.1,1.4-0.2
							c0.7-0.1,1.4-0.4,2.1-0.7c1.1-0.5,2.2-1.4,3.3-2.5c1,2.8,4,1.8,5.7,1.8L112.7,32.8z M106,30.8c-0.4,1-1.1,1.8-2,2.4
							c-0.7,0.5-1.6,0.8-2.5,0.9c-0.3,0-0.5,0.1-0.8,0.1c-1.3,0.1-2.2-0.2-2.9-0.7c-0.7-0.5-1.1-1.3-1.1-2.1c0-0.6,0.1-1.1,0.4-1.6
							c0.3-0.5,0.7-0.9,1.2-1.1c0.5-0.3,1.5-0.5,2.8-0.8c0.2,0,0.3-0.1,0.5-0.1c2.1-0.5,3.7-0.9,4.8-1.5l0.1,1.2
							C106.5,29,106.4,30.1,106,30.8z"/>
					</g>
				</g>
			</g>
		</g>
	</g>
</g>
</svg>
