<?xml version="1.0" encoding="utf-8"?>
<!-- Generator: Adobe Illustrator 18.1.1, SVG Export Plug-In . SVG Version: 6.00 Build 0)  -->
<svg version="1.1" id="Capa_1" xmlns="http://www.w3.org/2000/svg" xmlns:xlink="http://www.w3.org/1999/xlink" x="0px" y="0px"
	 viewBox="0 0 223.6 75.9" enable-background="new 0 0 223.6 75.9" xml:space="preserve">
<g>
	<g>
		<path fill="#3C6197" d="M15.6,22c-1,0.5-2.9,1-5.4,1C4.4,22.9,0,19.3,0,12.5C0,6.1,4.4,1.8,10.7,1.8c2.6,0,4.2,0.6,4.9,0.9L15,4.9
			c-1-0.5-2.4-0.9-4.1-0.9c-4.8,0-8,3.1-8,8.5c0,5,2.9,8.3,7.9,8.3c1.6,0,3.3-0.3,4.3-0.9L15.6,22z"/>
		<path fill="#3C6197" d="M19.5,15.3L19.5,15.3c0,3.2,1.8,5.7,4.5,5.7c2.6,0,4.5-2.4,4.5-5.7c0-2.5-1.2-5.7-4.4-5.7
			C20.9,9.6,19.5,12.5,19.5,15.3 M31.2,15.1c0,5.5-3.8,7.8-7.3,7.8c-4,0-7.1-2.9-7.1-7.6c0-4.9,3.2-7.8,7.3-7.8
			C28.3,7.6,31.2,10.6,31.2,15.1z"/>
		<path fill="#3C6197" d="M34,11.9c0-1.5,0-2.8-0.1-4h2.4l0.2,2.4h0.1c0.7-1.4,2.4-2.8,4.9-2.8c2,0,5.2,1.2,5.2,6.3v8.8h-2.7v-8.5
			c0-2.4-0.9-4.3-3.4-4.3c-1.8,0-3.1,1.2-3.6,2.7c-0.1,0.3-0.2,0.8-0.2,1.2v8.9H34V11.9z"/>
		<path fill="#3C6197" d="M49.9,19.9c0.8,0.5,2.2,1.1,3.5,1.1c1.9,0,2.9-1,2.9-2.2c0-1.3-0.8-2-2.7-2.7c-2.7-0.9-3.9-2.4-3.9-4.2
			c0-2.4,1.9-4.3,5.1-4.3c1.5,0,2.8,0.4,3.6,0.9l-0.7,2c-0.6-0.4-1.6-0.9-3-0.9c-1.6,0-2.5,0.9-2.5,2c0,1.2,0.9,1.8,2.8,2.5
			c2.6,1,3.9,2.3,3.9,4.4c0,2.6-2,4.4-5.5,4.4c-1.6,0-3.1-0.4-4.1-1L49.9,19.9z"/>
		<path fill="#3C6197" d="M64.9,3.7v4.2h3.8v2h-3.8v8c0,1.8,0.5,2.9,2,2.9c0.7,0,1.2-0.1,1.6-0.2l0.1,2c-0.5,0.2-1.3,0.4-2.4,0.4
			c-1.2,0-2.3-0.4-2.9-1.1c-0.8-0.8-1-2.1-1-3.8v-8H60v-2h2.3V4.3L64.9,3.7z"/>
		<path fill="#3C6197" d="M71.2,12.5c0-1.7,0-3.2-0.1-4.6h2.3l0.1,2.9h0.1c0.7-2,2.3-3.2,4.1-3.2c0.3,0,0.5,0,0.8,0.1v2.5
			c-0.3-0.1-0.5-0.1-0.9-0.1c-1.9,0-3.2,1.4-3.6,3.4c-0.1,0.4-0.1,0.8-0.1,1.2v7.9h-2.7V12.5z"/>
		<path fill="#3C6197" d="M92.8,18.6c0,1.5,0,2.9,0.1,4h-2.4l-0.2-2.4h-0.1c-0.7,1.2-2.3,2.7-4.9,2.7c-2.3,0-5.1-1.3-5.1-6.5V7.9
			h2.7V16c0,2.8,0.8,4.7,3.3,4.7c1.8,0,3-1.3,3.5-2.4c0.2-0.4,0.3-0.9,0.3-1.4v-9h2.7V18.6z"/>
		<path fill="#3C6197" d="M97.6,7.9l3.2,8.7c0.3,1,0.7,2.1,0.9,3h0.1c0.3-0.9,0.6-2,0.9-3.1l2.9-8.6h2.8l-4,10.5
			c-1.9,5.1-3.2,7.6-5.1,9.2c-1.3,1.2-2.6,1.6-3.3,1.7l-0.7-2.3c0.7-0.2,1.5-0.6,2.3-1.3c0.7-0.6,1.6-1.6,2.3-3
			c0.1-0.3,0.2-0.5,0.2-0.6c0-0.2-0.1-0.4-0.2-0.7L94.7,7.9H97.6z"/>
		<path fill="#3C6197" d="M119.4,13.8L119.4,13.8c0-1.7-0.7-4.4-3.7-4.4c-2.7,0-3.9,2.5-4.1,4.4H119.4z M111.6,15.7
			c0.1,3.6,2.4,5.1,5.1,5.1c1.9,0,3.1-0.3,4.1-0.8l0.5,1.9c-0.9,0.4-2.6,0.9-4.9,0.9c-4.5,0-7.2-3-7.2-7.4c0-4.4,2.6-7.9,6.9-7.9
			c4.8,0,6.1,4.2,6.1,6.9c0,0.5-0.1,1-0.1,1.3H111.6z"/>
		<path fill="#3C6197" d="M124.7,11.9c0-1.5,0-2.8-0.1-4h2.4l0.2,2.4h0.1c0.7-1.4,2.4-2.8,4.9-2.8c2,0,5.2,1.2,5.2,6.3v8.8h-2.7
			v-8.5c0-2.4-0.9-4.3-3.4-4.3c-1.8,0-3.1,1.2-3.6,2.7c-0.1,0.3-0.2,0.8-0.2,1.2v8.9h-2.7V11.9z"/>
		<path fill="#3C6197" d="M151.1,13.9L151.1,13.9c0-0.3,0-0.8-0.1-1.1c-0.4-1.7-1.9-3.1-3.9-3.1c-2.8,0-4.4,2.4-4.4,5.7
			c0,3,1.5,5.5,4.4,5.5c1.8,0,3.4-1.2,3.9-3.2c0.1-0.4,0.1-0.7,0.1-1.2V13.9z M153.8,1v17.8c0,1.3,0,2.8,0.1,3.8h-2.4l-0.1-2.6h-0.1
			c-0.8,1.6-2.6,2.9-5,2.9c-3.6,0-6.3-3-6.3-7.5c0-4.9,3-7.9,6.6-7.9c2.3,0,3.8,1.1,4.4,2.3h0.1V1H153.8z"/>
		<path fill="#3C6197" d="M159.2,15.3L159.2,15.3c0,3.2,1.9,5.7,4.5,5.7c2.6,0,4.5-2.4,4.5-5.7c0-2.5-1.2-5.7-4.4-5.7
			C160.6,9.6,159.2,12.5,159.2,15.3 M170.9,15.1c0,5.5-3.8,7.8-7.3,7.8c-4,0-7.1-2.9-7.1-7.6c0-4.9,3.2-7.8,7.3-7.8
			C168.1,7.6,170.9,10.6,170.9,15.1z"/>
		<path fill="#3C6197" d="M179.6,1h2.7v9.2h0.1c0.4-0.8,1.1-1.4,1.9-1.9c0.8-0.5,1.7-0.8,2.7-0.8c2,0,5.1,1.2,5.1,6.3v8.8h-2.7v-8.5
			c0-2.4-0.9-4.4-3.4-4.4c-1.7,0-3.1,1.2-3.6,2.7c-0.2,0.4-0.2,0.8-0.2,1.3v8.9h-2.7V1z"/>
		<path fill="#3C6197" d="M197.5,15.3L197.5,15.3c0,3.2,1.9,5.7,4.5,5.7c2.6,0,4.5-2.4,4.5-5.7c0-2.5-1.2-5.7-4.4-5.7
			C198.9,9.6,197.5,12.5,197.5,15.3 M209.2,15.1c0,5.5-3.8,7.8-7.3,7.8c-4,0-7.1-2.9-7.1-7.6c0-4.9,3.2-7.8,7.3-7.8
			C206.3,7.6,209.2,10.6,209.2,15.1z"/>
		<path fill="#3C6197" d="M212.7,7.9l3.2,8.7c0.3,1,0.7,2.1,0.9,3h0.1c0.3-0.9,0.6-2,0.9-3.1l2.9-8.6h2.8l-4,10.5
			c-1.9,5.1-3.2,7.6-5.1,9.2c-1.3,1.2-2.6,1.6-3.3,1.7l-0.7-2.3c0.7-0.2,1.6-0.6,2.3-1.3c0.7-0.6,1.6-1.6,2.3-3
			c0.1-0.3,0.2-0.5,0.2-0.6c0-0.2-0.1-0.4-0.2-0.7l-5.5-13.6H212.7z"/>
		<rect x="0.7" y="30.1" fill="#3C6197" width="4" height="22.7"/>
		<path fill="#3C6197" d="M14.8,45.1L14.8,45.1C12,45.1,9.3,45.7,9.3,48c0,1.5,1,2.2,2.3,2.2c1.6,0,2.7-1,3.1-2.1
			c0.1-0.3,0.1-0.6,0.1-0.9V45.1z M15.3,52.7L15,51h-0.1c-1,1.2-2.6,2.1-4.7,2.1c-3.2,0-4.9-2.3-4.9-4.6c0-3.9,3.5-5.9,9.3-5.9v-0.3
			c0-1-0.4-2.7-3.2-2.7c-1.6,0-3.2,0.5-4.2,1.2l-0.8-2.6c1.2-0.7,3.2-1.4,5.7-1.4c5,0,6.5,3.2,6.5,6.5V49c0,1.4,0.1,2.8,0.2,3.7
			H15.3z"/>
		<path fill="#3C6197" d="M96.4,43.7L96.4,43.7c0-0.3,0-0.7-0.1-1c-0.4-1.5-1.6-2.8-3.4-2.8c-2.6,0-4,2.2-4,5.1
			c0,2.8,1.4,4.9,3.9,4.9c1.6,0,3-1.1,3.4-2.8c0.1-0.4,0.1-0.7,0.1-1.1V43.7z M100.3,30.1v18.3c0,1.6,0.1,3.3,0.1,4.4h-3.6l-0.2-2.5
			h-0.1c-0.9,1.7-2.8,2.8-5.1,2.8c-3.8,0-6.7-3.2-6.7-7.9c0-5.2,3.3-8.3,7-8.3c2.2,0,3.7,0.9,4.4,2h0.1v-8.8H100.3z"/>
		<path fill="#3C6197" d="M111.7,43.3L111.7,43.3c0-1.4-0.6-3.8-3.3-3.8c-2.5,0-3.5,2.2-3.6,3.8H111.7z M104.8,46
			c0.1,2.8,2.3,4,4.8,4c1.8,0,3.2-0.3,4.4-0.7l0.6,2.7c-1.4,0.5-3.2,1-5.5,1c-5.1,0-8.1-3.1-8.1-7.9c0-4.3,2.6-8.4,7.7-8.4
			c5.1,0,6.8,4.1,6.8,7.6c0,0.7-0.1,1.3-0.1,1.7H104.8z"/>
		<rect x="116.1" y="30.1" fill="#3C6197" width="4" height="22.7"/>
		<path fill="#3C6197" d="M125.9,41.8c0-1.8,0-3.3-0.1-4.6h3.4l0.2,2.3h0.1c0.8-1.2,2.2-2.7,4.8-2.7c2.1,0,3.7,1.1,4.4,2.9h0.1
			c0.6-0.9,1.2-1.5,1.9-1.9c0.9-0.6,1.9-0.9,3.2-0.9c2.6,0,5.3,1.8,5.3,6.7v9.2h-3.9v-8.6c0-2.6-0.9-4.1-2.8-4.1
			c-1.4,0-2.4,1-2.8,2.1c-0.1,0.4-0.2,0.9-0.2,1.3v9.3h-3.9v-9c0-2.2-0.9-3.7-2.7-3.7c-1.5,0-2.5,1.1-2.8,2.2
			c-0.2,0.4-0.2,0.8-0.2,1.3v9.2h-3.9V41.8z"/>
		<path fill="#3C6197" d="M159.1,45.1L159.1,45.1c-2.8-0.1-5.5,0.5-5.5,2.9c0,1.5,1,2.2,2.3,2.2c1.6,0,2.7-1,3.1-2.1
			c0.1-0.3,0.1-0.6,0.1-0.9V45.1z M159.6,52.7l-0.3-1.7h-0.1c-1,1.2-2.6,2.1-4.6,2.1c-3.2,0-4.9-2.3-4.9-4.6c0-3.9,3.5-5.9,9.3-5.9
			v-0.3c0-1-0.4-2.7-3.2-2.7c-1.5,0-3.2,0.5-4.2,1.2l-0.8-2.6c1.2-0.7,3.2-1.4,5.7-1.4c5,0,6.5,3.2,6.5,6.5V49
			c0,1.4,0.1,2.8,0.2,3.7H159.6z"/>
		<path fill="#3C6197" d="M167.3,34.8L167.3,34.8c-0.1-2.4,0.9-3.8,2.5-3.8c0.8,0,1.4,0.3,2.1,0.7c0.5,0.3,1,0.6,1.4,0.6
			c0.5,0,0.8-0.3,0.9-1.4h1.9c0.1,2.6-0.8,3.7-2.4,3.7c-0.8,0-1.5-0.3-2.1-0.7c-0.6-0.3-0.9-0.5-1.3-0.5c-0.5,0-0.8,0.5-0.8,1.4
			H167.3z M164.6,41.8c0-1.8,0-3.3-0.1-4.6h3.5l0.2,2.3h0.1c0.7-1.2,2.4-2.7,5-2.7c2.7,0,5.6,1.8,5.6,6.7v9.2h-4v-8.8
			c0-2.2-0.8-3.9-3-3.9c-1.6,0-2.7,1.1-3.1,2.3c-0.1,0.3-0.2,0.8-0.2,1.3v9.1h-4V41.8z"/>
		<path fill="#3C6197" d="M188.8,45.1L188.8,45.1c-2.8-0.1-5.5,0.5-5.5,2.9c0,1.5,1,2.2,2.3,2.2c1.6,0,2.7-1,3.1-2.1
			c0.1-0.3,0.1-0.6,0.1-0.9V45.1z M189.3,52.7L189,51h-0.1c-1,1.2-2.6,2.1-4.7,2.1c-3.2,0-4.9-2.3-4.9-4.6c0-3.9,3.5-5.9,9.3-5.9
			v-0.3c0-1-0.4-2.7-3.2-2.7c-1.6,0-3.2,0.5-4.2,1.2l-0.8-2.6c1.2-0.7,3.2-1.4,5.7-1.4c5,0,6.5,3.2,6.5,6.5V49
			c0,1.4,0.1,2.8,0.2,3.7H189.3z"/>
		<path fill="#3C6197" d="M194.3,41.8c0-1.8,0-3.3-0.1-4.6h3.5l0.2,2.3h0.1c0.7-1.2,2.4-2.7,5-2.7c2.7,0,5.6,1.8,5.6,6.7v9.2h-4
			v-8.8c0-2.2-0.8-3.9-3-3.9c-1.6,0-2.7,1.1-3.1,2.3c-0.1,0.3-0.2,0.8-0.2,1.3v9.1h-4V41.8z"/>
		<path fill="#3C6197" d="M218.5,45.1L218.5,45.1c-2.8-0.1-5.5,0.5-5.5,2.9c0,1.5,1,2.2,2.3,2.2c1.6,0,2.8-1,3.1-2.1
			c0.1-0.3,0.1-0.6,0.1-0.9V45.1z M219,52.7l-0.3-1.7h-0.1c-1,1.2-2.6,2.1-4.7,2.1c-3.2,0-4.9-2.3-4.9-4.6c0-3.9,3.5-5.9,9.3-5.9
			v-0.3c0-1-0.4-2.7-3.2-2.7c-1.5,0-3.2,0.5-4.2,1.2l-0.8-2.6c1.2-0.7,3.2-1.4,5.7-1.4c5,0,6.5,3.2,6.5,6.5V49
			c0,1.4,0.1,2.8,0.2,3.7H219z"/>
		<g>
			<defs>
				<path id="SVGID_1035_" d="M44.5,47.6c-0.8,0.5-1.7,0.9-2.6,1.2c-0.9,0.3-2,0.5-3.2,0.5c-2.2,0-3.9-0.7-5.2-2
					c-1.2-1.3-1.9-3.1-1.9-5.3c0-1.3,0.2-2.6,0.7-3.7c0.5-1.1,1.3-2,2.3-2.7c0,0,0,0-0.1,0.1c-1.2-1.4-2.2-2.6-3-3.8
					c-1.8,1.1-3.2,2.4-4.1,4.2c-1,1.8-1.6,3.8-1.6,6.1c0,2.3,0.5,4.3,1.4,6c0.9,1.7,2.3,3.1,4.1,4.1c1.8,1,4,1.5,6.7,1.5
					c1.2,0,2.5-0.1,3.8-0.4c1.3-0.3,2.7-0.8,4.1-1.6L44.5,47.6z"/>
			</defs>
			<clipPath id="SVGID_2_">
				<use xlink:href="#SVGID_1035_"  overflow="visible"/>
			</clipPath>
			<linearGradient id="SVGID_3_" gradientUnits="userSpaceOnUse" x1="15.5684" y1="38.7793" x2="51.8524" y2="45.9723">
				<stop  offset="0" style="stop-color:#6CB8E9"/>
				<stop  offset="0.33" style="stop-color:#6AAFE3"/>
				<stop  offset="0.66" style="stop-color:#67A6DC"/>
				<stop  offset="1" style="stop-color:#67A6DC"/>
			</linearGradient>
			<rect x="25.9" y="31.9" clip-path="url(#SVGID_2_)" fill="url(#SVGID_3_)" width="20.1" height="21.9"/>
		</g>
		<g>
			<defs>
				<path id="SVGID_1038_" d="M38.8,34.5c1.1,0,2.1,0.1,3.2,0.4c1,0.3,2,0.6,3,1.2v-4.9c-0.8-0.3-1.7-0.6-2.8-0.8
					c-1.1-0.2-2.2-0.3-3.5-0.3c-2.6,0-4.9,0.6-6.8,1.6c-0.1,0-0.2,0.1-0.2,0.2c0.8,1.1,1.8,2.4,3,3.8c0,0,0.1,0,0.1-0.1
					C35.8,34.9,37.1,34.5,38.8,34.5"/>
			</defs>
			<clipPath id="SVGID_4_">
				<use xlink:href="#SVGID_1038_"  overflow="visible"/>
			</clipPath>
			<linearGradient id="SVGID_6_" gradientUnits="userSpaceOnUse" x1="4.7206" y1="18.4356" x2="63.5743" y2="44.0862">
				<stop  offset="0" style="stop-color:#F2D733"/>
				<stop  offset="0.13" style="stop-color:#EEC934"/>
				<stop  offset="0.27" style="stop-color:#ECBA34"/>
				<stop  offset="0.36" style="stop-color:#EFC934"/>
				<stop  offset="0.46" style="stop-color:#F2D733"/>
				<stop  offset="0.76" style="stop-color:#F2D733"/>
				<stop  offset="1" style="stop-color:#F2D733"/>
			</linearGradient>
			<rect x="31.6" y="30.1" clip-path="url(#SVGID_4_)" fill="url(#SVGID_6_)" width="13.3" height="6"/>
		</g>
		<g>
			<defs>
				<path id="SVGID_1041_" d="M60.3,39.2c-0.1-0.2-0.2-0.4-0.3-0.5c-0.2-0.2-0.4-0.5-0.6-0.7c-1.1-1.1-3-1.6-5.5-1.6
					c-1.3,0-2.5,0.1-3.7,0.4c-1.1,0.3-2.2,0.7-3.2,1.2l1.6,3.3c0.6-0.3,1.3-0.6,2-0.7c0.7-0.2,1.5-0.3,2.2-0.3
					c0.9,0,1.6,0.2,2.1,0.5c0.1,0.1,0.2,0.2,0.3,0.3c0.1,0.1,0.2,0.2,0.2,0.3C57.6,41.1,59,40.3,60.3,39.2"/>
			</defs>
			<clipPath id="SVGID_8_">
				<use xlink:href="#SVGID_1041_"  overflow="visible"/>
			</clipPath>
			<linearGradient id="SVGID_9_" gradientUnits="userSpaceOnUse" x1="11.7842" y1="17.1504" x2="64.5242" y2="44.4773">
				<stop  offset="0" style="stop-color:#F2D733"/>
				<stop  offset="0.13" style="stop-color:#EEC934"/>
				<stop  offset="0.27" style="stop-color:#ECBA34"/>
				<stop  offset="0.36" style="stop-color:#EFC934"/>
				<stop  offset="0.46" style="stop-color:#F2D733"/>
				<stop  offset="0.76" style="stop-color:#F2D733"/>
				<stop  offset="1" style="stop-color:#F2D733"/>
			</linearGradient>
			<rect x="47.1" y="36.4" clip-path="url(#SVGID_8_)" fill="url(#SVGID_9_)" width="13.3" height="5"/>
		</g>
		<g>
			<defs>
				<path id="SVGID_1044_" d="M61.2,51.8c0-0.6,0-1.1,0-1.7v-7.4c0-0.2,0-0.3,0-0.4c-0.1,0-0.1,0-0.2,0c-2.9,0.8-4.8,1.6-7.6,3.8
					c0.2,0,0.5-0.1,0.7-0.1l1.8-0.1v3.1c-0.2,0.1-0.5,0.3-0.9,0.4c-0.4,0.1-0.9,0.2-1.5,0.2c-0.6,0-1.1-0.1-1.5-0.4
					c-0.3-0.2-0.4-0.5-0.5-0.8c-0.9,1.5-2,2.9-3.2,4.2c0.9,0.7,2.1,1.1,3.5,1.1c1,0,1.9-0.2,2.7-0.5c0.8-0.3,1.4-0.7,2-1.2l0.7,1.4
					h4.3C61.3,52.9,61.2,52.3,61.2,51.8"/>
			</defs>
			<clipPath id="SVGID_11_">
				<use xlink:href="#SVGID_1044_"  overflow="visible"/>
			</clipPath>
			<linearGradient id="SVGID_12_" gradientUnits="userSpaceOnUse" x1="42.1259" y1="66.8742" x2="64.4584" y2="33.6232">
				<stop  offset="0" style="stop-color:#CB205D"/>
				<stop  offset="0.44" style="stop-color:#8D2143"/>
				<stop  offset="0.53" style="stop-color:#8D2143"/>
				<stop  offset="0.59" style="stop-color:#A8204F"/>
				<stop  offset="0.66" style="stop-color:#CB205D"/>
				<stop  offset="1" style="stop-color:#CB205D"/>
			</linearGradient>
			<rect x="48.2" y="42.2" clip-path="url(#SVGID_11_)" fill="url(#SVGID_12_)" width="13.2" height="11.5"/>
		</g>
		<g>
			<defs>
				<path id="SVGID_1047_" d="M46.8,51.1c-0.1-0.1-0.2-0.3-0.2-0.4C46.6,50.8,46.7,50.9,46.8,51.1"/>
			</defs>
			<clipPath id="SVGID_14_">
				<use xlink:href="#SVGID_1047_"  overflow="visible"/>
			</clipPath>
			<linearGradient id="SVGID_15_" gradientUnits="userSpaceOnUse" x1="46.3144" y1="50.8029" x2="47.1286" y2="50.9182">
				<stop  offset="0" style="stop-color:#365FA8"/>
				<stop  offset="1" style="stop-color:#67AADF"/>
			</linearGradient>
			<rect x="46.6" y="50.6" clip-path="url(#SVGID_14_)" fill="url(#SVGID_15_)" width="0.2" height="0.4"/>
		</g>
		<g>
			<defs>
				<path id="SVGID_1050_" d="M46.1,48.3c0,0.4,0,0.7,0.1,1C46.1,49,46.1,48.6,46.1,48.3"/>
			</defs>
			<clipPath id="SVGID_17_">
				<use xlink:href="#SVGID_1050_"  overflow="visible"/>
			</clipPath>
			<linearGradient id="SVGID_18_" gradientUnits="userSpaceOnUse" x1="45.8663" y1="48.7627" x2="46.3953" y2="48.8305">
				<stop  offset="0" style="stop-color:#365FA8"/>
				<stop  offset="1" style="stop-color:#67AADF"/>
			</linearGradient>
			<rect x="46.1" y="48.3" clip-path="url(#SVGID_17_)" fill="url(#SVGID_18_)" width="0.1" height="1"/>
		</g>
		<g>
			<defs>
				<path id="SVGID_1053_" d="M51.4,47.7c0-0.1,0-0.2,0.1-0.4C51.4,47.5,51.4,47.6,51.4,47.7"/>
			</defs>
			<clipPath id="SVGID_20_">
				<use xlink:href="#SVGID_1053_"  overflow="visible"/>
			</clipPath>
			<linearGradient id="SVGID_21_" gradientUnits="userSpaceOnUse" x1="51.2739" y1="47.5434" x2="51.5266" y2="47.5707">
				<stop  offset="0" style="stop-color:#365FA8"/>
				<stop  offset="1" style="stop-color:#67AADF"/>
			</linearGradient>
			<rect x="51.4" y="47.4" clip-path="url(#SVGID_20_)" fill="url(#SVGID_21_)" width="0.1" height="0.4"/>
		</g>
		<g>
			<defs>
				<path id="SVGID_1056_" d="M60.3,39.2c-1.3,1.1-2.8,1.8-4.8,2.2c0.2,0.3,0.3,0.6,0.3,1.1v0.2l-2.6,0.1l0.5,0
					c-0.2,1.2-0.6,2.4-1.2,3.5c0.1,0,0.2-0.1,0.4-0.1c0.1,0,0.3,0,0.4-0.1c2.8-2.3,4.8-3.1,7.6-3.8c0.1,0,0.1,0,0.2,0
					c0,0.2,0,0.3,0,0.4C61.1,41.3,60.9,40.2,60.3,39.2"/>
			</defs>
			<clipPath id="SVGID_23_">
				<use xlink:href="#SVGID_1056_"  overflow="visible"/>
			</clipPath>
			<linearGradient id="SVGID_24_" gradientUnits="userSpaceOnUse" x1="44.7976" y1="40.9137" x2="71.0531" y2="44.8972">
				<stop  offset="0" style="stop-color:#365FA8"/>
				<stop  offset="1" style="stop-color:#67AADF"/>
			</linearGradient>
			<rect x="52.6" y="39.2" clip-path="url(#SVGID_23_)" fill="url(#SVGID_24_)" width="8.6" height="7.1"/>
		</g>
		<g>
			<defs>
				<path id="SVGID_1059_" d="M46.3,49.7c0,0.2,0.1,0.4,0.2,0.6C46.4,50.1,46.3,49.9,46.3,49.7"/>
			</defs>
			<clipPath id="SVGID_26_">
				<use xlink:href="#SVGID_1059_"  overflow="visible"/>
			</clipPath>
			<linearGradient id="SVGID_27_" gradientUnits="userSpaceOnUse" x1="46.0225" y1="49.9096" x2="46.6875" y2="50.0046">
				<stop  offset="0" style="stop-color:#365FA8"/>
				<stop  offset="1" style="stop-color:#67AADF"/>
			</linearGradient>
			<rect x="46.3" y="49.7" clip-path="url(#SVGID_26_)" fill="url(#SVGID_27_)" width="0.2" height="0.6"/>
		</g>
		<g>
			<defs>
				<path id="SVGID_1062_" d="M51.4,47.9c0-0.3,0.1-0.6,0.2-0.9c0.1-0.2,0.3-0.4,0.6-0.6c0.1-0.1,0.3-0.2,0.5-0.2
					c0.5-1.2,0.9-2.4,1.2-3.5l-0.5,0c-0.8,0-1.6,0.1-2.4,0.3c-0.7,0.2-1.4,0.4-2,0.7c-0.9,0.5-1.5,1-2,1.8c-0.5,0.7-0.7,1.6-0.7,2.8
					c0,1.6,0.6,2.9,1.6,3.9c0.2,0.2,0.4,0.3,0.6,0.4c1.2-1.3,2.3-2.7,3.2-4.2C51.4,48.3,51.4,48.1,51.4,47.9"/>
			</defs>
			<clipPath id="SVGID_29_">
				<use xlink:href="#SVGID_1062_"  overflow="visible"/>
			</clipPath>
			<linearGradient id="SVGID_30_" gradientUnits="userSpaceOnUse" x1="0.8253" y1="42.2446" x2="58.6275" y2="48.6437">
				<stop  offset="0" style="stop-color:#6CB8E9"/>
				<stop  offset="0.33" style="stop-color:#6AAFE3"/>
				<stop  offset="0.66" style="stop-color:#67A6DC"/>
				<stop  offset="1" style="stop-color:#67A6DC"/>
			</linearGradient>
			<rect x="46.1" y="42.7" clip-path="url(#SVGID_29_)" fill="url(#SVGID_30_)" width="7.7" height="9.9"/>
		</g>
		<g>
			<defs>
				<path id="SVGID_1065_" d="M63,36.2l4.9,4.7V29.2c-0.4,0.4-0.8,1-1.1,1.5C65.2,32.9,64.1,34.7,63,36.2"/>
			</defs>
			<clipPath id="SVGID_32_">
				<use xlink:href="#SVGID_1065_"  overflow="visible"/>
			</clipPath>
			<linearGradient id="SVGID_33_" gradientUnits="userSpaceOnUse" x1="52.3603" y1="35.0355" x2="94.4328" y2="35.0355">
				<stop  offset="0" style="stop-color:#B8CF62"/>
				<stop  offset="0.31" style="stop-color:#B8CD62"/>
				<stop  offset="0.66" style="stop-color:#B7CB62"/>
				<stop  offset="1" style="stop-color:#B7CB62"/>
			</linearGradient>
			<rect x="63" y="29.2" clip-path="url(#SVGID_32_)" fill="url(#SVGID_33_)" width="4.9" height="11.8"/>
		</g>
		<g>
			<defs>
				<path id="SVGID_1068_" d="M63.8,52.5c0.8,0.7,2,1.1,3.7,1.1c0.5,0,1.1-0.1,1.8-0.2c0.6-0.1,1.3-0.3,1.9-0.5l-1-4.1
					c-0.2,0.1-0.4,0.1-0.6,0.1c-0.2,0-0.3,0-0.4,0c-0.4,0-0.7-0.1-0.9-0.3c-0.2-0.2-0.3-0.5-0.3-1v-6.4c-1.6,0-3.5,0.2-5.3,0.5v7.2
					C62.6,50.6,63,51.8,63.8,52.5"/>
			</defs>
			<clipPath id="SVGID_35_">
				<use xlink:href="#SVGID_1068_"  overflow="visible"/>
			</clipPath>
			<linearGradient id="SVGID_36_" gradientUnits="userSpaceOnUse" x1="39.0881" y1="72.5274" x2="76.1052" y2="39.1407">
				<stop  offset="0" style="stop-color:#CB205D"/>
				<stop  offset="0.44" style="stop-color:#8D2143"/>
				<stop  offset="0.53" style="stop-color:#8D2143"/>
				<stop  offset="0.59" style="stop-color:#A8204F"/>
				<stop  offset="0.66" style="stop-color:#CB205D"/>
				<stop  offset="1" style="stop-color:#CB205D"/>
			</linearGradient>
			<rect x="62.6" y="41.3" clip-path="url(#SVGID_35_)" fill="url(#SVGID_36_)" width="8.5" height="12.3"/>
		</g>
		<g>
			<defs>
				<path id="SVGID_1071_" d="M62.6,36.8v5.1c1.8-0.4,3.7-0.6,5.3-0.5v-0.4L63,36.2C62.8,36.4,62.7,36.6,62.6,36.8"/>
			</defs>
			<clipPath id="SVGID_38_">
				<use xlink:href="#SVGID_1071_"  overflow="visible"/>
			</clipPath>
			<linearGradient id="SVGID_39_" gradientUnits="userSpaceOnUse" x1="54.401" y1="36.7373" x2="68.6317" y2="39.7979">
				<stop  offset="0" style="stop-color:#365FA8"/>
				<stop  offset="1" style="stop-color:#67AADF"/>
			</linearGradient>
			<rect x="62.6" y="36.2" clip-path="url(#SVGID_38_)" fill="url(#SVGID_39_)" width="5.3" height="5.7"/>
		</g>
		<g>
			<defs>
				<path id="SVGID_1074_" d="M67.9,29.2v-0.6h-5.3v8.2c1.2-1.6,2.5-3.6,4.1-6.1C67.1,30.1,67.5,29.6,67.9,29.2"/>
			</defs>
			<clipPath id="SVGID_41_">
				<use xlink:href="#SVGID_1074_"  overflow="visible"/>
			</clipPath>
			<linearGradient id="SVGID_42_" gradientUnits="userSpaceOnUse" x1="61.4991" y1="31.0011" x2="68.9546" y2="34.3079">
				<stop  offset="0" style="stop-color:#F2D733"/>
				<stop  offset="0.13" style="stop-color:#EEC934"/>
				<stop  offset="0.27" style="stop-color:#ECBA34"/>
				<stop  offset="0.36" style="stop-color:#EFC934"/>
				<stop  offset="0.46" style="stop-color:#F2D733"/>
				<stop  offset="0.76" style="stop-color:#F2D733"/>
				<stop  offset="1" style="stop-color:#F2D733"/>
			</linearGradient>
			<rect x="62.6" y="28.6" clip-path="url(#SVGID_41_)" fill="url(#SVGID_42_)" width="5.3" height="8.2"/>
		</g>
		<g>
			<defs>
				<path id="SVGID_1077_" d="M74.6,28.8c-0.9,0-1.7,0.3-2.2,0.9c-0.6,0.6-0.9,1.3-0.9,2.1c0,0.9,0.3,1.6,0.9,2.2
					c0.6,0.6,1.3,0.9,2.2,0.9c0.9,0,1.7-0.3,2.2-0.9c0.6-0.6,0.9-1.3,0.9-2.1c0-0.9-0.3-1.6-0.9-2.2C76.3,29.1,75.6,28.8,74.6,28.8"
					/>
			</defs>
			<clipPath id="SVGID_44_">
				<use xlink:href="#SVGID_1077_"  overflow="visible"/>
			</clipPath>
			<linearGradient id="SVGID_45_" gradientUnits="userSpaceOnUse" x1="51.2134" y1="31.79" x2="96.4146" y2="31.79">
				<stop  offset="0" style="stop-color:#B8CF62"/>
				<stop  offset="0.31" style="stop-color:#B8CD62"/>
				<stop  offset="0.66" style="stop-color:#B7CB62"/>
				<stop  offset="1" style="stop-color:#B7CB62"/>
			</linearGradient>
			<rect x="71.5" y="28.8" clip-path="url(#SVGID_44_)" fill="url(#SVGID_45_)" width="6.3" height="6.1"/>
		</g>
		<g>
			<defs>
				<path id="SVGID_1080_" d="M72,36.8v5.3c1.4,0.2,3.4,0.2,5.3,1.4v-6.8H72z"/>
			</defs>
			<clipPath id="SVGID_47_">
				<use xlink:href="#SVGID_1080_"  overflow="visible"/>
			</clipPath>
			<linearGradient id="SVGID_48_" gradientUnits="userSpaceOnUse" x1="71.9837" y1="40.1644" x2="77.2677" y2="40.1644">
				<stop  offset="0" style="stop-color:#B8CF62"/>
				<stop  offset="0.31" style="stop-color:#B8CD62"/>
				<stop  offset="0.66" style="stop-color:#B7CB62"/>
				<stop  offset="1" style="stop-color:#B7CB62"/>
			</linearGradient>
			<rect x="72" y="36.8" clip-path="url(#SVGID_47_)" fill="url(#SVGID_48_)" width="5.3" height="6.8"/>
		</g>
		<g>
			<defs>
				<path id="SVGID_1083_" d="M77.3,53.4v-9.8c-1.9-1.3-3.8-1.2-5.3-1.4v11.2H77.3z"/>
			</defs>
			<clipPath id="SVGID_50_">
				<use xlink:href="#SVGID_1083_"  overflow="visible"/>
			</clipPath>
			<linearGradient id="SVGID_51_" gradientUnits="userSpaceOnUse" x1="52.1263" y1="64.5223" x2="79.3444" y2="44.219">
				<stop  offset="0" style="stop-color:#CB205D"/>
				<stop  offset="0.44" style="stop-color:#8D2143"/>
				<stop  offset="0.53" style="stop-color:#8D2143"/>
				<stop  offset="0.59" style="stop-color:#A8204F"/>
				<stop  offset="0.66" style="stop-color:#CB205D"/>
				<stop  offset="1" style="stop-color:#CB205D"/>
			</linearGradient>
			<rect x="72" y="42.1" clip-path="url(#SVGID_50_)" fill="url(#SVGID_51_)" width="5.3" height="11.2"/>
		</g>
		<g>
			<defs>
				<rect id="SVGID_1086_" x="0" y="60.4" width="222.4" height="15.5"/>
			</defs>
			<clipPath id="SVGID_53_">
				<use xlink:href="#SVGID_1086_"  overflow="visible"/>
			</clipPath>
			<linearGradient id="SVGID_54_" gradientUnits="userSpaceOnUse" x1="9.909912e-006" y1="68.1588" x2="222.3518" y2="68.1588">
				<stop  offset="0" style="stop-color:#365FA8"/>
				<stop  offset="1" style="stop-color:#67AADF"/>
			</linearGradient>
			<rect x="0" y="60.4" clip-path="url(#SVGID_53_)" fill="url(#SVGID_54_)" width="222.4" height="15.5"/>
		</g>
		<path fill="#FFFFFF" d="M53.8,68.9L53.8,68.9l-0.4-1.4c-0.1-0.3-0.2-0.7-0.3-1h0c-0.1,0.3-0.2,0.7-0.3,1l-0.4,1.4H53.8z
			 M52.2,69.7l-0.5,1.6h-1l1.8-5.6h1.3l1.8,5.6h-1.1L54,69.7H52.2z"/>
		<polygon fill="#FFFFFF" points="60.1,65.7 61.1,65.7 61.1,70.4 63.4,70.4 63.4,71.3 60.1,71.3 		"/>
		<path fill="#FFFFFF" d="M71.7,71.1c-0.2,0.1-0.8,0.3-1.4,0.3c-1.8,0-2.8-1.1-2.8-2.8c0-1.8,1.3-2.9,3-2.9c0.7,0,1.2,0.1,1.4,0.3
			l-0.2,0.8c-0.3-0.1-0.6-0.2-1.1-0.2c-1.1,0-1.9,0.7-1.9,2c0,1.2,0.7,2,1.9,2c0.4,0,0.8-0.1,1.1-0.2L71.7,71.1z"/>
		<path fill="#FFFFFF" d="M79.1,68.9L79.1,68.9l-0.4-1.4c-0.1-0.3-0.2-0.7-0.3-1h0c-0.1,0.3-0.2,0.7-0.3,1l-0.4,1.4H79.1z
			 M77.5,69.7L77,71.3H76l1.8-5.6h1.3l1.8,5.6h-1.1l-0.5-1.6H77.5z"/>
		<polygon fill="#FFFFFF" points="85.5,65.7 86.5,65.7 86.5,70.4 88.8,70.4 88.8,71.3 85.5,71.3 		"/>
		<path fill="#FFFFFF" d="M94.3,70.5L94.3,70.5c0.1,0,0.3,0,0.6,0c1.3,0,2.1-0.7,2.1-2.1c0-1.2-0.7-1.9-2-1.9c-0.3,0-0.6,0-0.7,0.1
			V70.5z M93.3,65.8c0.4-0.1,1-0.1,1.6-0.1c1,0,1.8,0.2,2.3,0.6c0.5,0.4,0.9,1.1,0.9,2c0,1-0.3,1.7-0.9,2.2
			c-0.5,0.5-1.4,0.8-2.5,0.8c-0.6,0-1,0-1.4-0.1V65.8z"/>
		<path fill="#FFFFFF" d="M103.8,65.7L103.8,65.7v5.6h-1v-5.6H103.8z M104.6,64.4l-1,1h-0.8l0.7-1H104.6z"/>
		<path fill="#FFFFFF" d="M111.5,68.9L111.5,68.9l-0.4-1.4c-0.1-0.3-0.2-0.7-0.3-1h0c-0.1,0.3-0.2,0.7-0.3,1l-0.4,1.4H111.5z
			 M109.9,69.7l-0.5,1.6h-1.1l1.8-5.6h1.3l1.8,5.6h-1.1l-0.5-1.6H109.9z"/>
		<path fill="#FFFFFF" d="M124.3,70.5L124.3,70.5c0.1,0,0.3,0,0.6,0c1.3,0,2.1-0.7,2.1-2.1c0-1.2-0.7-1.9-2-1.9
			c-0.3,0-0.6,0-0.7,0.1V70.5z M123.3,65.8c0.5-0.1,1-0.1,1.6-0.1c1,0,1.8,0.2,2.3,0.6c0.5,0.4,0.9,1.1,0.9,2c0,1-0.3,1.7-0.9,2.2
			c-0.6,0.5-1.4,0.8-2.5,0.8c-0.6,0-1,0-1.4-0.1V65.8z"/>
		<polygon fill="#FFFFFF" points="135.9,68.8 133.8,68.8 133.8,70.4 136.1,70.4 136.1,71.3 132.8,71.3 132.8,65.7 136,65.7 
			136,66.5 133.8,66.5 133.8,68 135.9,68 		"/>
		<path fill="#FFFFFF" d="M150.3,71.1c-0.2,0.1-0.8,0.3-1.4,0.3c-1.8,0-2.8-1.1-2.8-2.8c0-1.8,1.3-2.9,3-2.9c0.7,0,1.2,0.1,1.4,0.3
			l-0.2,0.8c-0.3-0.1-0.6-0.2-1.1-0.2c-1.1,0-1.9,0.7-1.9,2c0,1.2,0.7,2,1.9,2c0.4,0,0.8-0.1,1.1-0.2L150.3,71.1z"/>
		<path fill="#FFFFFF" d="M157.7,68.9L157.7,68.9l-0.4-1.4c-0.1-0.3-0.2-0.7-0.3-1h0c-0.1,0.3-0.2,0.7-0.3,1l-0.4,1.4H157.7z
			 M156.1,69.7l-0.5,1.6h-1l1.8-5.6h1.3l1.8,5.6h-1.1l-0.5-1.6H156.1z"/>
		<polygon fill="#FFFFFF" points="164.1,65.7 165.1,65.7 165.1,70.4 167.4,70.4 167.4,71.3 164.1,71.3 		"/>
		<rect x="172" y="65.7" fill="#FFFFFF" width="1" height="5.6"/>
	</g>
</g>
</svg>
