<?xml version="1.0" encoding="utf-8"?>
<!-- Generator: Adobe Illustrator 18.1.1, SVG Export Plug-In . SVG Version: 6.00 Build 0)  -->
<svg version="1.1" id="Capa_1" xmlns="http://www.w3.org/2000/svg" xmlns:xlink="http://www.w3.org/1999/xlink" x="0px" y="0px"
	 viewBox="0 0 426.6 107.8" enable-background="new 0 0 426.6 107.8" xml:space="preserve">
<g opacity="0.65">
	<g>
		<path fill="#EAEAEA" d="M37.4,17.1c0,7.4-2.9,12.2-8.8,14.3l11.7,16.5H27.7L17.4,33.2h-7.1v14.7H0V1.8h17.5
			c7.2,0,12.3,1.2,15.4,3.6C35.9,7.8,37.4,11.7,37.4,17.1z M25,22.6c1.3-1.1,1.9-3,1.9-5.4c0-2.5-0.7-4.2-2-5.1
			c-1.3-0.9-3.6-1.4-6.9-1.4h-7.7v13.7h7.5C21.3,24.3,23.7,23.7,25,22.6z"/>
		<path fill="#EAEAEA" d="M78,1.8V11H55v9.5h20.7v8.8H55v9.6h23.7v9.1h-34V1.8H78z"/>
		<path fill="#EAEAEA" d="M116.4,5.9c3.2,2.8,4.9,7,4.9,12.7s-1.7,9.9-5,12.5c-3.3,2.6-8.4,4-15.2,4h-6.1v12.9H84.6V1.8h16.3
			C108,1.8,113.1,3.2,116.4,5.9z M108.8,24.1c1.2-1.4,1.8-3.4,1.8-6.1c0-2.7-0.8-4.6-2.4-5.7c-1.6-1.1-4.1-1.7-7.5-1.7h-5.9v15.5
			h6.9C105.2,26.1,107.6,25.4,108.8,24.1z"/>
		<path fill="#EAEAEA" d="M138.2,36c1.7,2.1,4,3.2,6.9,3.2c2.9,0,5.2-1.1,6.9-3.2c1.7-2.1,2.5-5.1,2.5-8.7V1.8h10.3v25.8
			c0,6.7-1.8,11.8-5.5,15.4c-3.7,3.6-8.4,5.4-14.2,5.4c-5.8,0-10.5-1.8-14.2-5.4c-3.7-3.6-5.6-8.7-5.6-15.4V1.8h10.3v25.5
			C135.6,31,136.5,33.9,138.2,36z"/>
		<path fill="#EAEAEA" d="M192.5,47.9h-20.2V1.8h18c3.1,0,5.8,0.4,8.1,1.1c2.3,0.7,4,1.8,5.1,3c2.1,2.4,3.1,5.1,3.1,8.1
			c0,3.6-1.2,6.3-3.5,8.1c-0.8,0.6-1.3,1-1.7,1.2c-0.3,0.2-0.9,0.4-1.7,0.8c2.9,0.6,5.1,1.9,6.8,3.9c1.7,2,2.5,4.4,2.5,7.3
			c0,3.2-1.1,6.1-3.3,8.5C203.2,46.5,198.8,47.9,192.5,47.9z M182.6,20.5h4.9c2.9,0,5-0.3,6.4-0.9c1.4-0.6,2.1-1.9,2.1-4
			c0-2-0.6-3.4-1.9-4.1c-1.3-0.7-3.4-1-6.5-1h-5V20.5z M182.6,39.2h7.1c2.9,0,5.2-0.4,6.6-1.1s2.2-2.2,2.2-4.3
			c0-2.1-0.8-3.5-2.3-4.2c-1.6-0.7-4.1-1-7.5-1h-6.1V39.2z"/>
		<path fill="#EAEAEA" d="M214.4,47.9V1.8h10.3v37h19.7v9.2H214.4z"/>
		<path fill="#EAEAEA" d="M248.6,1.8h10.3v46.2h-10.3V1.8z"/>
		<path fill="#EAEAEA" d="M288.2,38.8c5.1,0,9.2-2,12.4-6l6.6,6.8c-5.2,5.9-11.4,8.8-18.5,8.8s-13-2.2-17.6-6.7
			c-4.6-4.5-6.9-10.2-6.9-17c0-6.8,2.3-12.6,7-17.1s10.4-6.9,17.2-6.9c7.6,0,13.9,2.9,19,8.6l-6.4,7.3c-3.3-4-7.3-6.1-12.1-6.1
			c-3.9,0-7.2,1.3-9.9,3.8c-2.8,2.5-4.1,5.9-4.1,10.2s1.3,7.7,3.9,10.3C281.3,37.5,284.5,38.8,288.2,38.8z"/>
		<path fill="#EAEAEA" d="M344.6,47.9l-4.3-10h-19.3l-4.3,10h-11l19.9-46.2h10l19.9,46.2H344.6z M330.6,15.5l-5.8,13.4h11.6
			L330.6,15.5z"/>
	</g>
	<g>
		<path fill="#FFFFFF" d="M355.6,31.2l0.8,0c1.2,0,2.3-0.1,3.3-0.1c2.2,0,3.9,0.5,5.1,1.4c1.2,0.9,1.8,2.3,1.8,4.1
			c0,1.6-0.4,3.2-1.1,4.7c-0.8,1.5-2,2.8-3.6,3.8s-3.8,1.5-6.3,1.5c-0.3,0-0.8,0-1.4,0s-1.3,0-2.1,0c-1.6,0-2.9,0-3.7,0.1l0.1-0.4
			c0.5,0,0.9-0.1,1.1-0.2s0.5-0.3,0.6-0.5c0.2-0.3,0.3-0.7,0.5-1.2l2.9-10.9c0.1-0.4,0.1-0.6,0.1-0.9c0-0.3-0.1-0.6-0.3-0.7
			s-0.6-0.3-1.1-0.3l0.1-0.4C353.3,31.1,354.5,31.2,355.6,31.2z M354.7,45.7c0,0.2,0.1,0.4,0.2,0.5c0.1,0.1,0.4,0.1,0.7,0.1
			c1.3,0,2.4-0.5,3.4-1.6c1-1.1,1.7-2.4,2.2-4c0.5-1.6,0.8-3.2,0.8-4.8c0-2.9-0.9-4.3-2.8-4.3c-0.3,0-0.6,0-0.7,0.1
			c-0.1,0.1-0.2,0.2-0.3,0.4c-0.1,0.2-0.2,0.6-0.4,1.3l-2.9,11C354.8,45,354.7,45.5,354.7,45.7z"/>
		<path fill="#FFFFFF" d="M376.3,31.1c2.1,0,3.6,0,4.6-0.1c-0.4,0.9-0.6,1.8-0.8,2.6c-0.1,0.3-0.2,0.8-0.3,1.4h-0.5
			c0-0.9-0.1-1.5-0.3-2c-0.2-0.5-0.5-0.9-0.9-1.1c-0.4-0.2-0.9-0.3-1.5-0.3h-0.1c-0.5,0-0.9,0-1.1,0.1s-0.5,0.3-0.6,0.5
			c-0.2,0.2-0.3,0.6-0.4,1.2l-1.4,5.2h0.4c0.5,0,0.9-0.1,1.3-0.3c0.4-0.2,0.8-0.5,1.1-0.9c0.3-0.4,0.6-0.8,0.7-1.2h0.5
			c-0.2,0.6-0.3,1.1-0.5,1.6s-0.2,0.9-0.3,1.1c-0.2,0.7-0.4,1.6-0.6,2.7h-0.5c0-0.4-0.1-0.8-0.2-1.1c-0.1-0.4-0.4-0.7-0.7-0.9
			c-0.3-0.3-0.7-0.4-1.3-0.4h-0.2l-1.4,5.3c-0.1,0.5-0.2,0.9-0.2,1.1c0,0.2,0,0.4,0.1,0.5c0.1,0.1,0.2,0.2,0.4,0.2
			c0.2,0,0.5,0.1,0.8,0.1h0.3c0.7,0,1.3-0.1,1.9-0.4s1-0.7,1.5-1.2c0.5-0.6,0.9-1.3,1.4-2.3h0.5c-0.1,0.3-0.3,0.8-0.5,1.6
			c-0.2,0.8-0.4,1.8-0.6,2.8c-1,0-2.7-0.1-5-0.1c-3.4,0-6,0-7.7,0.1l0.1-0.4c0.5,0,0.9-0.1,1.2-0.2c0.3-0.1,0.5-0.3,0.6-0.5
			c0.2-0.3,0.3-0.7,0.5-1.2l2.9-10.9c0.1-0.5,0.2-0.8,0.2-1.1c0-0.2,0-0.4-0.1-0.5c-0.1-0.1-0.2-0.2-0.5-0.2c-0.2,0-0.5-0.1-0.9-0.1
			l0.1-0.4C370.4,31.1,372.9,31.1,376.3,31.1z"/>
		<path fill="#FFFFFF" d="M395.4,43.8c-0.2,0.8-0.4,1.7-0.6,2.8c-1,0-2.7-0.1-5-0.1c-3.5,0-6.1,0-7.7,0.1l0.1-0.4
			c0.5,0,0.9-0.1,1.2-0.2s0.5-0.3,0.6-0.5c0.2-0.3,0.3-0.7,0.5-1.2l2.9-10.9c0.1-0.5,0.2-0.8,0.2-1.1c0-0.2,0-0.4-0.1-0.5
			c-0.1-0.1-0.3-0.2-0.5-0.2s-0.5-0.1-0.9-0.1l0.1-0.4c0.9,0,2.2,0.1,4.2,0.1c1.5,0,2.8,0,3.8-0.1l-0.1,0.4c-0.5,0-0.9,0.1-1.2,0.2
			c-0.3,0.1-0.5,0.3-0.6,0.5c-0.2,0.3-0.3,0.7-0.4,1.2l-2.9,10.9c-0.1,0.5-0.2,0.9-0.2,1.1c0,0.2,0,0.4,0.1,0.5
			c0.1,0.1,0.2,0.2,0.4,0.2c0.2,0,0.5,0.1,0.8,0.1h0.4c0.5,0,1.1-0.1,1.7-0.4c0.6-0.3,1.2-0.7,1.7-1.3s1-1.4,1.4-2.4h0.5
			C395.8,42.4,395.6,43,395.4,43.8z"/>
		<path fill="#FFFFFF" d="M397.7,36.6c0.9-1.7,2.1-3.1,3.7-4.2c1.6-1.1,3.4-1.7,5.4-1.7c1.3,0,2.5,0.2,3.5,0.6c1,0.4,1.7,1,2.2,1.8
			s0.8,1.8,0.8,2.9c0,1.7-0.5,3.3-1.3,5s-2.2,3.1-3.8,4.2c-1.6,1.1-3.4,1.7-5.4,1.7c-1.3,0-2.5-0.2-3.5-0.6c-1-0.4-1.7-1-2.2-1.8
			c-0.5-0.8-0.8-1.7-0.8-2.9C396.4,40,396.8,38.3,397.7,36.6z M404,32.7c-0.9,1.1-1.6,2.4-2.1,4.1c-0.5,1.7-0.8,3.4-0.8,5.1
			c0,0.9,0.1,1.8,0.2,2.5c0.2,0.7,0.4,1.2,0.7,1.6c0.3,0.4,0.6,0.6,1,0.6c0.9,0,1.8-0.5,2.7-1.6s1.6-2.4,2.1-4.1
			c0.5-1.7,0.8-3.4,0.8-5.1c0-0.9-0.1-1.8-0.2-2.5c-0.2-0.7-0.4-1.2-0.7-1.6c-0.3-0.4-0.6-0.6-1-0.6C405.8,31.2,404.9,31.7,404,32.7
			z"/>
		<path fill="#FFFFFF" d="M425.3,35.4h-0.4c0.1-0.4,0.1-0.8,0.1-1.2c0-0.9-0.3-1.6-0.8-2.1c-0.6-0.5-1.3-0.8-2.3-0.8
			c-0.7,0-1.3,0.2-1.7,0.5c-0.4,0.3-0.7,0.9-0.7,1.6c0,1,0.5,2.1,1.6,3.3c1.1,1.2,1.9,2.3,2.5,3c0.6,0.8,0.8,1.7,0.8,2.7
			c0,1-0.3,1.8-1,2.5c-0.7,0.7-1.5,1.2-2.5,1.5c-1,0.3-1.9,0.5-2.9,0.5c-0.7,0-1.4,0-1.8-0.1s-0.9-0.2-1.2-0.3
			c-0.3-0.1-0.7-0.3-1.2-0.6c-0.4-0.2-0.6-0.3-0.8-0.3c-0.1,0-0.2,0-0.3,0.1s-0.2,0.2-0.3,0.3s-0.2,0.4-0.3,0.7h-0.4
			c0.5-1.2,1-2.9,1.5-5.3h0.4c-0.1,0.4-0.2,0.9-0.2,1.5c0,1.1,0.3,2,0.9,2.6c0.6,0.6,1.5,0.9,2.7,0.9c1,0,1.6-0.2,2-0.5
			c0.4-0.4,0.6-0.9,0.6-1.5c0-0.8-0.2-1.6-0.6-2.3c-0.4-0.7-1.1-1.7-2.2-3.1s-1.7-2.7-1.7-3.8c0-1,0.3-1.8,0.9-2.5
			c0.6-0.7,1.3-1.2,2.2-1.5c0.9-0.3,1.8-0.5,2.7-0.5c0.6,0,1.2,0.1,1.7,0.2s0.9,0.2,1.1,0.3c0.2,0.1,0.6,0.3,1.1,0.5
			c0.1,0,0.2,0.1,0.4,0.2c0.2,0.1,0.3,0.1,0.4,0.1c0.1,0,0.2-0.1,0.3-0.3s0.2-0.5,0.4-0.9h0.4C426.1,32.3,425.6,33.8,425.3,35.4z"/>
	</g>
	<g>
		<path fill="#EAEAEA" d="M32.4,60.4v9H11v10h20.3v9H11v18.1H0.7V60.4H32.4z"/>
		<path fill="#EAEAEA" d="M68.2,106.5l-4.3-10H44.5l-4.3,10h-11l19.9-46.2h10l19.9,46.2H68.2z M54.3,74.1l-5.8,13.4H60L54.3,74.1z"
			/>
		<path fill="#EAEAEA" d="M113.5,60.4h10.3v46.2h-10.3l-22-28.9v28.9H81.2V60.4h9.6l22.6,29.7V60.4z"/>
		<path fill="#EAEAEA" d="M151.4,69.3v37.2h-10.3V69.3H128v-8.9h36.4v8.9H151.4z"/>
		<path fill="#EAEAEA" d="M198.2,106.5l-4.3-10h-19.3l-4.3,10h-11l19.9-46.2h10l19.9,46.2H198.2z M184.3,74.1l-5.8,13.4H190
			L184.3,74.1z"/>
		<path fill="#EAEAEA" d="M221.7,69.6c-1,0.8-1.5,1.9-1.5,3.2c0,1.3,0.6,2.4,1.8,3.2c1.2,0.8,4,1.7,8.4,2.8
			c4.4,1.1,7.8,2.7,10.2,4.9c2.4,2.2,3.6,5.3,3.6,9.4c0,4.1-1.6,7.5-4.7,10.1c-3.1,2.6-7.2,3.9-12.2,3.9c-7.3,0-13.9-2.7-19.7-8.1
			l6.1-7.5c5,4.4,9.6,6.5,13.8,6.5c1.9,0,3.4-0.4,4.5-1.2c1.1-0.8,1.6-1.9,1.6-3.3c0-1.4-0.6-2.5-1.7-3.3c-1.1-0.8-3.4-1.6-6.8-2.5
			c-5.4-1.3-9.3-2.9-11.8-5c-2.5-2-3.7-5.3-3.7-9.6c0-4.4,1.6-7.8,4.7-10.1c3.1-2.4,7.1-3.6,11.8-3.6c3.1,0,6.2,0.5,9.2,1.6
			c3.1,1.1,5.8,2.6,8.1,4.5l-5.2,7.5c-4-3-8.1-4.6-12.4-4.6C224,68.4,222.6,68.8,221.7,69.6z"/>
		<path fill="#EAEAEA" d="M291,77.5l-12.5,25.2h-6.1L260,77.5v29.1h-10.3V60.4h13.9l11.9,25.4l12-25.4h13.9v46.2H291V77.5z"/>
		<path fill="#EAEAEA" d="M342.3,106.5l-4.3-10h-19.3l-4.3,10h-11l19.9-46.2h10l19.9,46.2H342.3z M328.3,74.1l-5.8,13.4h11.6
			L328.3,74.1z"/>
		<path fill="#EAEAEA" d="M365.7,69.6c-1,0.8-1.5,1.9-1.5,3.2c0,1.3,0.6,2.4,1.8,3.2c1.2,0.8,4,1.7,8.4,2.8
			c4.4,1.1,7.8,2.7,10.2,4.9c2.4,2.2,3.6,5.3,3.6,9.4c0,4.1-1.6,7.5-4.7,10.1c-3.1,2.6-7.2,3.9-12.2,3.9c-7.3,0-13.9-2.7-19.7-8.1
			l6.1-7.5c5,4.4,9.6,6.5,13.8,6.5c1.9,0,3.4-0.4,4.5-1.2c1.1-0.8,1.6-1.9,1.6-3.3c0-1.4-0.6-2.5-1.7-3.3c-1.1-0.8-3.4-1.6-6.8-2.5
			c-5.4-1.3-9.3-2.9-11.8-5s-3.7-5.3-3.7-9.6c0-4.4,1.6-7.8,4.7-10.1c3.1-2.4,7.1-3.6,11.8-3.6c3.1,0,6.2,0.5,9.2,1.6
			c3.1,1.1,5.8,2.6,8.1,4.5l-5.2,7.5c-4-3-8.1-4.6-12.4-4.6C368.1,68.4,366.7,68.8,365.7,69.6z"/>
	</g>
</g>
</svg>
