<?xml version="1.0" encoding="utf-8"?>
<!-- Generator: Adobe Illustrator 18.1.1, SVG Export Plug-In . SVG Version: 6.00 Build 0)  -->
<svg version="1.1" id="Capa_1" xmlns="http://www.w3.org/2000/svg" xmlns:xlink="http://www.w3.org/1999/xlink" x="0px" y="0px"
	 viewBox="0 0 478.4 24.1" enable-background="new 0 0 478.4 24.1" xml:space="preserve">
<g>
	<line fill="none" stroke="#C1BFB1" stroke-width="2" stroke-miterlimit="10" x1="2.5" y1="12" x2="470.5" y2="12"/>
	<g>
		<polygon fill="#C1BFB1" points="452.4,19.3 452.8,20.4 478.4,12.1 452,3.5 445.1,11.9 452,20.7 452.8,20.4 452.4,19.3 453.4,18.6 
			448.2,11.9 452.8,6.3 470.6,12.1 452.1,18.2 452.4,19.3 453.4,18.6 		"/>
		<polygon fill="#C1BFB1" points="14.1,22.9 14.9,23.8 28.5,12.1 14.5,0 0,0 14,12.1 0,24.1 14.5,24.1 14.9,23.8 14.1,22.9 
			14.1,21.7 6.5,21.7 17.7,12.1 6.5,2.4 13.6,2.4 24.8,12.1 13.3,22 14.1,22.9 14.1,21.7 		"/>
		<path fill="#C1BFB1" d="M126.7,7.6c0,0,0.4,0.6,0.7,1.5c0.3,0.9,0.5,2.1,0.5,3.3c0,1.2-0.2,2.4-0.5,3.3c-0.3,0.9-0.7,1.5-0.7,1.5
			s-0.4-0.6-0.7-1.5c-0.3-0.9-0.5-2.1-0.5-3.3c0-1.2,0.2-2.4,0.5-3.3C126.3,8.2,126.7,7.6,126.7,7.6z"/>
		<path fill="#C1BFB1" d="M131.5,7.6c0,0,0.4,0.6,0.7,1.5c0.3,0.9,0.5,2.1,0.5,3.3c0,1.2-0.2,2.4-0.5,3.3c-0.3,0.9-0.7,1.5-0.7,1.5
			s-0.4-0.6-0.7-1.5c-0.3-0.9-0.5-2.1-0.5-3.3c0-1.2,0.2-2.4,0.5-3.3C131.1,8.2,131.5,7.6,131.5,7.6z"/>
		<path fill="#C1BFB1" d="M136.3,7.6c0,0,0.4,0.6,0.7,1.5c0.3,0.9,0.5,2.1,0.5,3.3c0,1.2-0.2,2.4-0.5,3.3c-0.3,0.9-0.7,1.5-0.7,1.5
			s-0.4-0.6-0.7-1.5c-0.3-0.9-0.5-2.1-0.5-3.3c0-1.2,0.2-2.4,0.5-3.3C135.9,8.2,136.3,7.6,136.3,7.6z"/>
	</g>
</g>
</svg>
