<?xml version="1.0" encoding="utf-8"?>
<!-- Generator: Adobe Illustrator 18.1.1, SVG Export Plug-In . SVG Version: 6.00 Build 0)  -->
<svg version="1.1" id="Capa_1" xmlns="http://www.w3.org/2000/svg" xmlns:xlink="http://www.w3.org/1999/xlink" x="0px" y="0px"
	 viewBox="0 0 1440 206.2" enable-background="new 0 0 1440 206.2" xml:space="preserve">
<g>
	<polygon fill="none" stroke="#C1BFB1" stroke-miterlimit="10" points="1169.9,45.6 1207.4,23.9 1245,45.6 1245,88.9 1207.4,110.6 
		1169.9,88.9 	"/>
</g>
<g>
	<polygon fill="none" stroke="#C1BFB1" stroke-miterlimit="10" points="907.2,45.6 944.7,23.9 982.3,45.6 982.3,88.9 944.7,110.6 
		907.2,88.9 	"/>
</g>
<g>
	<polygon fill="none" stroke="#C1BFB1" stroke-miterlimit="10" points="775.8,121.3 813.4,99.6 851,121.3 851,164.7 813.4,186.4 
		775.8,164.7 	"/>
</g>
<g>
	<polygon fill="none" stroke="#C1BFB1" stroke-miterlimit="10" points="1082.3,45.6 1119.9,23.9 1157.4,45.6 1157.4,88.9 
		1119.9,110.6 1082.3,88.9 	"/>
</g>
<g>
	<polygon fill="none" stroke="#C1BFB1" stroke-miterlimit="10" points="732.1,45.6 769.6,23.9 807.2,45.6 807.2,88.9 769.6,110.6 
		732.1,88.9 	"/>
</g>
<g>
	<polyline fill="none" stroke="#C1BFB1" stroke-miterlimit="10" points="1163.7,186.4 1126.1,164.7 1126.1,121.3 1163.7,99.6 
		1201.2,121.3 	"/>
</g>
<g>
	<polyline fill="none" stroke="#C1BFB1" stroke-miterlimit="10" points="1213.7,164.7 1213.7,121.3 1251.2,99.6 1288.8,121.3 
		1288.8,164.7 	"/>
</g>
<g>
	<polyline fill="none" stroke="#C1BFB1" stroke-miterlimit="10" points="1038.5,121.3 1076.1,99.6 1113.7,121.3 1113.7,164.7 
		1076.1,186.4 	"/>
</g>
<g>
	<polygon fill="none" stroke="#C1BFB1" stroke-miterlimit="10" points="117.7,44.1 155.2,22.4 192.8,44.1 192.8,87.5 155.2,109.2 
		117.7,87.5 	"/>
</g>
</svg>
