<?xml version="1.0" encoding="utf-8"?>
<!-- Generator: Adobe Illustrator 18.1.1, SVG Export Plug-In . SVG Version: 6.00 Build 0)  -->
<svg version="1.1" id="Capa_1" xmlns="http://www.w3.org/2000/svg" xmlns:xlink="http://www.w3.org/1999/xlink" x="0px" y="0px"
	 viewBox="0 0 435 13.7" enable-background="new 0 0 435 13.7" xml:space="preserve">
<g>
	<g>
		<g>
			<path fill="#CDB37C" d="M133.2,7.5l0.7,1.5c0,0.1,0.1,0.1,0.2,0.1l1.6,0.2c0.2,0,0.3,0.3,0.1,0.4l-1.2,1.1
				c-0.1,0.1-0.1,0.1-0.1,0.2l0.3,1.6c0,0.2-0.2,0.3-0.4,0.3l-1.5-0.8c-0.1,0-0.2,0-0.2,0l-1.5,0.8c-0.2,0.1-0.4-0.1-0.4-0.3
				l0.3-1.6c0-0.1,0-0.2-0.1-0.2l-1.2-1.1c-0.1-0.1-0.1-0.4,0.1-0.4l1.6-0.2c0.1,0,0.1-0.1,0.2-0.1l0.7-1.5
				C132.8,7.3,133.1,7.3,133.2,7.5z"/>
			<path fill="#CDB37C" d="M148.8,7.5l0.7,1.5c0,0.1,0.1,0.1,0.2,0.1l1.6,0.2c0.2,0,0.3,0.3,0.1,0.4l-1.2,1.1
				c-0.1,0.1-0.1,0.1-0.1,0.2l0.3,1.6c0,0.2-0.2,0.3-0.4,0.3l-1.5-0.8c-0.1,0-0.2,0-0.2,0L147,13c-0.2,0.1-0.4-0.1-0.4-0.3l0.3-1.6
				c0-0.1,0-0.2-0.1-0.2l-1.2-1.1c-0.1-0.1-0.1-0.4,0.1-0.4l1.6-0.2c0.1,0,0.1-0.1,0.2-0.1l0.7-1.5C148.4,7.3,148.7,7.3,148.8,7.5z"
				/>
			<path fill="#CDB37C" d="M163.5,7.5l0.7,1.5c0,0.1,0.1,0.1,0.2,0.1l1.6,0.2c0.2,0,0.3,0.3,0.1,0.4l-1.2,1.1
				c-0.1,0.1-0.1,0.1-0.1,0.2l0.3,1.6c0,0.2-0.2,0.3-0.4,0.3l-1.5-0.8c-0.1,0-0.2,0-0.2,0l-1.5,0.8c-0.2,0.1-0.4-0.1-0.4-0.3
				l0.3-1.6c0-0.1,0-0.2-0.1-0.2l-1.2-1.1c-0.1-0.1-0.1-0.4,0.1-0.4l1.6-0.2c0.1,0,0.1-0.1,0.2-0.1l0.7-1.5
				C163.1,7.3,163.4,7.3,163.5,7.5z"/>
		</g>
		<g>
			<path fill="#CDB37C" d="M271.6,7.5l0.7,1.5c0,0.1,0.1,0.1,0.2,0.1l1.6,0.2c0.2,0,0.3,0.3,0.1,0.4l-1.2,1.1
				c-0.1,0.1-0.1,0.1-0.1,0.2l0.3,1.6c0,0.2-0.2,0.3-0.4,0.3l-1.5-0.8c-0.1,0-0.2,0-0.2,0l-1.5,0.8c-0.2,0.1-0.4-0.1-0.4-0.3
				l0.3-1.6c0-0.1,0-0.2-0.1-0.2l-1.2-1.1c-0.1-0.1-0.1-0.4,0.1-0.4l1.6-0.2c0.1,0,0.1-0.1,0.2-0.1l0.7-1.5
				C271.2,7.3,271.5,7.3,271.6,7.5z"/>
			<path fill="#CDB37C" d="M287.2,7.5l0.7,1.5c0,0.1,0.1,0.1,0.2,0.1l1.6,0.2c0.2,0,0.3,0.3,0.1,0.4l-1.2,1.1
				c-0.1,0.1-0.1,0.1-0.1,0.2l0.3,1.6c0,0.2-0.2,0.3-0.4,0.3l-1.5-0.8c-0.1,0-0.2,0-0.2,0l-1.5,0.8c-0.2,0.1-0.4-0.1-0.4-0.3
				l0.3-1.6c0-0.1,0-0.2-0.1-0.2l-1.2-1.1c-0.1-0.1-0.1-0.4,0.1-0.4l1.6-0.2c0.1,0,0.1-0.1,0.2-0.1l0.7-1.5
				C286.8,7.3,287.1,7.3,287.2,7.5z"/>
			<path fill="#CDB37C" d="M301.9,7.5l0.7,1.5c0,0.1,0.1,0.1,0.2,0.1l1.6,0.2c0.2,0,0.3,0.3,0.1,0.4l-1.2,1.1
				c-0.1,0.1-0.1,0.1-0.1,0.2l0.3,1.6c0,0.2-0.2,0.3-0.4,0.3l-1.5-0.8c-0.1,0-0.2,0-0.2,0l-1.5,0.8c-0.2,0.1-0.4-0.1-0.4-0.3
				l0.3-1.6c0-0.1,0-0.2-0.1-0.2l-1.2-1.1c-0.1-0.1-0.1-0.4,0.1-0.4l1.6-0.2c0.1,0,0.1-0.1,0.2-0.1l0.7-1.5
				C301.5,7.3,301.8,7.3,301.9,7.5z"/>
		</g>
	</g>
	<g>
		<g>
			<path fill="#6B6B69" d="M207.2,13.3l-2.4-11.4l6.2,3.5l2.4-5.4l4.3,4.6l4-4.6l3.4,5.1l5.1-2.6l-1.8,10.8
				C228.5,13.3,216.1,8.5,207.2,13.3z"/>
			<g>
				<rect x="234.2" y="5.5" fill="#6B6B69" width="13" height="1.2"/>
				<rect x="234.2" y="8.9" fill="#6B6B69" width="18.2" height="1.2"/>
				<rect x="234.2" y="12.4" fill="#6B6B69" width="13" height="1.2"/>
			</g>
			<g>
				<rect x="187.4" y="5.5" fill="#6B6B69" width="13" height="1.2"/>
				<rect x="182.2" y="8.9" fill="#6B6B69" width="18.2" height="1.2"/>
				<rect x="187.4" y="12.4" fill="#6B6B69" width="13" height="1.2"/>
			</g>
		</g>
	</g>
</g>
<g>
	<line fill="none" stroke="#5E615C" stroke-width="2" stroke-miterlimit="10" x1="0" y1="10.3" x2="120" y2="10.3"/>
	<line fill="none" stroke="#5E615C" stroke-width="2" stroke-miterlimit="10" x1="313" y1="10.3" x2="435" y2="10.3"/>
</g>
</svg>
