<?xml version="1.0" encoding="utf-8"?>
<!-- Generator: Adobe Illustrator 18.1.1, SVG Export Plug-In . SVG Version: 6.00 Build 0)  -->
<svg version="1.1" id="Capa_1" xmlns="http://www.w3.org/2000/svg" xmlns:xlink="http://www.w3.org/1999/xlink" x="0px" y="0px"
	 viewBox="0 0 70.4 85.7" enable-background="new 0 0 70.4 85.7" xml:space="preserve">
<g>
	<rect x="1.5" y="1.5" fill="#F9F7F4" width="67.4" height="82.7"/>
	<path fill="#C1BFB1" d="M67.4,3v79.7H3V3H67.4 M70.4,0H0v85.7h70.4V0L70.4,0z"/>
</g>
<g>
	<g>
		<path fill="#C1BFB1" d="M51.6,32.6h-4.9l-4.9-4.9h-9.8L27,32.6H22c0,0-4.9,0-4.9,4.9v14.8c0,4.9,4.9,4.9,4.9,4.9s7,0,14.2,0
			c2,3,5.4,4.9,9.2,4.9c4.8,0,8.8-3,10.4-7.2c0.7-1.3,0.7-2.6,0.7-2.6s0-9.8,0-14.8S51.6,32.6,51.6,32.6z M34.4,51.9
			c-2.9-1-5-3.7-5-7c0-4.1,3.3-7.4,7.4-7.4c2.4,0,4.4,1.1,5.8,2.8c-4.7,1.2-8.2,5.6-8.2,10.7C34.3,51.4,34.4,51.6,34.4,51.9z
			 M45.4,59.6c-4.7,0-8.5-3.8-8.5-8.5c0-4.7,3.8-8.5,8.5-8.5c4.7,0,8.5,3.8,8.5,8.5C53.9,55.8,50.1,59.5,45.4,59.6z"/>
		<polygon fill="#C1BFB1" points="46.6,44.9 44.2,44.9 44.2,49.9 39.3,49.9 39.3,52.3 44.2,52.3 44.2,57.2 46.6,57.2 46.6,52.3 
			51.6,52.3 51.6,49.9 46.6,49.9 		"/>
	</g>
</g>
</svg>
