<?xml version="1.0" encoding="utf-8"?>
<!-- Generator: Adobe Illustrator 18.1.1, SVG Export Plug-In . SVG Version: 6.00 Build 0)  -->
<svg version="1.1" id="Capa_1" xmlns="http://www.w3.org/2000/svg" xmlns:xlink="http://www.w3.org/1999/xlink" x="0px" y="0px"
	 viewBox="0 0 579.6 145.5" enable-background="new 0 0 579.6 145.5" xml:space="preserve">
<g>
	<g>
		<path fill="#83867E" d="M51.2,22.4c0,10.1-4,16.6-12,19.6l16,22.6H37.8l-14-20.1h-9.8v20.1H0V1.4h23.9c9.8,0,16.8,1.7,21,5
			C49.1,9.7,51.2,15.1,51.2,22.4z M34.2,29.9c1.7-1.6,2.6-4,2.6-7.5c0-3.4-0.9-5.7-2.7-7c-1.8-1.3-5-1.9-9.5-1.9H14.1v18.7h10.3
			C29.2,32.2,32.5,31.5,34.2,29.9z"/>
		<path fill="#83867E" d="M106.7,1.4V14H75.2v13h28.3v12H75.2v13.1h32.4v12.5H61.1V1.4H106.7z"/>
		<path fill="#83867E" d="M159.2,7.1c4.4,3.8,6.6,9.5,6.6,17.3c0,7.8-2.3,13.5-6.8,17.1c-4.5,3.6-11.5,5.4-20.8,5.4h-8.4v17.6h-14.1
			V1.4H138C147.7,1.4,154.7,3.3,159.2,7.1z M148.8,31.9c1.7-1.9,2.5-4.7,2.5-8.3c0-3.6-1.1-6.2-3.3-7.8c-2.2-1.5-5.6-2.3-10.3-2.3
			h-8v21.2h9.5C144,34.8,147.1,33.8,148.8,31.9z"/>
		<path fill="#83867E" d="M189,48.3c2.3,2.9,5.5,4.4,9.5,4.4s7.1-1.5,9.4-4.4c2.3-2.9,3.5-6.9,3.5-12V1.4h14.1v35.3
			c0,9.2-2.5,16.2-7.6,21.1c-5.1,4.9-11.5,7.4-19.4,7.4c-7.9,0-14.4-2.5-19.5-7.4c-5.1-4.9-7.6-12-7.6-21V1.4h14.1v34.9
			C185.5,41.4,186.7,45.4,189,48.3z"/>
		<path fill="#83867E" d="M263.3,64.6h-27.6V1.4h24.6c4.3,0,8,0.5,11.1,1.5c3.1,1,5.4,2.4,7,4.2c2.8,3.3,4.2,6.9,4.2,11
			c0,4.9-1.6,8.6-4.8,11c-1.1,0.8-1.8,1.4-2.3,1.6c-0.4,0.2-1.2,0.6-2.3,1c3.9,0.8,7,2.6,9.3,5.3c2.3,2.7,3.5,6,3.5,10
			c0,4.4-1.5,8.3-4.5,11.7C278,62.6,271.9,64.6,263.3,64.6z M249.7,27h6.7c3.9,0,6.8-0.4,8.7-1.3c1.9-0.8,2.8-2.7,2.8-5.5
			c0-2.8-0.9-4.7-2.6-5.6c-1.7-0.9-4.7-1.4-8.9-1.4h-6.8V27z M249.7,52.7h9.7c4,0,7.1-0.5,9.1-1.5c2-1,3-2.9,3-5.9
			c0-2.9-1.1-4.8-3.2-5.8c-2.1-0.9-5.6-1.4-10.3-1.4h-8.3V52.7z"/>
		<path fill="#83867E" d="M293.3,64.6V1.4h14.1V52h26.9v12.6H293.3z"/>
		<path fill="#83867E" d="M340.1,1.4h14.1v63.1h-14.1V1.4z"/>
		<path fill="#83867E" d="M394.2,52.1c6.9,0,12.6-2.7,17-8.2l9,9.3c-7.2,8.1-15.6,12.1-25.3,12.1c-9.7,0-17.7-3.1-24-9.2
			c-6.3-6.1-9.4-13.9-9.4-23.3c0-9.4,3.2-17.2,9.6-23.4c6.4-6.3,14.3-9.4,23.5-9.4c10.4,0,19,3.9,26,11.8l-8.8,9.9
			c-4.5-5.5-10-8.3-16.6-8.3c-5.3,0-9.8,1.7-13.6,5.2c-3.8,3.5-5.6,8.1-5.6,14s1.8,10.6,5.3,14.1C384.8,50.3,389.1,52.1,394.2,52.1z
			"/>
		<path fill="#83867E" d="M471.3,64.6l-5.9-13.6H439l-5.9,13.6h-15l27.3-63.1h13.6l27.3,63.1H471.3z M452.3,20.2l-7.9,18.3h15.8
			L452.3,20.2z"/>
	</g>
	<g>
		<path fill="#5E615C" d="M482.4,41.6l1.1,0c1.7-0.1,3.2-0.1,4.5-0.1c3,0,5.3,0.6,7,1.9s2.5,3.2,2.5,5.6c0,2.2-0.5,4.3-1.6,6.4
			s-2.7,3.9-5,5.2s-5.2,2.1-8.7,2.1c-0.4,0-1.1,0-2,0c-0.9,0-1.8,0-2.8,0c-2.2,0-3.9,0-5.1,0.1l0.1-0.6c0.7,0,1.2-0.1,1.6-0.2
			s0.6-0.4,0.8-0.7c0.2-0.3,0.4-0.9,0.6-1.6l3.9-14.9c0.1-0.5,0.2-0.9,0.2-1.2c0-0.4-0.1-0.8-0.4-1c-0.3-0.2-0.8-0.4-1.5-0.4
			l0.1-0.6C479.3,41.6,480.9,41.6,482.4,41.6z M481.2,61.5c0,0.3,0.1,0.5,0.3,0.6c0.2,0.1,0.5,0.2,1,0.2c1.8,0,3.3-0.7,4.7-2.2
			s2.4-3.3,3.1-5.5c0.7-2.2,1.1-4.4,1.1-6.6c0-3.9-1.3-5.9-3.8-5.9c-0.5,0-0.8,0.1-1,0.2c-0.2,0.1-0.3,0.3-0.4,0.6
			c-0.1,0.3-0.3,0.9-0.5,1.8l-3.9,15.1C481.3,60.6,481.2,61.2,481.2,61.5z"/>
		<path fill="#5E615C" d="M510.8,41.6c2.9,0,5,0,6.2-0.1c-0.5,1.3-0.9,2.5-1.1,3.6c-0.1,0.5-0.2,1.1-0.4,1.9h-0.7
			c0-1.2-0.1-2.1-0.4-2.8s-0.7-1.2-1.2-1.5c-0.5-0.3-1.2-0.4-2.1-0.4h-0.1c-0.7,0-1.2,0.1-1.6,0.2c-0.3,0.1-0.6,0.3-0.8,0.7
			c-0.2,0.3-0.4,0.9-0.6,1.6l-1.9,7.1h0.5c0.6,0,1.2-0.2,1.8-0.5c0.6-0.3,1.1-0.7,1.5-1.2c0.4-0.5,0.8-1.1,1-1.7h0.7
			c-0.3,0.8-0.5,1.5-0.6,2.2c-0.2,0.7-0.3,1.2-0.4,1.5c-0.3,1-0.5,2.2-0.8,3.7h-0.7c0-0.5-0.1-1.1-0.3-1.6s-0.5-0.9-0.9-1.3
			c-0.4-0.3-1-0.5-1.7-0.5H506l-1.9,7.2c-0.2,0.7-0.3,1.2-0.3,1.5c0,0.3,0.1,0.5,0.2,0.6c0.1,0.1,0.3,0.2,0.6,0.3
			c0.3,0.1,0.7,0.1,1.2,0.1h0.4c1,0,1.8-0.2,2.6-0.5c0.7-0.3,1.4-0.9,2.1-1.7c0.6-0.8,1.3-1.8,1.9-3.2h0.7c-0.1,0.4-0.4,1.1-0.6,2.2
			c-0.3,1.1-0.6,2.4-0.8,3.9c-1.4-0.1-3.6-0.1-6.8-0.1c-4.7,0-8.1,0-10.5,0.1l0.1-0.6c0.7,0,1.3-0.1,1.6-0.2
			c0.4-0.1,0.6-0.4,0.9-0.7c0.2-0.3,0.4-0.9,0.6-1.6l4-14.9c0.2-0.6,0.3-1.1,0.3-1.4c0-0.3-0.1-0.5-0.2-0.7s-0.3-0.3-0.6-0.3
			c-0.3-0.1-0.7-0.1-1.2-0.1l0.2-0.6C502.7,41.6,506.1,41.6,510.8,41.6z"/>
		<path fill="#5E615C" d="M536.9,59c-0.3,1.1-0.6,2.3-0.8,3.9c-1.4-0.1-3.6-0.1-6.8-0.1c-4.7,0-8.3,0-10.6,0.1l0.1-0.6
			c0.7,0,1.3-0.1,1.6-0.2c0.4-0.1,0.6-0.4,0.9-0.7c0.2-0.3,0.4-0.9,0.6-1.6l4-14.9c0.2-0.6,0.3-1.1,0.3-1.4c0-0.3-0.1-0.5-0.2-0.7
			s-0.3-0.3-0.6-0.3c-0.3-0.1-0.7-0.1-1.2-0.1l0.2-0.6c1.2,0.1,3.1,0.1,5.7,0.1c2.1,0,3.9,0,5.3-0.1l-0.1,0.6
			c-0.7,0-1.3,0.1-1.6,0.2c-0.4,0.1-0.6,0.4-0.9,0.7c-0.2,0.3-0.4,0.9-0.6,1.6l-4,14.9c-0.2,0.7-0.3,1.2-0.3,1.5
			c0,0.3,0.1,0.5,0.2,0.6c0.1,0.1,0.3,0.2,0.6,0.3c0.3,0.1,0.7,0.1,1.2,0.1h0.5c0.7,0,1.5-0.2,2.3-0.6c0.8-0.4,1.6-1,2.4-1.8
			c0.8-0.8,1.4-1.9,2-3.2h0.7C537.4,57,537.2,57.9,536.9,59z"/>
		<path fill="#5E615C" d="M540.1,49.1c1.2-2.3,2.9-4.2,5.1-5.8c2.2-1.5,4.7-2.3,7.4-2.3c1.8,0,3.4,0.3,4.8,0.9
			c1.3,0.6,2.4,1.4,3.1,2.5c0.7,1.1,1.1,2.4,1.1,3.9c0,2.3-0.6,4.6-1.8,6.9c-1.2,2.3-2.9,4.2-5.1,5.8c-2.2,1.5-4.7,2.3-7.4,2.3
			c-1.8,0-3.4-0.3-4.8-0.9s-2.4-1.4-3.1-2.5c-0.7-1.1-1.1-2.4-1.1-3.9C538.2,53.8,538.8,51.5,540.1,49.1z M548.6,43.8
			c-1.2,1.4-2.1,3.3-2.8,5.6c-0.7,2.3-1.1,4.6-1.1,7c0,1.3,0.1,2.4,0.3,3.4c0.2,1,0.5,1.7,0.9,2.2s0.9,0.8,1.4,0.8
			c1.3,0,2.5-0.7,3.7-2.2s2.1-3.3,2.8-5.6c0.7-2.3,1.1-4.6,1.1-7c0-1.3-0.1-2.4-0.3-3.4c-0.2-1-0.5-1.7-0.9-2.2
			c-0.4-0.5-0.9-0.8-1.4-0.8C551,41.6,549.8,42.4,548.6,43.8z"/>
		<path fill="#5E615C" d="M577.8,47.4h-0.6c0.1-0.5,0.2-1.1,0.2-1.6c0-1.2-0.4-2.2-1.2-2.9c-0.8-0.7-1.8-1-3.2-1
			c-1,0-1.7,0.2-2.3,0.7c-0.6,0.5-0.9,1.2-0.9,2.2c0,1.3,0.7,2.8,2.2,4.5c1.5,1.7,2.6,3.1,3.4,4.1c0.8,1.1,1.1,2.3,1.1,3.7
			c0,1.4-0.5,2.5-1.4,3.4c-0.9,0.9-2.1,1.6-3.4,2c-1.4,0.4-2.7,0.6-3.9,0.6c-1,0-1.9,0-2.5-0.1c-0.7-0.1-1.2-0.2-1.7-0.4
			c-0.5-0.2-1-0.5-1.7-0.8c-0.5-0.3-0.9-0.4-1-0.4c-0.2,0-0.3,0-0.5,0.1c-0.1,0.1-0.2,0.2-0.4,0.5c-0.1,0.2-0.3,0.6-0.5,1H559
			c0.7-1.6,1.4-4,2.1-7.2h0.6c-0.2,0.5-0.3,1.2-0.3,2.1c0,1.5,0.4,2.7,1.3,3.5c0.9,0.8,2.1,1.2,3.6,1.2c1.3,0,2.2-0.2,2.7-0.7
			c0.5-0.5,0.8-1.2,0.8-2c0-1.1-0.3-2.2-0.8-3.1c-0.5-0.9-1.5-2.3-3-4.2c-1.5-1.9-2.3-3.6-2.3-5.2c0-1.3,0.4-2.4,1.2-3.4
			c0.8-0.9,1.8-1.6,3-2.1c1.2-0.5,2.4-0.7,3.7-0.7c0.9,0,1.6,0.1,2.3,0.2c0.7,0.2,1.2,0.3,1.5,0.5c0.3,0.1,0.8,0.4,1.5,0.7
			c0.1,0,0.3,0.1,0.5,0.2s0.4,0.2,0.5,0.2c0.2,0,0.3-0.1,0.5-0.4c0.2-0.2,0.3-0.7,0.5-1.2h0.6C578.8,43.2,578.2,45.2,577.8,47.4z"/>
	</g>
	<g>
		<path fill="#83867E" d="M43.3,81.6V94H14.1v13.6h27.8V120H14.1v24.7H0V81.6H43.3z"/>
		<path fill="#83867E" d="M92.3,144.7l-5.9-13.6H60l-5.9,13.6h-15l27.3-63.1H80l27.3,63.1H92.3z M73.2,100.4l-7.9,18.3h15.8
			L73.2,100.4z"/>
		<path fill="#83867E" d="M154.3,81.6h14.1v63.1h-14.1l-30.1-39.6v39.6h-14.1V81.6h13.2l31,40.6V81.6z"/>
		<path fill="#83867E" d="M206.1,93.8v50.9H192V93.8h-17.9V81.6H224v12.2H206.1z"/>
		<path fill="#83867E" d="M270.1,144.7l-5.9-13.6h-26.5l-5.9,13.6h-15l27.3-63.1h13.6l27.3,63.1H270.1z M251.1,100.4l-7.9,18.3h15.8
			L251.1,100.4z"/>
		<path fill="#83867E" d="M302.2,94.2c-1.4,1.1-2,2.6-2,4.4c0,1.8,0.8,3.3,2.5,4.4c1.7,1.1,5.5,2.4,11.5,3.8c6,1.5,10.6,3.7,14,6.6
			c3.3,3,5,7.3,5,12.9c0,5.7-2.1,10.3-6.4,13.8c-4.2,3.5-9.8,5.3-16.8,5.3c-10,0-19-3.7-27-11.1l8.4-10.3c6.8,6,13.1,8.9,18.9,8.9
			c2.6,0,4.6-0.6,6.1-1.7c1.5-1.1,2.2-2.6,2.2-4.5s-0.8-3.4-2.3-4.5c-1.6-1.1-4.7-2.2-9.3-3.4c-7.3-1.7-12.7-4-16.1-6.8
			c-3.4-2.8-5.1-7.2-5.1-13.2c0-6,2.2-10.6,6.5-13.9c4.3-3.3,9.7-4.9,16.1-4.9c4.2,0,8.4,0.7,12.6,2.2c4.2,1.4,7.9,3.5,11,6.1
			l-7.1,10.3c-5.5-4.2-11.1-6.2-17-6.2C305.4,92.5,303.6,93.1,302.2,94.2z"/>
		<path fill="#83867E" d="M397.1,105L380,139.5h-8.4l-17-34.5v39.7h-14.1V81.6h19.1l16.3,34.7l16.3-34.7h19v63.1h-14.1V105z"/>
		<path fill="#83867E" d="M467.2,144.7l-5.9-13.6h-26.5l-5.9,13.6h-15l27.3-63.1h13.6l27.3,63.1H467.2z M448.1,100.4l-7.9,18.3H456
			L448.1,100.4z"/>
		<path fill="#83867E" d="M499.3,94.2c-1.4,1.1-2,2.6-2,4.4c0,1.8,0.8,3.3,2.5,4.4c1.7,1.1,5.5,2.4,11.5,3.8c6,1.5,10.6,3.7,14,6.6
			c3.3,3,5,7.3,5,12.9c0,5.7-2.1,10.3-6.4,13.8c-4.2,3.5-9.8,5.3-16.8,5.3c-10,0-19-3.7-27-11.1l8.4-10.3c6.8,6,13.1,8.9,18.9,8.9
			c2.6,0,4.6-0.6,6.1-1.7c1.5-1.1,2.2-2.6,2.2-4.5s-0.8-3.4-2.3-4.5c-1.6-1.1-4.7-2.2-9.3-3.4c-7.3-1.7-12.7-4-16.1-6.8
			c-3.4-2.8-5.1-7.2-5.1-13.2c0-6,2.2-10.6,6.5-13.9c4.3-3.3,9.7-4.9,16.1-4.9c4.2,0,8.4,0.7,12.6,2.2c4.2,1.4,7.9,3.5,11,6.1
			l-7.1,10.3c-5.5-4.2-11.1-6.2-17-6.2C502.5,92.5,500.6,93.1,499.3,94.2z"/>
	</g>
</g>
</svg>
