<?xml version="1.0" encoding="utf-8"?>
<!-- Generator: Adobe Illustrator 18.1.1, SVG Export Plug-In . SVG Version: 6.00 Build 0)  -->
<svg version="1.1" id="Capa_1" xmlns="http://www.w3.org/2000/svg" xmlns:xlink="http://www.w3.org/1999/xlink" x="0px" y="0px"
	 viewBox="0 0 227.9 227.9" enable-background="new 0 0 227.9 227.9" xml:space="preserve">
<rect x="0" y="0" fill="#D3A682" width="227.9" height="227.9"/>
<g>
	<path fill="#5E615C" d="M190.9,104.2c-0.1-2.7-2.1-2.8-2.1-2.8c-5.2-0.4-4.7-0.7-6.5-1.8c-20-11.8-53.9-2.6-61.6,5
		c-1.6-0.7-7.5-1-7.5-1s-5.9,0.3-7.4,1c-7.6-7.6-41.6-16.8-61.6-4.9c-1.8,1.1-1.3,1.3-6.5,1.8c0,0-2,0.1-2,2.8
		c-0.1,2.6-0.1,2.1-0.1,2.5c0,0.4,0.2,1,2,1c1.8,0,2.8,0,2.8,2.7c0,2.6-2.5,33.1,19.9,38.5c20.3,4.9,38.3-2.1,45.5-32.7
		c0,0,1-6.8,7.6-6.6c6.6,0.2,7.5,6.6,7.5,6.6c7.2,30.6,25.2,37.6,45.6,32.7c22.4-5.4,19.9-35.9,19.9-38.6c0-2.6,0.9-2.7,2.7-2.7
		c1.7,0,2-0.6,2-1C191,106.3,191,106.8,190.9,104.2z M102.9,117.2c-4.1,27.4-20.8,32.5-33.9,32c-13.1-0.5-25-9.6-26.5-27.5
		c-1.5-18,7.1-25.3,22.6-25.2C72.8,96.6,106,96.2,102.9,117.2z M184.1,121.6c-1.5,18-13.3,27-26.4,27.6c-13.1,0.5-29.8-4.6-33.9-32
		c-3.2-21,30-20.7,37.7-20.7C177,96.4,185.6,103.7,184.1,121.6z"/>
</g>
</svg>
