<?xml version="1.0" encoding="utf-8"?>
<!-- Generator: Adobe Illustrator 18.1.1, SVG Export Plug-In . SVG Version: 6.00 Build 0)  -->
<svg version="1.1" id="Capa_1" xmlns="http://www.w3.org/2000/svg" xmlns:xlink="http://www.w3.org/1999/xlink" x="0px" y="0px"
	 viewBox="0 0 1025.8 122.4" enable-background="new 0 0 1025.8 122.4" xml:space="preserve">
<g>
	<g>
		<g>
			<path fill="#C1BFB1" d="M331.7,1h9.7v43.4h-9.7V1z"/>
			<path fill="#C1BFB1" d="M382.1,6.7c4.1,3.8,6.2,9.1,6.2,15.8s-2,12.1-6.1,16c-4,3.9-10.2,5.9-18.5,5.9h-14.8V1h15.3
				C372,1,377.9,2.9,382.1,6.7z M375,32.5c2.4-2.2,3.6-5.5,3.6-9.7s-1.2-7.5-3.6-9.8c-2.4-2.3-6-3.4-11-3.4h-5.4v26.4h6.1
				C369.2,35.8,372.6,34.7,375,32.5z"/>
			<path fill="#C1BFB1" d="M424.9,1v8.6h-21.6v8.9h19.4v8.3h-19.4v9h22.3v8.6h-32V1H424.9z"/>
			<path fill="#C1BFB1" d="M466.9,38.4c-4.4,4.3-9.8,6.4-16.2,6.4c-6.4,0-11.8-2.1-16.2-6.4c-4.4-4.3-6.6-9.6-6.6-16
				c0-6.4,2.2-11.7,6.6-16c4.4-4.3,9.8-6.4,16.2-6.4c6.4,0,11.8,2.1,16.2,6.4c4.4,4.3,6.6,9.6,6.6,16
				C473.5,28.8,471.3,34.1,466.9,38.4z M463.6,22.4c0-3.9-1.2-7.2-3.7-9.9c-2.5-2.7-5.5-4.1-9.2-4.1c-3.6,0-6.7,1.4-9.2,4.1
				c-2.5,2.7-3.7,6-3.7,9.9c0,3.9,1.2,7.2,3.7,9.9c2.5,2.7,5.5,4.1,9.2,4.1c3.6,0,6.7-1.4,9.2-4.1C462.4,29.6,463.6,26.3,463.6,22.4
				z"/>
			<path fill="#C1BFB1" d="M478.6,44.4V1h9.7v34.8h18.5v8.6H478.6z"/>
			<path fill="#C1BFB1" d="M546.1,38.4c-4.4,4.3-9.8,6.4-16.2,6.4c-6.4,0-11.8-2.1-16.2-6.4c-4.4-4.3-6.6-9.6-6.6-16
				c0-6.4,2.2-11.7,6.6-16c4.4-4.3,9.8-6.4,16.2-6.4c6.4,0,11.8,2.1,16.2,6.4c4.4,4.3,6.6,9.6,6.6,16
				C552.7,28.8,550.5,34.1,546.1,38.4z M542.8,22.4c0-3.9-1.2-7.2-3.7-9.9c-2.5-2.7-5.5-4.1-9.2-4.1c-3.6,0-6.7,1.4-9.2,4.1
				c-2.5,2.7-3.7,6-3.7,9.9c0,3.9,1.2,7.2,3.7,9.9c2.5,2.7,5.5,4.1,9.2,4.1c3.6,0,6.7-1.4,9.2-4.1C541.5,29.6,542.8,26.3,542.8,22.4
				z"/>
			<path fill="#C1BFB1" d="M585.9,22.3h9.7v15.4c-4.3,4.8-10.3,7.2-17.9,7.2c-6.4,0-11.7-2.1-16.1-6.3c-4.3-4.2-6.5-9.6-6.5-16
				c0-6.4,2.2-11.8,6.6-16.1c4.4-4.3,9.7-6.5,16-6.5c6.2,0,11.6,2,16.2,6.1l-5,7.3c-1.9-1.7-3.7-2.9-5.4-3.5c-1.6-0.6-3.4-1-5.3-1
				c-3.7,0-6.8,1.3-9.3,3.8c-2.5,2.5-3.8,5.8-3.8,9.9c0,4.1,1.2,7.4,3.6,9.8c2.4,2.5,5.3,3.7,8.7,3.7c3.4,0,6.1-0.6,8.4-1.9V22.3z"
				/>
			<path fill="#C1BFB1" d="M601.2,1h9.7v43.4h-9.7V1z"/>
			<path fill="#C1BFB1" d="M649.4,44.4l-4-9.4h-18.2l-4,9.4h-10.3L631.6,1h9.4l18.8,43.4H649.4z M636.3,13.9l-5.5,12.6h10.9
				L636.3,13.9z"/>
			<path fill="#C1BFB1" d="M671.5,9.7c-0.9,0.8-1.4,1.8-1.4,3c0,1.3,0.6,2.3,1.7,3c1.1,0.7,3.8,1.6,7.9,2.6c4.1,1,7.3,2.5,9.6,4.6
				c2.3,2,3.4,5,3.4,8.9c0,3.9-1.5,7-4.4,9.5c-2.9,2.4-6.8,3.6-11.5,3.6c-6.9,0-13.1-2.5-18.6-7.6l5.8-7.1c4.7,4.1,9,6.1,13,6.1
				c1.8,0,3.2-0.4,4.2-1.1c1-0.8,1.5-1.8,1.5-3.1c0-1.3-0.5-2.3-1.6-3.1c-1.1-0.8-3.2-1.5-6.4-2.3c-5.1-1.2-8.7-2.8-11.1-4.7
				c-2.3-1.9-3.5-4.9-3.5-9.1s1.5-7.3,4.4-9.5c3-2.2,6.7-3.4,11.1-3.4c2.9,0,5.8,0.5,8.7,1.5s5.4,2.4,7.6,4.2l-4.9,7.1
				c-3.8-2.9-7.7-4.3-11.7-4.3C673.7,8.5,672.4,8.9,671.5,9.7z"/>
			<path fill="#C1BFB1" d="M287.7,61c4.1,3.8,6.2,9.1,6.2,15.8s-2,12.1-6.1,16c-4,3.9-10.2,5.9-18.5,5.9h-14.8V55.3h15.3
				C277.7,55.3,283.6,57.2,287.7,61z M280.6,86.8c2.4-2.2,3.6-5.5,3.6-9.7s-1.2-7.5-3.6-9.8c-2.4-2.3-6-3.4-11-3.4h-5.4v26.4h6.1
				C274.8,90.2,278.2,89,280.6,86.8z"/>
			<path fill="#C1BFB1" d="M330.5,55.3V64h-21.6v8.9h19.4v8.3h-19.4v9h22.3v8.6h-32V55.3H330.5z"/>
			<path fill="#C1BFB1" d="M350,98.7V55.3h9.7v34.8h18.5v8.6H350z"/>
			<path fill="#C1BFB1" d="M413.1,98.7l-4-9.4h-18.2l-4,9.4h-10.3l18.8-43.4h9.4l18.8,43.4H413.1z M400,68.2l-5.5,12.6h10.9
				L400,68.2z"/>
			<path fill="#C1BFB1" d="M473.8,69.7c0,7-2.8,11.4-8.3,13.5l11,15.5h-11.9L455,84.9h-6.7v13.8h-9.7V55.3h16.5
				c6.7,0,11.6,1.1,14.4,3.4S473.8,64.7,473.8,69.7z M462.2,74.9c1.2-1.1,1.8-2.8,1.8-5.1s-0.6-3.9-1.9-4.8s-3.4-1.3-6.5-1.3h-7.3
				v12.9h7.1C458.7,76.5,461,76,462.2,74.9z"/>
			<path fill="#C1BFB1" d="M512,55.3V64h-21.6v8.9h19.4v8.3h-19.4v9h22.3v8.6h-32V55.3H512z"/>
			<path fill="#C1BFB1" d="M548.1,59.2c3,2.6,4.6,6.6,4.6,11.9c0,5.4-1.6,9.3-4.7,11.8c-3.1,2.5-7.9,3.7-14.3,3.7h-5.8v12.1h-9.7
				V55.3h15.3C540.2,55.3,545,56.6,548.1,59.2z M541,76.3c1.2-1.3,1.7-3.2,1.7-5.7c0-2.5-0.8-4.3-2.3-5.3c-1.5-1.1-3.9-1.6-7-1.6
				h-5.5v14.6h6.5C537.6,78.2,539.8,77.6,541,76.3z"/>
			<path fill="#C1BFB1" d="M568.6,87.5c1.6,2,3.8,3,6.5,3c2.7,0,4.9-1,6.5-3c1.6-2,2.4-4.8,2.4-8.2v-24h9.7v24.3
				c0,6.3-1.7,11.1-5.2,14.5c-3.5,3.4-7.9,5.1-13.3,5.1c-5.4,0-9.9-1.7-13.4-5.1c-3.5-3.4-5.2-8.2-5.2-14.5V55.3h9.7v24
				C566.2,82.8,567,85.5,568.6,87.5z"/>
			<path fill="#C1BFB1" d="M619.6,98.7h-19V55.3h16.9c2.9,0,5.5,0.4,7.6,1.1c2.1,0.7,3.7,1.7,4.8,2.9c1.9,2.2,2.9,4.8,2.9,7.6
				c0,3.4-1.1,5.9-3.3,7.6c-0.7,0.6-1.3,0.9-1.6,1.1c-0.3,0.1-0.8,0.4-1.6,0.7c2.7,0.6,4.8,1.8,6.4,3.6c1.6,1.8,2.4,4.1,2.4,6.9
				c0,3-1,5.7-3.1,8C629.8,97.4,625.6,98.7,619.6,98.7z M610.3,72.9h4.6c2.7,0,4.7-0.3,6-0.9c1.3-0.6,2-1.8,2-3.8s-0.6-3.2-1.8-3.8
				c-1.2-0.6-3.2-0.9-6.1-0.9h-4.7V72.9z M610.3,90.5h6.6c2.8,0,4.9-0.3,6.2-1c1.4-0.7,2.1-2,2.1-4s-0.7-3.3-2.2-4
				c-1.5-0.6-3.8-1-7-1h-5.7V90.5z"/>
			<path fill="#C1BFB1" d="M640.3,98.7V55.3h9.7v34.8h18.5v8.6H640.3z"/>
			<path fill="#C1BFB1" d="M672.5,55.3h9.7v43.4h-9.7V55.3z"/>
			<path fill="#C1BFB1" d="M709.7,90.2c4.8,0,8.7-1.9,11.7-5.7l6.2,6.4c-4.9,5.5-10.7,8.3-17.4,8.3c-6.7,0-12.2-2.1-16.5-6.3
				c-4.3-4.2-6.5-9.6-6.5-16c0-6.4,2.2-11.8,6.6-16.1c4.4-4.3,9.8-6.5,16.2-6.5c7.1,0,13.1,2.7,17.9,8.1l-6,6.8
				c-3.1-3.8-6.9-5.7-11.4-5.7c-3.6,0-6.8,1.2-9.3,3.6c-2.6,2.4-3.9,5.6-3.9,9.6s1.2,7.3,3.7,9.7S706.2,90.2,709.7,90.2z"/>
			<path fill="#C1BFB1" d="M762.7,98.7l-4-9.4h-18.2l-4,9.4h-10.3l18.8-43.4h9.4L773,98.7H762.7z M749.6,68.2l-5.5,12.6H755
				L749.6,68.2z"/>
		</g>
	</g>
	<g>
		<g>
			<g>
				<rect x="734.6" y="11.9" fill="#83867E" width="28.4" height="2.7"/>
			</g>
			<g>
				<rect x="734.6" y="19.6" fill="#83867E" width="39.9" height="2.7"/>
			</g>
			<g>
				<rect x="734.6" y="27.2" fill="#83867E" width="28.4" height="2.7"/>
			</g>
		</g>
		<g>
			<g>
				<rect x="263.8" y="11.9" fill="#83867E" width="28.4" height="2.7"/>
			</g>
			<g>
				<rect x="252.3" y="19.6" fill="#83867E" width="39.9" height="2.7"/>
			</g>
			<g>
				<rect x="263.8" y="27.2" fill="#83867E" width="28.4" height="2.7"/>
			</g>
		</g>
	</g>
	<g>
		<rect x="2" y="114.6" fill="#83867E" width="417" height="2"/>
	</g>
	<g>
		<g>
			<g>
				<path fill="#CDB37C" d="M437.4,108.4l1.9,3.8c0.1,0.2,0.3,0.3,0.5,0.3l4.2,0.6c0.5,0.1,0.7,0.7,0.3,1.1l-3,2.9
					c-0.1,0.1-0.2,0.3-0.2,0.5l0.7,4.1c0.1,0.5-0.4,0.9-0.9,0.7l-3.7-2c-0.2-0.1-0.4-0.1-0.6,0l-3.7,2c-0.5,0.2-1-0.1-0.9-0.7
					l0.7-4.1c0-0.2,0-0.4-0.2-0.5l-3-2.9c-0.4-0.4-0.2-1,0.3-1.1l4.2-0.6c0.2,0,0.4-0.2,0.5-0.3l1.9-3.8
					C436.5,107.9,437.2,107.9,437.4,108.4z"/>
			</g>
			<g>
				<path fill="#CDB37C" d="M477.2,108.4l1.9,3.8c0.1,0.2,0.3,0.3,0.5,0.3l4.2,0.6c0.5,0.1,0.7,0.7,0.3,1.1l-3,2.9
					c-0.1,0.1-0.2,0.3-0.2,0.5l0.7,4.1c0.1,0.5-0.4,0.9-0.9,0.7l-3.7-2c-0.2-0.1-0.4-0.1-0.6,0l-3.7,2c-0.5,0.2-1-0.1-0.9-0.7
					l0.7-4.1c0-0.2,0-0.4-0.2-0.5l-3-2.9c-0.4-0.4-0.2-1,0.3-1.1l4.2-0.6c0.2,0,0.4-0.2,0.5-0.3l1.9-3.8
					C476.3,107.9,477,107.9,477.2,108.4z"/>
			</g>
			<g>
				<path fill="#CDB37C" d="M514.8,108.4l1.9,3.8c0.1,0.2,0.3,0.3,0.5,0.3l4.2,0.6c0.5,0.1,0.7,0.7,0.3,1.1l-3,2.9
					c-0.1,0.1-0.2,0.3-0.2,0.5l0.7,4.1c0.1,0.5-0.4,0.9-0.9,0.7l-3.7-2c-0.2-0.1-0.4-0.1-0.6,0l-3.7,2c-0.5,0.2-1-0.1-0.9-0.7
					l0.7-4.1c0-0.2,0-0.4-0.2-0.5l-3-2.9c-0.4-0.4-0.2-1,0.3-1.1l4.2-0.6c0.2,0,0.4-0.2,0.5-0.3l1.9-3.8
					C513.9,107.9,514.5,107.9,514.8,108.4z"/>
			</g>
			<g>
				<path fill="#CDB37C" d="M552.9,108.4l1.9,3.8c0.1,0.2,0.3,0.3,0.5,0.3l4.2,0.6c0.5,0.1,0.7,0.7,0.3,1.1l-3,2.9
					c-0.1,0.1-0.2,0.3-0.2,0.5l0.7,4.1c0.1,0.5-0.4,0.9-0.9,0.7l-3.7-2c-0.2-0.1-0.4-0.1-0.6,0l-3.7,2c-0.5,0.2-1-0.1-0.9-0.7
					l0.7-4.1c0-0.2,0-0.4-0.2-0.5l-3-2.9c-0.4-0.4-0.2-1,0.3-1.1l4.2-0.6c0.2,0,0.4-0.2,0.5-0.3l1.9-3.8
					C552,107.9,552.7,107.9,552.9,108.4z"/>
			</g>
			<g>
				<path fill="#CDB37C" d="M590.5,108.4l1.9,3.8c0.1,0.2,0.3,0.3,0.5,0.3l4.2,0.6c0.5,0.1,0.7,0.7,0.3,1.1l-3,2.9
					c-0.1,0.1-0.2,0.3-0.2,0.5l0.7,4.1c0.1,0.5-0.4,0.9-0.9,0.7l-3.7-2c-0.2-0.1-0.4-0.1-0.6,0l-3.7,2c-0.5,0.2-1-0.1-0.9-0.7
					l0.7-4.1c0-0.2,0-0.4-0.2-0.5l-3-2.9c-0.4-0.4-0.2-1,0.3-1.1l4.2-0.6c0.2,0,0.4-0.2,0.5-0.3l1.9-3.8
					C589.6,107.9,590.2,107.9,590.5,108.4z"/>
			</g>
		</g>
	</g>
	<g>
		<rect x="606" y="114.6" fill="#83867E" width="417" height="2"/>
	</g>
</g>
</svg>
