<?xml version="1.0" encoding="utf-8"?>
<!-- Generator: Adobe Illustrator 18.1.1, SVG Export Plug-In . SVG Version: 6.00 Build 0)  -->
<svg version="1.1" id="Capa_1" xmlns="http://www.w3.org/2000/svg" xmlns:xlink="http://www.w3.org/1999/xlink" x="0px" y="0px"
	 viewBox="0 0 481.4 76.1" enable-background="new 0 0 481.4 76.1" xml:space="preserve">
<g>
	<g>
		<path fill="#C1BFB1" d="M0.9,50.1v-49h10.9v39.3h20.9v9.7H0.9z"/>
		<path fill="#C1BFB1" d="M72.1,50.1l-4.6-10.6H47l-4.6,10.6H30.8L52,1.1h10.6l21.2,49H72.1z M57.3,15.7l-6.2,14.2h12.3L57.3,15.7z"
			/>
		<path fill="#C1BFB1" d="M140.7,17.4c0,7.9-3.1,12.9-9.3,15.2l12.4,17.5h-13.5l-10.9-15.6h-7.6v15.6h-10.9v-49h18.6
			c7.6,0,13.1,1.3,16.3,3.9C139.1,7.6,140.7,11.7,140.7,17.4z M127.5,23.2c1.4-1.2,2-3.1,2-5.8c0-2.6-0.7-4.5-2.1-5.4
			c-1.4-1-3.9-1.5-7.4-1.5h-8.2V25h8C123.6,25,126.2,24.4,127.5,23.2z"/>
		<path fill="#C1BFB1" d="M183.8,1.1v9.7h-24.4V21h21.9v9.3h-21.9v10.2h25.2v9.7h-36.1v-49H183.8z"/>
		<path fill="#C1BFB1" d="M224.5,5.5c3.4,2.9,5.2,7.4,5.2,13.5s-1.8,10.5-5.3,13.3c-3.5,2.8-8.9,4.2-16.2,4.2h-6.5v13.7h-10.9v-49
			h17.3C215.6,1.1,221.1,2.6,224.5,5.5z M216.5,24.8c1.3-1.5,2-3.6,2-6.5c0-2.8-0.9-4.8-2.6-6c-1.7-1.2-4.4-1.8-8-1.8h-6.2V27h7.4
			C212.7,27,215.2,26.3,216.5,24.8z"/>
		<path fill="#C1BFB1" d="M247.7,37.5c1.8,2.3,4.3,3.4,7.4,3.4s5.5-1.1,7.3-3.4c1.8-2.3,2.7-5.4,2.7-9.3V1.1h10.9v27.4
			c0,7.1-2,12.6-5.9,16.4c-3.9,3.8-9,5.7-15.1,5.7c-6.1,0-11.2-1.9-15.1-5.8c-4-3.8-5.9-9.3-5.9-16.3V1.1H245v27.1
			C245,32.1,245.9,35.2,247.7,37.5z"/>
		<path fill="#C1BFB1" d="M305.4,50.1h-21.5v-49H303c3.3,0,6.2,0.4,8.6,1.2c2.4,0.8,4.2,1.9,5.4,3.2c2.2,2.5,3.3,5.4,3.3,8.6
			c0,3.8-1.2,6.7-3.7,8.6c-0.8,0.7-1.4,1.1-1.8,1.2c-0.3,0.2-0.9,0.4-1.8,0.8c3,0.7,5.5,2,7.3,4.1c1.8,2.1,2.7,4.7,2.7,7.7
			c0,3.4-1.2,6.4-3.5,9C316.8,48.6,312.1,50.1,305.4,50.1z M294.8,21h5.2c3,0,5.3-0.3,6.8-1c1.5-0.7,2.2-2.1,2.2-4.2s-0.7-3.6-2-4.3
			c-1.4-0.7-3.6-1.1-6.9-1.1h-5.3V21z M294.8,40.9h7.5c3.1,0,5.5-0.4,7-1.2c1.6-0.8,2.3-2.3,2.3-4.6s-0.8-3.8-2.5-4.5
			c-1.7-0.7-4.3-1.1-8-1.1h-6.5V40.9z"/>
		<path fill="#C1BFB1" d="M328.7,50.1v-49h10.9v39.3h20.9v9.7H328.7z"/>
		<path fill="#C1BFB1" d="M365,1.1H376v49H365V1.1z"/>
		<path fill="#C1BFB1" d="M407.1,40.5c5.4,0,9.8-2.1,13.2-6.4l7,7.2c-5.6,6.3-12.1,9.4-19.7,9.4s-13.8-2.4-18.7-7.2
			c-4.9-4.8-7.3-10.8-7.3-18.1c0-7.3,2.5-13.3,7.5-18.2c5-4.9,11.1-7.3,18.3-7.3c8,0,14.8,3.1,20.2,9.2l-6.8,7.7
			c-3.5-4.3-7.8-6.5-12.9-6.5c-4.1,0-7.6,1.3-10.6,4c-2.9,2.7-4.4,6.3-4.4,10.9s1.4,8.2,4.1,11C399.8,39.1,403.1,40.5,407.1,40.5z"
			/>
		<path fill="#C1BFB1" d="M466.9,50.1l-4.6-10.6h-20.5l-4.6,10.6h-11.6l21.2-49h10.6l21.2,49H466.9z M452.1,15.7L446,29.9h12.3
			L452.1,15.7z"/>
	</g>
	<g>
		<path fill="#FFFFFF" d="M284.4,63.2h-0.5c0.2-0.9,0.2-1.6,0.2-2c0-0.7-0.1-1.3-0.4-1.7c-0.3-0.5-0.6-0.8-1.1-1
			c-0.4-0.2-0.9-0.3-1.5-0.3c-1.2,0-2.4,0.5-3.4,1.5c-1.1,1-1.9,2.4-2.6,4.1c-0.6,1.7-1,3.5-1,5.4c0,1.6,0.3,2.7,0.8,3.5
			c0.5,0.8,1.3,1.1,2.3,1.1c0.5,0,1.1-0.1,1.6-0.4c0.6-0.2,1-0.6,1.4-1c0.4-0.4,0.8-0.9,1.1-1.5c0.3-0.5,0.7-1.3,1-2.2h0.5
			c-0.7,2.7-1.2,4.6-1.4,5.6H281c0-0.3,0.1-0.6,0.1-0.8c0-0.4-0.1-0.6-0.3-0.6c-0.1,0-0.3,0.1-0.5,0.2c-1.5,1-3,1.5-4.7,1.5
			c-2.3,0-4-0.5-5.2-1.6c-1.1-1-1.7-2.5-1.7-4.4c0-1.9,0.5-3.7,1.5-5.4s2.5-3.1,4.3-4.2c1.8-1.1,3.8-1.6,6-1.6
			c0.9,0,1.5,0.1,2.1,0.4c0.5,0.3,1,0.6,1.4,1.1c0.1,0.1,0.2,0.2,0.3,0.2c0.3,0,0.6-0.5,0.9-1.4h0.5C285.4,59.2,284.9,61,284.4,63.2
			z"/>
		<path fill="#FFFFFF" d="M285.5,63.7c0.9-1.8,2.3-3.3,4-4.5c1.7-1.2,3.6-1.8,5.8-1.8c1.4,0,2.7,0.2,3.7,0.7s1.8,1.1,2.4,1.9
			c0.6,0.8,0.8,1.9,0.8,3c0,1.8-0.5,3.5-1.4,5.3s-2.3,3.3-4,4.5c-1.7,1.2-3.6,1.8-5.7,1.8c-1.4,0-2.7-0.2-3.7-0.7s-1.8-1.1-2.4-1.9
			c-0.5-0.8-0.8-1.9-0.8-3C284.1,67.3,284.6,65.5,285.5,63.7z M292.2,59.6c-0.9,1.1-1.6,2.6-2.2,4.4c-0.6,1.8-0.8,3.6-0.8,5.4
			c0,1,0.1,1.9,0.3,2.6s0.4,1.3,0.7,1.7c0.3,0.4,0.7,0.6,1.1,0.6c1,0,1.9-0.6,2.8-1.7c0.9-1.1,1.6-2.6,2.2-4.4
			c0.6-1.8,0.8-3.6,0.8-5.4c0-1-0.1-1.9-0.3-2.6c-0.2-0.7-0.4-1.3-0.7-1.7c-0.3-0.4-0.7-0.6-1.1-0.6
			C294.1,57.9,293.1,58.5,292.2,59.6z"/>
		<path fill="#FFFFFF" d="M316.9,58.2c0.7-1,1.5-1.5,2.5-1.5c0.5,0,1,0.1,1.4,0.3c0.4,0.2,0.7,0.5,1,0.9c0.2,0.4,0.3,0.8,0.3,1.3
			c0,0.5-0.1,0.9-0.3,1.3c-0.2,0.4-0.5,0.7-0.9,0.9c-0.4,0.2-0.8,0.3-1.3,0.3c-0.6,0-1.1-0.2-1.5-0.5c-0.4-0.3-0.6-0.7-0.6-1.3
			c0-0.5,0.1-0.9,0.3-1.2c0.2-0.4,0.5-0.7,0.9-0.9c0.4-0.2,0.8-0.4,1.3-0.5c-0.1-0.1-0.3-0.2-0.6-0.2c-0.4,0-0.7,0.1-1.1,0.3
			c-0.3,0.2-0.6,0.5-0.9,0.9c-0.7,1-1.4,2.8-2.2,5.4c-0.7,2.6-1.6,6.1-2.5,10.6h-0.5L306,63.4c-1.3,6.3-2.4,10.1-3.3,11.3
			c-0.3,0.5-0.7,0.8-1.1,1.1c-0.4,0.3-0.9,0.4-1.4,0.4c-0.5,0-1-0.1-1.4-0.3c-0.4-0.2-0.7-0.5-1-0.9c-0.2-0.4-0.3-0.8-0.3-1.3
			c0-0.5,0.1-0.9,0.3-1.3c0.2-0.4,0.5-0.7,0.9-0.9c0.4-0.2,0.8-0.3,1.3-0.3c0.6,0,1.1,0.2,1.5,0.5c0.4,0.3,0.6,0.7,0.6,1.3
			c0,0.5-0.1,0.9-0.3,1.2c-0.2,0.4-0.5,0.7-0.9,0.9c-0.4,0.2-0.8,0.4-1.2,0.5c0.1,0.1,0.3,0.2,0.6,0.2c0.8,0,1.5-0.4,2-1.3
			c0.6-0.9,1.2-2.5,1.8-4.9c0.6-2.4,1.3-5.4,2-9.1v0c0.1-0.4,0.1-0.8,0.1-1c0-0.3-0.1-0.5-0.2-0.6c-0.1-0.1-0.3-0.2-0.5-0.3
			c-0.3-0.1-0.6-0.1-1.1-0.1l0.1-0.5c0.5,0,1.2,0.1,2.1,0.1c0.7,0,1.4,0,1.9-0.1l5.1,9.9C314.9,62.8,316,59.6,316.9,58.2z"/>
		<path fill="#FFFFFF" d="M332.2,62.4h-0.5c0.1-0.4,0.1-0.8,0.1-1.3c0-0.9-0.3-1.7-0.9-2.2c-0.6-0.5-1.4-0.8-2.5-0.8
			c-0.7,0-1.3,0.2-1.8,0.5c-0.5,0.4-0.7,0.9-0.7,1.7c0,1,0.6,2.2,1.7,3.5c1.1,1.3,2,2.4,2.6,3.2c0.6,0.8,0.9,1.8,0.9,2.8
			c0,1.1-0.4,1.9-1.1,2.7c-0.7,0.7-1.6,1.2-2.7,1.6c-1.1,0.3-2.1,0.5-3.1,0.5c-0.8,0-1.4,0-1.9-0.1s-0.9-0.2-1.3-0.3
			s-0.8-0.4-1.3-0.6c-0.4-0.2-0.7-0.3-0.8-0.3c-0.1,0-0.3,0-0.4,0.1c-0.1,0.1-0.2,0.2-0.3,0.4c-0.1,0.2-0.2,0.4-0.4,0.8h-0.5
			c0.5-1.2,1.1-3.1,1.6-5.6h0.5c-0.1,0.4-0.2,0.9-0.2,1.6c0,1.2,0.3,2.1,1,2.7s1.6,0.9,2.8,0.9c1,0,1.7-0.2,2.1-0.6
			c0.4-0.4,0.6-0.9,0.6-1.6c0-0.9-0.2-1.7-0.6-2.4c-0.4-0.7-1.2-1.8-2.4-3.3s-1.8-2.8-1.8-4.1c0-1,0.3-1.9,0.9-2.6
			c0.6-0.7,1.4-1.2,2.4-1.6c0.9-0.4,1.9-0.5,2.8-0.5c0.7,0,1.3,0.1,1.8,0.2c0.5,0.1,0.9,0.2,1.2,0.4c0.3,0.1,0.6,0.3,1.2,0.5
			c0.1,0,0.2,0.1,0.4,0.2c0.2,0.1,0.3,0.1,0.4,0.1c0.1,0,0.2-0.1,0.4-0.3c0.1-0.2,0.3-0.5,0.4-0.9h0.5
			C333,59.1,332.5,60.7,332.2,62.4z"/>
		<path fill="#FFFFFF" d="M338.2,58.4c-1.2,0-2.1,0.1-2.7,0.4c0.6,0.1,1.1,0.3,1.5,0.7c0.4,0.4,0.6,0.9,0.6,1.5
			c0,0.4-0.1,0.8-0.3,1.2s-0.5,0.6-0.8,0.8c-0.3,0.2-0.7,0.3-1.1,0.3c-0.4,0-0.8-0.1-1.1-0.3c-0.3-0.2-0.6-0.5-0.7-0.8
			c-0.2-0.3-0.2-0.7-0.2-1.1c0-0.5,0.1-1,0.4-1.4c0.3-0.5,0.7-0.9,1.3-1.2c0.8-0.4,1.8-0.6,3.1-0.6c0.7,0,1.4,0,2.1,0.1
			c0.7,0,1.7,0.1,3.1,0.2c1.4,0.1,2.4,0.2,3.1,0.2c0.8,0,1.5-0.1,2.1-0.2c-0.3-0.3-0.5-0.6-0.7-0.9c-0.2-0.4-0.3-0.8-0.3-1.3
			c0-0.5,0.1-0.9,0.3-1.2c0.2-0.3,0.5-0.6,0.8-0.8c0.3-0.2,0.7-0.3,1.2-0.3s0.8,0.1,1.2,0.3c0.3,0.2,0.6,0.4,0.8,0.7
			c0.2,0.3,0.3,0.6,0.3,1c0,1.1-0.7,2-2,2.5c-1,0.4-2.4,0.6-4.1,0.6l-0.7,0l-3.4,12.8c-0.1,0.4-0.2,0.8-0.2,1c0,0.4,0.1,0.7,0.4,0.9
			s0.8,0.3,1.5,0.3l-0.1,0.5c-1.1,0-2.7-0.1-4.9-0.1c-2.1,0-3.6,0-4.6,0.1l0.1-0.5c0.7,0,1.2-0.1,1.6-0.2c0.4-0.1,0.7-0.4,0.9-0.7
			c0.2-0.3,0.4-0.8,0.5-1.3l3.5-13.1C339.8,58.4,338.9,58.4,338.2,58.4z"/>
		<path fill="#FFFFFF" d="M363.4,71.5l-0.1,0.3c-0.3,1-0.8,1.7-1.4,2.2c-0.7,0.5-1.5,0.7-2.7,0.7c-1.1,0-2-0.2-2.5-0.6
			c-0.6-0.4-0.8-1-0.8-1.8c0-0.2,0-0.4,0-0.6l0.4-2.7c0-0.3,0.1-0.5,0.1-0.8c0-0.6-0.2-1-0.5-1.3c-0.3-0.3-0.9-0.5-1.8-0.5l-1.4,5.5
			c-0.2,0.6-0.2,1-0.2,1.1c0,0.3,0.1,0.5,0.3,0.6c0.2,0.1,0.6,0.2,1.2,0.2l-0.1,0.5c-1.1,0-2.5-0.1-4.2-0.1c-2,0-3.4,0-4.3,0.1
			l0.1-0.5c0.6,0,1-0.1,1.3-0.2c0.3-0.1,0.5-0.3,0.7-0.5c0.2-0.3,0.3-0.7,0.5-1.3l3.1-11.6c0.1-0.5,0.2-0.9,0.2-1.1
			c0-0.3-0.1-0.5-0.3-0.7s-0.6-0.2-1.2-0.3l0.1-0.5c0.9,0,2.2,0.1,4,0.1c0.6,0,1.3,0,1.9,0c0.7,0,1.2,0,1.7,0c1.4,0,2.6,0.1,3.5,0.3
			c0.9,0.2,1.6,0.6,2,1c0.4,0.5,0.7,1.1,0.7,1.9c0,0.9-0.3,1.8-0.9,2.5c-0.6,0.7-1.5,1.3-2.6,1.8s-2.4,0.7-3.9,0.9
			c1,0.1,1.9,0.2,2.6,0.4c0.7,0.2,1.3,0.4,1.7,0.8c0.4,0.4,0.6,0.9,0.6,1.5c0,0.2,0,0.4,0,0.5l-0.4,2.4c0,0.2-0.1,0.4-0.1,0.5
			c0,0.6,0.3,0.9,0.8,0.9c0.3,0,0.6-0.1,0.8-0.4c0.2-0.2,0.4-0.6,0.6-1.1l0.1-0.3H363.4z M356.4,65.3c0.7-0.4,1.3-1,1.7-1.8
			c0.4-0.8,0.7-1.8,0.7-2.9c0-1.5-0.5-2.3-1.6-2.3c-0.3,0-0.6,0.1-0.8,0.3c-0.2,0.2-0.3,0.5-0.5,1l-1.7,6.5
			C355,65.9,355.7,65.7,356.4,65.3z"/>
		<path fill="#FFFFFF" d="M378.4,59.8c0-0.3-0.1-0.6-0.2-0.8c-0.1-0.2-0.3-0.3-0.6-0.4c-0.3-0.1-0.6-0.2-1.1-0.3l0.1-0.5
			c0.6,0,1.5,0.1,2.6,0.1c0.8,0,1.5,0,2-0.1l-0.1,0.5c-0.5,0.1-0.9,0.3-1.2,0.5s-0.5,0.6-0.7,1s-0.4,1.2-0.7,2.1l-1.4,5.6
			c-0.6,2.2-1.3,3.8-2.3,5c-0.6,0.7-1.3,1.2-2.1,1.6c-0.8,0.4-1.7,0.6-2.7,0.6c-1.4,0-2.5-0.2-3.3-0.6s-1.5-0.9-1.9-1.6
			c-0.3-0.6-0.5-1.3-0.5-2.1c0-0.7,0.1-1.7,0.4-2.8l1.9-7.3c0.1-0.5,0.2-0.9,0.2-1.1c0-0.2-0.1-0.4-0.2-0.5
			c-0.1-0.1-0.3-0.2-0.5-0.3c-0.2,0-0.5-0.1-0.9-0.1l0.1-0.5c0.9,0,2.4,0.1,4.4,0.1c1.6,0,3,0,4.1-0.1l-0.1,0.5
			c-0.6,0-1,0.1-1.3,0.2c-0.3,0.1-0.5,0.3-0.7,0.5c-0.2,0.3-0.3,0.7-0.5,1.3l-2.1,7.7c-0.4,1.5-0.6,2.6-0.6,3.5
			c0,1.5,0.6,2.3,1.7,2.3c1.6,0,2.9-0.5,3.9-1.6c0.9-1.1,1.7-2.5,2.2-4.5l1.4-5.4C378.3,61.1,378.4,60.2,378.4,59.8z"/>
		<path fill="#FFFFFF" d="M394.4,63.2h-0.5c0.2-0.9,0.2-1.6,0.2-2c0-0.7-0.1-1.3-0.4-1.7c-0.3-0.5-0.6-0.8-1.1-1
			c-0.4-0.2-0.9-0.3-1.5-0.3c-1.2,0-2.4,0.5-3.4,1.5c-1.1,1-1.9,2.4-2.6,4.1c-0.6,1.7-1,3.5-1,5.4c0,1.6,0.3,2.7,0.8,3.5
			c0.5,0.8,1.3,1.1,2.3,1.1c0.5,0,1.1-0.1,1.6-0.4c0.6-0.2,1-0.6,1.4-1c0.4-0.4,0.8-0.9,1.1-1.5c0.3-0.5,0.7-1.3,1-2.2h0.5
			c-0.7,2.7-1.2,4.6-1.4,5.6H391c0-0.3,0.1-0.6,0.1-0.8c0-0.4-0.1-0.6-0.3-0.6c-0.1,0-0.3,0.1-0.5,0.2c-1.5,1-3,1.5-4.7,1.5
			c-2.3,0-4-0.5-5.2-1.6c-1.1-1-1.7-2.5-1.7-4.4c0-1.9,0.5-3.7,1.5-5.4s2.5-3.1,4.3-4.2c1.8-1.1,3.8-1.6,6-1.6
			c0.9,0,1.5,0.1,2.1,0.4c0.5,0.3,1,0.6,1.4,1.1c0.1,0.1,0.2,0.2,0.3,0.2c0.3,0,0.6-0.5,0.9-1.4h0.5C395.4,59.2,394.9,61,394.4,63.2
			z"/>
		<path fill="#FFFFFF" d="M409.8,63.2h-0.5c0.2-0.9,0.2-1.6,0.2-2c0-0.7-0.1-1.3-0.4-1.7c-0.3-0.5-0.6-0.8-1.1-1
			c-0.4-0.2-0.9-0.3-1.5-0.3c-1.2,0-2.4,0.5-3.4,1.5s-1.9,2.4-2.6,4.1s-1,3.5-1,5.4c0,1.6,0.3,2.7,0.8,3.5c0.5,0.8,1.3,1.1,2.3,1.1
			c0.5,0,1.1-0.1,1.6-0.4c0.6-0.2,1-0.6,1.4-1c0.4-0.4,0.8-0.9,1.1-1.5c0.3-0.5,0.7-1.3,1-2.2h0.5c-0.7,2.7-1.2,4.6-1.4,5.6h-0.5
			c0-0.3,0.1-0.6,0.1-0.8c0-0.4-0.1-0.6-0.3-0.6c-0.1,0-0.3,0.1-0.5,0.2c-1.5,1-3,1.5-4.7,1.5c-2.3,0-4-0.5-5.2-1.6
			c-1.1-1-1.7-2.5-1.7-4.4c0-1.9,0.5-3.7,1.5-5.4s2.5-3.1,4.3-4.2c1.8-1.1,3.8-1.6,6-1.6c0.9,0,1.5,0.1,2.1,0.4
			c0.5,0.3,1,0.6,1.4,1.1c0.1,0.1,0.2,0.2,0.3,0.2c0.3,0,0.6-0.5,0.9-1.4h0.5C410.8,59.2,410.3,61,409.8,63.2z"/>
		<path fill="#FFFFFF" d="M414.7,73c0,0.2,0.1,0.4,0.2,0.5c0.1,0.1,0.3,0.2,0.5,0.3c0.2,0,0.5,0.1,0.9,0.1l-0.1,0.5
			c-1,0-2.5-0.1-4.4-0.1c-1.8,0-3.2,0-4.1,0.1l0.1-0.5c0.5,0,0.9-0.1,1.2-0.2c0.3-0.1,0.5-0.3,0.7-0.6c0.2-0.3,0.3-0.7,0.5-1.3
			l3.1-11.6c0.1-0.5,0.2-0.9,0.2-1.1c0-0.2-0.1-0.4-0.2-0.5c-0.1-0.1-0.3-0.2-0.5-0.3c-0.2,0-0.5-0.1-0.9-0.1l0.1-0.5
			c0.9,0,2.2,0.1,4.1,0.1c1.8,0,3.2,0,4.4-0.1l-0.1,0.5c-0.6,0-1,0.1-1.3,0.2c-0.3,0.1-0.5,0.3-0.7,0.5c-0.2,0.3-0.3,0.7-0.5,1.3
			l-3.1,11.6C414.7,72.4,414.7,72.8,414.7,73z"/>
		<path fill="#FFFFFF" d="M419.6,63.7c0.9-1.8,2.3-3.3,4-4.5c1.7-1.2,3.6-1.8,5.8-1.8c1.4,0,2.7,0.2,3.7,0.7s1.8,1.1,2.4,1.9
			c0.6,0.8,0.8,1.9,0.8,3c0,1.8-0.5,3.5-1.4,5.3s-2.3,3.3-4,4.5c-1.7,1.2-3.6,1.8-5.7,1.8c-1.4,0-2.7-0.2-3.7-0.7s-1.8-1.1-2.4-1.9
			c-0.5-0.8-0.8-1.9-0.8-3C418.2,67.3,418.7,65.5,419.6,63.7z M426.3,59.6c-0.9,1.1-1.7,2.6-2.2,4.4c-0.6,1.8-0.8,3.6-0.8,5.4
			c0,1,0.1,1.9,0.3,2.6c0.2,0.7,0.4,1.3,0.7,1.7c0.3,0.4,0.7,0.6,1.1,0.6c1,0,1.9-0.6,2.8-1.7c0.9-1.1,1.7-2.6,2.2-4.4
			c0.6-1.8,0.8-3.6,0.8-5.4c0-1-0.1-1.9-0.3-2.6c-0.2-0.7-0.4-1.3-0.7-1.7c-0.3-0.4-0.7-0.6-1.1-0.6
			C428.2,57.9,427.2,58.5,426.3,59.6z"/>
		<path fill="#FFFFFF" d="M451,58.2c0.7-1,1.5-1.5,2.5-1.5c0.5,0,1,0.1,1.4,0.3c0.4,0.2,0.7,0.5,1,0.9c0.2,0.4,0.3,0.8,0.3,1.3
			c0,0.5-0.1,0.9-0.3,1.3c-0.2,0.4-0.5,0.7-0.9,0.9c-0.4,0.2-0.8,0.3-1.3,0.3c-0.6,0-1.1-0.2-1.5-0.5c-0.4-0.3-0.6-0.7-0.6-1.3
			c0-0.5,0.1-0.9,0.3-1.2c0.2-0.4,0.5-0.7,0.9-0.9c0.4-0.2,0.8-0.4,1.3-0.5c-0.1-0.1-0.3-0.2-0.6-0.2c-0.4,0-0.7,0.1-1.1,0.3
			c-0.3,0.2-0.6,0.5-0.9,0.9c-0.7,1-1.4,2.8-2.2,5.4c-0.7,2.6-1.6,6.1-2.5,10.6h-0.5l-6.1-11.1c-1.3,6.3-2.4,10.1-3.3,11.3
			c-0.3,0.5-0.7,0.8-1.1,1.1c-0.4,0.3-0.9,0.4-1.4,0.4c-0.5,0-1-0.1-1.4-0.3c-0.4-0.2-0.7-0.5-1-0.9c-0.2-0.4-0.3-0.8-0.3-1.3
			c0-0.5,0.1-0.9,0.3-1.3c0.2-0.4,0.5-0.7,0.9-0.9c0.4-0.2,0.8-0.3,1.3-0.3c0.6,0,1.1,0.2,1.5,0.5c0.4,0.3,0.6,0.7,0.6,1.3
			c0,0.5-0.1,0.9-0.3,1.2c-0.2,0.4-0.5,0.7-0.9,0.9c-0.4,0.2-0.8,0.4-1.2,0.5c0.1,0.1,0.3,0.2,0.6,0.2c0.8,0,1.5-0.4,2-1.3
			c0.6-0.9,1.2-2.5,1.8-4.9c0.6-2.4,1.3-5.4,2-9.1v0c0.1-0.4,0.1-0.8,0.1-1c0-0.3-0.1-0.5-0.2-0.6c-0.1-0.1-0.3-0.2-0.5-0.3
			c-0.3-0.1-0.6-0.1-1.1-0.1l0.1-0.5c0.5,0,1.2,0.1,2.1,0.1c0.7,0,1.4,0,1.9-0.1l5.1,9.9C449,62.8,450.1,59.6,451,58.2z"/>
		<path fill="#FFFFFF" d="M463.8,57.9c2.2,0,3.9,0,4.8-0.1c-0.4,1-0.7,1.9-0.9,2.8c-0.1,0.4-0.2,0.8-0.3,1.5h-0.5
			c0-0.9-0.1-1.6-0.3-2.2s-0.5-0.9-0.9-1.2c-0.4-0.2-0.9-0.3-1.6-0.3H464c-0.5,0-0.9,0-1.2,0.1c-0.3,0.1-0.5,0.3-0.7,0.5
			s-0.3,0.7-0.5,1.3l-1.5,5.5h0.4c0.5,0,1-0.1,1.4-0.4c0.4-0.2,0.8-0.6,1.2-1c0.3-0.4,0.6-0.8,0.8-1.3h0.5c-0.2,0.6-0.4,1.2-0.5,1.7
			c-0.1,0.5-0.2,0.9-0.3,1.2c-0.2,0.8-0.4,1.7-0.6,2.9h-0.5c0-0.4-0.1-0.8-0.2-1.2s-0.4-0.7-0.7-1c-0.3-0.3-0.8-0.4-1.3-0.4h-0.2
			l-1.5,5.6c-0.1,0.5-0.2,0.9-0.2,1.1c0,0.2,0.1,0.4,0.2,0.5c0.1,0.1,0.3,0.2,0.5,0.2c0.2,0,0.5,0.1,0.9,0.1h0.3
			c0.8,0,1.4-0.1,2-0.4c0.6-0.3,1.1-0.7,1.6-1.3c0.5-0.6,1-1.4,1.5-2.5h0.5c-0.1,0.3-0.3,0.8-0.5,1.7c-0.2,0.9-0.4,1.9-0.6,3
			c-1.1,0-2.8-0.1-5.3-0.1c-3.6,0-6.3,0-8.1,0.1l0.1-0.5c0.6,0,1-0.1,1.3-0.2s0.5-0.3,0.7-0.5s0.3-0.7,0.5-1.3l3.1-11.6
			c0.1-0.5,0.2-0.9,0.2-1.1c0-0.2-0.1-0.4-0.2-0.5c-0.1-0.1-0.3-0.2-0.5-0.3c-0.2,0-0.5-0.1-0.9-0.1l0.1-0.5
			C457.5,57.9,460.2,57.9,463.8,57.9z"/>
		<path fill="#FFFFFF" d="M480,62.4h-0.5c0.1-0.4,0.1-0.8,0.1-1.3c0-0.9-0.3-1.7-0.9-2.2c-0.6-0.5-1.4-0.8-2.5-0.8
			c-0.7,0-1.3,0.2-1.8,0.5c-0.5,0.4-0.7,0.9-0.7,1.7c0,1,0.6,2.2,1.7,3.5c1.1,1.3,2,2.4,2.6,3.2c0.6,0.8,0.9,1.8,0.9,2.8
			c0,1.1-0.4,1.9-1.1,2.7c-0.7,0.7-1.6,1.2-2.7,1.6c-1.1,0.3-2.1,0.5-3.1,0.5c-0.8,0-1.4,0-1.9-0.1s-0.9-0.2-1.3-0.3
			s-0.8-0.4-1.3-0.6c-0.4-0.2-0.7-0.3-0.8-0.3c-0.1,0-0.3,0-0.4,0.1c-0.1,0.1-0.2,0.2-0.3,0.4c-0.1,0.2-0.2,0.4-0.4,0.8h-0.5
			c0.5-1.2,1.1-3.1,1.6-5.6h0.5c-0.1,0.4-0.2,0.9-0.2,1.6c0,1.2,0.3,2.1,1,2.7s1.6,0.9,2.8,0.9c1,0,1.7-0.2,2.1-0.6
			c0.4-0.4,0.6-0.9,0.6-1.6c0-0.9-0.2-1.7-0.6-2.4c-0.4-0.7-1.2-1.8-2.4-3.3s-1.8-2.8-1.8-4.1c0-1,0.3-1.9,0.9-2.6
			c0.6-0.7,1.4-1.2,2.4-1.6c0.9-0.4,1.9-0.5,2.8-0.5c0.7,0,1.3,0.1,1.8,0.2c0.5,0.1,0.9,0.2,1.2,0.4c0.3,0.1,0.6,0.3,1.2,0.5
			c0.1,0,0.2,0.1,0.4,0.2c0.2,0.1,0.3,0.1,0.4,0.1c0.1,0,0.2-0.1,0.4-0.3c0.1-0.2,0.3-0.5,0.4-0.9h0.5
			C480.8,59.1,480.3,60.7,480,62.4z"/>
	</g>
</g>
</svg>
