<?xml version="1.0" encoding="utf-8"?>
<!-- Generator: Adobe Illustrator 18.1.1, SVG Export Plug-In . SVG Version: 6.00 Build 0)  -->
<svg version="1.1" id="Capa_1" xmlns="http://www.w3.org/2000/svg" xmlns:xlink="http://www.w3.org/1999/xlink" x="0px" y="0px"
	 viewBox="0 0 478 125.7" enable-background="new 0 0 478 125.7" xml:space="preserve">
<g>
	<g>
		<g>
			<path fill="#C1BFB1" d="M81.5,16.2H90v38.1h-8.5v-15H66.3v15h-8.5V16.2h8.5v15.9h15.2V16.2z"/>
			<path fill="#C1BFB1" d="M128.7,49c-3.9,3.8-8.6,5.6-14.2,5.6c-5.6,0-10.4-1.9-14.2-5.6s-5.8-8.4-5.8-14c0-5.6,1.9-10.3,5.8-14
				c3.9-3.8,8.6-5.6,14.2-5.6c5.6,0,10.4,1.9,14.2,5.6c3.9,3.8,5.8,8.4,5.8,14C134.5,40.6,132.6,45.3,128.7,49z M125.8,35
				c0-3.4-1.1-6.3-3.3-8.7c-2.2-2.4-4.9-3.6-8-3.6s-5.9,1.2-8,3.6c-2.2,2.4-3.3,5.3-3.3,8.7c0,3.4,1.1,6.3,3.3,8.7
				c2.2,2.4,4.9,3.6,8,3.6s5.9-1.2,8-3.6C124.7,41.3,125.8,38.4,125.8,35z"/>
			<path fill="#C1BFB1" d="M165.6,16.2h8.5v38.1h-8.5l-18.2-23.9v23.9H139V16.2h8l18.7,24.5V16.2z"/>
			<path fill="#C1BFB1" d="M212.9,49c-3.9,3.8-8.6,5.6-14.2,5.6c-5.6,0-10.4-1.9-14.2-5.6s-5.8-8.4-5.8-14c0-5.6,1.9-10.3,5.8-14
				c3.9-3.8,8.6-5.6,14.2-5.6c5.6,0,10.4,1.9,14.2,5.6c3.9,3.8,5.8,8.4,5.8,14C218.6,40.6,216.7,45.3,212.9,49z M210,35
				c0-3.4-1.1-6.3-3.3-8.7c-2.2-2.4-4.9-3.6-8-3.6s-5.9,1.2-8,3.6c-2.2,2.4-3.3,5.3-3.3,8.7c0,3.4,1.1,6.3,3.3,8.7
				c2.2,2.4,4.9,3.6,8,3.6s5.9-1.2,8-3.6C208.9,41.3,210,38.4,210,35z"/>
			<path fill="#C1BFB1" d="M254,28.8c0,6.1-2.4,10.1-7.3,11.8l9.7,13.6H246l-8.5-12.2h-5.9v12.2h-8.5V16.2h14.5c5.9,0,10.2,1,12.7,3
				C252.8,21.2,254,24.4,254,28.8z M243.8,33.4c1.1-0.9,1.6-2.4,1.6-4.5c0-2.1-0.5-3.5-1.6-4.2c-1.1-0.8-3-1.1-5.7-1.1h-6.4v11.3
				h6.2C240.7,34.8,242.7,34.3,243.8,33.4z"/>
			<path fill="#C1BFB1" d="M287.2,54.3l-3.5-8.2h-16l-3.5,8.2h-9.1l16.5-38.1h8.2l16.5,38.1H287.2z M275.7,27.5l-4.8,11.1h9.5
				L275.7,27.5z"/>
			<path fill="#C1BFB1" d="M314.6,54.3h-16.7V16.2h14.8c2.6,0,4.8,0.3,6.7,0.9c1.9,0.6,3.3,1.5,4.2,2.5c1.7,2,2.6,4.2,2.6,6.7
				c0,3-1,5.2-2.9,6.7c-0.7,0.5-1.1,0.8-1.4,1c-0.3,0.1-0.7,0.3-1.4,0.6c2.4,0.5,4.2,1.6,5.6,3.2s2.1,3.6,2.1,6c0,2.7-0.9,5-2.7,7
				C323.5,53.1,319.9,54.3,314.6,54.3z M306.4,31.6h4c2.4,0,4.1-0.3,5.3-0.8c1.1-0.5,1.7-1.6,1.7-3.3c0-1.7-0.5-2.8-1.6-3.4
				c-1.1-0.5-2.8-0.8-5.3-0.8h-4.1V31.6z M306.4,47.1h5.8c2.4,0,4.3-0.3,5.5-0.9c1.2-0.6,1.8-1.8,1.8-3.5c0-1.8-0.6-2.9-1.9-3.5
				c-1.3-0.6-3.4-0.8-6.2-0.8h-5V47.1z"/>
			<path fill="#C1BFB1" d="M332.8,54.3V16.2h8.5v30.5h16.3v7.6H332.8z"/>
			<path fill="#C1BFB1" d="M388.5,16.2v7.6h-19v7.9h17.1v7.3h-17.1v7.9h19.6v7.5H361V16.2H388.5z"/>
			<path fill="#C1BFB1" d="M402.9,23.8c-0.8,0.7-1.2,1.6-1.2,2.7c0,1.1,0.5,2,1.5,2.6s3.3,1.4,6.9,2.3s6.4,2.2,8.4,4
				c2,1.8,3,4.4,3,7.8c0,3.4-1.3,6.2-3.8,8.3c-2.6,2.1-5.9,3.2-10.1,3.2c-6,0-11.5-2.2-16.3-6.7l5.1-6.2c4.1,3.6,7.9,5.4,11.4,5.4
				c1.6,0,2.8-0.3,3.7-1c0.9-0.7,1.3-1.6,1.3-2.7s-0.5-2.1-1.4-2.7c-0.9-0.7-2.8-1.4-5.6-2c-4.4-1.1-7.7-2.4-9.7-4.1
				c-2.1-1.7-3.1-4.3-3.1-8c0-3.6,1.3-6.4,3.9-8.4c2.6-2,5.8-2.9,9.7-2.9c2.5,0,5.1,0.4,7.6,1.3c2.5,0.9,4.8,2.1,6.7,3.7l-4.3,6.2
				c-3.3-2.5-6.7-3.8-10.3-3.8C404.8,22.8,403.7,23.1,402.9,23.8z"/>
			<path fill="#C1BFB1" d="M20.8,94.5c4.2,0,7.6-1.7,10.3-5l5.5,5.6c-4.3,4.9-9.4,7.3-15.3,7.3c-5.9,0-10.7-1.9-14.5-5.6
				C2.9,93.2,1,88.5,1,82.8s1.9-10.4,5.8-14.2C10.7,64.9,15.4,63,21,63c6.3,0,11.5,2.4,15.7,7.1l-5.3,6c-2.7-3.3-6-5-10-5
				c-3.2,0-5.9,1-8.2,3.1c-2.3,2.1-3.4,4.9-3.4,8.5s1.1,6.4,3.2,8.5C15.1,93.4,17.7,94.5,20.8,94.5z"/>
			<path fill="#C1BFB1" d="M71.7,96.8c-3.9,3.8-8.6,5.6-14.2,5.6c-5.6,0-10.4-1.9-14.2-5.6s-5.8-8.4-5.8-14c0-5.6,1.9-10.3,5.8-14
				c3.9-3.8,8.6-5.6,14.2-5.6c5.6,0,10.4,1.9,14.2,5.6c3.9,3.8,5.8,8.4,5.8,14C77.5,88.3,75.6,93,71.7,96.8z M68.8,82.7
				c0-3.4-1.1-6.3-3.3-8.7c-2.2-2.4-4.9-3.6-8-3.6s-5.9,1.2-8,3.6c-2.2,2.4-3.3,5.3-3.3,8.7c0,3.4,1.1,6.3,3.3,8.7
				c2.2,2.4,4.9,3.6,8,3.6s5.9-1.2,8-3.6C67.7,89,68.8,86.1,68.8,82.7z"/>
			<path fill="#C1BFB1" d="M108.6,63.9h8.5V102h-8.5L90.5,78.1V102H82V63.9h8l18.7,24.5V63.9z"/>
			<path fill="#C1BFB1" d="M139.9,71.3V102h-8.5V71.3h-10.8v-7.4h30.1v7.4H139.9z"/>
			<path fill="#C1BFB1" d="M185.2,76.6c0,6.1-2.4,10.1-7.3,11.8l9.7,13.6h-10.5l-8.5-12.2h-5.9V102h-8.5V63.9h14.5
				c5.9,0,10.2,1,12.7,3C183.9,68.9,185.2,72.1,185.2,76.6z M174.9,81.1c1.1-0.9,1.6-2.4,1.6-4.5c0-2.1-0.5-3.5-1.6-4.2
				c-1.1-0.8-3-1.1-5.7-1.1h-6.4v11.3h6.2C171.9,82.5,173.9,82,174.9,81.1z"/>
			<path fill="#C1BFB1" d="M191.2,63.9h8.5V102h-8.5V63.9z"/>
			<path fill="#C1BFB1" d="M223,102h-16.7V63.9h14.8c2.6,0,4.8,0.3,6.7,0.9c1.9,0.6,3.3,1.5,4.2,2.5c1.7,2,2.6,4.2,2.6,6.7
				c0,3-1,5.2-2.9,6.7c-0.7,0.5-1.1,0.8-1.4,1c-0.3,0.1-0.7,0.3-1.4,0.6c2.4,0.5,4.2,1.6,5.6,3.2s2.1,3.6,2.1,6c0,2.7-0.9,5-2.7,7
				C231.9,100.8,228.2,102,223,102z M214.8,79.3h4c2.4,0,4.1-0.3,5.3-0.8c1.1-0.5,1.7-1.6,1.7-3.3c0-1.7-0.5-2.8-1.6-3.4
				c-1.1-0.5-2.8-0.8-5.3-0.8h-4.1V79.3z M214.8,94.8h5.8c2.4,0,4.3-0.3,5.5-0.9c1.2-0.6,1.8-1.8,1.8-3.5c0-1.8-0.6-2.9-1.9-3.5
				c-1.3-0.6-3.4-0.8-6.2-0.8h-5V94.8z"/>
			<path fill="#C1BFB1" d="M251.3,92.2c1.4,1.8,3.3,2.6,5.7,2.6s4.3-0.9,5.7-2.6c1.4-1.8,2.1-4.2,2.1-7.2V63.9h8.5v21.3
				c0,5.5-1.5,9.8-4.6,12.7c-3.1,3-7,4.4-11.7,4.4s-8.7-1.5-11.8-4.5c-3.1-3-4.6-7.2-4.6-12.7V63.9h8.5v21.1
				C249.1,88,249.8,90.4,251.3,92.2z"/>
			<path fill="#C1BFB1" d="M295.8,102h-8.5V87l-13.2-23.1h9.2l8.2,14.2l8.2-14.2h9.2L295.8,87V102z"/>
			<path fill="#C1BFB1" d="M337.9,63.9v7.6h-19v7.9h17.1v7.3h-17.1v7.9h19.6v7.5h-28.1V63.9H337.9z"/>
			<path fill="#C1BFB1" d="M370,63.9h8.5V102H370l-18.2-23.9V102h-8.5V63.9h8L370,88.4V63.9z"/>
			<path fill="#C1BFB1" d="M401.3,71.3V102h-8.5V71.3H382v-7.4h30.1v7.4H401.3z"/>
			<path fill="#C1BFB1" d="M443.1,63.9v7.6h-19v7.9h17.1v7.3h-17.1v7.9h19.6v7.5h-28.1V63.9H443.1z"/>
			<path fill="#C1BFB1" d="M457.4,71.5c-0.8,0.7-1.2,1.6-1.2,2.7c0,1.1,0.5,2,1.5,2.6s3.3,1.4,6.9,2.3s6.4,2.2,8.4,4
				c2,1.8,3,4.4,3,7.8c0,3.4-1.3,6.2-3.8,8.3c-2.6,2.1-5.9,3.2-10.1,3.2c-6,0-11.5-2.2-16.3-6.7l5.1-6.2c4.1,3.6,7.9,5.4,11.4,5.4
				c1.6,0,2.8-0.3,3.7-1c0.9-0.7,1.3-1.6,1.3-2.7s-0.5-2.1-1.4-2.7c-0.9-0.7-2.8-1.4-5.6-2c-4.4-1.1-7.7-2.4-9.7-4.1
				c-2.1-1.7-3.1-4.3-3.1-8c0-3.6,1.3-6.4,3.9-8.4c2.6-2,5.8-2.9,9.7-2.9c2.5,0,5.1,0.4,7.6,1.3c2.5,0.9,4.8,2.1,6.7,3.7l-4.3,6.2
				c-3.3-2.5-6.7-3.8-10.3-3.8C459.4,70.5,458.2,70.8,457.4,71.5z"/>
		</g>
	</g>
	<g>
		<g>
			<g>
				<rect x="441.5" y="26.1" fill="#83867E" width="25.6" height="2.4"/>
			</g>
			<g>
				<rect x="441.5" y="33" fill="#83867E" width="35.9" height="2.4"/>
			</g>
			<g>
				<rect x="441.5" y="39.9" fill="#83867E" width="25.6" height="2.4"/>
			</g>
		</g>
		<g>
			<g>
				<rect x="10.1" y="26.1" fill="#83867E" width="25.6" height="2.4"/>
			</g>
			<g>
				<rect x="-0.2" y="33" fill="#83867E" width="35.9" height="2.4"/>
			</g>
			<g>
				<rect x="10.1" y="39.9" fill="#83867E" width="25.6" height="2.4"/>
			</g>
		</g>
	</g>
	<g>
		<rect fill="#83867E" width="477" height="2"/>
	</g>
	<g>
		<rect y="118" fill="#83867E" width="147" height="2"/>
	</g>
	<g>
		<g>
			<g>
				<path fill="#CDB37C" d="M170.2,113l1.7,3.4c0.1,0.2,0.2,0.3,0.4,0.3l3.7,0.5c0.5,0.1,0.6,0.6,0.3,0.9l-2.7,2.6
					c-0.1,0.1-0.2,0.3-0.2,0.5l0.6,3.7c0.1,0.5-0.4,0.8-0.8,0.6l-3.3-1.8c-0.2-0.1-0.4-0.1-0.5,0l-3.3,1.8c-0.4,0.2-0.9-0.1-0.8-0.6
					l0.6-3.7c0-0.2,0-0.4-0.2-0.5l-2.7-2.6c-0.3-0.3-0.1-0.9,0.3-0.9l3.7-0.5c0.2,0,0.3-0.1,0.4-0.3l1.7-3.4
					C169.4,112.6,170,112.6,170.2,113z"/>
			</g>
			<g>
				<path fill="#CDB37C" d="M206,113l1.7,3.4c0.1,0.2,0.2,0.3,0.4,0.3l3.7,0.5c0.5,0.1,0.6,0.6,0.3,0.9l-2.7,2.6
					c-0.1,0.1-0.2,0.3-0.2,0.5l0.6,3.7c0.1,0.5-0.4,0.8-0.8,0.6l-3.3-1.8c-0.2-0.1-0.4-0.1-0.5,0l-3.3,1.8c-0.4,0.2-0.9-0.1-0.8-0.6
					l0.6-3.7c0-0.2,0-0.4-0.2-0.5l-2.7-2.6c-0.3-0.3-0.1-0.9,0.3-0.9l3.7-0.5c0.2,0,0.3-0.1,0.4-0.3l1.7-3.4
					C205.2,112.6,205.8,112.6,206,113z"/>
			</g>
			<g>
				<path fill="#CDB37C" d="M239.8,113l1.7,3.4c0.1,0.2,0.2,0.3,0.4,0.3l3.7,0.5c0.5,0.1,0.6,0.6,0.3,0.9l-2.7,2.6
					c-0.1,0.1-0.2,0.3-0.2,0.5l0.6,3.7c0.1,0.5-0.4,0.8-0.8,0.6l-3.3-1.8c-0.2-0.1-0.4-0.1-0.5,0l-3.3,1.8c-0.4,0.2-0.9-0.1-0.8-0.6
					l0.6-3.7c0-0.2,0-0.4-0.2-0.5l-2.7-2.6c-0.3-0.3-0.1-0.9,0.3-0.9l3.7-0.5c0.2,0,0.3-0.1,0.4-0.3l1.7-3.4
					C239,112.6,239.6,112.6,239.8,113z"/>
			</g>
			<g>
				<path fill="#CDB37C" d="M274.2,113l1.7,3.4c0.1,0.2,0.2,0.3,0.4,0.3l3.7,0.5c0.5,0.1,0.6,0.6,0.3,0.9l-2.7,2.6
					c-0.1,0.1-0.2,0.3-0.2,0.5l0.6,3.7c0.1,0.5-0.4,0.8-0.8,0.6l-3.3-1.8c-0.2-0.1-0.4-0.1-0.5,0l-3.3,1.8c-0.4,0.2-0.9-0.1-0.8-0.6
					l0.6-3.7c0-0.2,0-0.4-0.2-0.5l-2.7-2.6c-0.3-0.3-0.1-0.9,0.3-0.9l3.7-0.5c0.2,0,0.3-0.1,0.4-0.3l1.7-3.4
					C273.4,112.6,274,112.6,274.2,113z"/>
			</g>
			<g>
				<path fill="#CDB37C" d="M308,113l1.7,3.4c0.1,0.2,0.2,0.3,0.4,0.3l3.7,0.5c0.5,0.1,0.6,0.6,0.3,0.9l-2.7,2.6
					c-0.1,0.1-0.2,0.3-0.2,0.5l0.6,3.7c0.1,0.5-0.4,0.8-0.8,0.6l-3.3-1.8c-0.2-0.1-0.4-0.1-0.5,0l-3.3,1.8c-0.4,0.2-0.9-0.1-0.8-0.6
					l0.6-3.7c0-0.2,0-0.4-0.2-0.5l-2.7-2.6c-0.3-0.3-0.1-0.9,0.3-0.9l3.7-0.5c0.2,0,0.3-0.1,0.4-0.3l1.7-3.4
					C307.2,112.6,307.8,112.6,308,113z"/>
			</g>
		</g>
	</g>
	<g>
		<rect x="330" y="118" fill="#83867E" width="148" height="2"/>
	</g>
</g>
</svg>
