<?xml version="1.0" encoding="utf-8"?>
<!-- Generator: Adobe Illustrator 18.1.1, SVG Export Plug-In . SVG Version: 6.00 Build 0)  -->
<svg version="1.1" id="Capa_1" xmlns="http://www.w3.org/2000/svg" xmlns:xlink="http://www.w3.org/1999/xlink" x="0px" y="0px"
	 viewBox="0 0 168 167" enable-background="new 0 0 168 167" xml:space="preserve">
<g>
	<g>
		<path fill="#DDCDB0" d="M0,0v167h168V0H0z M147,120.4l-63,37.2l-63-37.2V46L84,8.8L147,46V120.4z"/>
	</g>
	<path fill="#D3BD9B" d="M85,4.3l1.8,1.2l63.9,37.2l1.3,1.2v2.4v74.4v2.4l-1.4,1.2l-63.8,37.2l-2.1,1.2l-2.2-1.2l-64.8-37.2
		l-2.8-1.2v-2.4V46.3v-2.4l2.8-1.2l65-37.2L85,4.3 M85.1-0.4L83,0.8L80.9,2L16.2,39.1l-2.6,1.1L11,41.3v2.6v2.4v74.4v2.4v2.6
		l2.5,1.1l2.5,1.1l64.5,37.1l0.1,0l0.1,0l2.2,1.2l1.9,1.1l1.9-1.1l2.1-1.2l0,0l0,0l63.9-37.2l0.2-0.1l0.2-0.1l1.4-1.2l1.4-1.2v-2
		v-2.4V46.3v-2.4v-2l-1.3-1.2l-1.4-1.2l-0.2-0.2l-0.2-0.1l-64-37.1L87.2,1L85.1-0.4L85.1-0.4z"/>
</g>
</svg>
